<!DOCTYPE svg PUBLIC "-//W3C//DTD SVG 20010904//EN" "http://www.w3.org/TR/2001/REC-SVG-20010904/DTD/svg10.dtd">
<svg version="1.0" xmlns="http://www.w3.org/2000/svg" width="1280px" height="800px" viewBox="0 0 12800 8000" preserveAspectRatio="xMidYMid meet">
<g id="layer101" fill="#86350a" stroke="none">
<path d="M0 4000 l0 -4000 6400 0 6400 0 0 4000 0 4000 -6400 0 -6400 0 0 -4000z"/>
</g>
<g id="layer102" fill="#a65e1c" stroke="none">
<path d="M0 4000 l0 -4000 6400 0 6400 0 0 4000 0 4000 -6400 0 -6400 0 0 -4000z m6422 979 c4 -74 10 -214 13 -312 4 -99 11 -175 15 -170 21 23 53 156 60 249 7 89 12 113 45 183 31 65 37 88 32 121 -4 29 -1 40 8 40 42 0 50 -105 14 -187 -17 -37 -23 -79 -29 -183 -5 -74 -13 -148 -18 -165 -6 -16 -13 -43 -16 -60 -6 -27 -5 -28 6 -10 7 11 65 134 129 274 64 139 122 258 128 264 7 7 14 8 21 1 7 -7 -21 -95 -86 -270 -126 -340 -126 -340 -116 -329 73 78 122 145 155 215 32 67 55 99 110 151 43 42 73 81 82 105 16 48 29 50 33 5 5 -54 -4 -73 -67 -145 -43 -48 -70 -92 -92 -146 -18 -43 -58 -113 -90 -157 -31 -43 -56 -80 -54 -82 2 -2 106 92 231 208 125 116 233 211 240 211 8 0 14 -6 14 -14 0 -7 -94 -114 -209 -237 -114 -123 -207 -225 -206 -227 10 -11 176 88 226 134 58 53 106 80 211 118 31 12 54 28 65 47 18 30 36 33 41 8 7 -35 -43 -84 -126 -125 -57 -28 -103 -61 -154 -110 -40 -39 -101 -88 -135 -109 -35 -21 -63 -39 -63 -41 0 -4 147 48 398 141 100 37 186 65 189 61 18 -18 -32 -46 -290 -164 -294 -135 -306 -145 -145 -123 44 6 101 21 126 32 37 18 74 23 177 28 102 5 136 10 157 24 38 26 47 3 13 -33 -31 -33 -90 -50 -170 -50 -40 0 -81 -10 -145 -35 -50 -20 -124 -41 -165 -47 -70 -11 -103 -28 -54 -28 68 0 566 -22 576 -25 7 -2 10 -11 7 -18 -4 -11 -42 -16 -172 -21 -334 -13 -432 -19 -432 -27 0 -17 138 -52 236 -59 89 -7 113 -12 183 -45 65 -31 88 -37 121 -32 29 4 40 1 40 -8 0 -43 -104 -51 -185 -15 -39 18 -79 24 -180 31 -71 4 -146 12 -165 17 -19 6 -48 13 -65 16 -27 6 -28 5 -10 -6 11 -7 134 -65 274 -129 139 -64 258 -122 264 -128 7 -7 8 -14 1 -21 -7 -7 -64 10 -175 51 -90 34 -220 81 -289 105 l-125 44 60 -57 c39 -36 90 -70 145 -96 67 -32 100 -56 156 -114 49 -49 82 -75 103 -79 58 -12 46 -38 -16 -36 -43 2 -61 12 -133 77 -40 35 -87 64 -137 85 -82 34 -133 64 -198 114 -39 30 -38 29 15 -34 30 -35 124 -138 208 -229 144 -155 170 -191 139 -191 -8 0 -109 89 -226 198 -118 108 -220 201 -228 205 -30 18 70 -156 123 -214 53 -58 80 -106 118 -211 12 -31 28 -54 47 -65 30 -18 33 -36 8 -41 -34 -6 -84 43 -124 125 -29 58 -62 104 -116 160 -41 43 -90 104 -108 136 -18 31 -34 57 -36 57 -4 0 44 -137 137 -388 39 -106 68 -196 64 -199 -17 -17 -42 23 -115 182 -43 94 -98 213 -123 265 -25 52 -47 102 -50 110 -3 8 -3 -25 0 -75 3 -65 12 -114 33 -175 25 -72 29 -100 29 -188 0 -88 3 -110 20 -138 27 -43 8 -56 -30 -19 -33 31 -50 90 -50 170 0 37 -9 78 -25 118 -43 109 -65 181 -65 220 0 20 -4 37 -9 37 -8 0 -15 -98 -27 -423 -6 -156 -13 -192 -34 -171 -4 5 -13 139 -20 299 -6 159 -14 293 -19 298 -14 14 -60 -165 -64 -249 -3 -68 -9 -93 -42 -162 -31 -66 -37 -89 -32 -122 4 -29 1 -40 -8 -40 -42 0 -50 105 -14 187 17 38 23 78 29 188 5 90 14 157 25 187 28 78 12 75 -22 -4 -53 -125 -221 -480 -232 -491 -8 -8 -14 -8 -21 -1 -7 7 10 64 51 175 34 90 70 191 81 224 11 33 31 89 44 125 l24 65 -55 -60 c-34 -37 -72 -93 -97 -145 -32 -66 -57 -100 -111 -151 -42 -41 -73 -81 -81 -103 -16 -47 -30 -50 -34 -7 -5 54 4 73 67 145 41 46 70 92 92 144 35 86 46 105 106 182 23 30 40 56 38 58 -2 2 -106 -91 -231 -207 -125 -116 -233 -211 -240 -211 -32 0 -6 36 139 191 83 91 176 193 206 228 l55 63 -90 -47 c-49 -26 -113 -69 -141 -97 -51 -47 -101 -74 -205 -112 -31 -12 -54 -28 -65 -47 -18 -30 -36 -33 -41 -8 -6 34 43 84 125 124 59 30 104 63 165 120 46 44 109 93 141 110 67 33 88 54 30 29 -21 -9 -74 -28 -118 -44 -44 -15 -162 -58 -263 -95 -100 -37 -186 -65 -189 -61 -17 17 23 42 182 115 94 43 213 98 265 123 52 25 102 48 110 51 8 3 -3 4 -25 2 -22 -2 -71 -7 -110 -10 -38 -3 -90 -15 -115 -27 -35 -17 -73 -22 -175 -27 -102 -5 -136 -10 -157 -24 -38 -26 -47 -3 -13 33 31 33 90 50 170 50 42 0 81 10 158 41 57 23 127 43 160 46 116 12 36 23 -243 34 -157 6 -289 15 -294 20 -6 6 -6 12 0 18 5 5 139 14 298 20 159 7 294 15 300 18 21 14 -130 55 -231 63 -87 6 -113 13 -182 45 -65 31 -88 37 -121 32 -64 -8 -51 33 16 46 33 6 69 -1 154 -32 40 -14 86 -20 165 -22 69 -1 134 -9 174 -20 36 -10 66 -17 68 -15 2 1 -27 17 -64 34 -261 119 -476 221 -486 231 -7 7 -8 14 -1 21 7 7 95 -21 270 -86 340 -126 340 -126 329 -116 -80 75 -144 121 -213 153 -67 31 -97 53 -157 114 -49 51 -83 77 -104 81 -58 12 -46 38 16 36 43 -2 61 -12 133 -77 41 -35 87 -64 138 -85 42 -18 106 -53 141 -79 36 -25 72 -50 80 -55 29 -18 -31 52 -214 248 -102 110 -185 206 -185 213 0 31 36 5 191 -139 91 -84 192 -176 225 -205 l61 -52 -38 79 c-23 48 -61 104 -95 141 -53 58 -80 106 -118 211 -12 31 -28 54 -47 65 -30 18 -33 36 -8 41 35 7 84 -43 125 -126 28 -57 61 -103 110 -154 39 -40 88 -101 109 -135 21 -35 39 -63 41 -63 4 0 -48 147 -141 398 -37 100 -65 186 -61 189 18 18 45 -29 154 -267 65 -140 122 -263 128 -272 14 -26 6 128 -11 182 -7 25 -20 63 -29 85 -10 27 -15 76 -16 149 0 91 -3 114 -20 142 -27 43 -8 56 30 19 33 -31 50 -90 50 -170 0 -40 10 -81 35 -145 20 -50 41 -124 47 -165 11 -70 28 -103 28 -54 0 73 22 566 26 577 2 8 10 12 17 10 8 -3 14 -45 19 -139z"/>
<path d="M6387 4948 c-19 -452 -20 -488 -9 -488 6 0 12 19 14 43 l4 42 8 -42 c5 -24 13 -43 18 -43 9 0 8 84 -8 483 -4 86 -10 157 -14 157 -4 0 -10 -69 -13 -152z"/>
<path d="M6598 5039 c3 -32 -4 -59 -33 -121 -32 -68 -39 -94 -45 -181 -5 -60 -19 -137 -34 -186 -29 -95 -30 -101 -16 -101 6 0 10 6 10 14 0 7 7 27 16 42 l16 29 -7 -47 c-3 -27 -2 -48 2 -48 5 0 14 21 20 48 6 26 19 72 27 102 9 31 16 92 16 143 0 68 6 106 25 163 24 72 31 136 19 168 -11 30 -20 16 -16 -25z m-71 -466 c-4 -3 -7 0 -7 7 0 7 3 10 7 7 3 -4 3 -10 0 -14z m-10 -30 c-4 -3 -7 0 -7 7 0 7 3 10 7 7 3 -4 3 -10 0 -14z"/>
<path d="M6183 5047 c13 -21 17 -49 17 -137 0 -95 4 -119 25 -173 20 -48 54 -230 55 -289 0 -5 4 -8 8 -8 5 0 8 35 6 78 -1 42 0 64 2 47 8 -53 26 -115 35 -115 19 0 -19 208 -53 284 -24 54 -32 92 -38 168 -8 99 -28 156 -60 166 -11 4 -11 0 3 -21z"/>
<path d="M5990 4968 c33 -96 178 -482 196 -523 9 -22 19 -34 21 -27 3 7 -1 26 -7 43 -18 43 -4 48 16 5 10 -20 22 -36 27 -36 5 0 7 6 4 13 -19 44 -115 258 -182 405 -77 168 -112 224 -75 120z m200 -453 c0 -5 -5 -3 -10 5 -5 8 -10 20 -10 25 0 6 5 3 10 -5 5 -8 10 -19 10 -25z"/>
<path d="M6730 4838 c-88 -193 -180 -400 -180 -405 0 -2 4 -3 8 -3 5 0 19 22 32 50 28 60 37 59 16 -1 -18 -51 -21 -78 -6 -63 8 8 153 387 211 552 37 106 1 47 -81 -130z"/>
<path d="M6986 4891 c-6 -24 -30 -55 -77 -99 -53 -50 -78 -83 -110 -148 -22 -45 -70 -117 -105 -160 -61 -73 -73 -94 -57 -94 4 0 31 26 61 58 l53 57 -47 -63 c-33 -43 -44 -66 -37 -73 7 -7 28 15 68 68 55 76 67 96 118 213 13 30 49 83 80 118 58 64 72 92 65 133 -3 21 -5 19 -12 -10z m-206 -355 c0 -3 -5 -8 -12 -12 -7 -4 -8 -3 -4 4 7 12 16 16 16 8z"/>
<path d="M5780 4905 c0 -4 13 -18 30 -31 17 -15 34 -43 41 -67 19 -71 67 -154 127 -220 31 -35 75 -98 97 -141 22 -43 43 -80 47 -82 14 -9 8 16 -13 57 -27 54 -19 60 15 9 42 -64 49 -46 9 28 -44 82 -65 110 -141 189 -35 37 -71 88 -91 130 -18 37 -40 76 -49 87 -18 19 -72 50 -72 41z"/>
<path d="M5620 4774 c0 -7 344 -379 402 -435 61 -59 52 -32 -15 45 l-62 71 71 -62 c39 -35 73 -60 76 -57 8 7 -450 444 -466 444 -3 0 -6 -3 -6 -6z"/>
<path d="M6935 4565 c-126 -118 -231 -219 -233 -225 -9 -25 25 -5 86 52 l67 62 -65 -67 c-43 -44 -61 -70 -54 -77 6 -6 81 67 224 222 118 127 217 235 218 239 10 26 -34 -12 -243 -206z"/>
<path d="M7272 4590 c-14 -18 -40 -34 -65 -41 -70 -19 -149 -64 -215 -123 -35 -31 -93 -72 -130 -90 -37 -19 -76 -42 -87 -51 l-20 -16 20 4 c11 3 38 12 60 21 43 18 41 15 -25 -34 -50 -37 -13 -27 67 19 46 26 115 77 157 117 49 46 98 82 143 103 77 37 99 54 119 93 19 36 5 35 -24 -2z m-312 -234 c0 -3 -5 -8 -12 -12 -7 -4 -8 -3 -4 4 7 12 16 16 16 8z"/>
<path d="M5490 4600 c-8 -5 -1 -10 20 -15 23 -5 53 -28 98 -76 50 -53 83 -78 148 -110 45 -22 117 -70 160 -105 72 -60 94 -73 94 -57 0 4 -28 33 -62 65 l-63 59 65 -51 c60 -47 82 -56 81 -36 0 12 -142 117 -186 137 -22 10 -65 29 -95 42 -30 13 -83 49 -118 81 -34 31 -64 56 -65 56 -1 0 -16 4 -33 9 -17 5 -37 5 -44 1z m385 -230 c3 -5 4 -10 1 -10 -3 0 -8 5 -11 10 -3 6 -4 10 -1 10 3 0 8 -4 11 -10z"/>
<path d="M5380 4422 c0 -4 102 -54 228 -111 405 -184 362 -166 362 -152 0 4 -27 20 -60 35 -33 15 -60 29 -60 31 0 2 21 -3 48 -11 65 -22 92 -27 92 -20 0 8 -45 27 -250 103 -316 117 -360 133 -360 125z"/>
<path d="M6302 4419 c-69 -13 -149 -59 -210 -121 -86 -87 -122 -174 -122 -293 0 -247 186 -435 430 -435 125 0 216 39 304 128 86 88 126 185 126 307 0 275 -249 469 -528 414z m116 -176 c-10 -2 -26 -2 -35 0 -10 3 -2 5 17 5 19 0 27 -2 18 -5z m-58 -7 c0 -2 -8 -10 -17 -17 -16 -13 -17 -12 -4 4 13 16 21 21 21 13z m101 -13 c13 -16 12 -17 -3 -4 -10 7 -18 15 -18 17 0 8 8 3 21 -13z m-48 -20 c-7 -2 -19 -2 -25 0 -7 3 -2 5 12 5 14 0 19 -2 13 -5z m0 -40 c-7 -2 -19 -2 -25 0 -7 3 -2 5 12 5 14 0 19 -2 13 -5z m-48 -53 c17 -7 15 -9 -12 -9 -18 -1 -33 -6 -33 -13 0 -6 -3 -9 -6 -5 -10 10 4 37 18 36 7 0 22 -4 33 -9z m42 3 c-4 -3 -10 -3 -14 0 -3 4 0 7 7 7 7 0 10 -3 7 -7z m80 -8 c2 -6 -9 -10 -24 -9 -40 3 -40 3 -23 14 18 12 42 9 47 -5z m-119 -70 c-3 -3 -9 2 -12 12 -6 14 -5 15 5 6 7 -7 10 -15 7 -18z m73 -2 c-12 -20 -14 -14 -5 12 4 9 9 14 11 11 3 -2 0 -13 -6 -23z m-121 -59 l25 -15 -25 8 c-14 4 -48 8 -77 8 -28 0 -46 3 -40 7 20 13 91 8 117 -8z m280 6 c10 -6 3 -8 -22 -3 -67 10 -98 -7 -75 -44 4 -6 1 -13 -5 -16 -8 -3 -3 -9 12 -15 14 -6 18 -11 10 -11 -8 0 -28 11 -45 25 -16 13 -23 22 -14 19 10 -4 19 0 23 11 5 12 2 15 -11 10 -13 -4 -11 0 6 14 25 22 94 27 121 10z m-287 -27 c5 -3 6 -11 3 -19 -7 -17 6 -18 22 -2 7 7 12 8 12 3 0 -12 -56 -45 -73 -44 -7 0 -1 5 13 11 14 6 20 12 13 15 -7 2 -9 11 -6 19 3 8 0 14 -7 14 -7 0 -10 -8 -7 -20 5 -21 -3 -24 -63 -21 -23 1 -23 0 -5 -8 11 -5 14 -10 7 -10 -20 -1 -72 28 -72 41 0 6 8 4 18 -5 25 -23 39 -21 18 2 -12 13 -14 21 -6 26 6 4 14 4 17 1 4 -3 1 -6 -7 -6 -10 0 -10 -3 0 -15 17 -20 30 -19 30 3 0 10 3 22 7 26 8 7 70 -1 86 -11z m265 -10 c3 -23 13 -29 25 -16 4 3 2 12 -4 20 -13 15 -1 17 21 3 13 -9 12 -12 -5 -23 -47 -28 -108 -29 -99 -1 2 8 6 21 9 30 8 24 49 14 53 -13z m-161 0 c-4 -3 -7 0 -7 7 0 7 3 10 7 7 3 -4 3 -10 0 -14z m79 -91 c36 -12 48 -11 98 6 31 10 56 17 56 15 0 -2 -15 -12 -32 -23 -72 -44 -189 -11 -196 55 l-3 30 18 -35 c13 -26 29 -38 59 -48z m135 58 c-13 -11 -31 -20 -39 -20 -9 0 -1 9 18 19 45 25 51 25 21 1z m-261 -35 c-50 -60 -171 -59 -221 1 -13 17 -13 17 11 1 44 -28 109 -37 154 -22 23 8 45 21 51 29 5 8 11 13 14 11 2 -3 -2 -12 -9 -20z"/>
<path d="M7140 4326 c-151 -57 -288 -109 -305 -116 -50 -21 -13 -22 50 -1 33 11 61 19 62 17 2 -1 -24 -15 -57 -31 -33 -16 -60 -32 -60 -37 0 -11 2 -11 52 11 73 31 533 243 537 247 19 18 -41 -1 -279 -90z"/>
<path d="M5353 4219 c-46 -13 -41 -25 8 -21 32 3 59 -4 120 -33 70 -33 93 -38 192 -46 75 -5 136 -17 186 -34 81 -27 91 -29 91 -17 0 5 -41 21 -91 37 -50 16 -86 31 -81 33 6 2 41 -6 77 -17 70 -22 105 -26 105 -13 0 17 -216 62 -298 62 -65 0 -102 6 -174 30 -50 17 -93 30 -97 29 -3 0 -21 -5 -38 -10z"/>
<path d="M7444 4215 c-14 -11 -49 -14 -132 -15 -97 0 -121 -3 -175 -26 -34 -14 -100 -29 -147 -35 -126 -14 -150 -19 -150 -29 0 -6 17 -10 38 -11 l37 -1 -32 -10 c-18 -6 -33 -14 -33 -19 0 -19 208 20 284 53 54 23 92 32 166 38 91 7 150 25 165 51 11 17 0 20 -21 4z m-451 -112 c-7 -2 -21 -2 -30 0 -10 3 -4 5 12 5 17 0 24 -2 18 -5z"/>
<path d="M5908 4043 c7 -3 16 -2 19 1 4 3 -2 6 -13 5 -11 0 -14 -3 -6 -6z"/>
<path d="M5600 4019 c-85 -4 -188 -7 -227 -8 -40 0 -73 -5 -73 -10 0 -5 84 -12 188 -15 103 -3 247 -8 320 -12 89 -3 132 -2 132 5 0 7 -28 11 -70 11 -40 0 -70 4 -70 10 0 6 30 10 70 10 42 0 70 4 70 10 0 11 -37 11 -340 -1z m190 -19 c0 -5 -7 -10 -15 -10 -8 0 -15 5 -15 10 0 6 7 10 15 10 8 0 15 -4 15 -10z"/>
<path d="M6860 4021 c0 -6 14 -11 30 -11 17 0 30 -4 30 -10 0 -5 -13 -10 -30 -10 -16 0 -30 -5 -30 -11 0 -11 65 -10 483 7 86 4 157 10 157 14 0 4 -69 10 -152 13 -460 19 -488 20 -488 8z"/>
<path d="M5890 3951 c0 -5 9 -7 20 -4 11 3 20 7 20 9 0 2 -9 4 -20 4 -11 0 -20 -4 -20 -9z"/>
<path d="M5820 3920 c-59 -10 -130 -30 -163 -45 -45 -21 -83 -29 -158 -35 -100 -8 -157 -28 -167 -60 -4 -11 0 -11 21 3 21 13 49 17 136 17 89 0 120 4 163 21 83 33 148 49 208 49 63 0 100 8 100 22 0 8 -38 7 -175 -8 -27 -3 -47 -2 -43 1 3 4 39 11 80 16 99 12 128 19 128 30 0 11 0 11 -130 -11z"/>
<path d="M6850 3930 c0 -5 6 -10 13 -10 6 -1 26 -7 42 -15 30 -15 30 -15 -17 -9 -76 8 -56 -9 40 -36 57 -16 128 -26 207 -31 92 -5 137 -13 193 -33 63 -23 78 -25 113 -16 51 14 50 27 -2 22 -32 -3 -59 4 -121 33 -68 32 -94 39 -181 46 -98 7 -133 14 -225 45 -51 17 -62 17 -62 4z m107 -47 c-4 -3 -10 -3 -14 0 -3 4 0 7 7 7 7 0 10 -3 7 -7z"/>
<path d="M5915 3830 c-22 -11 -150 -70 -285 -131 -253 -115 -256 -116 -249 -123 3 -4 115 37 509 185 82 30 117 49 93 49 -7 0 -44 -12 -83 -26 -40 -14 -73 -24 -75 -22 -2 2 30 19 71 37 41 18 74 37 74 42 0 12 -9 11 -55 -11z"/>
<path d="M6830 3842 c0 -5 27 -21 60 -36 74 -34 73 -45 -1 -16 -54 20 -89 26 -76 13 8 -8 101 -45 287 -114 264 -99 320 -119 320 -111 0 8 -217 110 -475 224 -121 53 -115 51 -115 40z"/>
<path d="M5935 3727 c-92 -54 -106 -65 -179 -133 -34 -32 -96 -75 -141 -98 -54 -28 -87 -52 -103 -75 -29 -44 -20 -52 13 -12 16 18 43 35 68 42 72 19 152 66 213 124 34 31 89 70 129 89 39 19 79 41 90 50 37 29 -5 16 -98 -29 -50 -25 -83 -38 -72 -30 11 9 40 27 65 40 25 12 56 32 70 43 45 37 16 31 -55 -11z"/>
<path d="M6790 3764 c0 -4 28 -33 63 -66 34 -33 49 -50 32 -39 -16 12 -49 35 -72 51 -23 17 -44 26 -48 20 -3 -5 7 -16 22 -24 15 -8 46 -31 68 -51 40 -35 89 -62 195 -108 30 -13 81 -48 113 -77 58 -53 118 -83 146 -72 9 4 1 10 -23 19 -25 8 -60 36 -98 78 -46 50 -78 74 -136 102 -43 20 -116 67 -164 104 -87 68 -98 75 -98 63z"/>
<path d="M6012 3651 c-287 -306 -394 -423 -389 -428 4 -3 91 73 194 169 103 97 210 195 237 220 31 28 45 47 38 51 -6 4 -40 -20 -79 -55 -55 -51 -60 -54 -29 -18 22 25 45 50 51 55 22 20 36 43 28 47 -4 2 -27 -16 -51 -41z"/>
<path d="M6735 3690 c-2 -4 5 -16 16 -26 12 -11 40 -41 63 -69 l41 -50 -70 62 c-38 34 -73 60 -76 57 -8 -4 108 -119 324 -319 76 -70 140 -125 144 -122 3 4 -48 64 -113 134 -206 222 -324 341 -329 333z"/>
<path d="M6090 3594 c-84 -113 -101 -142 -126 -207 -24 -63 -78 -143 -118 -176 -27 -22 -46 -66 -45 -103 l0 -33 15 39 c8 24 38 61 78 98 50 45 75 78 106 141 43 86 69 126 134 202 57 67 36 66 -30 -1 -59 -61 -60 -58 -5 13 18 22 31 49 29 58 -2 12 -13 4 -38 -31z m-50 -118 c0 -3 -5 -8 -12 -12 -7 -4 -8 -3 -4 4 7 12 16 16 16 8z"/>
<path d="M6670 3632 c0 -7 7 -26 15 -42 19 -36 36 -80 31 -80 -2 0 -17 23 -34 50 -38 61 -63 67 -28 8 14 -24 35 -62 49 -85 13 -24 54 -75 92 -115 43 -46 83 -102 109 -153 28 -54 52 -87 75 -103 44 -29 52 -20 12 13 -18 16 -35 43 -42 68 -18 68 -64 149 -118 207 -28 30 -69 89 -90 130 -45 85 -70 121 -71 102z"/>
<path d="M6190 3565 c-6 -16 -24 -64 -40 -105 -15 -41 -46 -124 -70 -185 -77 -200 -110 -295 -101 -295 7 0 51 92 158 335 25 55 60 133 79 173 38 81 38 82 25 82 -4 0 -25 -38 -46 -85 -21 -47 -40 -83 -42 -82 -2 2 11 41 28 85 17 45 29 88 26 94 -3 7 -10 0 -17 -17z m-43 -192 c-4 -3 -7 0 -7 7 0 7 3 10 7 7 3 -4 3 -10 0 -14z"/>
<path d="M6593 3570 c2 -14 16 -55 31 -92 14 -38 23 -68 21 -68 -3 0 -22 36 -42 80 -20 44 -40 80 -44 80 -13 0 -13 0 25 -81 18 -41 78 -172 132 -291 140 -311 143 -292 9 67 -21 55 -45 118 -55 140 -9 22 -27 69 -40 105 -24 69 -46 104 -37 60z"/>
<path d="M6257 3447 c-18 -74 -27 -139 -27 -190 0 -58 -7 -98 -25 -153 -24 -72 -31 -136 -19 -168 11 -30 20 -16 16 25 -3 32 4 59 33 120 33 70 38 93 46 192 5 75 17 136 34 186 27 81 29 91 17 91 -5 0 -21 -41 -37 -91 -16 -50 -33 -93 -37 -95 -4 -3 -1 17 8 43 25 84 35 136 26 145 -4 4 -20 -43 -35 -105z m0 -114 c-4 -3 -7 0 -7 7 0 7 3 10 7 7 3 -4 3 -10 0 -14z"/>
<path d="M6509 3555 c-1 -5 -1 -50 -1 -100 1 -98 -3 -96 -13 5 -6 63 -18 100 -29 89 -12 -12 34 -237 59 -292 21 -45 29 -83 35 -158 8 -100 28 -157 60 -167 11 -4 11 0 -3 21 -13 21 -17 49 -17 132 0 83 -5 118 -21 163 -29 78 -48 167 -49 227 -1 46 -16 104 -21 80z"/>
<path d="M6375 3408 c3 -73 8 -217 11 -320 3 -104 10 -188 14 -188 4 0 11 84 14 188 3 103 8 247 11 320 3 84 1 132 -5 132 -6 0 -10 -40 -11 -97 0 -64 -3 -91 -9 -78 -5 11 -9 55 -9 98 -1 42 -5 77 -11 77 -5 0 -7 -52 -5 -132z"/>
<path d="M6351 3514 c0 -11 3 -14 6 -6 3 7 2 16 -1 19 -3 4 -6 -2 -5 -13z"/>
</g>
<g id="layer103" fill="#f0ad0e" stroke="none">
<path d="M6605 5047 c4 -19 -5 -52 -30 -106 -39 -87 -55 -156 -55 -237 0 -33 -12 -92 -31 -150 -17 -53 -28 -98 -25 -102 3 -3 7 -3 9 -1 11 18 63 183 68 219 6 43 6 44 8 9 0 -20 -8 -65 -18 -100 -26 -83 -35 -139 -25 -139 17 0 55 194 58 295 3 76 10 117 30 174 27 78 31 113 15 146 -8 16 -8 15 -4 -8z"/>
<path d="M6190 5045 c9 -10 14 -57 15 -138 2 -107 5 -130 28 -184 19 -43 29 -92 37 -169 9 -100 14 -124 24 -113 5 5 -11 203 -19 232 -5 18 -4 19 5 5 6 -9 15 -52 20 -95 13 -105 20 -133 31 -133 6 0 8 8 5 18 -3 10 -10 52 -16 93 -5 42 -17 96 -26 120 -57 152 -63 177 -64 244 0 52 -5 78 -20 103 -11 17 -23 32 -26 32 -4 0 -1 -7 6 -15z"/>
<path d="M6386 4808 c-4 -134 -9 -267 -12 -295 -4 -36 -3 -53 5 -53 7 0 11 33 12 98 0 63 3 90 9 77 5 -11 9 -55 9 -97 1 -50 5 -78 12 -78 8 0 9 17 5 53 -3 28 -8 161 -12 295 -4 133 -10 242 -14 242 -4 0 -10 -109 -14 -242z"/>
<path d="M5982 5000 c46 -132 213 -577 219 -584 18 -20 8 21 -26 108 -19 49 -33 91 -32 93 2 2 23 -40 47 -92 24 -52 47 -95 53 -95 11 0 24 -30 -128 300 -110 239 -152 324 -133 270z"/>
<path d="M6684 4729 c-150 -328 -138 -299 -126 -299 5 0 26 38 47 85 21 47 40 84 42 82 2 -2 -11 -41 -28 -85 -17 -45 -29 -88 -26 -94 6 -16 -8 -49 122 301 58 156 104 286 102 287 -2 2 -62 -123 -133 -277z m-23 -106 c-12 -20 -14 -14 -5 12 4 9 9 14 11 11 3 -2 0 -13 -6 -23z"/>
<path d="M6991 4891 c-1 -15 -29 -51 -79 -100 -43 -42 -86 -95 -96 -117 -10 -21 -27 -57 -37 -79 -10 -22 -49 -75 -85 -118 -37 -43 -64 -80 -60 -84 6 -7 69 61 129 140 20 27 37 44 37 39 0 -6 -31 -52 -70 -102 -38 -51 -67 -97 -64 -101 6 -11 107 119 135 173 10 20 28 62 39 92 13 32 43 79 75 115 64 72 88 114 82 144 -4 21 -4 21 -6 -2z"/>
<path d="M5817 4872 c16 -16 37 -55 47 -88 26 -83 36 -100 105 -178 33 -38 79 -105 102 -150 42 -84 59 -109 59 -88 0 13 -78 168 -106 212 -13 19 -11 19 9 -4 14 -16 42 -60 63 -98 36 -66 60 -96 69 -87 10 11 -113 190 -170 249 -44 45 -75 89 -101 143 -21 44 -49 86 -65 97 -39 29 -45 24 -12 -8z"/>
<path d="M5641 4755 c98 -115 420 -452 424 -446 2 5 -2 14 -10 21 -9 7 -48 49 -88 94 l-72 81 95 -87 c52 -47 98 -84 102 -82 6 4 -342 333 -447 423 l-30 26 26 -30z"/>
<path d="M6942 4564 c-128 -118 -232 -220 -232 -226 0 -6 44 29 97 78 l98 89 -87 -95 c-47 -52 -84 -98 -82 -102 4 -5 202 203 423 445 59 64 1 14 -217 -189z"/>
<path d="M7269 4581 c-14 -14 -52 -35 -85 -45 -82 -26 -100 -36 -177 -104 -38 -34 -109 -82 -160 -108 -51 -26 -87 -49 -80 -51 14 -5 164 70 213 105 l35 26 -24 -26 c-13 -15 -53 -43 -90 -62 -73 -39 -118 -72 -111 -80 11 -11 189 109 250 169 45 44 89 75 143 101 46 22 86 49 99 66 26 38 20 43 -13 9z"/>
<path d="M5514 4590 c16 -5 61 -42 100 -82 39 -41 89 -82 111 -92 104 -47 125 -60 198 -122 84 -72 121 -82 42 -12 -75 67 -146 118 -163 118 -8 0 -13 3 -9 6 11 12 49 -9 138 -76 51 -38 96 -67 102 -63 7 4 4 11 -7 17 -10 6 -43 31 -74 55 -64 48 -106 72 -186 101 -32 13 -79 43 -115 75 -69 62 -109 85 -143 84 -20 -1 -19 -2 6 -9z"/>
<path d="M6302 4419 c-95 -18 -207 -98 -268 -189 -82 -122 -85 -314 -7 -447 13 -23 53 -69 88 -101 82 -77 148 -104 267 -110 137 -6 235 33 332 135 84 89 120 190 114 316 -7 123 -35 186 -122 272 -39 39 -92 80 -117 93 -81 39 -189 51 -287 31z m98 -149 c13 0 32 8 43 18 19 16 20 16 9 -5 -7 -12 -16 -23 -22 -25 -6 -2 8 -16 32 -31 23 -15 38 -27 33 -27 -6 0 -23 9 -40 20 -16 11 -41 20 -55 20 -14 0 -38 -9 -55 -20 -16 -11 -34 -20 -40 -20 -5 0 10 12 33 27 24 15 38 29 32 31 -6 2 -15 13 -22 25 -11 21 -10 21 9 5 11 -10 30 -18 43 -18z m50 -70 c16 -5 -1 -7 -50 -7 -49 0 -66 2 -50 7 14 5 36 8 50 8 14 0 36 -3 50 -8z m-50 -30 c28 0 61 5 73 11 21 11 21 10 5 -7 -25 -26 -122 -28 -151 -2 l-22 19 22 -10 c12 -6 45 -11 73 -11z m95 -68 c3 -8 1 -20 -5 -26 -7 -7 -10 -4 -10 8 0 14 -5 17 -22 13 -12 -4 -28 -1 -35 5 -10 8 -20 8 -39 -1 -14 -6 -30 -8 -36 -5 -6 4 -17 -1 -25 -11 -12 -18 -13 -18 -13 1 0 12 3 23 6 26 3 4 43 6 89 6 66 -1 85 -4 90 -16z m-119 -77 c17 -41 19 -118 3 -147 -33 -62 -180 -63 -230 -2 -13 17 -13 17 11 1 67 -43 162 -38 200 10 24 30 26 96 5 133 -15 27 -18 40 -9 40 3 0 12 -16 20 -35z m67 -1 c-10 -19 -19 -31 -21 -26 -4 14 16 62 28 62 5 0 2 -16 -7 -36z m-123 -50 l25 -15 -25 8 c-14 4 -48 8 -77 8 -28 0 -46 3 -40 7 20 13 91 8 117 -8z m280 6 c10 -6 3 -8 -22 -3 -67 10 -98 -7 -75 -44 4 -6 1 -13 -5 -16 -8 -3 -3 -9 12 -15 14 -6 18 -11 10 -11 -8 0 -28 11 -45 25 -16 13 -23 22 -14 19 10 -4 19 0 23 11 5 12 2 15 -11 10 -13 -4 -11 0 6 14 25 22 94 27 121 10z m-287 -27 c5 -3 6 -11 3 -19 -7 -17 6 -18 22 -2 6 6 14 9 17 6 7 -7 -61 -48 -78 -47 -7 0 -1 5 13 11 14 6 20 12 13 15 -7 2 -9 11 -6 19 3 8 0 14 -7 14 -7 0 -10 -8 -7 -20 5 -21 -3 -24 -63 -21 -23 1 -23 0 -5 -8 11 -5 14 -10 7 -10 -20 -1 -72 28 -72 41 0 6 8 4 18 -5 25 -23 39 -21 18 2 -12 13 -14 21 -6 26 6 4 14 4 17 1 4 -3 1 -6 -7 -6 -10 0 -10 -3 0 -15 17 -20 30 -19 30 3 0 10 3 22 7 26 8 7 70 -1 86 -11z m265 -10 c3 -23 13 -29 25 -16 4 3 2 12 -4 20 -13 15 -1 17 21 3 13 -9 12 -12 -5 -23 -47 -28 -108 -29 -99 -1 2 8 6 21 9 30 8 24 49 14 53 -13z m-161 0 c-4 -3 -7 0 -7 7 0 7 3 10 7 7 3 -4 3 -10 0 -14z m220 -28 c-15 -14 -36 -25 -45 -25 -10 0 -5 6 13 16 17 8 34 19 40 25 5 5 11 9 15 9 3 0 -8 -12 -23 -25z m-143 -63 c42 -14 100 -4 146 26 24 15 24 14 11 -2 -61 -73 -221 -53 -229 29 l-3 30 18 -35 c13 -25 29 -39 57 -48z"/>
<path d="M5391 4416 c4 -4 530 -248 567 -263 6 -3 12 -1 12 4 0 6 -43 29 -95 53 -52 24 -94 45 -92 47 2 1 44 -13 93 -32 49 -19 95 -35 103 -35 29 0 -5 18 -89 48 -47 17 -177 64 -289 106 -195 73 -220 81 -210 72z"/>
<path d="M7265 4369 c-71 -27 -200 -74 -285 -105 -142 -52 -191 -74 -163 -74 5 0 52 16 104 35 51 19 94 33 96 31 2 -2 -40 -22 -92 -46 -52 -24 -95 -47 -95 -53 0 -5 6 -7 13 -4 44 19 562 259 566 263 10 10 -22 0 -144 -47z"/>
<path d="M5340 4210 c-11 -7 -6 -8 16 -4 22 4 46 -2 84 -21 86 -43 127 -55 223 -61 60 -3 122 -15 185 -35 51 -17 96 -28 100 -25 3 3 3 8 1 10 -10 9 -198 66 -229 69 l-35 4 36 1 c19 1 73 -9 119 -23 87 -26 120 -31 120 -17 0 17 -186 53 -290 56 -82 3 -121 9 -179 30 -78 27 -126 32 -151 16z"/>
<path d="M7443 4209 c-7 -7 -59 -13 -135 -14 -108 -2 -130 -5 -186 -29 -42 -17 -88 -28 -140 -32 -108 -7 -142 -13 -142 -25 0 -12 154 -1 222 16 26 6 45 8 42 4 -5 -8 -67 -21 -177 -38 -65 -9 -86 -16 -76 -25 6 -5 122 13 189 29 30 7 84 26 120 40 46 20 88 29 150 33 80 4 131 19 145 42 8 13 2 13 -12 -1z"/>
<path d="M5705 4019 c-71 -3 -181 -7 -242 -8 -189 -2 -126 -17 100 -25 116 -4 249 -9 295 -13 58 -4 82 -3 82 6 0 7 -24 11 -70 11 -40 0 -70 4 -70 10 0 6 30 10 70 10 40 0 70 4 70 10 0 11 -31 11 -235 -1z m85 -19 c0 -5 -7 -10 -15 -10 -8 0 -15 5 -15 10 0 6 7 10 15 10 8 0 15 -4 15 -10z"/>
<path d="M6860 4021 c0 -7 29 -11 84 -11 47 0 88 -4 91 -10 4 -6 -27 -10 -84 -10 -60 0 -91 -4 -91 -11 0 -8 17 -9 53 -5 28 3 161 8 295 12 133 4 242 10 242 14 0 4 -109 10 -242 14 -134 4 -267 9 -295 12 -36 4 -53 3 -53 -5z"/>
<path d="M5850 3925 c-91 -16 -125 -25 -210 -61 -46 -19 -88 -28 -150 -32 -83 -5 -131 -19 -146 -44 -5 -9 -2 -8 9 1 13 10 53 14 140 16 107 2 130 5 185 29 42 17 88 28 140 32 105 7 142 13 142 24 0 12 -160 1 -222 -15 -27 -7 -48 -10 -48 -8 0 9 60 25 129 33 102 13 131 20 131 31 0 11 -2 10 -100 -6z"/>
<path d="M6850 3932 c0 -8 151 -61 210 -73 30 -6 31 -7 9 -8 -15 0 -55 8 -90 18 -85 26 -139 35 -139 24 0 -18 183 -54 290 -57 82 -3 121 -9 179 -30 78 -27 126 -32 151 -16 11 7 6 8 -16 4 -22 -4 -46 2 -84 21 -86 43 -127 55 -223 61 -60 3 -122 15 -182 35 -101 32 -105 33 -105 21z"/>
<path d="M5673 3717 c-156 -72 -281 -132 -280 -134 3 -2 470 167 572 208 17 6 25 13 18 16 -6 2 -53 -12 -104 -31 -52 -19 -95 -34 -96 -32 -2 1 40 22 92 46 52 23 95 46 95 51 0 5 -3 9 -7 8 -5 0 -135 -60 -290 -132z"/>
<path d="M6830 3843 c0 -5 43 -29 95 -53 53 -23 94 -44 92 -46 -2 -2 -44 12 -93 31 -49 19 -96 34 -104 32 -13 -4 -13 -5 0 -10 60 -26 584 -217 587 -214 2 3 -516 245 -569 265 -4 2 -8 0 -8 -5z"/>
<path d="M5925 3722 c-44 -26 -114 -79 -155 -118 -53 -51 -99 -83 -153 -110 -44 -21 -86 -49 -97 -65 -29 -39 -24 -45 8 -12 16 16 55 37 88 47 83 26 100 36 178 105 38 33 101 76 140 95 76 37 119 65 98 66 -14 0 -161 -72 -207 -102 l-30 -20 29 25 c16 14 60 42 98 63 65 36 96 60 87 68 -2 2 -40 -17 -84 -42z"/>
<path d="M6792 3761 c6 -17 142 -132 178 -152 19 -10 31 -18 27 -19 -16 0 -73 33 -117 69 -74 61 -108 82 -115 72 -3 -6 3 -15 14 -21 12 -6 49 -32 83 -58 35 -26 83 -56 108 -66 107 -45 137 -62 186 -107 61 -55 103 -79 136 -78 20 1 19 2 -6 9 -16 5 -61 42 -100 82 -39 41 -89 82 -111 92 -22 10 -58 27 -81 37 -23 11 -74 48 -115 84 -70 61 -95 77 -87 56z"/>
<path d="M5885 3513 c-196 -211 -282 -309 -240 -272 115 100 452 419 447 423 -3 3 -48 -33 -101 -81 -95 -86 -94 -84 43 63 21 23 34 44 29 46 -4 3 -84 -78 -178 -179z"/>
<path d="M6736 3693 c-3 -3 34 -49 82 -102 l87 -96 -94 87 c-52 48 -98 85 -102 82 -6 -4 335 -328 446 -423 l30 -26 -26 30 c-86 100 -419 452 -423 448z"/>
<path d="M6670 3632 c0 -14 81 -174 107 -212 17 -25 17 -25 -3 -7 -12 10 -41 54 -64 97 -24 44 -49 85 -57 92 -61 50 58 -141 144 -232 49 -52 83 -99 109 -153 21 -44 49 -86 65 -97 39 -29 45 -24 12 8 -16 16 -37 55 -47 88 -26 83 -36 100 -105 178 -33 38 -79 105 -102 150 -42 84 -59 109 -59 88z"/>
<path d="M6062 3555 c-29 -41 -64 -101 -78 -132 -45 -105 -59 -127 -106 -180 -54 -60 -78 -102 -77 -135 1 -18 3 -17 10 9 6 19 31 51 63 79 64 55 107 112 130 174 16 43 45 85 130 185 21 25 36 48 33 52 -7 7 -87 -79 -134 -145 -18 -25 -33 -41 -33 -35 0 12 48 80 97 137 31 37 43 67 26 65 -5 0 -32 -33 -61 -74z m-65 -162 c-4 -3 -7 0 -7 7 0 7 3 10 7 7 3 -4 3 -10 0 -14z"/>
<path d="M6190 3565 c-7 -16 -22 -59 -35 -95 -13 -36 -57 -157 -99 -269 -42 -112 -75 -206 -73 -208 2 -1 41 79 87 180 46 100 105 228 132 285 52 113 52 112 39 112 -4 0 -25 -38 -46 -85 -21 -47 -40 -83 -42 -82 -2 2 11 41 28 85 17 45 29 88 26 94 -3 7 -10 0 -17 -17z m-49 -198 c-10 -9 -11 -8 -5 6 3 10 9 15 12 12 3 -3 0 -11 -7 -18z"/>
<path d="M6590 3579 c0 -8 16 -54 35 -103 19 -49 33 -91 32 -93 -2 -2 -23 40 -47 92 -24 52 -47 95 -52 95 -5 0 -8 -4 -6 -8 20 -53 262 -571 265 -569 4 5 -208 579 -219 592 -5 5 -8 3 -8 -6z"/>
<path d="M6262 3467 c-13 -53 -24 -136 -26 -197 -3 -81 -10 -122 -30 -179 -27 -78 -31 -113 -15 -146 8 -16 8 -15 4 8 -4 19 3 47 21 85 44 97 53 130 59 225 4 60 17 124 37 185 16 52 27 96 24 100 -3 3 -8 3 -10 1 -9 -10 -66 -198 -69 -229 l-4 -35 -1 36 c-1 20 7 65 17 100 27 90 34 126 23 133 -4 2 -18 -36 -30 -87z"/>
<path d="M6507 3553 c-7 -13 10 -205 22 -236 6 -16 7 -26 2 -23 -12 8 -28 84 -36 166 -6 63 -18 100 -29 89 -5 -5 18 -162 30 -203 3 -11 19 -55 36 -96 23 -55 32 -96 36 -160 5 -83 19 -131 44 -146 9 -5 8 -2 -1 9 -10 13 -14 53 -16 140 -2 107 -5 130 -29 185 -20 47 -29 90 -35 168 -7 100 -13 125 -24 107z"/>
<path d="M6373 3473 c4 -38 10 -170 13 -295 4 -126 10 -228 14 -228 4 0 10 100 14 223 3 122 9 255 13 295 4 51 2 72 -6 72 -7 0 -11 -32 -12 -97 0 -64 -3 -91 -9 -78 -5 11 -9 55 -9 98 -1 50 -5 77 -12 77 -8 0 -10 -20 -6 -67z"/>
</g>
<g id="layer104" fill="#74acdf" stroke="none">
<path d="M0 4000 l0 -4000 6400 0 6400 0 0 4000 0 4000 -6400 0 -6400 0 0 -4000z m6421 1074 c4 -21 10 -155 14 -297 4 -141 11 -259 15 -262 12 -8 50 137 50 191 0 80 17 153 56 234 28 60 34 82 29 111 -7 43 10 62 31 34 29 -39 28 -85 -1 -174 -23 -67 -29 -107 -32 -191 -2 -66 -11 -131 -23 -175 -11 -38 -18 -70 -17 -72 2 -1 36 71 77 160 185 406 200 434 216 392 4 -8 -31 -115 -76 -238 -45 -122 -93 -251 -106 -287 l-24 -65 50 55 c28 30 71 96 96 146 35 72 61 107 119 163 54 53 75 81 79 106 8 42 33 47 42 8 10 -40 -13 -92 -68 -150 -33 -36 -65 -87 -98 -158 -27 -58 -71 -134 -97 -168 l-48 -62 41 35 c23 19 127 115 233 214 126 117 196 176 206 172 8 -3 15 -10 15 -16 0 -6 -84 -102 -187 -213 -102 -111 -198 -215 -212 -231 -25 -27 -23 -27 52 13 44 22 105 65 138 95 57 53 115 86 211 121 28 10 56 28 69 46 25 36 49 38 49 4 0 -39 -56 -92 -136 -129 -51 -24 -92 -53 -141 -101 -37 -37 -98 -85 -135 -107 -38 -22 -68 -42 -68 -44 0 -2 28 7 63 20 512 191 546 202 531 162 -3 -8 -131 -72 -284 -142 -154 -70 -278 -129 -277 -129 12 -9 196 18 229 33 76 33 145 45 227 38 66 -5 80 -3 110 15 39 23 64 13 45 -19 -23 -36 -75 -55 -168 -63 -69 -5 -114 -16 -186 -44 -52 -21 -121 -40 -152 -43 -32 -2 -58 -8 -58 -12 0 -4 130 -11 290 -16 204 -7 293 -13 302 -22 30 -30 -10 -36 -301 -46 -159 -6 -292 -14 -295 -17 -12 -11 139 -49 216 -53 94 -6 145 -19 221 -58 47 -23 67 -28 97 -23 55 9 63 -17 13 -44 -33 -17 -73 -13 -154 15 -58 21 -98 28 -185 31 -69 2 -137 11 -180 23 -37 11 -69 18 -71 17 -1 -2 71 -36 160 -77 406 -185 434 -200 392 -216 -8 -4 -115 31 -238 76 -122 45 -251 93 -287 106 l-65 24 55 -50 c31 -28 95 -71 146 -96 72 -36 107 -61 163 -119 53 -54 81 -75 106 -79 42 -8 47 -33 8 -42 -40 -10 -92 13 -150 68 -36 33 -87 65 -158 98 -58 27 -134 71 -168 96 -73 56 -79 63 177 -214 124 -133 186 -207 182 -217 -9 -25 -25 -18 -84 38 -145 135 -350 324 -376 347 -29 25 -29 25 10 -50 21 -41 65 -103 96 -138 56 -61 88 -118 123 -214 10 -28 28 -56 46 -69 36 -25 38 -49 4 -49 -39 0 -92 56 -129 136 -24 51 -53 92 -100 139 -37 37 -85 98 -107 136 -23 38 -43 69 -45 69 -2 0 7 -28 20 -62 190 -509 199 -538 166 -538 -11 0 -61 101 -200 407 -41 89 -74 161 -75 160 -1 -1 1 -40 5 -87 5 -54 19 -119 40 -180 30 -88 32 -102 27 -180 -6 -74 -4 -90 13 -118 25 -40 25 -52 2 -52 -44 0 -73 63 -83 175 -6 67 -17 115 -44 185 -21 52 -40 121 -43 153 -2 31 -8 57 -12 57 -4 0 -11 -130 -16 -290 -7 -204 -13 -293 -22 -302 -30 -30 -36 9 -47 301 -5 159 -13 292 -16 295 -11 11 -49 -138 -49 -190 0 -80 -17 -153 -56 -234 -28 -60 -34 -82 -29 -111 7 -43 -10 -62 -31 -34 -29 39 -28 85 1 173 23 67 29 108 32 191 2 67 10 131 23 175 11 38 18 71 17 73 -2 1 -36 -71 -77 -160 -185 -406 -200 -434 -216 -392 -4 8 31 115 76 238 45 122 93 251 106 287 l24 65 -50 -55 c-28 -30 -71 -96 -96 -146 -35 -72 -61 -107 -119 -163 -54 -53 -75 -81 -79 -106 -8 -42 -33 -47 -42 -8 -10 40 13 92 68 150 33 36 65 87 98 158 27 58 71 134 97 168 l48 62 -41 -35 c-23 -19 -127 -115 -233 -214 -126 -117 -196 -176 -206 -172 -25 9 -18 25 38 84 117 127 323 349 347 376 24 27 23 27 -53 -13 -44 -22 -105 -65 -138 -95 -57 -53 -115 -86 -211 -121 -28 -10 -56 -28 -69 -46 -25 -36 -49 -38 -49 -4 0 39 56 92 136 129 51 24 92 53 141 101 37 37 98 85 136 107 37 22 67 42 67 44 0 2 -17 -3 -37 -11 -150 -58 -528 -195 -539 -195 -20 0 -26 17 -10 32 7 8 136 70 285 138 149 68 269 125 268 125 -1 1 -40 -1 -87 -5 -54 -5 -119 -19 -180 -40 -88 -30 -102 -32 -180 -27 -75 6 -90 4 -119 -14 -39 -23 -64 -12 -45 19 23 36 75 55 168 63 69 5 114 16 186 44 52 21 121 40 153 43 32 2 55 8 51 11 -3 3 -133 11 -290 16 -196 8 -288 15 -296 23 -29 29 10 36 301 46 159 6 292 14 295 17 12 12 -141 49 -225 54 -93 5 -134 17 -218 60 -42 21 -61 25 -91 20 -55 -9 -63 17 -13 44 33 17 73 13 154 -15 58 -21 98 -28 185 -31 69 -2 137 -11 180 -23 37 -11 69 -18 71 -17 1 2 -71 36 -160 77 -406 185 -434 200 -392 216 8 4 115 -31 238 -76 122 -45 251 -93 287 -106 l65 -24 -55 50 c-30 28 -96 71 -146 96 -72 35 -107 61 -163 119 -53 54 -81 75 -106 79 -42 8 -47 33 -8 42 40 10 92 -13 150 -68 36 -33 87 -65 160 -99 59 -27 128 -66 153 -86 25 -20 52 -41 60 -47 25 -18 -47 62 -234 263 -117 126 -176 196 -172 206 3 8 10 15 16 15 6 0 102 -84 213 -187 111 -102 215 -198 230 -212 27 -25 26 -23 -12 53 -22 43 -65 104 -95 136 -53 58 -86 116 -121 212 -10 28 -28 56 -46 69 -36 25 -38 49 -4 49 39 0 92 -56 129 -136 24 -51 53 -92 101 -141 37 -37 85 -98 107 -135 22 -38 42 -68 44 -68 2 0 -3 17 -11 38 -79 202 -195 529 -193 542 2 8 10 15 18 15 12 0 119 -219 267 -549 13 -29 2 122 -12 174 -7 25 -21 65 -31 90 -14 34 -18 73 -19 156 0 87 -4 116 -18 137 -22 34 -22 47 1 47 44 0 74 -63 83 -175 5 -68 16 -113 43 -183 20 -50 39 -119 43 -152 3 -33 9 -58 12 -54 3 3 11 132 16 287 6 155 14 288 19 295 14 22 31 7 37 -34z"/>
</g>
<g id="layer105" fill="#ffffff" stroke="none">
<path d="M0 4000 l0 -1330 6400 0 6400 0 0 1330 0 1330 -6400 0 -6400 0 0 -1330z m6421 1074 c4 -21 10 -155 14 -297 4 -141 11 -259 15 -262 12 -8 50 137 50 191 0 80 17 153 56 234 28 60 34 82 29 111 -7 43 10 62 31 34 29 -39 28 -85 -1 -174 -23 -67 -29 -107 -32 -191 -2 -66 -11 -131 -23 -175 -11 -38 -18 -70 -17 -72 2 -1 36 71 77 160 185 406 200 434 216 392 4 -8 -31 -115 -76 -238 -45 -122 -93 -251 -106 -287 l-24 -65 50 55 c28 30 71 96 96 146 35 72 61 107 119 163 54 53 75 81 79 106 8 42 33 47 42 8 10 -40 -13 -92 -68 -150 -33 -36 -65 -87 -98 -158 -27 -58 -71 -134 -97 -168 l-48 -62 41 35 c23 19 127 115 233 214 126 117 196 176 206 172 8 -3 15 -10 15 -16 0 -6 -84 -102 -187 -213 -102 -111 -198 -215 -212 -231 -25 -27 -23 -27 52 13 44 22 105 65 138 95 57 53 115 86 211 121 28 10 56 28 69 46 25 36 49 38 49 4 0 -39 -56 -92 -136 -129 -51 -24 -92 -53 -141 -101 -37 -37 -98 -85 -135 -107 -38 -22 -68 -42 -68 -44 0 -2 28 7 63 20 512 191 546 202 531 162 -3 -8 -131 -72 -284 -142 -154 -70 -278 -129 -277 -129 12 -9 196 18 229 33 76 33 145 45 227 38 66 -5 80 -3 110 15 39 23 64 13 45 -19 -23 -36 -75 -55 -168 -63 -69 -5 -114 -16 -186 -44 -52 -21 -121 -40 -152 -43 -32 -2 -58 -8 -58 -12 0 -4 130 -11 290 -16 204 -7 293 -13 302 -22 30 -30 -10 -36 -301 -46 -159 -6 -292 -14 -295 -17 -12 -11 139 -49 216 -53 94 -6 145 -19 221 -58 47 -23 67 -28 97 -23 55 9 63 -17 13 -44 -33 -17 -73 -13 -154 15 -58 21 -98 28 -185 31 -69 2 -137 11 -180 23 -37 11 -69 18 -71 17 -1 -2 71 -36 160 -77 406 -185 434 -200 392 -216 -8 -4 -115 31 -238 76 -122 45 -251 93 -287 106 l-65 24 55 -50 c31 -28 95 -71 146 -96 72 -36 107 -61 163 -119 53 -54 81 -75 106 -79 42 -8 47 -33 8 -42 -40 -10 -92 13 -150 68 -36 33 -87 65 -158 98 -58 27 -134 71 -168 96 -73 56 -79 63 177 -214 124 -133 186 -207 182 -217 -9 -25 -25 -18 -84 38 -145 135 -350 324 -376 347 -29 25 -29 25 10 -50 21 -41 65 -103 96 -138 56 -61 88 -118 123 -214 10 -28 28 -56 46 -69 36 -25 38 -49 4 -49 -39 0 -92 56 -129 136 -24 51 -53 92 -100 139 -37 37 -85 98 -107 136 -23 38 -43 69 -45 69 -2 0 7 -28 20 -62 190 -509 199 -538 166 -538 -11 0 -61 101 -200 407 -41 89 -74 161 -75 160 -1 -1 1 -40 5 -87 5 -54 19 -119 40 -180 30 -88 32 -102 27 -180 -6 -74 -4 -90 13 -118 25 -40 25 -52 2 -52 -44 0 -73 63 -83 175 -6 67 -17 115 -44 185 -21 52 -40 121 -43 153 -2 31 -8 57 -12 57 -4 0 -11 -130 -16 -290 -7 -204 -13 -293 -22 -302 -30 -30 -36 9 -47 301 -5 159 -13 292 -16 295 -11 11 -49 -138 -49 -190 0 -80 -17 -153 -56 -234 -28 -60 -34 -82 -29 -111 7 -43 -10 -62 -31 -34 -29 39 -28 85 1 173 23 67 29 108 32 191 2 67 10 131 23 175 11 38 18 71 17 73 -2 1 -36 -71 -77 -160 -185 -406 -200 -434 -216 -392 -4 8 31 115 76 238 45 122 93 251 106 287 l24 65 -50 -55 c-28 -30 -71 -96 -96 -146 -35 -72 -61 -107 -119 -163 -54 -53 -75 -81 -79 -106 -8 -42 -33 -47 -42 -8 -10 40 13 92 68 150 33 36 65 87 98 158 27 58 71 134 97 168 l48 62 -41 -35 c-23 -19 -127 -115 -233 -214 -126 -117 -196 -176 -206 -172 -25 9 -18 25 38 84 117 127 323 349 347 376 24 27 23 27 -53 -13 -44 -22 -105 -65 -138 -95 -57 -53 -115 -86 -211 -121 -28 -10 -56 -28 -69 -46 -25 -36 -49 -38 -49 -4 0 39 56 92 136 129 51 24 92 53 141 101 37 37 98 85 136 107 37 22 67 42 67 44 0 2 -17 -3 -37 -11 -150 -58 -528 -195 -539 -195 -20 0 -26 17 -10 32 7 8 136 70 285 138 149 68 269 125 268 125 -1 1 -40 -1 -87 -5 -54 -5 -119 -19 -180 -40 -88 -30 -102 -32 -180 -27 -75 6 -90 4 -119 -14 -39 -23 -64 -12 -45 19 23 36 75 55 168 63 69 5 114 16 186 44 52 21 121 40 153 43 32 2 55 8 51 11 -3 3 -133 11 -290 16 -196 8 -288 15 -296 23 -29 29 10 36 301 46 159 6 292 14 295 17 12 12 -141 49 -225 54 -93 5 -134 17 -218 60 -42 21 -61 25 -91 20 -55 -9 -63 17 -13 44 33 17 73 13 154 -15 58 -21 98 -28 185 -31 69 -2 137 -11 180 -23 37 -11 69 -18 71 -17 1 2 -71 36 -160 77 -406 185 -434 200 -392 216 8 4 115 -31 238 -76 122 -45 251 -93 287 -106 l65 -24 -55 50 c-30 28 -96 71 -146 96 -72 35 -107 61 -163 119 -53 54 -81 75 -106 79 -42 8 -47 33 -8 42 40 10 92 -13 150 -68 36 -33 87 -65 160 -99 59 -27 128 -66 153 -86 25 -20 52 -41 60 -47 25 -18 -47 62 -234 263 -117 126 -176 196 -172 206 3 8 10 15 16 15 6 0 102 -84 213 -187 111 -102 215 -198 230 -212 27 -25 26 -23 -12 53 -22 43 -65 104 -95 136 -53 58 -86 116 -121 212 -10 28 -28 56 -46 69 -36 25 -38 49 -4 49 39 0 92 -56 129 -136 24 -51 53 -92 101 -141 37 -37 85 -98 107 -135 22 -38 42 -68 44 -68 2 0 -3 17 -11 38 -79 202 -195 529 -193 542 2 8 10 15 18 15 12 0 119 -219 267 -549 13 -29 2 122 -12 174 -7 25 -21 65 -31 90 -14 34 -18 73 -19 156 0 87 -4 116 -18 137 -22 34 -22 47 1 47 44 0 74 -63 83 -175 5 -68 16 -113 43 -183 20 -50 39 -119 43 -152 3 -33 9 -58 12 -54 3 3 11 132 16 287 6 155 14 288 19 295 14 22 31 7 37 -34z"/>
</g>


</svg>