<!DOCTYPE svg PUBLIC "-//W3C//DTD SVG 20010904//EN" "http://www.w3.org/TR/2001/REC-SVG-20010904/DTD/svg10.dtd">
<svg version="1.0" xmlns="http://www.w3.org/2000/svg" width="320px" height="160px" viewBox="0 0 3200 1600" preserveAspectRatio="xMidYMid meet">
<g id="layer101" fill="#012169" stroke="none">
<path d="M0 800 l0 -800 1600 0 1600 0 0 800 0 800 -1600 0 -1600 0 0 -800z"/>
</g>
<g id="layer102" fill="#e4032e" stroke="none">
<path d="M0 755 l0 -45 178 -89 177 -90 -177 0 -178 -1 0 -130 0 -130 178 -1 177 0 -177 -90 -178 -89 0 -45 0 -45 90 0 90 0 240 120 c132 66 242 120 245 120 3 0 5 -54 5 -120 l0 -120 130 0 130 0 0 120 c0 66 2 120 5 120 3 0 113 -54 245 -120 l240 -120 90 0 90 0 0 45 0 45 -172 87 -173 88 173 3 172 2 0 130 0 130 -177 1 -178 0 178 90 177 89 0 45 0 45 -90 0 -90 0 -240 -120 c-132 -66 -242 -120 -245 -120 -3 0 -5 54 -5 120 l0 120 -130 0 -130 0 0 -120 c0 -66 -2 -120 -5 -120 -3 0 -113 54 -245 120 l-240 120 -90 0 -90 0 0 -45z"/>
</g>
<g id="layer103" fill="#faf9fb" stroke="none">
<path d="M2352 1400 c3 -33 1 -35 -31 -38 l-34 -3 32 -20 c31 -19 31 -20 15 -44 -18 -27 -7 -33 27 -15 17 10 20 7 25 -20 4 -16 10 -30 14 -30 4 0 10 14 14 30 5 27 8 30 25 20 34 -18 45 -12 27 15 -16 24 -16 25 15 44 l32 20 -34 3 c-32 3 -34 5 -31 38 l3 34 -26 -24 -25 -23 -25 23 -26 24 3 -34z"/>
<path d="M705 1343 c8 -82 10 -80 -90 -85 l-50 -3 63 -38 c34 -21 62 -41 62 -43 0 -3 -16 -28 -35 -57 -19 -28 -35 -55 -35 -59 0 -3 27 4 60 18 33 13 64 24 69 24 4 0 17 -29 27 -64 10 -36 21 -63 24 -61 4 2 15 31 25 65 10 33 22 60 27 60 5 0 35 -11 68 -24 33 -14 60 -22 60 -20 0 3 -16 30 -35 60 -19 30 -35 56 -35 58 0 3 28 22 63 43 l62 38 -50 3 c-100 5 -98 3 -91 85 l7 72 -51 -55 -50 -55 -51 55 -50 55 6 -72z"/>
<path d="M2525 900 c4 -14 1 -28 -11 -41 -16 -18 -16 -19 9 -19 17 0 27 -5 27 -15 0 -8 5 -15 10 -15 6 0 10 7 10 15 0 10 10 15 27 15 25 0 25 1 9 19 -12 13 -15 27 -11 41 6 20 5 21 -14 11 -16 -9 -26 -9 -42 0 -19 10 -20 9 -14 -11z"/>
<path d="M0 755 l0 -45 178 -89 177 -90 -177 0 -178 -1 0 -25 0 -25 360 0 360 0 0 160 0 160 -25 0 -25 0 0 -120 c0 -66 -2 -120 -5 -120 -3 0 -113 54 -245 120 -140 70 -251 120 -267 119 -19 0 55 -42 237 -134 l265 -134 -58 0 c-54 -1 -72 7 -327 134 l-270 135 0 -45z"/>
<path d="M880 640 l0 -160 360 0 360 0 0 25 0 25 -177 1 -178 0 178 90 c111 56 177 95 177 104 0 11 -63 -17 -210 -90 -195 -98 -214 -105 -267 -104 l-58 0 265 134 265 134 -88 0 -87 1 -240 -120 c-132 -66 -242 -120 -245 -120 -3 0 -5 54 -5 120 l0 120 -25 0 -25 0 0 -160z"/>
<path d="M1954 768 c7 -38 7 -38 -26 -38 l-33 -1 27 -22 c24 -20 25 -24 12 -41 -20 -28 -18 -39 5 -26 30 15 40 12 47 -15 3 -14 10 -25 14 -25 4 0 11 11 14 25 7 27 17 30 47 15 23 -13 25 -2 5 26 -13 17 -12 21 12 41 l27 22 -33 1 c-33 0 -33 0 -26 38 l7 37 -27 -24 -26 -24 -26 24 -27 24 7 -37z"/>
<path d="M2710 657 c0 -35 -2 -37 -32 -37 l-32 0 24 -17 c14 -9 27 -18 29 -19 2 -2 -4 -15 -13 -29 l-17 -26 33 6 c30 6 35 4 44 -22 l11 -28 8 28 c7 26 10 28 42 22 l34 -6 -17 26 c-16 24 -16 26 2 40 10 8 24 15 29 16 6 1 -3 4 -20 8 -25 5 -31 11 -33 41 l-4 34 -18 -24 -19 -25 -25 24 -26 24 0 -36z"/>
<path d="M2355 333 c6 -30 5 -33 -19 -33 -35 0 -40 -14 -11 -30 24 -13 24 -15 9 -38 -19 -29 -13 -38 16 -22 23 13 39 1 40 -27 0 -7 5 -13 10 -13 6 0 10 6 10 13 1 28 17 40 40 27 29 -16 35 -7 16 22 -15 23 -15 25 9 38 29 16 24 30 -11 30 -24 0 -25 3 -19 33 l7 32 -26 -24 -26 -24 -26 24 -26 24 7 -32z"/>
<path d="M0 295 l0 -25 178 -1 177 0 -177 -90 c-112 -56 -178 -95 -178 -104 0 -11 63 17 210 90 195 98 214 105 267 104 l58 0 -265 -134 -265 -134 88 0 87 -1 240 120 c132 66 242 120 245 120 3 0 5 -54 5 -120 l0 -120 25 0 25 0 0 160 0 160 -360 0 -360 0 0 -25z"/>
<path d="M880 160 l0 -160 25 0 25 0 0 120 c0 66 2 120 5 120 3 0 113 -54 245 -120 140 -70 251 -120 267 -119 19 0 -55 42 -237 134 l-265 134 58 0 c54 1 72 -7 327 -134 l270 -135 0 45 0 45 -172 87 -173 88 173 3 172 2 0 25 0 25 -360 0 -360 0 0 -160z"/>
</g>


</svg>