<!DOCTYPE svg PUBLIC "-//W3C//DTD SVG 20010904//EN" "http://www.w3.org/TR/2001/REC-SVG-20010904/DTD/svg10.dtd">
<svg version="1.0" xmlns="http://www.w3.org/2000/svg" width="1600px" height="800px" viewBox="0 0 16000 8000" preserveAspectRatio="xMidYMid meet">
<g id="layer101" fill="#007c30" stroke="none">
 <path d="M0 4000 l0 -4000 8000 0 8000 0 0 4000 0 4000 -8000 0 -8000 0 0 -4000z"/>
 </g>
<g id="layer102" fill="#8f3726" stroke="none">
 <path d="M0 4000 l0 -4000 8000 0 8000 0 0 2665 0 2665 -7065 0 -7065 0 0 1335 0 1335 -935 0 -935 0 0 -4000z"/>
 </g>
<g id="layer103" fill="#ce1720" stroke="none">
 <path d="M0 4000 l0 -4000 8000 0 8000 0 0 2665 0 2665 -7065 0 -7065 0 0 288 c0 158 0 758 0 1335 l0 1047 -935 0 -935 0 0 -4000z"/>
 </g>
<g id="layer104" fill="#fffdfd" stroke="none">
 <path d="M90 7970 c0 -28 3 -30 35 -30 l35 0 0 -80 0 -80 -35 0 -35 0 0 -145 0 -145 35 0 35 0 0 60 0 60 35 0 35 0 0 70 0 70 50 0 50 0 0 60 0 60 40 0 40 0 0 65 0 65 -160 0 -160 0 0 -30z"/>
 <path d="M660 7935 l0 -65 40 0 40 0 0 -60 0 -60 50 0 50 0 0 -70 0 -70 35 0 35 0 0 -60 0 -61 68 3 67 3 3 58 3 57 34 0 35 0 0 70 0 70 50 0 50 0 0 60 0 60 40 0 40 0 0 65 0 65 -140 0 -140 0 0 -145 0 -145 -40 0 -40 0 0 145 0 145 -140 0 -140 0 0 -65z"/>
 <path d="M1542 7938 l3 -63 43 -3 42 -3 0 -60 0 -59 50 0 50 0 0 -70 0 -70 35 0 35 0 0 -61 0 -60 33 3 32 3 3 143 3 142 -36 0 -35 0 0 80 0 80 35 0 c32 0 35 2 35 30 l0 30 -165 0 -166 0 3 -62z"/>
 <path d="M498 7678 c-3 -52 -4 -53 -35 -56 l-33 -3 0 -65 0 -64 -35 0 -35 0 0 -84 0 -85 33 -3 32 -3 3 -67 3 -68 34 0 35 0 0 -55 0 -55 35 0 35 0 0 55 0 55 35 0 35 0 0 70 0 70 35 0 36 0 -3 83 -3 82 -32 3 -33 3 0 65 0 64 -35 0 -35 0 0 55 0 55 -34 0 -35 0 -3 -52z m82 -273 l0 -75 -45 0 -45 0 0 75 0 75 45 0 45 0 0 -75z"/>
 <path d="M1390 7675 l0 -55 -35 0 -35 0 0 -65 0 -65 -35 0 -35 0 0 -85 0 -85 35 0 35 0 0 -70 0 -70 35 0 35 0 0 -55 0 -55 35 0 35 0 0 55 0 55 35 0 35 0 0 70 0 70 35 0 36 0 -3 83 -3 82 -32 3 -33 3 0 65 0 64 -35 0 -35 0 0 55 0 55 -35 0 -35 0 0 -55z m80 -270 l0 -75 -45 0 -45 0 0 75 0 75 45 0 45 0 0 -75z"/>
 <path d="M90 7191 l0 -120 33 -3 32 -3 3 -87 3 -88 -36 0 -35 0 0 -180 0 -180 35 0 35 0 0 65 0 65 40 0 40 0 0 60 0 60 50 0 50 0 0 -59 0 -60 43 -3 42 -3 3 -62 3 -63 34 0 35 0 0 -80 0 -80 -35 0 -34 0 -3 -62 -3 -63 -42 -3 -43 -3 0 -60 0 -60 -47 3 -48 3 -3 58 -3 57 -39 0 -40 0 0 65 0 65 -35 0 -35 0 0 -145 0 -145 35 0 35 0 0 -85 0 -85 -35 0 -35 0 0 -195 0 -195 35 0 35 0 0 75 c0 73 1 75 25 75 24 0 25 3 25 55 0 52 1 55 25 55 24 0 25 2 25 65 l0 65 35 0 35 0 0 60 0 60 34 0 c34 0 35 1 38 43 3 42 3 42 45 45 l43 3 -1 47 c-2 74 -3 72 51 72 l50 0 0 -60 0 -60 40 0 40 0 0 -45 c0 -45 0 -45 35 -45 l35 0 0 -60 0 -60 35 0 35 0 0 -65 0 -65 30 0 c30 0 30 -1 30 -55 0 -52 1 -55 24 -55 23 0 25 -5 28 -47 l3 -48 53 -3 52 -3 0 50 c0 50 1 51 30 51 30 0 30 1 30 55 0 52 1 55 25 55 23 0 24 4 27 63 3 62 3 62 36 65 l32 3 0 60 0 59 40 0 40 0 0 45 0 45 40 0 40 0 0 60 0 60 50 0 50 0 0 -60 0 -60 40 0 40 0 0 -45 c0 -45 0 -45 35 -45 l35 0 0 -60 0 -60 35 0 35 0 0 -65 c0 -63 1 -65 25 -65 24 0 25 -3 25 -54 0 -52 1 -55 28 -58 26 -3 27 -5 30 -75 l3 -73 35 0 34 0 -2 193 -3 192 -32 3 -33 3 0 85 0 84 35 0 35 0 0 145 0 145 -35 0 -35 0 0 -65 0 -65 -45 0 -45 0 0 -61 0 -60 -47 3 -48 3 -3 58 -3 57 -39 0 -40 0 0 65 0 65 -35 0 -35 0 0 80 0 80 35 0 35 0 0 65 0 65 40 0 39 0 3 58 3 57 48 3 47 3 0 -60 0 -61 45 0 45 0 0 -65 0 -65 35 0 35 0 0 180 0 180 -35 0 -35 0 0 90 0 90 35 0 35 0 0 120 0 120 -35 0 -35 0 0 -55 0 -55 -35 0 -35 0 0 -70 0 -70 -50 0 -49 0 -3 -62 -3 -63 -42 -3 -43 -3 0 -65 c0 -62 -1 -64 -25 -64 -24 0 -25 -3 -25 -55 l0 -55 -65 0 -65 0 0 55 c0 54 0 55 -30 55 l-30 0 0 65 0 65 -40 0 -40 0 0 65 0 65 -50 0 -50 0 0 70 0 70 -35 0 -35 0 0 55 0 55 -70 0 -70 0 0 -55 0 -55 -35 0 -35 0 0 -70 0 -70 -50 0 -49 0 -3 -62 -3 -63 -37 -3 -37 -3 -3 -62 c-3 -59 -4 -62 -30 -65 -27 -3 -28 -6 -28 -58 l0 -54 -65 0 -65 0 0 55 c0 54 0 55 -30 55 l-30 0 0 65 0 65 -40 0 -40 0 0 65 0 65 -50 0 -50 0 0 70 0 70 -35 0 -35 0 0 55 0 55 -35 0 -35 0 0 -119z m928 -263 l-3 -123 -37 -3 -38 -3 0 125 0 126 40 0 41 0 -3 -122z m-196 -205 l3 -58 43 -3 42 -3 0 -65 0 -64 65 0 64 0 3 63 3 62 43 3 42 3 0 60 0 59 50 0 50 0 0 -59 0 -60 43 -3 42 -3 3 -62 3 -63 34 0 35 0 0 -80 0 -80 -35 0 -34 0 -3 -62 -3 -63 -42 -3 -43 -3 0 -60 0 -59 -50 0 -50 0 0 59 0 60 -42 3 -43 3 -3 63 -3 62 -64 0 -65 0 0 -65 0 -65 -45 0 -45 0 0 -60 0 -60 -45 0 -45 0 0 60 0 60 -45 0 -45 0 0 65 0 65 -35 0 -35 0 0 80 0 80 35 0 35 0 0 64 0 65 43 3 42 3 3 58 3 57 44 0 44 0 3 -57z m198 -723 l0 -120 -40 0 -40 0 0 120 0 120 40 0 40 0 0 -120z"/>
 <path d="M742 6453 l3 -78 33 -3 32 -3 0 80 0 81 -35 0 -36 0 3 -77z"/>
 <path d="M1142 6453 l3 -78 35 0 35 0 3 78 3 77 -41 0 -41 0 3 -77z"/>
 <path d="M262 6453 l3 -78 30 0 30 0 3 78 3 77 -36 0 -36 0 3 -77z"/>
 <path d="M1624 6516 c-3 -7 -4 -42 -2 -77 l3 -64 35 0 35 0 3 78 3 77 -36 0 c-21 0 -38 -6 -41 -14z"/>
 <path d="M437 5424 c-4 -4 -7 -36 -7 -71 l0 -63 55 0 55 0 0 -55 0 -55 -35 0 -35 0 0 -75 0 -75 -45 0 -45 0 0 -65 0 -65 -50 0 -50 0 0 65 0 65 -45 0 -44 0 -3 73 c-3 66 -5 72 -26 75 -20 3 -22 9 -22 58 0 51 -1 54 -25 54 l-25 0 0 -125 0 -125 35 0 35 0 0 -85 0 -85 -35 0 -35 0 0 -105 0 -105 35 0 c34 0 35 -1 35 -40 0 -38 2 -40 30 -40 l30 0 0 -60 0 -60 40 0 40 0 0 -70 0 -70 55 0 55 0 0 65 0 65 45 0 45 0 0 45 c0 43 1 45 30 45 30 0 30 1 30 54 l0 55 38 3 37 3 3 58 c3 53 5 57 27 57 24 0 25 3 25 60 l0 60 30 0 30 0 0 65 0 65 40 0 40 0 0 80 0 80 -50 0 -50 0 0 75 0 75 -54 0 -55 0 -3 48 -3 47 -85 3 c-47 1 -89 0 -93 -4z"/>
 <path d="M1345 5418 c-2 -7 -6 -29 -7 -48 -3 -35 -3 -35 -55 -38 l-52 -3 -3 -72 -3 -72 -47 -3 -48 -3 0 -80 0 -79 35 0 34 0 3 -62 c3 -60 4 -63 31 -66 26 -3 27 -5 27 -63 0 -59 0 -59 30 -59 l30 0 0 -60 0 -60 40 0 40 0 0 -55 c0 -54 0 -55 30 -55 29 0 30 -2 30 -45 l0 -45 40 0 40 0 0 -65 0 -65 60 0 60 0 0 70 0 70 40 0 40 0 0 60 0 60 30 0 c28 0 30 2 30 40 0 39 1 40 35 40 l35 0 0 105 0 105 -35 0 -35 0 0 85 0 85 35 0 35 0 0 125 0 125 -25 0 c-24 0 -25 -3 -25 -54 0 -52 -1 -55 -27 -58 -27 -3 -28 -5 -31 -75 l-3 -73 -39 0 -39 0 -3 -62 -3 -63 -52 -3 -53 -3 0 65 0 66 -40 0 -39 0 -3 73 -3 72 -32 3 c-33 3 -33 4 -33 58 l0 54 50 0 50 0 0 70 0 70 -85 0 c-60 0 -87 -4 -90 -12z"/>
 <path d="M910 4808 c0 -45 -3 -58 -15 -58 -12 0 -15 -14 -15 -65 l0 -65 -40 0 -40 0 0 -60 c0 -53 -2 -60 -20 -60 -17 0 -20 -7 -20 -45 0 -41 -2 -45 -25 -45 -23 0 -25 -4 -25 -45 l0 -45 -45 0 -45 0 0 -45 0 -45 -60 0 -60 0 0 -230 0 -230 60 0 60 0 0 -45 0 -45 45 0 45 0 0 -45 c0 -41 2 -45 25 -45 23 0 25 -4 25 -45 0 -38 3 -45 20 -45 18 0 20 -7 20 -60 l0 -60 40 0 40 0 0 -65 c0 -51 3 -65 15 -65 12 0 15 -13 15 -58 l0 -57 65 0 65 0 0 58 c0 43 4 57 15 57 10 0 15 16 17 63 l3 62 38 3 37 3 0 60 c0 56 1 59 25 59 23 0 25 4 25 45 0 41 2 45 25 45 23 0 25 4 25 44 l0 45 43 3 c44 3 42 -1 46 70 1 14 13 18 59 20 l57 3 0 225 0 225 -60 5 -59 5 -1 40 c0 40 0 40 -42 43 l-43 3 0 45 c0 40 -2 44 -25 44 -23 0 -25 4 -25 45 0 41 -2 45 -25 45 -24 0 -25 3 -25 59 l0 60 -37 3 -38 3 -3 63 c-2 46 -7 62 -17 62 -11 0 -15 14 -15 58 l0 57 -65 0 -65 0 0 -57z m108 -280 l3 -78 -41 0 -40 0 0 81 0 80 38 -3 37 -3 3 -77z m-158 -202 c0 -44 0 -45 38 -48 l37 -3 3 -67 3 -68 39 0 40 0 0 70 0 70 35 0 c35 0 35 0 35 45 0 45 0 45 35 45 l35 0 0 -115 0 -115 -35 0 c-33 0 -35 -2 -35 -34 0 -28 -4 -35 -22 -38 -21 -3 -23 -8 -23 -68 0 -60 2 -65 23 -68 18 -3 22 -10 22 -38 0 -32 2 -34 35 -34 l35 0 0 -115 0 -115 -35 0 c-35 0 -35 0 -35 45 0 45 0 45 -35 45 l-35 0 0 70 0 70 -40 0 -39 0 -3 -67 -3 -68 -37 -3 c-38 -3 -38 -4 -38 -48 0 -42 -1 -44 -30 -44 l-30 0 0 115 0 115 30 0 c28 0 30 3 30 34 0 28 4 35 23 38 20 3 22 8 22 68 0 60 -2 65 -22 68 -19 3 -23 10 -23 38 0 31 -2 34 -30 34 l-30 0 0 115 0 115 30 0 c29 0 30 -2 30 -44z m-150 -326 l0 -80 -40 0 -40 0 0 80 0 80 40 0 40 0 0 -80z m610 0 l0 -80 -35 0 -35 0 0 80 0 80 35 0 35 0 0 -80z m-302 -527 l-3 -78 -37 -3 -38 -3 0 80 0 81 40 0 41 0 -3 -77z"/>
 <path d="M90 4000 l0 -381 33 3 c32 3 32 4 35 61 3 56 4 57 32 57 28 0 30 2 30 40 l0 40 40 0 40 0 0 65 0 65 30 0 c29 0 30 1 30 50 0 49 -1 50 -30 50 l-30 0 0 65 0 65 -40 0 -40 0 0 40 c0 38 -2 40 -30 40 -28 0 -29 1 -32 58 -3 56 -3 57 -35 60 l-33 3 0 -381z"/>
 <path d="M1800 4321 l0 -61 -30 0 c-28 0 -30 -2 -30 -40 l0 -40 -40 0 -40 0 0 -65 0 -65 -30 0 c-29 0 -30 -1 -30 -50 0 -49 1 -50 30 -50 l30 0 0 -65 0 -65 40 0 40 0 0 -40 c0 -38 2 -40 30 -40 l30 0 0 -61 0 -60 33 3 32 3 0 375 0 375 -32 3 -33 3 0 -60z"/>
 <path d="M300 3610 l0 -70 -40 0 -40 0 0 -60 0 -60 -30 0 c-28 0 -30 -2 -30 -40 0 -39 -1 -40 -35 -40 l-35 0 0 -105 0 -105 35 0 35 0 0 -85 0 -85 -35 0 -35 0 0 -125 0 -125 25 0 c24 0 25 3 25 54 0 49 2 55 23 58 20 3 22 9 25 76 l3 72 44 0 45 0 0 65 0 65 50 0 50 0 0 -65 0 -65 45 0 45 0 0 -75 0 -75 35 0 35 0 0 -55 0 -55 -55 0 -56 0 3 -67 3 -68 90 0 90 0 3 48 3 47 55 0 54 0 0 75 0 75 50 0 50 0 0 80 0 80 -40 0 -40 0 0 65 0 65 -30 0 -30 0 0 60 c0 57 -1 60 -25 60 -22 0 -24 4 -27 58 l-3 57 -37 3 -38 3 0 55 c0 53 0 54 -30 54 -29 0 -30 2 -30 45 l0 45 -45 0 -45 0 0 65 0 65 -55 0 -55 0 0 -70z"/>
 <path d="M1540 3615 l0 -65 -40 0 -40 0 0 -45 c0 -43 -1 -45 -30 -45 -30 0 -30 -1 -30 -55 l0 -55 -40 0 -40 0 0 -60 0 -60 -30 0 c-30 0 -30 0 -30 -59 0 -58 -1 -60 -27 -63 -27 -3 -28 -6 -31 -65 l-3 -63 -34 0 -35 0 0 -79 0 -80 48 -3 47 -3 3 -72 3 -72 52 -3 52 -3 5 -45 5 -45 88 -3 87 -3 0 71 0 70 -50 0 -50 0 0 54 c0 54 0 55 33 58 l32 3 3 73 3 72 39 0 40 0 0 66 0 65 53 -3 52 -3 3 -62 3 -63 39 0 39 0 3 -72 c3 -71 4 -73 31 -76 26 -3 27 -6 27 -58 0 -51 1 -54 25 -54 l25 0 0 125 0 125 -35 0 -35 0 0 85 0 85 35 0 35 0 0 105 0 105 -35 0 c-34 0 -35 1 -35 40 0 38 -2 40 -30 40 l-30 0 0 60 0 60 -40 0 -40 0 0 70 0 70 -60 0 -60 0 0 -65z"/>
 <path d="M90 2285 l0 -195 35 0 35 0 0 -85 0 -85 -35 0 -35 0 0 -145 0 -145 35 0 35 0 0 65 0 65 40 0 39 0 3 58 3 57 48 3 47 3 0 -60 0 -60 43 -3 42 -3 3 -62 3 -63 34 0 35 0 0 -80 0 -80 -35 0 -34 0 -3 -62 -3 -63 -42 -3 -43 -3 0 -60 0 -59 -50 0 -50 0 0 60 0 60 -40 0 -40 0 0 65 0 65 -35 0 -35 0 0 -180 0 -180 35 0 36 0 -3 -87 -3 -88 -32 -3 -33 -3 0 -120 0 -119 35 0 35 0 0 55 0 55 35 0 35 0 0 70 0 70 50 0 50 0 0 65 0 65 40 0 40 0 0 65 0 65 30 0 c30 0 30 1 30 55 l0 55 65 0 65 0 0 -54 c0 -52 1 -55 28 -58 26 -3 27 -6 30 -65 l3 -62 37 -3 37 -3 3 -62 3 -63 49 0 50 0 0 -70 0 -70 35 0 35 0 0 -55 0 -55 70 0 70 0 0 55 0 55 35 0 35 0 0 70 0 70 50 0 50 0 0 65 0 65 40 0 40 0 0 65 0 65 30 0 c30 0 30 1 30 55 l0 55 65 0 65 0 0 -55 c0 -52 1 -55 25 -55 24 0 25 -2 25 -64 l0 -65 43 -3 42 -3 3 -62 3 -63 49 0 50 0 0 -70 0 -70 35 0 35 0 0 -55 0 -55 35 0 35 0 0 120 0 120 -35 0 -35 0 0 90 0 90 35 0 35 0 0 180 0 180 -35 0 -35 0 0 -65 0 -65 -45 0 -45 0 0 -60 0 -60 -50 0 -50 0 0 60 0 60 -40 0 -40 0 0 65 0 65 -35 0 -35 0 0 80 0 80 35 0 35 0 0 65 0 65 40 0 39 0 3 58 3 57 48 3 47 3 0 -60 0 -61 45 0 45 0 0 -65 0 -65 35 0 35 0 0 145 0 145 -35 0 -35 0 0 85 0 85 35 0 35 0 0 195 0 195 -35 0 -34 0 -3 -72 c-3 -71 -4 -73 -30 -76 -27 -3 -28 -6 -28 -58 0 -51 -1 -54 -25 -54 -24 0 -25 -2 -25 -65 l0 -65 -35 0 -35 0 0 -60 0 -60 -35 0 c-35 0 -35 0 -35 -45 l0 -45 -40 0 -40 0 0 -60 0 -60 -50 0 -50 0 0 60 0 60 -40 0 -40 0 0 45 0 45 -40 0 -40 0 0 59 0 60 -32 3 c-33 3 -33 3 -36 66 -3 58 -4 62 -27 62 -24 0 -25 3 -25 55 0 54 0 55 -30 55 -29 0 -30 1 -30 51 l0 50 -52 -3 -53 -3 -3 -47 c-3 -43 -5 -48 -28 -48 -23 0 -24 -3 -24 -55 0 -54 0 -55 -30 -55 l-30 0 0 -65 0 -65 -35 0 -35 0 0 -60 0 -60 -35 0 c-35 0 -35 0 -35 -45 l0 -45 -40 0 -40 0 0 -60 0 -60 -50 0 -50 0 0 59 0 60 -42 3 c-43 3 -43 3 -46 46 -3 41 -4 42 -38 42 l-34 0 0 60 0 60 -35 0 -35 0 0 65 c0 63 -1 65 -25 65 -24 0 -25 3 -25 54 0 49 -2 55 -22 58 -21 3 -23 9 -26 76 l-3 72 -34 0 -35 0 0 -195z m930 -285 l0 -120 -40 0 -40 0 0 120 0 120 40 0 40 0 0 -120z m-200 -180 l0 -60 45 0 45 0 0 -65 0 -65 65 0 64 0 3 63 3 62 43 3 42 3 0 60 0 59 50 0 50 0 0 -59 0 -60 43 -3 42 -3 3 -62 3 -63 34 0 35 0 0 -80 0 -80 -35 0 -34 0 -3 -62 -3 -63 -42 -3 -43 -3 0 -60 0 -59 -50 0 -50 0 0 59 0 60 -42 3 -43 3 -3 63 -3 62 -64 0 -65 0 0 -64 0 -65 -42 -3 -43 -3 -3 -57 -3 -58 -44 0 -45 0 0 60 0 60 -45 0 -45 0 0 65 0 65 -35 0 -35 0 0 80 0 80 35 0 35 0 0 65 0 65 45 0 45 0 0 60 0 60 45 0 45 0 0 -60z m198 -747 l3 -123 -41 0 -40 0 0 126 0 125 38 -3 37 -3 3 -122z"/>
 <path d="M747 1623 c-4 -3 -7 -39 -7 -80 l0 -73 35 0 35 0 0 80 0 80 -28 0 c-16 0 -32 -3 -35 -7z"/>
 <path d="M1147 1624 c-4 -4 -7 -40 -7 -81 l0 -73 40 0 41 0 -3 78 -3 77 -30 3 c-17 2 -34 0 -38 -4z"/>
 <path d="M267 1624 c-4 -4 -7 -40 -7 -81 l0 -73 35 0 36 0 -3 78 c-3 74 -4 77 -28 80 -14 2 -29 0 -33 -4z"/>
 <path d="M1624 1617 c-3 -8 -4 -43 -2 -78 l3 -64 38 -3 38 -3 -3 78 -3 78 -33 3 c-21 2 -34 -2 -38 -11z"/>
 <path d="M498 878 c-3 -52 -4 -53 -35 -56 l-32 -3 -3 -67 -3 -67 -32 -3 -33 -3 0 -85 0 -84 35 0 35 0 0 -64 0 -65 33 -3 c31 -3 32 -4 35 -55 l3 -53 35 0 34 0 0 55 0 55 35 0 35 0 0 64 0 65 33 3 32 3 3 83 3 82 -36 0 -35 0 0 70 0 70 -35 0 -35 0 0 55 0 55 -34 0 -35 0 -3 -52z m82 -283 l0 -75 -45 0 -45 0 0 75 0 75 45 0 45 0 0 -75z"/>
 <path d="M1390 875 l0 -55 -35 0 -35 0 0 -70 0 -70 -35 0 -35 0 0 -85 0 -85 35 0 35 0 0 -64 0 -65 33 -3 c31 -3 32 -4 35 -55 l3 -53 35 0 34 0 0 55 0 55 35 0 35 0 0 64 0 65 33 3 32 3 3 83 3 82 -36 0 -35 0 0 70 0 70 -35 0 -35 0 0 55 0 55 -35 0 -35 0 0 -55z m80 -280 l0 -75 -45 0 -45 0 0 75 0 75 45 0 45 0 0 -75z"/>
 <path d="M90 365 l0 -145 35 0 35 0 0 -80 0 -80 -35 0 c-32 0 -35 -2 -35 -30 l0 -30 160 0 160 0 0 65 0 65 -40 0 -40 0 0 60 0 60 -50 0 -50 0 0 70 0 70 -35 0 -35 0 0 60 0 60 -35 0 -35 0 0 -145z"/>
 <path d="M910 450 l0 -60 -35 0 -35 0 0 -70 0 -70 -50 0 -50 0 0 -60 0 -60 -40 0 -40 0 0 -65 0 -65 140 0 140 0 0 145 0 145 40 0 40 0 0 -145 0 -145 140 0 140 0 0 65 0 65 -40 0 -40 0 0 60 0 60 -50 0 -50 0 0 70 0 70 -35 0 -34 0 -3 58 -3 57 -67 3 -68 3 0 -61z"/>
 <path d="M1800 450 l0 -60 -35 0 -35 0 0 -70 0 -70 -50 0 -50 0 0 -59 0 -60 -42 -3 -43 -3 -3 -62 -3 -63 166 0 165 0 0 30 c0 28 -3 30 -35 30 l-35 0 0 80 0 80 35 0 35 0 0 145 0 145 -35 0 -35 0 0 -60z"/>
 </g>

</svg>