<!DOCTYPE svg PUBLIC "-//W3C//DTD SVG 20010904//EN" "http://www.w3.org/TR/2001/REC-SVG-20010904/DTD/svg10.dtd">
<svg version="1.0" xmlns="http://www.w3.org/2000/svg" width="1600px" height="1120px" viewBox="0 0 16000 11200" preserveAspectRatio="xMidYMid meet">
<g id="layer101" fill="#002776" stroke="none">
<path d="M0 5600 l0 -5600 8000 0 8000 0 0 5600 0 5600 -8000 0 -8000 0 0 -5600z"/>
</g>
<g id="layer102" fill="#009b3a" stroke="none">
<path d="M0 5600 l0 -5600 8000 0 8000 0 0 5600 0 5600 -8000 0 -8000 0 0 -5600z m8400 2770 c467 -66 904 -251 1310 -554 116 -86 402 -369 492 -486 176 -229 340 -523 428 -769 l44 -124 -49 -44 c-617 -551 -1456 -1027 -2260 -1283 -466 -149 -893 -235 -1415 -287 -249 -24 -855 -24 -1105 1 -177 17 -503 61 -537 72 -25 7 -51 115 -84 339 -27 182 -25 572 4 760 78 503 262 935 570 1335 84 110 362 388 472 472 447 344 970 548 1510 589 157 11 466 1 620 -21z m2391 -2561 c59 -762 -209 -1537 -724 -2094 -391 -423 -861 -702 -1407 -834 -664 -161 -1359 -75 -1966 244 -259 136 -441 271 -665 494 -173 174 -248 263 -370 446 -63 95 -225 393 -217 400 2 1 48 -3 103 -11 269 -35 493 -48 850 -48 351 -1 507 7 790 40 984 114 1919 439 2783 966 225 137 538 360 732 521 42 35 67 50 72 42 4 -6 12 -81 19 -166z"/>
</g>
<g id="layer103" fill="#fedf00" stroke="none">
<path d="M7660 9624 c-184 -118 -411 -264 -505 -323 -93 -60 -316 -202 -495 -316 -179 -115 -422 -270 -540 -345 -118 -75 -296 -189 -395 -252 -883 -565 -1216 -778 -1375 -878 -102 -65 -321 -205 -487 -311 -167 -107 -443 -284 -615 -393 -172 -110 -380 -243 -463 -296 -82 -53 -242 -156 -355 -227 -649 -413 -1055 -674 -1058 -682 -1 -4 39 -34 90 -67 51 -32 269 -170 483 -308 215 -137 480 -306 590 -376 110 -70 297 -189 415 -265 118 -76 337 -215 485 -310 149 -95 367 -234 485 -310 118 -76 305 -195 415 -265 110 -70 533 -340 940 -600 407 -260 844 -539 970 -620 529 -337 1306 -833 1522 -972 l233 -148 162 103 c90 57 327 209 528 337 201 129 500 320 665 425 703 449 1729 1104 2275 1453 168 107 384 245 480 307 96 61 389 248 650 415 261 167 572 365 690 440 118 75 391 249 605 386 215 138 432 276 483 308 50 32 92 62 92 66 0 4 -98 69 -217 145 -120 77 -337 215 -483 309 -146 93 -362 231 -480 306 -118 75 -510 325 -870 555 -360 230 -758 484 -885 565 -780 498 -1601 1022 -1980 1265 -165 106 -367 235 -450 287 -82 52 -247 157 -365 233 -446 286 -900 575 -902 574 -2 0 -154 -97 -338 -215z m740 -1254 c467 -66 904 -251 1310 -554 116 -86 402 -369 492 -486 176 -229 340 -523 428 -769 l44 -124 -49 -44 c-617 -551 -1456 -1027 -2260 -1283 -466 -149 -893 -235 -1415 -287 -249 -24 -855 -24 -1105 1 -177 17 -503 61 -537 72 -25 7 -51 115 -84 339 -27 182 -25 572 4 760 78 503 262 935 570 1335 84 110 362 388 472 472 447 344 970 548 1510 589 157 11 466 1 620 -21z m2161 -2225 c40 -21 69 -71 69 -118 0 -74 -40 -116 -110 -117 -89 0 -153 86 -129 173 18 67 101 97 170 62z m230 -336 c59 -762 -209 -1537 -724 -2094 -391 -423 -861 -702 -1407 -834 -664 -161 -1359 -75 -1966 244 -259 136 -441 271 -665 494 -173 174 -248 263 -370 446 -63 95 -225 393 -217 400 2 1 48 -3 103 -11 269 -35 493 -48 850 -48 351 -1 507 7 790 40 984 114 1919 439 2783 966 225 137 538 360 732 521 42 35 67 50 72 42 4 -6 12 -81 19 -166z m-507 140 c39 -31 34 -66 -19 -128 -48 -56 -55 -78 -29 -88 23 -8 68 29 74 62 6 36 36 56 50 35 26 -39 -24 -109 -97 -136 -42 -16 -45 -16 -71 3 -44 32 -40 69 13 133 25 30 45 61 45 68 0 42 -88 6 -97 -40 -3 -15 -14 -35 -25 -45 -17 -15 -21 -15 -28 -3 -15 24 -12 45 13 81 25 37 90 79 123 79 12 0 33 -9 48 -21z m-271 -201 c29 -34 21 -62 -34 -122 -51 -56 -59 -86 -22 -86 27 1 53 25 62 56 4 15 17 34 29 42 20 13 22 12 28 -13 10 -39 -10 -71 -63 -105 -55 -35 -95 -38 -123 -10 -34 34 -26 70 31 134 46 51 50 59 37 73 -14 13 -19 13 -46 -1 -33 -17 -57 -50 -47 -66 6 -9 -25 -30 -44 -30 -6 0 -11 14 -11 30 0 40 52 96 105 115 46 16 73 12 98 -17z m-303 -157 c0 -3 -36 -26 -80 -50 -44 -25 -80 -50 -80 -56 0 -6 6 -20 14 -30 13 -18 16 -17 80 16 57 29 68 32 76 19 15 -23 14 -23 -50 -58 -59 -33 -68 -44 -51 -70 7 -11 24 -5 83 27 41 23 78 41 81 41 3 0 11 -8 16 -18 9 -16 0 -24 -67 -62 -42 -24 -86 -50 -98 -57 -20 -13 -24 -8 -89 104 -37 64 -64 119 -59 120 5 2 52 28 104 58 86 49 96 53 108 38 6 -9 12 -19 12 -22z m-303 -204 c4 -28 12 -41 29 -47 46 -18 60 -94 24 -130 -11 -11 -51 -35 -90 -55 l-70 -35 -60 120 c-58 116 -59 120 -39 131 24 12 21 14 44 -33 9 -21 21 -38 27 -38 5 0 27 9 48 20 33 17 40 25 40 51 0 17 -5 39 -10 49 -8 15 -6 21 7 29 23 13 41 -10 50 -62z m-267 -188 c0 -7 -74 -39 -90 -39 -17 0 -11 30 6 37 15 6 15 8 -2 20 -67 49 -129 -56 -69 -121 15 -17 34 -26 54 -26 31 0 61 22 61 44 0 7 11 18 25 24 24 11 25 10 25 -19 0 -46 -56 -99 -104 -99 -53 0 -93 24 -116 70 -24 48 -26 93 -3 131 20 34 76 63 109 56 18 -3 24 0 24 14 0 39 26 25 52 -30 15 -31 27 -59 28 -62z m-384 -65 c46 -22 74 -70 74 -129 0 -40 -5 -52 -34 -81 -27 -27 -42 -34 -72 -34 -76 0 -135 62 -134 142 1 42 19 74 56 99 35 23 65 24 110 3z m-302 -90 c3 -9 6 -33 6 -55 0 -26 5 -42 15 -46 25 -9 47 -61 40 -94 -8 -37 -34 -54 -127 -83 l-75 -23 -41 126 c-23 68 -40 126 -39 127 1 1 12 5 24 8 20 6 24 2 34 -39 10 -41 15 -46 33 -41 12 4 34 9 49 13 34 7 49 40 37 82 -4 16 -6 32 -2 35 11 12 40 6 46 -10z m-493 -169 c13 -50 13 -50 88 -31 83 23 130 -4 131 -75 0 -50 -26 -70 -123 -95 -95 -25 -81 -39 -122 119 -24 92 -26 110 -14 118 24 15 28 11 40 -36z m-366 -59 c0 -17 -11 -22 -67 -31 -37 -6 -70 -13 -73 -17 -12 -11 7 -59 21 -54 8 3 36 8 64 12 46 6 50 5 50 -14 0 -22 -10 -27 -77 -37 -34 -5 -43 -11 -43 -27 0 -19 4 -20 53 -14 28 4 62 9 73 12 14 4 23 0 28 -12 10 -26 0 -30 -96 -46 -79 -13 -88 -13 -93 1 -9 30 -36 213 -32 218 8 7 142 32 167 30 17 -1 25 -8 25 -21z m-1919 -70 c33 -33 40 -57 35 -115 -9 -97 -122 -146 -192 -83 -26 23 -32 38 -37 82 -8 91 38 149 122 150 30 0 45 -7 72 -34z m1408 2 c4 -18 18 -183 21 -233 0 -5 -16 -10 -35 -10 -34 0 -35 1 -64 78 -17 46 -32 73 -36 66 -4 -6 -14 -45 -21 -85 -12 -68 -15 -74 -42 -80 -15 -3 -31 -3 -34 0 -7 7 -30 256 -24 262 2 2 12 4 22 4 15 0 19 -13 25 -82 8 -89 13 -85 34 25 11 58 15 67 34 67 18 0 27 -14 54 -82 l32 -83 -6 88 c-7 84 -6 87 14 87 14 0 23 -8 26 -22z m-1212 -37 c-3 -52 6 -61 64 -61 46 0 61 12 70 58 5 25 12 32 29 32 22 0 22 -2 13 -42 -5 -24 -13 -47 -17 -51 -5 -5 0 -25 11 -45 16 -30 18 -42 9 -64 -19 -50 -50 -61 -148 -53 l-88 7 6 101 c4 56 7 117 8 135 1 29 4 33 24 30 19 -3 22 -8 19 -47z m435 19 c41 0 88 -46 97 -94 10 -51 -9 -110 -45 -140 -28 -23 -39 -26 -115 -26 l-84 0 0 38 c0 20 3 81 7 136 l6 98 51 -6 c28 -3 65 -6 83 -6z m441 -17 c3 -22 1 -23 -92 -23 -52 0 -97 -3 -99 -8 -3 -4 -3 -19 0 -35 5 -27 7 -27 79 -27 66 0 74 -2 74 -19 0 -14 -10 -20 -46 -25 -26 -3 -60 -6 -75 -6 -24 0 -29 -4 -29 -25 0 -25 1 -25 90 -25 89 0 90 0 90 -25 l0 -25 -115 0 -115 0 0 129 0 130 33 4 c17 2 70 4 117 3 80 -1 85 -2 88 -23z"/>
</g>
<g id="layer104" fill="#fefefe" stroke="none">
<path d="M7977 7801 c-2 -9 2 -22 10 -29 11 -11 16 -11 27 0 7 7 10 20 7 28 -8 21 -38 21 -44 1z"/>
<path d="M9359 7738 c7 -19 6 -29 -7 -42 -15 -15 -15 -16 5 -16 14 0 25 -9 31 -27 l10 -28 11 28 c7 18 18 27 33 27 22 1 22 1 5 14 -13 10 -16 21 -11 42 7 29 7 29 -14 11 -19 -18 -22 -18 -46 -1 -26 17 -27 17 -17 -8z"/>
<path d="M8792 7529 c10 -28 8 -34 -13 -50 -23 -17 -23 -19 -4 -20 11 -1 24 -1 28 0 4 1 14 -13 22 -31 l14 -33 11 33 c10 27 17 32 43 32 l31 0 -23 16 c-19 14 -22 22 -16 50 l6 34 -30 -17 c-28 -17 -31 -17 -49 0 -27 25 -32 21 -20 -14z"/>
<path d="M9355 7460 c6 -28 4 -36 -16 -51 l-24 -19 32 0 c27 0 33 -5 44 -37 l12 -37 11 35 c9 26 18 35 41 39 l30 5 -24 17 c-21 15 -22 20 -13 47 13 35 10 37 -23 15 -22 -14 -26 -14 -51 2 l-26 18 7 -34z"/>
<path d="M9039 7279 c7 -19 4 -29 -12 -46 l-20 -23 27 0 c18 0 29 -7 36 -22 l9 -23 7 23 c5 17 14 22 38 22 l31 0 -23 18 c-19 15 -22 24 -16 48 7 29 7 29 -14 11 -19 -18 -22 -18 -46 -2 -26 17 -26 17 -17 -6z"/>
<path d="M9643 7229 c5 -18 1 -29 -16 -41 l-22 -18 28 0 c20 0 30 -6 34 -20 3 -11 9 -20 13 -20 4 0 10 9 13 20 4 14 14 20 34 20 l28 0 -22 18 c-17 12 -21 23 -16 41 5 21 4 22 -16 12 -16 -9 -26 -9 -42 0 -20 10 -21 9 -16 -12z"/>
<path d="M8580 7206 c8 -22 6 -28 -10 -38 -27 -17 -25 -26 7 -30 19 -2 29 -10 34 -28 l6 -25 8 28 c6 22 13 27 39 27 l31 0 -23 18 c-19 15 -22 24 -16 47 7 28 7 28 -16 12 -21 -14 -25 -14 -47 0 -23 15 -23 15 -13 -11z"/>
<path d="M9354 7176 c5 -19 1 -29 -16 -40 l-22 -16 28 0 c19 0 29 -6 33 -20 3 -11 9 -20 13 -20 4 0 10 9 13 20 4 14 14 20 33 20 l28 0 -22 16 c-17 11 -21 21 -16 40 6 24 5 25 -15 12 -17 -11 -25 -11 -42 0 -20 13 -21 12 -15 -12z"/>
<path d="M6813 7160 c18 -64 18 -65 -15 -87 l-33 -23 42 0 c40 0 42 -2 56 -42 l14 -43 13 43 c13 40 15 42 54 42 l40 0 -33 28 c-31 25 -32 29 -20 55 17 36 6 44 -28 19 l-29 -21 -34 27 -33 26 6 -24z"/>
<path d="M9850 7126 c0 -3 4 -16 10 -30 8 -21 5 -28 -16 -45 l-25 -20 32 -3 c28 -3 34 -8 42 -38 l10 -35 12 35 c10 29 18 36 45 40 l33 5 -26 14 c-27 14 -28 20 -9 70 4 10 -5 7 -25 -7 -19 -14 -34 -18 -38 -12 -7 11 -45 33 -45 26z"/>
<path d="M7939 6923 c5 -15 10 -33 12 -40 2 -6 -11 -23 -30 -37 l-35 -26 46 0 c44 0 46 -1 52 -35 4 -19 11 -35 16 -35 5 0 12 16 16 35 6 34 8 35 52 35 l46 0 -35 26 c-19 14 -32 31 -30 37 22 73 22 70 -2 53 -33 -24 -46 -29 -59 -22 -7 3 -23 13 -35 22 -22 16 -22 15 -14 -13z"/>
<path d="M10020 6906 c0 -3 5 -17 11 -33 9 -25 7 -30 -18 -50 l-28 -23 36 0 c33 0 37 -3 44 -32 l7 -33 14 33 c12 26 20 32 47 32 l32 1 -26 22 c-22 18 -25 26 -18 46 12 32 4 38 -21 16 -20 -18 -21 -18 -50 4 -17 12 -30 20 -30 17z"/>
<path d="M6424 6865 c5 -20 2 -31 -11 -41 -17 -13 -17 -13 5 -14 15 0 26 -9 33 -27 l11 -28 10 28 c6 18 17 27 30 27 20 0 20 1 4 19 -14 15 -15 24 -6 40 12 24 -2 28 -20 6 -11 -14 -15 -14 -38 1 -25 16 -25 16 -18 -11z"/>
<path d="M9906 6633 c13 -31 14 -37 1 -44 -7 -5 -25 -17 -38 -28 l-24 -20 45 -1 c44 0 47 -2 60 -37 l13 -38 12 35 c11 32 16 35 56 40 l44 5 -35 27 c-32 25 -33 28 -23 62 13 42 11 43 -27 15 l-28 -22 -28 22 c-38 30 -45 26 -28 -16z"/>
<path d="M10314 6647 c5 -22 2 -32 -16 -47 l-23 -19 33 -1 c25 0 32 -4 32 -20 0 -11 4 -20 9 -20 5 0 11 9 14 20 4 14 14 20 33 20 l27 0 -22 23 c-13 15 -19 30 -15 40 7 20 -7 22 -24 5 -9 -9 -17 -7 -33 8 l-22 19 7 -28z"/>
<path d="M6490 6620 c0 -6 5 -21 11 -32 9 -17 7 -24 -17 -44 l-29 -23 32 -1 c28 0 35 -5 46 -32 l13 -33 12 33 c9 27 16 32 44 32 l33 1 -28 23 c-25 20 -27 26 -17 50 14 39 13 40 -17 18 -27 -20 -28 -20 -55 0 -16 11 -28 14 -28 8z"/>
<path d="M5572 6569 c10 -28 8 -33 -18 -55 l-29 -23 37 -1 c32 0 39 -4 44 -25 3 -14 10 -25 14 -25 4 0 11 11 14 25 5 21 12 25 44 25 l37 1 -29 23 c-24 20 -27 28 -21 55 l7 31 -30 -17 c-29 -17 -31 -17 -50 0 -27 25 -32 21 -20 -14z"/>
<path d="M7832 6522 c4 -15 1 -25 -10 -32 -15 -8 -14 -9 6 -10 14 0 22 -6 22 -17 1 -17 1 -17 14 0 7 9 19 17 26 17 9 0 10 3 1 14 -6 7 -8 22 -4 32 6 17 5 17 -10 5 -14 -11 -20 -11 -34 0 -15 13 -16 12 -11 -9z"/>
<path d="M10620 6389 c-609 -545 -1453 -1024 -2255 -1279 -466 -149 -893 -235 -1415 -287 -249 -24 -855 -24 -1105 1 -181 17 -503 61 -539 72 -16 5 -18 3 -12 -17 4 -13 11 -40 16 -59 12 -47 84 -249 109 -305 23 -51 16 -49 196 -69 503 -57 1077 -57 1570 0 985 114 1919 439 2783 966 225 137 538 360 732 521 l65 54 -3 49 c-3 65 -54 299 -79 364 -4 8 -5 18 -5 23 4 15 -15 5 -58 -34z m-59 -244 c40 -21 69 -71 69 -118 0 -74 -40 -116 -110 -117 -89 0 -153 86 -129 173 18 67 101 97 170 62z m-277 -196 c39 -31 34 -66 -19 -128 -48 -56 -55 -78 -29 -88 23 -8 68 29 74 62 6 36 36 56 50 35 26 -39 -24 -109 -97 -136 -42 -16 -45 -16 -71 3 -44 32 -40 69 13 133 25 30 45 61 45 68 0 42 -88 6 -97 -40 -3 -15 -14 -35 -25 -45 -17 -15 -21 -15 -28 -3 -15 24 -12 45 13 81 25 37 90 79 123 79 12 0 33 -9 48 -21z m-271 -201 c29 -34 21 -62 -34 -122 -51 -56 -59 -86 -22 -86 27 1 53 25 62 56 4 15 17 34 29 42 20 13 22 12 28 -13 10 -39 -10 -71 -63 -105 -55 -35 -95 -38 -123 -10 -34 34 -26 70 31 134 46 51 50 59 37 73 -14 13 -19 13 -46 -1 -33 -17 -57 -50 -47 -66 6 -9 -25 -30 -44 -30 -6 0 -11 14 -11 30 0 40 52 96 105 115 46 16 73 12 98 -17z m-303 -157 c0 -3 -36 -26 -80 -50 -44 -25 -80 -50 -80 -56 0 -6 6 -20 14 -30 13 -18 16 -17 80 16 57 29 68 32 76 19 15 -23 14 -23 -50 -58 -59 -33 -68 -44 -51 -70 7 -11 24 -5 83 27 41 23 78 41 81 41 3 0 11 -8 16 -18 9 -16 0 -24 -67 -62 -42 -24 -86 -50 -98 -57 -20 -13 -24 -8 -89 104 -37 64 -64 119 -59 120 5 2 52 28 104 58 86 49 96 53 108 38 6 -9 12 -19 12 -22z m-303 -204 c4 -28 12 -41 29 -47 46 -18 60 -94 24 -130 -11 -11 -51 -35 -90 -55 l-70 -35 -60 120 c-58 116 -59 120 -39 131 24 12 21 14 44 -33 9 -21 21 -38 27 -38 5 0 27 9 48 20 33 17 40 25 40 51 0 17 -5 39 -10 49 -8 15 -6 21 7 29 23 13 41 -10 50 -62z m-267 -188 c0 -7 -74 -39 -90 -39 -17 0 -11 30 6 37 15 6 15 8 -2 20 -67 49 -129 -56 -69 -121 15 -17 34 -26 54 -26 31 0 61 22 61 44 0 7 11 18 25 24 24 11 25 10 25 -19 0 -46 -56 -99 -104 -99 -53 0 -93 24 -116 70 -24 48 -26 93 -3 131 20 34 76 63 109 56 18 -3 24 0 24 14 0 39 26 25 52 -30 15 -31 27 -59 28 -62z m-384 -65 c46 -22 74 -70 74 -129 0 -40 -5 -52 -34 -81 -27 -27 -42 -34 -72 -34 -76 0 -135 62 -134 142 1 42 19 74 56 99 35 23 65 24 110 3z m-302 -90 c3 -9 6 -33 6 -55 0 -26 5 -42 15 -46 25 -9 47 -61 40 -94 -8 -37 -34 -54 -127 -83 l-75 -23 -41 126 c-23 68 -40 126 -39 127 1 1 12 5 24 8 20 6 24 2 34 -39 10 -41 15 -46 33 -41 12 4 34 9 49 13 34 7 49 40 37 82 -4 16 -6 32 -2 35 11 12 40 6 46 -10z m-493 -169 c13 -50 13 -50 88 -31 83 23 130 -4 131 -75 0 -50 -26 -70 -123 -95 -95 -25 -81 -39 -122 119 -24 92 -26 110 -14 118 24 15 28 11 40 -36z m-366 -59 c0 -17 -11 -22 -67 -31 -37 -6 -70 -13 -73 -17 -12 -11 7 -59 21 -54 8 3 36 8 64 12 46 6 50 5 50 -14 0 -22 -10 -27 -77 -37 -34 -5 -43 -11 -43 -27 0 -19 4 -20 53 -14 28 4 62 9 73 12 14 4 23 0 28 -12 10 -26 0 -30 -96 -46 -79 -13 -88 -13 -93 1 -9 30 -36 213 -32 218 8 7 142 32 167 30 17 -1 25 -8 25 -21z m-1919 -70 c33 -33 40 -57 35 -115 -9 -97 -122 -146 -192 -83 -26 23 -32 38 -37 82 -8 91 38 149 122 150 30 0 45 -7 72 -34z m1408 2 c4 -18 18 -183 21 -233 0 -5 -16 -10 -35 -10 -34 0 -35 1 -64 78 -17 46 -32 73 -36 66 -4 -6 -14 -45 -21 -85 -12 -68 -15 -74 -42 -80 -15 -3 -31 -3 -34 0 -7 7 -30 256 -24 262 2 2 12 4 22 4 15 0 19 -13 25 -82 8 -89 13 -85 34 25 11 58 15 67 34 67 18 0 27 -14 54 -82 l32 -83 -6 88 c-7 84 -6 87 14 87 14 0 23 -8 26 -22z m-1212 -37 c-3 -52 6 -61 64 -61 46 0 61 12 70 58 5 25 12 32 29 32 22 0 22 -2 13 -42 -5 -24 -13 -47 -17 -51 -5 -5 0 -25 11 -45 16 -30 18 -42 9 -64 -19 -50 -50 -61 -148 -53 l-88 7 6 101 c4 56 7 117 8 135 1 29 4 33 24 30 19 -3 22 -8 19 -47z m435 19 c41 0 88 -46 97 -94 10 -51 -9 -110 -45 -140 -28 -23 -39 -26 -115 -26 l-84 0 0 38 c0 20 3 81 7 136 l6 98 51 -6 c28 -3 65 -6 83 -6z m441 -17 c3 -22 1 -23 -92 -23 -52 0 -97 -3 -99 -8 -3 -4 -3 -19 0 -35 5 -27 7 -27 79 -27 66 0 74 -2 74 -19 0 -14 -10 -20 -46 -25 -26 -3 -60 -6 -75 -6 -24 0 -29 -4 -29 -25 0 -25 1 -25 90 -25 89 0 90 0 90 -25 l0 -25 -115 0 -115 0 0 129 0 130 33 4 c17 2 70 4 117 3 80 -1 85 -2 88 -23z"/>
<path d="M10449 6089 c-42 -42 6 -129 71 -129 38 0 60 24 60 66 0 71 -83 111 -131 63z"/>
<path d="M9342 5275 c-34 -16 -52 -29 -48 -37 3 -7 9 -21 12 -30 8 -22 11 -22 60 1 53 26 71 48 58 69 -16 24 -25 24 -82 -3z"/>
<path d="M8660 5080 c-45 -45 -8 -140 54 -140 42 0 66 26 66 74 0 70 -75 111 -120 66z"/>
<path d="M8363 4884 c-40 -15 -41 -16 -31 -45 12 -34 18 -35 82 -13 42 14 47 19 44 43 -4 32 -34 37 -95 15z"/>
<path d="M8046 4794 c-26 -7 -51 -15 -53 -18 -3 -3 -1 -17 4 -33 11 -30 24 -32 93 -9 24 7 36 18 38 33 5 32 -24 42 -82 27z"/>
<path d="M5552 4710 c-47 -44 -23 -140 35 -140 38 0 60 17 72 53 27 80 -49 141 -107 87z"/>
<path d="M5870 4589 c0 -9 -3 -24 -6 -32 -4 -12 5 -17 40 -22 59 -9 96 0 96 24 0 27 -19 38 -77 43 -46 4 -53 3 -53 -13z"/>
<path d="M6216 4653 c-3 -21 -6 -59 -6 -85 l0 -48 54 0 c47 0 57 4 75 26 24 30 27 80 6 107 -12 17 -68 36 -106 37 -11 0 -18 -12 -23 -37z"/>
<path d="M8348 6357 c-27 -20 -28 -20 -48 -2 -25 22 -33 16 -21 -16 7 -20 4 -28 -18 -46 l-26 -22 32 -1 c28 0 35 -5 46 -32 l14 -33 7 33 c7 29 11 32 44 32 l37 0 -28 23 c-26 20 -27 25 -17 51 6 16 9 30 8 31 -2 2 -15 -7 -30 -18z"/>
<path d="M5904 6331 c15 -40 15 -40 -17 -66 l-32 -25 43 0 c34 0 42 -3 42 -18 0 -10 6 -27 14 -37 13 -19 15 -18 23 15 8 31 14 36 49 40 l39 5 -28 19 c-29 20 -31 37 -11 90 6 17 2 15 -29 -8 l-36 -28 -36 27 -35 27 14 -41z"/>
<path d="M7680 6335 c8 -20 5 -27 -13 -40 l-21 -15 26 0 c20 0 29 -7 36 -27 l10 -28 11 28 c7 18 18 27 33 27 22 1 22 1 5 14 -13 10 -16 21 -11 41 7 27 7 27 -18 11 -23 -15 -27 -15 -38 -1 -19 23 -31 18 -20 -10z"/>
<path d="M6254 6139 c-3 -6 -14 -9 -24 -6 -13 3 -19 -2 -23 -19 -2 -13 0 -24 5 -24 5 0 12 -10 17 -22 l8 -23 7 23 c4 12 15 22 24 22 14 0 14 2 3 9 -8 5 -12 18 -8 30 6 23 2 27 -9 10z"/>
<path d="M7954 6093 c6 -26 3 -34 -20 -52 l-27 -21 37 0 c33 0 37 -3 43 -30 3 -16 9 -30 13 -30 4 0 10 14 14 30 5 27 9 30 43 30 l38 1 -28 17 c-25 15 -27 21 -22 51 l7 34 -26 -17 c-24 -15 -28 -15 -52 1 l-26 17 6 -31z"/>
<path d="M6885 5760 c7 -30 4 -37 -21 -57 l-29 -23 37 0 c33 0 40 -4 51 -32 l14 -33 7 33 c7 29 11 32 44 32 l37 1 -27 24 c-24 21 -27 27 -18 51 14 35 8 39 -21 15 -23 -19 -24 -19 -52 1 l-29 21 7 -33z"/>
<path d="M8724 5497 c5 -22 2 -32 -16 -47 l-23 -19 31 -1 c24 0 33 -5 38 -22 l7 -23 9 23 c7 15 18 22 37 22 l28 1 -23 18 c-19 17 -21 23 -12 46 l11 28 -27 -17 c-24 -17 -27 -17 -46 1 -21 18 -21 18 -14 -10z"/>
<path d="M5650 5181 c0 -5 5 -22 11 -38 9 -25 7 -31 -22 -55 l-33 -28 41 0 c41 0 43 -1 55 -41 l12 -42 14 42 c13 39 15 41 55 41 l42 0 -33 26 c-25 20 -31 31 -27 48 19 65 20 63 -17 34 l-34 -26 -32 25 c-18 13 -32 20 -32 14z"/>
<path d="M8813 4784 c11 -35 10 -37 -23 -64 l-35 -29 45 -3 c42 -3 46 -6 57 -38 l11 -35 11 28 c6 16 11 33 11 38 0 5 21 9 48 9 51 1 51 0 -11 45 -17 12 -17 15 -3 49 17 42 15 43 -26 15 l-30 -22 -28 22 c-39 28 -40 27 -27 -15z"/>
</g>


</svg>