<svg id="castle" xmlns="http://www.w3.org/2000/svg" viewBox="0 0 192 192"><title>castle</title><path d="M90.73,135.88l0,0c-1.8,0-4.09,0-6.59,0H73.74v3.7H93l0-.08c2,.05,6.81.08,12.41.08h13.15v-3.7H90.73Z"/><path d="M74.32,134.81c0-.06-5.12-.1-11.4-.1H51.51v3.12H73.16v-1.17c0-1.09,0-1.17.58-1.46A2.07,2.07,0,0,0,74.32,134.81Z"/><path d="M117.7,134.73l.74.39c.71.37.72.39.72,1.54v1.17h21.65v-3.12H129.26Z"/><path d="M93.53,135.27l-.78-.48c-.43-.28-1.29-.74-1.89-1.08l-1.11-.56H84.52l-5.22,0-2.15,1.05L75,135.27H93.53Z"/><path d="M108.56,135.27h8.75l-2.14-1.05L113,133.17l-5,0h-5l-1.17.72c-.64.39-1.38.88-1.64,1.07C99.83,135.29,100.06,135.29,108.56,135.27Z"/><path d="M64,134.12H75.88l1.66-.8c1.64-.76,1.68-.79,1.62-1.4l-.06-.62-11.27-.06-11.25,0-2.2,1.46-2.18,1.46Z"/><path d="M140.12,134.12l-2.18-1.46-2.2-1.46-11.25,0-11.27.06-.06.6c-.06.61,0,.64,1.56,1.4l1.62.8h11.89Z"/><path d="M104.35,116.07c.84,1.74,1,3.06,1,10v6.26l1.21.14a26.64,26.64,0,0,0,3.61,0l2.4-.14V100H79.78v32.34l.84.08a33,33,0,0,0,5.07,0l1.31-.12V126c0-3.49.08-6.87.19-7.51.7-4.31,4.1-6.94,9-6.94C100,111.51,102.92,113.15,104.35,116.07Z"/><path d="M75.63,98.72a4.27,4.27,0,0,0-.23-1.4c-.08-.08-4.29-.16-9.38-.2L56.78,97v33.57h7l.06-5.3c0-5.2.07-5.34.52-6.26a8.11,8.11,0,0,1,3.34-3.23,6.92,6.92,0,0,1,4.91-.1,7.37,7.37,0,0,1,3.2,2.73c.87,1.5,1,2.67,1,7.64v4.52H79.2V100H75.75Z"/><path d="M113.12,100v30.6h2.34v-4.52c0-5,.18-6.14,1-7.62a6.56,6.56,0,0,1,8.13-2.65,8.14,8.14,0,0,1,3.36,3.27c.43.86.45,1.11.5,6.22l.06,5.3h7V97.08h-8c-4.43,0-8.64.06-9.36.12l-1.31.14-.13,1.32-.14,1.35h-3.45Z"/><polygon points="76.27 97.08 76.27 98.25 76.27 99.4 96.16 99.4 116.05 99.38 116.05 98.23 116.05 97.08 96.16 97.08 76.27 97.08"/><path d="M54.44,94.35V95a5.73,5.73,0,0,1-.12,1.07l-.11.43H73.93V94.35H54.44Z"/><polygon points="78.07 89.83 78.01 88.11 76.27 88.11 74.52 88.11 74.52 92.31 74.52 96.5 96.16 96.5 117.8 96.5 117.8 92.31 117.8 88.11 116.05 88.11 114.31 88.11 114.25 89.83 114.19 91.53 111.13 91.58 108.05 91.64 108.05 89.87 108.05 88.11 104.64 88.11 101.23 88.11 101.23 89.87 101.23 91.62 96.16 91.62 91.09 91.62 91.09 89.87 91.09 88.11 87.68 88.11 84.27 88.11 84.27 89.87 84.27 91.64 81.21 91.58 78.13 91.53 78.07 89.83"/><path d="M128.13,94.35h-9.74V96.5h19.72l-.11-.43a5.73,5.73,0,0,1-.12-1.07v-.65Z"/><path d="M62.74,93.77H73.93V91.62h-8V88.11H59.33l-.06,1.72-.05,1.7H53.76l-.06-1.7-.06-1.72H51.32v2.23a25.82,25.82,0,0,0,.12,2.82l.13.61Z"/><polygon points="139.83 88.11 138.68 88.11 138.62 89.83 138.56 91.53 135.83 91.53 133.1 91.53 133.05 89.83 132.99 88.11 129.69 88.11 126.38 88.11 126.38 89.87 126.38 91.62 122.38 91.62 118.39 91.62 118.39 92.69 118.39 93.77 129.69 93.77 141 93.77 141 90.94 141 88.11 139.83 88.11"/><path d="M65.94,87.33V84.18a25.12,25.12,0,0,1,.22-3.94,4.47,4.47,0,0,1,4-2.85,4.72,4.72,0,0,1,4,2.63c.31.67.37,1.29.37,4v3.25l.84.08,1.46.1.62,0V66.67H62.82V87.33h3.12Z"/><path d="M102.42,87.41a12,12,0,0,0,3.45,0l.43-.11V61H86V87.53h.74c.43,0,1.56-.06,2.54-.12l1.79-.13V82.87c0-5,.12-5.46,1.54-6.67a6,6,0,0,1,7.06,0c1.42,1.21,1.54,1.64,1.54,6.67v4.41ZM92.28,72.13c0,.35-.16.39-1.19.39H89.92V65.11h1.17c.9,0,1.17.06,1.19.29s0,1.66,0,3.32S92.28,71.91,92.28,72.13Zm5-3.8v5H95V63.35h2.34Zm2.71,3.8c0-.22,0-1.76,0-3.41s0-3.16,0-3.32.29-.29,1.19-.29h1.17v7.41h-1.17C100.2,72.52,100.06,72.48,100,72.13Z"/><path d="M127.94,87.33h1.56V66.67H114.88v20.9l.44-.12a8.16,8.16,0,0,1,1.47-.12h1V84.08c0-2.77.06-3.39.37-4.06a4.72,4.72,0,0,1,4-2.63,4.47,4.47,0,0,1,4,2.85,25.12,25.12,0,0,1,.22,3.94v3.15Z"/><polygon points="78.61 65.89 78.61 64.82 78.61 63.74 70.04 63.74 61.46 63.74 61.46 64.82 61.46 65.89 70.04 65.89 78.61 65.89"/><polygon points="130.86 64.82 130.86 63.74 122.28 63.74 113.71 63.74 113.71 64.82 113.71 65.89 122.28 65.89 130.86 65.89 130.86 64.82"/><path d="M80,63V58.09H77.25v2.73H74.91c-1.77,0-2.34-.06-2.32-.23s0-.76,0-1.37l0-1.13H69.82c-2.73,0-2.73,0-2.71.45a13.59,13.59,0,0,1,0,1.36l0,.92H62.63V58.09H59.12V63H80Z"/><path d="M133.2,63V58.09h-3.51v2.73h-4.48l0-1c0-.57,0-1.19,0-1.37s-.2-.35-2.69-.35h-2.75l0,1.13c0,.61,0,1.23,0,1.37s-.55.23-2.32.23h-2.34V58.09h-2.73V63H133.2Z"/><polygon points="108.25 58.58 108.25 56.92 96.16 56.92 84.07 56.92 84.07 58.58 84.07 60.23 96.16 60.23 108.25 60.23 108.25 58.58"/><polygon points="110.59 56.34 110.59 54.39 110.59 52.42 109.09 52.48 107.56 52.53 107.51 53.76 107.45 54.97 105.13 54.97 102.79 54.97 102.79 53.7 102.79 52.42 100.7 52.48 98.6 52.53 98.54 53.76 98.48 54.97 96.16 54.97 93.84 54.97 93.78 53.76 93.72 52.53 91.64 52.48 89.53 52.42 89.53 53.7 89.53 54.97 87.19 54.97 84.87 54.97 84.81 53.76 84.75 52.53 83.25 52.48 81.73 52.42 81.73 54.39 81.73 56.34 96.16 56.34 110.59 56.34"/></svg>