<!DOCTYPE svg PUBLIC "-//W3C//DTD SVG 20010904//EN" "http://www.w3.org/TR/2001/REC-SVG-20010904/DTD/svg10.dtd">
<svg version="1.0" xmlns="http://www.w3.org/2000/svg" width="1200px" height="600px" viewBox="0 0 12000 6000" preserveAspectRatio="xMidYMid meet">
<g id="layer101" fill="#012169" stroke="none">
<path d="M0 3000 l0 -3000 6000 0 6000 0 0 3000 0 3000 -6000 0 -6000 0 0 -3000z"/>
</g>
<g id="layer102" fill="#c8112f" stroke="none">
<path d="M0 2834 l0 -169 663 -332 662 -332 -662 0 -663 -1 0 -500 0 -500 663 -1 662 0 -662 -332 -663 -332 0 -167 0 -168 335 0 335 0 910 455 c500 250 912 455 915 455 3 0 5 -205 5 -455 l0 -455 500 0 500 0 0 455 c0 250 2 455 5 455 3 0 415 -205 915 -455 l910 -455 305 0 c216 0 305 3 305 11 0 6 6 9 13 6 51 -21 47 -33 47 149 l0 169 -662 332 -663 332 663 0 662 1 0 500 0 500 -662 1 -663 0 663 332 662 332 0 157 c0 120 -3 158 -12 158 -9 0 -8 4 2 10 10 6 -101 10 -323 10 l-337 0 -910 -455 c-500 -250 -912 -455 -915 -455 -3 0 -5 205 -5 455 l0 455 -500 0 -500 0 0 -455 c0 -250 -2 -455 -5 -455 -3 0 -415 205 -915 455 l-910 455 -305 0 c-216 0 -305 -3 -305 -11 0 -6 -7 -8 -15 -5 -8 3 -22 9 -30 12 -13 5 -15 -17 -15 -162z"/>
</g>
<g id="layer103" fill="#fefefe" stroke="none">
<path d="M8471 5323 c-6 -60 -14 -131 -17 -160 l-6 -51 -67 -15 c-36 -8 -105 -23 -153 -33 -49 -10 -88 -21 -88 -24 0 -3 42 -23 93 -44 50 -22 115 -50 143 -63 l50 -23 -17 -157 c-9 -87 -15 -159 -14 -161 2 -2 51 51 109 116 l107 119 144 -63 c80 -35 147 -64 149 -64 3 0 -31 61 -75 135 -43 75 -79 138 -79 141 0 3 47 58 105 122 57 64 103 117 102 118 -1 1 -72 -13 -157 -31 -85 -18 -155 -32 -156 -31 0 0 -31 55 -69 121 -38 66 -74 128 -80 138 -10 14 -14 -2 -24 -90z"/>
<path d="M9455 5327 c-32 -56 -68 -118 -81 -138 l-22 -36 -154 32 c-84 18 -154 32 -155 31 -1 -1 45 -54 102 -118 58 -64 105 -119 105 -122 0 -3 -36 -66 -79 -141 -44 -74 -78 -135 -75 -135 2 0 69 29 149 64 l144 63 107 -119 c58 -65 107 -118 109 -116 1 2 -5 74 -14 161 l-17 157 50 23 c28 13 93 41 143 63 51 21 93 41 93 44 0 3 -68 20 -152 38 -83 18 -153 33 -154 35 -2 1 -10 72 -19 157 -9 85 -17 156 -19 157 -1 1 -28 -44 -61 -100z"/>
<path d="M7540 5008 c0 -2 22 -72 49 -155 l48 -151 -129 -94 -130 -93 162 -5 161 -5 47 -142 c25 -79 49 -143 52 -143 3 0 27 65 54 145 l48 145 161 2 162 3 -124 89 c-67 49 -125 95 -128 102 -3 8 16 77 42 154 26 78 45 143 44 145 -2 2 -58 -37 -124 -86 -66 -49 -126 -89 -133 -89 -10 0 -173 113 -249 173 -7 5 -13 7 -13 5z"/>
<path d="M9940 5004 c0 -5 21 -71 46 -147 25 -76 44 -143 41 -151 -3 -7 -61 -53 -128 -102 l-124 -89 162 -3 161 -2 48 -145 c26 -80 50 -145 54 -145 4 0 27 64 52 143 l45 142 163 5 162 5 -130 93 -129 94 48 151 c27 83 47 152 46 153 -1 1 -57 -38 -124 -87 -68 -49 -128 -89 -134 -89 -10 0 -115 73 -226 158 -18 13 -33 20 -33 16z"/>
<path d="M7246 4319 c-44 -76 -83 -139 -88 -139 -4 0 -72 14 -150 30 -77 17 -145 30 -150 30 -5 0 39 -54 97 -120 l107 -120 -62 -107 c-35 -60 -71 -123 -82 -140 l-20 -33 44 19 c24 10 90 40 148 65 l105 47 40 -43 c22 -24 72 -78 111 -122 l70 -78 -17 158 c-9 88 -13 162 -10 166 4 4 71 37 150 72 l143 64 -48 10 c-27 6 -98 21 -159 33 -60 12 -111 23 -112 24 -1 0 -9 72 -18 160 -10 88 -18 161 -18 162 -1 1 -38 -61 -81 -138z"/>
<path d="M10670 4449 c0 -22 -31 -313 -33 -315 -1 0 -51 -11 -112 -23 -60 -12 -132 -27 -159 -33 l-48 -10 143 -64 c79 -35 146 -68 150 -72 3 -4 0 -59 -7 -122 -7 -63 -13 -133 -13 -155 l-1 -40 68 75 c37 41 85 94 107 118 l40 43 105 -47 c58 -25 124 -55 148 -65 l44 -19 -20 33 c-11 17 -47 80 -82 139 l-62 108 34 39 c18 21 66 75 107 120 40 44 69 81 64 81 -6 0 -74 -13 -151 -30 -78 -16 -145 -30 -150 -30 -4 0 -37 51 -72 113 -96 168 -100 174 -100 156z"/>
<path d="M6877 3633 c-2 -4 -10 -72 -17 -151 -8 -78 -18 -146 -24 -151 -6 -4 -60 -18 -121 -30 -60 -13 -127 -27 -149 -33 l-38 -9 142 -64 c79 -36 145 -67 148 -69 2 -3 -3 -74 -12 -157 -9 -84 -15 -154 -13 -155 2 -2 49 48 106 111 56 63 106 115 110 115 5 0 70 -27 145 -61 76 -34 139 -59 141 -57 2 2 -32 64 -75 138 l-78 134 110 124 c83 92 105 122 87 117 -13 -3 -76 -16 -139 -30 -63 -14 -125 -27 -137 -30 -19 -4 -28 6 -64 67 -94 163 -117 199 -122 191z"/>
<path d="M11047 3522 c-37 -65 -72 -125 -79 -135 -12 -15 -23 -14 -153 13 -77 17 -149 33 -160 37 -11 3 11 -28 55 -77 41 -46 91 -101 111 -124 l36 -41 -78 -135 c-43 -74 -76 -136 -74 -138 2 -2 65 24 140 57 76 34 141 61 145 61 5 0 55 -52 111 -115 57 -63 104 -113 106 -111 2 1 -4 71 -13 155 -9 83 -14 154 -12 157 3 2 69 33 148 69 l142 64 -38 9 c-22 6 -88 20 -149 33 -60 12 -115 26 -121 30 -5 5 -16 70 -23 146 -7 76 -16 144 -20 151 -4 7 -33 -33 -74 -106z"/>
<path d="M507 2988 c-3 -9 335 -183 967 -500 l971 -487 -223 0 -222 -1 -988 494 c-543 271 -993 491 -999 489 -10 -4 -13 -45 -13 -161 l0 -157 663 -332 662 -332 -662 0 -663 -1 0 -100 0 -100 1350 0 1350 0 0 600 0 600 -100 0 -100 0 0 -455 c0 -250 -2 -455 -5 -455 -3 0 -415 205 -915 455 l-910 455 -79 0 c-54 0 -81 -4 -84 -12z"/>
<path d="M3300 2400 l0 -600 1350 0 1350 0 0 100 0 100 -662 1 -663 0 663 332 662 332 0 46 c0 25 -3 48 -6 52 -3 3 -352 -167 -775 -379 l-769 -384 -222 1 -223 0 971 487 c632 317 970 491 967 500 -4 9 -75 12 -309 12 l-304 0 -910 -455 c-500 -250 -912 -455 -915 -455 -3 0 -5 205 -5 455 l0 455 -100 0 -100 0 0 -600z"/>
<path d="M6806 2703 c4 -15 26 -85 49 -154 l43 -126 -130 -94 -130 -94 160 -3 161 -2 48 -145 c26 -80 50 -145 53 -145 3 0 27 65 53 145 l48 145 161 2 160 3 -129 94 -130 93 48 151 c27 83 47 152 46 153 -1 1 -60 -40 -131 -92 -112 -81 -132 -92 -145 -80 -9 7 -67 50 -129 95 -104 75 -112 80 -106 54z"/>
<path d="M10680 2728 c0 -3 22 -72 48 -155 l49 -151 -130 -93 -129 -94 160 -3 161 -2 48 -145 c26 -80 50 -145 53 -145 3 0 27 65 53 145 l48 145 161 2 160 3 -129 94 -130 94 49 149 c27 83 48 151 46 153 -2 1 -60 -40 -130 -91 l-127 -93 -78 57 c-146 107 -183 134 -183 130z"/>
<path d="M7496 1933 c-44 -76 -80 -139 -80 -140 -1 -1 -71 13 -156 32 -85 18 -156 32 -158 31 -1 -2 45 -55 103 -118 58 -64 105 -118 105 -121 0 -3 -34 -64 -76 -137 -42 -72 -74 -133 -72 -135 2 -2 67 25 145 59 l142 64 106 -119 c59 -66 108 -119 109 -119 2 0 -16 186 -27 282 l-5 36 144 64 c79 34 144 65 144 68 0 3 -68 20 -151 37 -83 18 -153 33 -155 35 -1 2 -10 71 -19 153 -9 83 -17 154 -18 158 -1 5 -38 -54 -81 -130z"/>
<path d="M10411 1963 c-6 -60 -14 -131 -17 -160 l-6 -52 -67 -15 c-36 -8 -105 -22 -153 -32 -49 -10 -88 -21 -88 -24 0 -3 65 -34 144 -68 l144 -64 -5 -36 c-11 -96 -29 -282 -27 -282 1 0 50 53 109 119 l106 119 142 -64 c78 -34 143 -61 145 -59 2 2 -30 63 -72 135 -42 73 -76 134 -76 137 0 3 47 57 105 121 58 63 104 116 103 118 -2 1 -73 -13 -158 -31 -85 -19 -155 -33 -156 -32 0 1 -32 56 -69 122 -100 176 -90 172 -104 48z"/>
<path d="M8059 1410 c-9 -82 -18 -152 -21 -155 -3 -3 -75 -21 -159 -39 -132 -29 -150 -35 -129 -44 75 -31 256 -114 263 -121 5 -5 1 -73 -7 -151 -9 -78 -16 -149 -16 -156 0 -8 48 39 107 103 59 65 112 117 118 116 5 -2 70 -30 144 -63 74 -33 135 -59 137 -57 2 2 -91 169 -137 243 l-19 31 111 122 c61 66 108 121 105 121 -7 0 -289 -60 -303 -65 -7 -2 -46 55 -90 131 -42 73 -80 134 -83 134 -4 0 -13 -67 -21 -150z"/>
<path d="M9837 1426 c-44 -76 -83 -133 -90 -131 -16 5 -294 65 -302 65 -4 0 43 -55 104 -121 l111 -122 -19 -31 c-44 -71 -140 -241 -137 -243 1 -2 62 24 135 57 73 33 138 61 145 62 6 2 60 -50 119 -115 59 -64 107 -111 107 -103 0 7 -7 78 -16 156 -8 78 -12 146 -7 151 7 7 188 90 263 121 21 9 3 15 -129 44 -84 18 -156 36 -159 39 -3 3 -12 73 -21 155 -8 83 -17 150 -21 150 -3 0 -41 -61 -83 -134z"/>
<path d="M8740 1313 c0 -5 22 -74 49 -154 l49 -146 -130 -94 -130 -94 160 -3 161 -2 48 -145 c26 -80 50 -145 53 -145 3 0 27 65 53 145 l48 145 161 2 160 3 -130 94 -130 94 49 146 c27 80 49 149 49 153 0 5 -56 -32 -124 -82 -69 -49 -130 -90 -136 -90 -10 0 -104 65 -227 158 -18 13 -33 20 -33 15z"/>
<path d="M0 1100 l0 -100 663 -1 662 0 -663 -332 -662 -332 0 -52 c0 -29 2 -53 5 -53 3 0 352 173 775 385 l770 385 222 -1 223 0 -995 -499 -995 -499 333 0 332 -1 910 455 c500 250 912 455 915 455 3 0 5 -205 5 -455 l0 -455 100 0 100 0 0 600 0 600 -1350 0 -1350 0 0 -100z"/>
<path d="M3300 600 l0 -600 100 0 100 0 0 455 c0 250 2 455 5 455 3 0 415 -205 915 -455 l910 -455 107 1 108 0 -995 499 -995 499 223 0 222 1 988 -494 c543 -271 993 -491 1000 -489 9 4 12 45 12 161 l0 157 -662 332 -663 332 663 0 662 1 0 100 0 100 -1350 0 -1350 0 0 -600z"/>
</g>


</svg>