<svg id="moon_and_sun" xmlns="http://www.w3.org/2000/svg" viewBox="0 0 192 192"><title>cressent_and_sun</title><path d="M93.42,52.11c-5.58.8-10.78,2.17-15.42,5.51A33.31,33.31,0,0,0,65.62,74c-5.43,16.38,3.88,35.56,20.31,41a35.32,35.32,0,0,0,15.86,1.15,32.44,32.44,0,0,0,11.45-4.22,30,30,0,0,0,8.25-7.1c14.5-18.16,5.44-47.19-17.94-52a29.56,29.56,0,0,0-10.13-.7"/><path d="M52,96a44.47,44.47,0,0,0,4.1,19.39,45.66,45.66,0,0,0,21.45,21.37c17.82,8.35,40.93,3.49,53.22-12.12a42.3,42.3,0,0,0,7.15-12.77A50.12,50.12,0,0,0,141,96c-2.22,2.28-3.59,5.73-5.44,8.38a46.07,46.07,0,0,1-10.86,11A48.51,48.51,0,0,1,65.22,113,46.37,46.37,0,0,1,56.41,103c-1.52-2.28-2.67-4.94-4.41-7"/></svg>