<svg id="crown" xmlns="http://www.w3.org/2000/svg" viewBox="0 0 192 192"><defs><style>.cls-1{stroke:#000;stroke-linecap:round;stroke-linejoin:round;stroke-width:0.93px;}</style></defs><title>crown</title><path class="cls-1" d="M140,100.06a3.77,3.77,0,0,0-3.67-3.86h-.21A9.82,9.82,0,0,0,134.29,94a4.18,4.18,0,0,0,.07-.72,3.63,3.63,0,0,0-3.53-3.72A3.48,3.48,0,0,0,128,91c-1.19-.21-2.47-.35-3.82-.45a3.12,3.12,0,0,0-3-3.15,3.09,3.09,0,0,0-3,2.74c-1.27-.1-2.56-.24-3.84-.44,0-.07,0-.15,0-.22a2.9,2.9,0,0,0-2.82-3,2.81,2.81,0,0,0-2.61,1.86,18.85,18.85,0,0,1-5.49-3,3.53,3.53,0,0,0,1.06-.37A3.36,3.36,0,0,0,106,82.76a4.44,4.44,0,0,1-1.45-.25l-1.9-3.22c-.12-2.08-1-3.62-2.44-4.17a5.64,5.64,0,0,0,1-3.16,5.46,5.46,0,0,0-3-4.94l-.46-4,0-.77c-.07-1.5,2.13.39,3.65.39a2.29,2.29,0,0,0,2-2.43,2.18,2.18,0,0,0-2-2.32h0c-1.19,0-2.45,1.12-3.22.59-1.29-.88.26-2.69.26-4a2.31,2.31,0,0,0-4.62,0c0,1.26,1.54,3.13.26,4-.81.53-2.07-.59-3.22-.59a2.18,2.18,0,0,0-2,2.32,2.29,2.29,0,0,0,2,2.43c1.46,0,3.72-1.89,3.65-.39l0,.74-.46,4a5.47,5.47,0,0,0-3.1,5,5.63,5.63,0,0,0,1,3.2c-1.35.58-2.24,2.09-2.36,4.13l-1.89,3.22a4.31,4.31,0,0,1-1.46.24A3.37,3.37,0,0,0,87.53,85a3.34,3.34,0,0,0,1,.35,18.42,18.42,0,0,1-5.41,3,2.82,2.82,0,0,0-2.6-1.83,2.9,2.9,0,0,0-2.82,3,1.49,1.49,0,0,0,0,.21c-1.28.2-2.57.34-3.84.44a3.09,3.09,0,0,0-3-2.73,3.13,3.13,0,0,0-3,3.14c-1.34.1-2.63.24-3.82.45a3.47,3.47,0,0,0-2.82-1.51,3.63,3.63,0,0,0-3.53,3.72,4.48,4.48,0,0,0,.06.64,9.45,9.45,0,0,0-1.91,2.34h-.12A3.77,3.77,0,0,0,52,100.06a3.83,3.83,0,0,0,2.75,3.74,21.75,21.75,0,0,0,.91,3.43,3.08,3.08,0,0,0-1.44,2.63,3,3,0,0,0,2.92,3.08,2.85,2.85,0,0,0,1-.21c.61,1.08,1.24,2.11,1.84,3l-.15,0a8.63,8.63,0,0,0-3.14,1.44,17.87,17.87,0,0,1,9.36,7.16,2.45,2.45,0,0,0-.12.75,1.13,1.13,0,0,0,.74,1.14l.44.75a2.29,2.29,0,0,0-.27,1.45A2.86,2.86,0,0,0,69,130.58a3.56,3.56,0,0,0,.15.75,5,5,0,0,0,.9,1.34h0l12.4-4.42h0l6.92-.32L96,127.6l13.53.64L122,132.67a5,5,0,0,0,.9-1.34,3.75,3.75,0,0,0,.15-.77,2.85,2.85,0,0,0,2-2.07,2.26,2.26,0,0,0-.24-1.38l.49-.83a1.11,1.11,0,0,0,.72-1.13,2.85,2.85,0,0,0-.13-.81,19.65,19.65,0,0,1,9.41-7.1,8.71,8.71,0,0,0-3.14-1.44l-.24,0c.61-.93,1.24-2,1.85-3a2.86,2.86,0,0,0,1.13.24,3,3,0,0,0,2.92-3.08,3.1,3.1,0,0,0-1.52-2.68,21.54,21.54,0,0,0,.89-3.35A3.83,3.83,0,0,0,140,100.06Zm-21.78,4.23s-3.32.17-6.71,3.72a13.75,13.75,0,0,0-3.11-7.4,12.32,12.32,0,0,0-6.41,5.88,16.44,16.44,0,0,0-1.72-4.42,17.47,17.47,0,0,1,.28-2.88c.48-2.47,2.25-5.29,2.25-7.37a11.11,11.11,0,0,0-.34-2.19c7.68,9.28,21.8,4.56,24.62,10,1.6,3.07-.51,6.52-3.56,9.7a7.81,7.81,0,0,0-3.9,1.79C119.51,106.49,118.22,104.29,118.22,104.29Zm-45.84,6.84a10.64,10.64,0,0,0-4.47-2.29c-2.79-3-4.6-6.29-3.09-9.2,2.83-5.45,17-.72,24.64-10a10.81,10.81,0,0,0-.36,2.21c0,2.08,1.87,4.9,2.35,7.37a17.47,17.47,0,0,1,.28,2.88A16.77,16.77,0,0,0,90,106.49a12.28,12.28,0,0,0-6.4-5.88,14.13,14.13,0,0,0-3.11,7.4c-3.39-3.55-6.71-3.72-6.71-3.72S72.49,106.49,72.38,111.13ZM96,114.84a71.64,71.64,0,0,0-11.88,1A64.55,64.55,0,0,1,96,114.72a63.71,63.71,0,0,1,12.19,1.14A71.82,71.82,0,0,0,96,114.84Z"/><path class="cls-1" d="M118.41,134.05l0,0h-.07a7.38,7.38,0,0,0-2.28-1.61l.09,0h-.15a21.66,21.66,0,0,0-3.25-1.22l.14,0h-.23a46.48,46.48,0,0,0-5.43-1.19l.17,0h-.29a84.2,84.2,0,0,0-24.42,0h-.22l.13,0a43.25,43.25,0,0,0-5.46,1.19H77l.1,0a22.07,22.07,0,0,0-3.28,1.23h-.08l0,0A7.33,7.33,0,0,0,71.51,134h0a2.32,2.32,0,0,0-.64,1.49C70.87,139.1,81.65,142,95,142c12.17,0,22.23-2.43,23.85-5.59l.06,0h0a2,2,0,0,0,.22-.87A2.27,2.27,0,0,0,118.41,134.05Z"/></svg>