<svg id="diagonal" xmlns="http://www.w3.org/2000/svg" viewBox="0 0 192 192"><defs><style>.cls-1{stroke:#000;stroke-miterlimit:10;stroke-width:3px;}</style></defs><title>diagonal</title><path class="cls-1" d="M6,127.31a19.67,19.67,0,0,0,2.31-1.11c1-.53,2.08-1,3.12-1.56l11.19-5.56q16.52-8.23,33.07-16.43,30.75-15.21,61.45-30.53c13.43-6.67,26.92-13.29,40.3-20a8.38,8.38,0,0,0-2.13-.06h-9.22a11.76,11.76,0,0,0-2.14,0,11.1,11.1,0,0,0-2.46,1.16l-5.19,2.58-16.78,8.33c-19.22,9.55-38.53,19-57.66,28.64-6.66,3.36-13.38,6.65-20.07,10-2.67,1.32-5.29,2.69-8,4-6.65,3.19-13.1,6.62-19.75,9.81-1.91.92-3.78,1.88-5.67,2.82l-1.56.78a2.08,2.08,0,0,0-.74.44,1,1,0,0,0-.09.6v6.13Z"/><path class="cls-1" d="M186.86,66.69c-2.31,1.32-4.89,2.45-7.32,3.66l-14.31,7.11-43,21.37c-18,8.93-36,17.8-54,26.8-6.83,3.43-13.7,6.82-20.56,10.23-4,2-8,4.14-12.18,6a7.66,7.66,0,0,0,2,.06h9.29a10.46,10.46,0,0,0,2.31-.05,11.62,11.62,0,0,0,2.22-1.06l4.6-2.28,14.89-7.4,59.89-29.75c9-4.45,17.88-9,26.9-13.38,7-3.41,14-6.84,20.89-10.38,1.93-1,3.9-1.93,5.84-2.9l1.65-.82a3.46,3.46,0,0,0,.85-.47.65.65,0,0,0,.14-.53V68.28A3.41,3.41,0,0,0,186.86,66.69Z"/></svg>