<!DOCTYPE svg PUBLIC "-//W3C//DTD SVG 20010904//EN" "http://www.w3.org/TR/2001/REC-SVG-20010904/DTD/svg10.dtd">
<svg version="1.0" xmlns="http://www.w3.org/2000/svg" width="640px" height="320px" viewBox="0 0 6400 3200" preserveAspectRatio="xMidYMid meet">
<g id="layer101" fill="#000000" stroke="none">
<path d="M0 1600 l0 -1600 3200 0 3200 0 0 1600 0 1600 -3200 0 -3200 0 0 -1600z"/>
</g>
<g id="layer102" fill="#1f291d" stroke="none">
<path d="M0 2465 l0 -735 1203 0 1202 0 0 -130 0 -130 -1202 0 -1203 0 0 -735 0 -735 1535 0 1535 0 0 403 0 402 130 0 130 0 0 -402 0 -403 1535 0 1535 0 0 735 0 735 -1202 0 -1203 0 0 130 0 130 1203 0 1202 0 0 735 0 735 -1535 0 -1535 0 0 -402 0 -403 -130 0 -130 0 0 403 0 402 -1535 0 -1535 0 0 -735z m3260 -269 c0 -3 -5 -8 -12 -12 -7 -4 -8 -3 -4 4 7 12 16 16 16 8z m350 -30 c0 -3 -5 -8 -12 -12 -7 -4 -8 -3 -4 4 7 12 16 16 16 8z m-343 -53 c-4 -3 -10 -3 -14 0 -3 4 0 7 7 7 7 0 10 -3 7 -7z m330 -20 c-4 -3 -7 0 -7 7 0 7 3 10 7 7 3 -4 3 -10 0 -14z m-827 -27 c0 -3 -5 -8 -12 -12 -7 -4 -8 -3 -4 4 7 12 16 16 16 8z m1100 -250 c0 -3 -5 -8 -12 -12 -7 -4 -8 -3 -4 4 7 12 16 16 16 8z m-1173 -123 c-4 -3 -7 0 -7 7 0 7 3 10 7 7 3 -4 3 -10 0 -14z m1010 0 c-4 -3 -7 0 -7 7 0 7 3 10 7 7 3 -4 3 -10 0 -14z m-1010 -200 c-4 -3 -7 0 -7 7 0 7 3 10 7 7 3 -4 3 -10 0 -14z m-147 -97 c0 -3 -5 -8 -12 -12 -7 -4 -8 -3 -4 4 7 12 16 16 16 8z m1100 -250 c0 -3 -5 -8 -12 -12 -7 -4 -8 -3 -4 4 7 12 16 16 16 8z m-843 -53 c-4 -3 -7 0 -7 7 0 7 3 10 7 7 3 -4 3 -10 0 -14z m340 -10 c-4 -3 -10 -3 -14 0 -3 4 0 7 7 7 7 0 10 -3 7 -7z m4 -76 c-10 -9 -11 -8 -5 6 3 10 9 15 12 12 3 -3 0 -11 -7 -18z"/>
</g>
<g id="layer103" fill="#034f2f" stroke="none">
<path d="M0 2465 l0 -735 1203 0 1202 0 0 -130 0 -130 -1202 0 -1203 0 0 -735 0 -735 1535 0 1535 0 0 403 0 402 130 0 130 0 0 -402 0 -403 1535 0 1535 0 0 735 0 735 -1202 0 -1203 0 0 130 0 130 1203 0 1202 0 0 735 0 735 -1535 0 -1535 0 0 -402 0 -403 -130 0 -130 0 0 403 0 402 -1535 0 -1535 0 0 -735z m3145 -265 c3 -5 4 -10 1 -10 -3 0 -8 5 -11 10 -3 6 -4 10 -1 10 3 0 8 -4 11 -10z m115 -4 c0 -3 -5 -8 -12 -12 -7 -4 -8 -3 -4 4 7 12 16 16 16 8z m-353 -48 c-3 -8 -6 -5 -6 6 -1 11 2 17 5 13 3 -3 4 -12 1 -19z m590 5 c-4 -3 -7 0 -7 7 0 7 3 10 7 7 3 -4 3 -10 0 -14z m113 13 c0 -3 -5 -8 -12 -12 -7 -4 -8 -3 -4 4 7 12 16 16 16 8z m-730 -20 c0 -3 -5 -8 -12 -12 -7 -4 -8 -3 -4 4 7 12 16 16 16 8z m345 -6 c3 -5 4 -10 1 -10 -3 0 -8 5 -11 10 -3 6 -4 10 -1 10 3 0 8 -4 11 -10z m-78 -27 c-4 -3 -10 -3 -14 0 -3 4 0 7 7 7 7 0 10 -3 7 -7z m120 0 c-4 -3 -10 -3 -14 0 -3 4 0 7 7 7 7 0 10 -3 7 -7z m337 -19 c3 -8 2 -12 -4 -9 -6 3 -10 10 -10 16 0 14 7 11 14 -7z m-794 2 c0 -3 -5 -8 -12 -12 -7 -4 -8 -3 -4 4 7 12 16 16 16 8z m690 -10 c0 -3 -5 -8 -12 -12 -7 -4 -8 -3 -4 4 7 12 16 16 16 8z m-730 -20 c0 -3 -5 -8 -12 -12 -7 -4 -8 -3 -4 4 7 12 16 16 16 8z m175 -6 c3 -5 4 -10 1 -10 -3 0 -8 5 -11 10 -3 6 -4 10 -1 10 3 0 8 -4 11 -10z m-398 -247 c-4 -3 -10 -3 -14 0 -3 4 0 7 7 7 7 0 10 -3 7 -7z m190 0 c-4 -3 -10 -3 -14 0 -3 4 0 7 7 7 7 0 10 -3 7 -7z m623 2 c0 -1 -12 -12 -27 -26 -20 -17 -23 -18 -10 -3 9 11 15 23 12 26 -3 2 2 5 10 5 8 0 15 -1 15 -2z m510 1 c0 -3 -5 -8 -12 -12 -7 -4 -8 -3 -4 4 7 12 16 16 16 8z m-40 -30 c0 -3 -5 -8 -12 -12 -7 -4 -8 -3 -4 4 7 12 16 16 16 8z m-1175 -56 c3 -5 4 -10 1 -10 -3 0 -8 5 -11 10 -3 6 -4 10 -1 10 3 0 8 -4 11 -10z m1172 -27 c-4 -3 -7 0 -7 7 0 7 3 10 7 7 3 -4 3 -10 0 -14z m-1130 -10 c-4 -3 -7 0 -7 7 0 7 3 10 7 7 3 -4 3 -10 0 -14z m1010 0 c-4 -3 -7 0 -7 7 0 7 3 10 7 7 3 -4 3 -10 0 -14z m-1010 -200 c-4 -3 -7 0 -7 7 0 7 3 10 7 7 3 -4 3 -10 0 -14z m1010 0 c-4 -3 -7 0 -7 7 0 7 3 10 7 7 3 -4 3 -10 0 -14z m-1130 -10 c-4 -3 -7 0 -7 7 0 7 3 10 7 7 3 -4 3 -10 0 -14z m1178 -13 c3 -5 4 -10 1 -10 -3 0 -8 5 -11 10 -3 6 -4 10 -1 10 3 0 8 -4 11 -10z m-1165 -44 c0 -3 -5 -8 -12 -12 -7 -4 -8 -3 -4 4 7 12 16 16 16 8z m-40 -30 c0 -3 -5 -8 -12 -12 -7 -4 -8 -3 -4 4 7 12 16 16 16 8z m1127 -13 c-4 -3 -10 -3 -14 0 -3 4 0 7 7 7 7 0 10 -3 7 -7z m190 0 c-4 -3 -10 -3 -14 0 -3 4 0 7 7 7 7 0 10 -3 7 -7z m-1230 -60 c-4 -3 -10 -3 -14 0 -3 4 0 7 7 7 7 0 10 -3 7 -7z m218 -113 c3 -5 4 -10 1 -10 -3 0 -8 5 -11 10 -3 6 -4 10 -1 10 3 0 8 -4 11 -10z m702 3 c-4 -3 -10 -3 -14 0 -3 4 0 7 7 7 7 0 10 -3 7 -7z m-607 -67 c0 -3 -5 -8 -12 -12 -7 -4 -8 -3 -4 4 7 12 16 16 16 8z m515 -6 c3 -5 4 -10 1 -10 -3 0 -8 5 -11 10 -3 6 -4 10 -1 10 3 0 8 -4 11 -10z m185 6 c0 -3 -5 -8 -12 -12 -7 -4 -8 -3 -4 4 7 12 16 16 16 8z m-842 -51 c-3 -3 -9 2 -12 12 -6 14 -5 15 5 6 7 -7 10 -15 7 -18z m339 -12 c-4 -3 -10 -3 -14 0 -3 4 0 7 7 7 7 0 10 -3 7 -7z m120 0 c-4 -3 -10 -3 -14 0 -3 4 0 7 7 7 7 0 10 -3 7 -7z m-37 -17 c0 -3 -5 -8 -12 -12 -7 -4 -8 -3 -4 4 7 12 16 16 16 8z m377 -21 c0 -8 -4 -12 -9 -9 -5 3 -6 10 -3 15 9 13 12 11 12 -6z m-797 1 c0 -3 -5 -8 -12 -12 -7 -4 -8 -3 -4 4 7 12 16 16 16 8z m97 -13 c-4 -3 -7 0 -7 7 0 7 3 10 7 7 3 -4 3 -10 0 -14z m239 -31 c-17 -16 -18 -16 -5 5 7 12 15 20 18 17 3 -2 -3 -12 -13 -22z m119 -2 c3 -5 4 -10 1 -10 -3 0 -8 5 -11 10 -3 6 -4 10 -1 10 3 0 8 -4 11 -10z"/>
</g>
<g id="layer104" fill="#611e1b" stroke="none">
<path d="M0 2465 l0 -735 1203 0 1202 0 0 -130 0 -130 -1202 0 -1203 0 0 -735 0 -735 1535 0 1535 0 0 403 0 402 130 0 130 0 0 -402 0 -403 1535 0 1535 0 0 735 0 735 -1202 0 -1203 0 0 130 0 130 1203 0 1202 0 0 735 0 735 -1535 0 -1535 0 0 -402 0 -403 -130 0 -130 0 0 403 0 402 -1535 0 -1535 0 0 -735z m3145 -265 c3 -5 4 -10 1 -10 -3 0 -8 5 -11 10 -3 6 -4 10 -1 10 3 0 8 -4 11 -10z m115 -4 c0 -3 -5 -8 -12 -12 -7 -4 -8 -3 -4 4 7 12 16 16 16 8z m-353 -48 c-3 -8 -6 -5 -6 6 -1 11 2 17 5 13 3 -3 4 -12 1 -19z m590 5 c-4 -3 -7 0 -7 7 0 7 3 10 7 7 3 -4 3 -10 0 -14z m113 13 c0 -3 -5 -8 -12 -12 -7 -4 -8 -3 -4 4 7 12 16 16 16 8z m-730 -20 c0 -3 -5 -8 -12 -12 -7 -4 -8 -3 -4 4 7 12 16 16 16 8z m345 -6 c3 -5 4 -10 1 -10 -3 0 -8 5 -11 10 -3 6 -4 10 -1 10 3 0 8 -4 11 -10z m-78 -27 c-4 -3 -10 -3 -14 0 -3 4 0 7 7 7 7 0 10 -3 7 -7z m120 0 c-4 -3 -10 -3 -14 0 -3 4 0 7 7 7 7 0 10 -3 7 -7z m248 -3 c3 -5 4 -10 1 -10 -3 0 -8 5 -11 10 -3 6 -4 10 -1 10 3 0 8 -4 11 -10z m89 -16 c3 -8 2 -12 -4 -9 -6 3 -10 10 -10 16 0 14 7 11 14 -7z m-794 2 c0 -3 -5 -8 -12 -12 -7 -4 -8 -3 -4 4 7 12 16 16 16 8z m690 -10 c0 -3 -5 -8 -12 -12 -7 -4 -8 -3 -4 4 7 12 16 16 16 8z m-730 -20 c0 -3 -5 -8 -12 -12 -7 -4 -8 -3 -4 4 7 12 16 16 16 8z m175 -6 c3 -5 4 -10 1 -10 -3 0 -8 5 -11 10 -3 6 -4 10 -1 10 3 0 8 -4 11 -10z m-118 -17 c-4 -3 -7 0 -7 7 0 7 3 10 7 7 3 -4 3 -10 0 -14z m763 13 c0 -3 -5 -8 -12 -12 -7 -4 -8 -3 -4 4 7 12 16 16 16 8z m-273 -213 c-4 -3 -7 0 -7 7 0 7 3 10 7 7 3 -4 3 -10 0 -14z m-662 -13 c3 -5 4 -10 1 -10 -3 0 -8 5 -11 10 -3 6 -4 10 -1 10 3 0 8 -4 11 -10z m698 -13 c13 12 7 -6 -6 -19 -32 -33 -47 -69 -41 -95 4 -20 3 -24 -4 -14 -5 7 -15 10 -21 7 -19 -12 -42 -66 -36 -86 3 -10 1 -21 -5 -25 -15 -10 -12 -25 6 -25 12 0 15 7 12 30 -3 22 -1 29 8 26 7 -3 17 7 22 22 8 25 9 23 8 -14 0 -29 -4 -40 -13 -37 -7 3 -13 -2 -13 -10 0 -8 -11 -22 -25 -31 -14 -9 -24 -20 -23 -24 2 -4 -6 -18 -16 -32 -13 -18 -16 -19 -10 -5 4 11 8 34 8 52 1 17 5 29 10 26 4 -3 5 5 1 18 -5 19 -4 21 4 9 8 -12 11 -8 11 18 0 37 25 92 41 92 6 0 7 5 3 12 -5 7 -3 8 6 3 8 -5 11 -3 8 6 -3 8 8 31 24 52 16 20 25 37 19 37 -6 0 -11 5 -11 11 0 8 4 9 13 0 8 -6 17 -8 20 -4z m-806 -4 c-4 -3 -10 -3 -14 0 -3 4 0 7 7 7 7 0 10 -3 7 -7z m190 0 c-4 -3 -10 -3 -14 0 -3 4 0 7 7 7 7 0 10 -3 7 -7z m1133 3 c0 -3 -5 -8 -12 -12 -7 -4 -8 -3 -4 4 7 12 16 16 16 8z m-572 -31 c-3 -3 -9 2 -12 12 -6 14 -5 15 5 6 7 -7 10 -15 7 -18z m-33 -5 c4 -12 11 -17 18 -13 7 4 5 -1 -3 -11 -14 -18 -15 -18 -20 4 -3 13 -14 27 -25 31 -19 7 -19 8 2 8 13 1 24 -7 28 -19z m565 6 c0 -3 -5 -8 -12 -12 -7 -4 -8 -3 -4 4 7 12 16 16 16 8z m-1175 -56 c3 -5 4 -10 1 -10 -3 0 -8 5 -11 10 -3 6 -4 10 -1 10 3 0 8 -4 11 -10z m1172 -27 c-4 -3 -7 0 -7 7 0 7 3 10 7 7 3 -4 3 -10 0 -14z m-1130 -10 c-4 -3 -7 0 -7 7 0 7 3 10 7 7 3 -4 3 -10 0 -14z m1010 0 c-4 -3 -7 0 -7 7 0 7 3 10 7 7 3 -4 3 -10 0 -14z m-1010 -200 c-4 -3 -7 0 -7 7 0 7 3 10 7 7 3 -4 3 -10 0 -14z m1010 0 c-4 -3 -7 0 -7 7 0 7 3 10 7 7 3 -4 3 -10 0 -14z m-1130 -10 c-4 -3 -7 0 -7 7 0 7 3 10 7 7 3 -4 3 -10 0 -14z m634 -30 c-12 -20 -14 -14 -5 12 4 9 9 14 11 11 3 -2 0 -13 -6 -23z m544 17 c3 -5 4 -10 1 -10 -3 0 -8 5 -11 10 -3 6 -4 10 -1 10 3 0 8 -4 11 -10z m-1165 -44 c0 -3 -5 -8 -12 -12 -7 -4 -8 -3 -4 4 7 12 16 16 16 8z m610 -26 c0 -5 -2 -10 -4 -10 -3 0 -8 5 -11 10 -3 6 -1 10 4 10 6 0 11 -4 11 -10z m-650 -4 c0 -3 -5 -8 -12 -12 -7 -4 -8 -3 -4 4 7 12 16 16 16 8z m683 -28 c-8 -33 -57 -78 -50 -47 1 6 -4 14 -12 17 -8 2 -11 0 -7 -6 3 -6 3 -13 -2 -16 -4 -2 -9 4 -9 15 -1 11 5 19 14 19 9 0 13 6 10 14 -6 14 9 22 45 25 12 1 15 -5 11 -21z m444 15 c-4 -3 -10 -3 -14 0 -3 4 0 7 7 7 7 0 10 -3 7 -7z m190 0 c-4 -3 -10 -3 -14 0 -3 4 0 7 7 7 7 0 10 -3 7 -7z m-112 -13 c3 -5 4 -10 1 -10 -3 0 -8 5 -11 10 -3 6 -4 10 -1 10 3 0 8 -4 11 -10z m-1118 -47 c-4 -3 -10 -3 -14 0 -3 4 0 7 7 7 7 0 10 -3 7 -7z m218 -113 c3 -5 4 -10 1 -10 -3 0 -8 5 -11 10 -3 6 -4 10 -1 10 3 0 8 -4 11 -10z m702 3 c-4 -3 -10 -3 -14 0 -3 4 0 7 7 7 7 0 10 -3 7 -7z m-727 -57 c0 -3 -5 -8 -12 -12 -7 -4 -8 -3 -4 4 7 12 16 16 16 8z m747 -13 c-4 -3 -7 0 -7 7 0 7 3 10 7 7 3 -4 3 -10 0 -14z m-627 3 c0 -3 -5 -8 -12 -12 -7 -4 -8 -3 -4 4 7 12 16 16 16 8z m515 -6 c3 -5 4 -10 1 -10 -3 0 -8 5 -11 10 -3 6 -4 10 -1 10 3 0 8 -4 11 -10z m185 6 c0 -3 -5 -8 -12 -12 -7 -4 -8 -3 -4 4 7 12 16 16 16 8z m-842 -51 c-3 -3 -9 2 -12 12 -6 14 -5 15 5 6 7 -7 10 -15 7 -18z m339 -12 c-4 -3 -10 -3 -14 0 -3 4 0 7 7 7 7 0 10 -3 7 -7z m120 0 c-4 -3 -10 -3 -14 0 -3 4 0 7 7 7 7 0 10 -3 7 -7z m-37 -17 c0 -3 -5 -8 -12 -12 -7 -4 -8 -3 -4 4 7 12 16 16 16 8z m377 -21 c0 -8 -4 -12 -9 -9 -5 3 -6 10 -3 15 9 13 12 11 12 -6z m-797 1 c0 -3 -5 -8 -12 -12 -7 -4 -8 -3 -4 4 7 12 16 16 16 8z m97 -13 c-4 -3 -7 0 -7 7 0 7 3 10 7 7 3 -4 3 -10 0 -14z m239 -31 c-17 -16 -18 -16 -5 5 7 12 15 20 18 17 3 -2 -3 -12 -13 -22z m119 -2 c3 -5 4 -10 1 -10 -3 0 -8 5 -11 10 -3 6 -4 10 -1 10 3 0 8 -4 11 -10z"/>
</g>
<g id="layer105" fill="#006b3f" stroke="none">
<path d="M0 2465 l0 -735 1203 0 1202 0 0 -130 0 -130 -1202 0 -1203 0 0 -735 0 -735 1535 0 1535 0 0 403 0 402 130 0 130 0 0 -402 0 -403 1535 0 1535 0 0 735 0 735 -1202 0 -1203 0 0 130 0 130 1203 0 1202 0 0 735 0 735 -1535 0 -1535 0 0 -402 0 -403 -130 0 -130 0 0 403 0 402 -1535 0 -1535 0 0 -735z m3151 -272 c13 -16 12 -17 -3 -4 -17 13 -22 21 -14 21 2 0 10 -8 17 -17z m109 3 c0 -3 -5 -8 -12 -12 -7 -4 -8 -3 -4 4 7 12 16 16 16 8z m-353 -48 c-3 -8 -6 -5 -6 6 -1 11 2 17 5 13 3 -3 4 -12 1 -19z m590 5 c-4 -3 -7 0 -7 7 0 7 3 10 7 7 3 -4 3 -10 0 -14z m123 13 c0 -2 -7 -7 -16 -10 -8 -3 -12 -2 -9 4 6 10 25 14 25 6z m-95 -16 c3 -5 4 -10 1 -10 -3 0 -8 5 -11 10 -3 6 -4 10 -1 10 3 0 8 -4 11 -10z m-690 -10 c3 -5 4 -10 1 -10 -3 0 -8 5 -11 10 -3 6 -4 10 -1 10 3 0 8 -4 11 -10z m45 6 c0 -3 -5 -8 -12 -12 -7 -4 -8 -3 -4 4 7 12 16 16 16 8z m345 -6 c3 -5 4 -10 1 -10 -3 0 -8 5 -11 10 -3 6 -4 10 -1 10 3 0 8 -4 11 -10z m-75 -24 c0 -3 -4 -8 -10 -11 -5 -3 -10 -1 -10 4 0 6 5 11 10 11 6 0 10 -2 10 -4z m117 -3 c-4 -3 -10 -3 -14 0 -3 4 0 7 7 7 7 0 10 -3 7 -7z m248 -3 c3 -5 4 -10 1 -10 -3 0 -8 5 -11 10 -3 6 -4 10 -1 10 3 0 8 -4 11 -10z m89 -16 c3 -8 2 -12 -4 -9 -6 3 -10 10 -10 16 0 14 7 11 14 -7z m-794 2 c0 -3 -5 -8 -12 -12 -7 -4 -8 -3 -4 4 7 12 16 16 16 8z m95 -6 c3 -5 4 -10 1 -10 -3 0 -8 5 -11 10 -3 6 -4 10 -1 10 3 0 8 -4 11 -10z m595 -4 c0 -3 -5 -8 -12 -12 -7 -4 -8 -3 -4 4 7 12 16 16 16 8z m-730 -20 c0 -3 -5 -8 -12 -12 -7 -4 -8 -3 -4 4 7 12 16 16 16 8z m175 -6 c3 -5 4 -10 1 -10 -3 0 -8 5 -11 10 -3 6 -4 10 -1 10 3 0 8 -4 11 -10z m525 6 c0 -3 -5 -8 -12 -12 -7 -4 -8 -3 -4 4 7 12 16 16 16 8z m175 -6 c3 -5 4 -10 1 -10 -3 0 -8 5 -11 10 -3 6 -4 10 -1 10 3 0 8 -4 11 -10z m-818 -17 c-4 -3 -7 0 -7 7 0 7 3 10 7 7 3 -4 3 -10 0 -14z m763 13 c0 -3 -5 -8 -12 -12 -7 -4 -8 -3 -4 4 7 12 16 16 16 8z m-419 -60 c-7 -8 -21 -12 -34 -8 -20 6 -20 7 8 13 17 4 32 7 34 8 2 0 -2 -5 -8 -13z m-311 -10 c0 -3 -5 -8 -12 -12 -7 -4 -8 -3 -4 4 7 12 16 16 16 8z m173 -3 c-7 -2 -21 -2 -30 0 -10 3 -4 5 12 5 17 0 24 -2 18 -5z m527 -3 c0 -5 -2 -10 -4 -10 -3 0 -8 5 -11 10 -3 6 -1 10 4 10 6 0 11 -4 11 -10z m-577 -30 c-3 -12 -8 -19 -11 -16 -5 6 5 36 12 36 2 0 2 -9 -1 -20z m177 -10 c0 -5 -5 -10 -11 -10 -5 0 -7 5 -4 10 3 6 8 10 11 10 2 0 4 -4 4 -10z m-127 -41 c18 -1 18 -2 4 -6 -20 -5 -47 13 -47 31 0 6 5 3 11 -6 5 -10 20 -19 32 -19z m-393 -13 c0 -3 -5 -8 -12 -12 -7 -4 -8 -3 -4 4 7 12 16 16 16 8z m1135 -6 c3 -5 4 -10 1 -10 -3 0 -8 5 -11 10 -3 6 -4 10 -1 10 3 0 8 -4 11 -10z m-458 -37 c-4 -3 -7 0 -7 7 0 7 3 10 7 7 3 -4 3 -10 0 -14z m-662 -13 c3 -5 4 -10 1 -10 -3 0 -8 5 -11 10 -3 6 -4 10 -1 10 3 0 8 -4 11 -10z m698 -13 c13 12 7 -6 -6 -19 -32 -33 -47 -69 -41 -95 4 -20 3 -24 -4 -14 -5 7 -15 10 -21 7 -19 -12 -42 -66 -36 -86 3 -10 1 -21 -5 -25 -15 -10 -12 -25 6 -25 12 0 15 7 12 30 -3 22 -1 29 8 26 7 -3 17 7 22 22 8 25 9 23 8 -14 0 -29 -4 -40 -13 -37 -7 3 -13 -2 -13 -10 0 -8 -11 -22 -25 -31 -14 -9 -24 -20 -23 -24 2 -4 -6 -18 -16 -32 -13 -18 -16 -19 -10 -5 4 11 9 36 10 55 1 19 3 44 4 55 l1 20 9 -20 c8 -17 9 -15 8 10 -1 17 6 45 15 64 9 18 14 38 10 44 -4 6 -1 7 7 2 10 -6 12 -4 7 9 -4 10 -7 26 -7 37 0 11 -10 24 -22 29 -22 8 -22 9 -2 9 24 1 40 -30 39 -71 0 -15 3 -24 8 -21 4 3 6 11 3 18 -3 8 5 26 17 42 12 15 21 29 20 30 -2 2 -3 10 -3 19 0 13 3 14 13 5 8 -6 17 -8 20 -4z m-803 -7 c0 -5 -2 -10 -4 -10 -3 0 -8 5 -11 10 -3 6 -1 10 4 10 6 0 11 -4 11 -10z m187 3 c-4 -3 -10 -3 -14 0 -3 4 0 7 7 7 7 0 10 -3 7 -7z m1133 3 c0 -3 -5 -8 -12 -12 -7 -4 -8 -3 -4 4 7 12 16 16 16 8z m-571 -20 c8 -10 8 -16 -1 -24 -10 -8 -13 -4 -13 14 0 28 -1 28 14 10z m-589 0 c0 -3 -5 -8 -12 -12 -7 -4 -8 -3 -4 4 7 12 16 16 16 8z m995 -6 c3 -5 4 -10 1 -10 -3 0 -8 5 -11 10 -3 6 -4 10 -1 10 3 0 8 -4 11 -10z m125 -4 c0 -3 -5 -8 -12 -12 -7 -4 -8 -3 -4 4 7 12 16 16 16 8z m-1175 -56 c3 -5 4 -10 1 -10 -3 0 -8 5 -11 10 -3 6 -4 10 -1 10 3 0 8 -4 11 -10z m-45 -4 c0 -3 -5 -8 -12 -12 -7 -4 -8 -3 -4 4 7 12 16 16 16 8z m1140 0 c0 -3 -5 -8 -12 -12 -7 -4 -8 -3 -4 4 7 12 16 16 16 8z m55 -6 c3 -5 4 -10 1 -10 -3 0 -8 5 -11 10 -3 6 -4 10 -1 10 3 0 8 -4 11 -10z m22 -17 c-4 -3 -7 0 -7 7 0 7 3 10 7 7 3 -4 3 -10 0 -14z m-1130 -10 c-4 -3 -7 0 -7 7 0 7 3 10 7 7 3 -4 3 -10 0 -14z m1010 0 c-4 -3 -7 0 -7 7 0 7 3 10 7 7 3 -4 3 -10 0 -14z m-510 -160 c-4 -3 -7 0 -7 7 0 7 3 10 7 7 3 -4 3 -10 0 -14z m-500 -40 c-4 -3 -7 0 -7 7 0 7 3 10 7 7 3 -4 3 -10 0 -14z m1010 0 c-4 -3 -7 0 -7 7 0 7 3 10 7 7 3 -4 3 -10 0 -14z m-1130 -10 c-4 -3 -7 0 -7 7 0 7 3 10 7 7 3 -4 3 -10 0 -14z m634 -30 c-12 -20 -14 -14 -5 12 4 9 9 14 11 11 3 -2 0 -13 -6 -23z m544 17 c3 -5 4 -10 1 -10 -3 0 -8 5 -11 10 -3 6 -4 10 -1 10 3 0 8 -4 11 -10z m-1165 -44 c0 -3 -5 -8 -12 -12 -7 -4 -8 -3 -4 4 7 12 16 16 16 8z m115 -16 c3 -5 4 -10 1 -10 -3 0 -8 5 -11 10 -3 6 -4 10 -1 10 3 0 8 -4 11 -10z m495 -10 c0 -5 -2 -10 -4 -10 -3 0 -8 5 -11 10 -3 6 -1 10 4 10 6 0 11 -4 11 -10z m-650 -4 c0 -3 -5 -8 -12 -12 -7 -4 -8 -3 -4 4 7 12 16 16 16 8z m1315 -6 c3 -5 1 -10 -4 -10 -6 0 -11 5 -11 10 0 6 2 10 4 10 3 0 8 -4 11 -10z m-632 -22 c-8 -33 -57 -78 -50 -47 1 6 -4 14 -12 17 -8 2 -11 0 -7 -6 3 -6 3 -13 -2 -16 -4 -2 -9 4 -9 15 -1 11 5 19 14 19 9 0 13 6 10 14 -6 14 9 22 45 25 12 1 15 -5 11 -21z m444 15 c-4 -3 -10 -3 -14 0 -3 4 0 7 7 7 7 0 10 -3 7 -7z m78 -13 c3 -5 4 -10 1 -10 -3 0 -8 5 -11 10 -3 6 -4 10 -1 10 3 0 8 -4 11 -10z m-1115 -50 c0 -5 -2 -10 -4 -10 -3 0 -8 5 -11 10 -3 6 -1 10 4 10 6 0 11 -4 11 -10z m407 -7 c-4 -3 -7 0 -7 7 0 7 3 10 7 7 3 -4 3 -10 0 -14z m733 13 c0 -3 -5 -8 -12 -12 -7 -4 -8 -3 -4 4 7 12 16 16 16 8z m-607 -90 c4 -10 1 -13 -8 -9 -8 3 -12 9 -9 14 7 12 11 11 17 -5z m-319 -22 c3 -8 2 -12 -4 -9 -6 3 -10 10 -10 16 0 14 7 11 14 -7z m706 6 c0 -5 -5 -10 -11 -10 -5 0 -7 5 -4 10 3 6 8 10 11 10 2 0 4 -4 4 -10z m-730 -64 c0 -3 -5 -8 -12 -12 -7 -4 -8 -3 -4 4 7 12 16 16 16 8z m747 -13 c-4 -3 -7 0 -7 7 0 7 3 10 7 7 3 -4 3 -10 0 -14z m-812 -3 c3 -5 4 -10 1 -10 -3 0 -8 5 -11 10 -3 6 -4 10 -1 10 3 0 8 -4 11 -10z m185 6 c0 -3 -5 -8 -12 -12 -7 -4 -8 -3 -4 4 7 12 16 16 16 8z m515 -6 c3 -5 4 -10 1 -10 -3 0 -8 5 -11 10 -3 6 -4 10 -1 10 3 0 8 -4 11 -10z m185 6 c0 -2 -8 -10 -17 -17 -16 -13 -17 -12 -4 4 13 16 21 21 21 13z m-842 -51 c-3 -3 -9 2 -12 12 -6 14 -5 15 5 6 7 -7 10 -15 7 -18z m697 15 c3 -5 4 -10 1 -10 -3 0 -8 5 -11 10 -3 6 -4 10 -1 10 3 0 8 -4 11 -10z m-235 -20 c0 -5 -5 -10 -11 -10 -5 0 -7 5 -4 10 3 6 8 10 11 10 2 0 4 -4 4 -10z m-123 -7 c-4 -3 -10 -3 -14 0 -3 4 0 7 7 7 7 0 10 -3 7 -7z m83 -17 c0 -3 -5 -8 -12 -12 -7 -4 -8 -3 -4 4 7 12 16 16 16 8z m377 -21 c0 -8 -4 -12 -9 -9 -5 3 -6 10 -3 15 9 13 12 11 12 -6z m-802 -5 c-3 -5 -12 -10 -18 -10 -7 0 -6 4 3 10 19 12 23 12 15 0z m102 -7 c-4 -3 -7 0 -7 7 0 7 3 10 7 7 3 -4 3 -10 0 -14z m239 -31 c-17 -16 -18 -16 -5 5 7 12 15 20 18 17 3 -2 -3 -12 -13 -22z m115 1 c13 -16 12 -17 -3 -4 -17 13 -22 21 -14 21 2 0 10 -8 17 -17z m-51 -87 c0 -3 -5 -8 -12 -12 -7 -4 -8 -3 -4 4 7 12 16 16 16 8z"/>
<path d="M3324 1798 c-4 -7 -3 -8 4 -4 12 7 16 16 8 16 -3 0 -8 -5 -12 -12z"/>
<path d="M3210 1571 c0 -6 4 -13 10 -16 6 -3 7 1 4 9 -7 18 -14 21 -14 7z"/>
<path d="M3190 1356 c0 -9 7 -16 16 -16 17 0 14 22 -4 28 -7 2 -12 -3 -12 -12z"/>
</g>
<g id="layer106" fill="#a01b27" stroke="none">
<path d="M2800 2746 l0 -453 -55 -36 c-70 -47 -155 -132 -202 -202 l-36 -55 -1253 0 -1254 0 0 -135 0 -135 1203 0 1202 0 0 -130 0 -130 -1202 0 -1203 0 0 -135 0 -135 1254 0 1253 0 36 -55 c47 -70 132 -155 202 -202 l55 -36 0 -453 0 -454 135 0 135 0 0 403 0 402 130 0 130 0 0 -402 0 -403 135 0 135 0 0 454 0 453 55 36 c70 47 155 132 202 202 l36 55 1253 0 1254 0 0 135 0 135 -1202 0 -1203 0 0 130 0 130 1203 0 1202 0 0 135 0 135 -1254 0 -1253 0 -36 55 c-47 70 -132 155 -202 202 l-55 36 0 453 0 454 -135 0 -135 0 0 -402 0 -403 -130 0 -130 0 0 403 0 402 -135 0 -135 0 0 -454z m416 -478 c9 -29 14 -33 49 -36 l39 -3 -29 -23 c-27 -22 -28 -26 -18 -60 13 -42 11 -43 -28 -15 l-29 20 -37 -28 c-32 -24 -36 -25 -29 -8 20 53 18 72 -8 92 l-26 21 39 6 c34 5 40 10 46 36 9 39 20 38 31 -2z m-395 -119 l29 -20 30 21 c32 23 36 17 20 -24 -8 -22 -5 -28 23 -50 l32 -26 -38 0 c-21 0 -40 -6 -42 -12 -2 -7 -10 -26 -16 -43 l-12 -30 -12 40 c-11 36 -15 40 -51 45 l-39 5 30 21 c27 21 28 24 18 58 -13 42 -11 43 28 15z m712 -7 c16 -14 20 -13 47 6 16 12 31 22 34 22 2 0 -1 -16 -7 -36 -10 -34 -9 -38 18 -60 l29 -23 -39 -3 c-35 -3 -39 -6 -50 -43 l-12 -40 -12 30 c-6 17 -14 36 -16 44 -4 10 -16 12 -48 7 l-42 -6 37 31 c33 26 36 33 28 55 -19 48 -10 52 33 16z m-154 -96 c32 -50 28 -56 -36 -56 -35 0 -53 4 -45 9 7 4 12 12 10 17 -3 11 31 64 42 64 5 0 18 -15 29 -34z m-208 -50 c-7 -8 -21 -12 -34 -8 -20 6 -20 7 8 13 17 4 32 7 34 8 2 0 -2 -5 -8 -13z m-138 -13 c-7 -2 -21 -2 -30 0 -10 3 -4 5 12 5 17 0 24 -2 18 -5z m-50 -33 c-3 -12 -8 -19 -11 -16 -5 6 5 36 12 36 2 0 2 -9 -1 -20z m177 -10 c0 -5 -5 -10 -11 -10 -5 0 -7 5 -4 10 3 6 8 10 11 10 2 0 4 -4 4 -10z m-127 -41 c18 -1 18 -2 4 -6 -20 -5 -47 13 -47 31 0 6 5 3 11 -6 5 -10 20 -19 32 -19z m378 14 c0 -15 2 -15 9 2 11 26 12 14 10 -105 -2 -118 -11 -163 -56 -258 -23 -51 -49 -89 -82 -119 -33 -31 -50 -55 -57 -85 l-11 -42 -46 3 c-28 1 -49 -2 -53 -10 -10 -14 -38 49 -31 68 3 7 17 13 32 13 34 0 53 25 54 70 0 90 64 246 133 328 l39 47 -43 -45 c-24 -25 -49 -55 -56 -65 -18 -30 -33 -2 -33 63 0 28 -3 52 -7 52 -3 0 -21 -11 -40 -26 -23 -17 -33 -21 -33 -11 0 23 21 77 30 77 5 0 10 10 12 23 3 19 9 22 50 23 26 0 51 3 55 7 3 4 33 7 65 7 48 0 58 -3 59 -17z m-713 -93 l42 -5 -30 -20 c-32 -20 -34 -37 -14 -90 7 -17 3 -16 -26 7 l-34 27 -33 -20 c-35 -22 -39 -17 -23 25 8 22 5 28 -23 50 l-32 26 43 0 c23 0 42 4 42 9 0 5 5 22 11 38 l11 28 12 -35 c11 -31 17 -36 54 -40z m1086 35 c13 -31 19 -35 53 -35 l38 0 -32 -26 c-28 -22 -31 -28 -23 -50 16 -42 12 -47 -22 -26 l-32 20 -35 -26 c-31 -24 -34 -25 -27 -7 20 53 18 70 -14 90 l-30 20 42 5 c38 4 43 9 52 38 5 17 10 32 12 32 2 0 10 -16 18 -35z m-1094 -379 c-15 -41 -13 -50 23 -71 l32 -20 -44 -5 c-40 -5 -45 -8 -56 -40 l-12 -35 -16 38 c-14 33 -20 37 -54 37 l-38 0 32 26 c28 22 31 28 23 50 -16 42 -12 47 23 26 l32 -20 30 23 c35 28 39 27 25 -9z m1108 6 c34 21 38 16 22 -26 -8 -22 -5 -28 23 -50 l32 -26 -42 0 c-24 0 -43 -4 -43 -9 0 -5 -5 -22 -11 -38 l-11 -28 -12 35 c-11 31 -17 36 -54 40 l-42 5 30 20 c32 20 34 37 14 90 -7 18 -4 17 27 -7 l35 -26 32 20z m-751 -169 c-4 -3 -7 0 -7 7 0 7 3 10 7 7 3 -4 3 -10 0 -14z m58 -43 c3 -5 4 -10 1 -10 -3 0 -8 5 -11 10 -3 6 -4 10 -1 10 3 0 8 -4 11 -10z m68 -34 c4 -10 1 -13 -8 -9 -8 3 -12 9 -9 14 7 12 11 11 17 -5z m-307 -49 c11 -30 14 -32 55 -30 l44 2 -37 -30 c-34 -28 -36 -32 -26 -60 14 -39 7 -44 -26 -18 l-28 22 -28 -22 c-39 -28 -40 -27 -27 15 10 34 9 38 -18 60 l-29 23 39 3 c36 3 40 6 48 41 10 42 17 41 33 -6z m749 -37 l40 -5 -30 -21 c-27 -21 -28 -24 -18 -58 13 -42 11 -43 -28 -15 l-29 20 -30 -21 c-32 -23 -36 -17 -20 24 8 22 5 28 -23 50 l-32 26 38 0 c21 0 40 6 42 13 2 6 10 26 16 42 l11 30 12 -40 c11 -37 15 -40 51 -45z m-357 -94 c-11 -36 -10 -40 14 -61 l26 -23 -38 -6 c-33 -5 -39 -11 -45 -36 -9 -39 -20 -38 -31 3 -8 28 -14 32 -47 35 l-37 3 27 23 c25 22 26 26 16 60 -13 42 -11 43 28 15 l30 -21 32 25 c18 14 33 24 34 23 1 -1 -3 -19 -9 -40z"/>
</g>
<g id="layer107" fill="#d41c30" stroke="none">
<path d="M2800 2746 l0 -453 -55 -36 c-70 -47 -155 -132 -202 -202 l-36 -55 -1253 0 -1254 0 0 -135 0 -135 1203 0 1202 0 0 -130 0 -130 -1202 0 -1203 0 0 -135 0 -135 1254 0 1253 0 36 -55 c47 -70 132 -155 202 -202 l55 -36 0 -453 0 -454 135 0 135 0 0 403 0 402 130 0 130 0 0 -402 0 -403 135 0 135 0 0 454 0 453 55 36 c70 47 155 132 202 202 l36 55 1253 0 1254 0 0 135 0 135 -1202 0 -1203 0 0 130 0 130 1203 0 1202 0 0 135 0 135 -1254 0 -1253 0 -36 55 c-47 70 -132 155 -202 202 l-55 36 0 453 0 454 -135 0 -135 0 0 -402 0 -403 -130 0 -130 0 0 403 0 402 -135 0 -135 0 0 -454z m416 -478 c9 -29 14 -33 49 -36 l39 -3 -29 -23 c-27 -22 -28 -26 -18 -60 13 -42 11 -43 -28 -15 l-29 20 -37 -28 c-32 -24 -36 -25 -29 -8 20 53 18 72 -8 92 l-26 21 39 6 c34 5 40 10 46 36 9 39 20 38 31 -2z m-395 -119 l29 -20 30 21 c32 23 36 17 20 -24 -8 -22 -5 -28 23 -50 l32 -26 -38 0 c-21 0 -40 -6 -42 -12 -2 -7 -10 -26 -16 -43 l-12 -30 -12 40 c-11 36 -15 40 -51 45 l-39 5 30 21 c27 21 28 24 18 58 -13 42 -11 43 28 15z m712 -7 c16 -14 20 -13 47 6 16 12 31 22 34 22 2 0 -1 -16 -7 -36 -10 -34 -9 -38 18 -60 l29 -23 -39 -3 c-35 -3 -39 -6 -50 -43 l-12 -40 -12 30 c-6 17 -14 36 -16 44 -4 10 -16 12 -48 7 l-42 -6 37 31 c33 26 36 33 28 55 -19 48 -10 52 33 16z m-149 -107 c11 -22 24 -41 29 -43 4 -2 7 -15 7 -28 0 -15 4 -23 10 -19 12 8 4 -192 -11 -268 -16 -84 -74 -196 -127 -244 -33 -31 -50 -55 -57 -85 l-11 -42 -46 3 c-28 1 -49 -2 -53 -10 -10 -14 -38 49 -31 68 3 7 18 13 34 13 37 0 46 21 61 128 5 46 14 88 18 95 4 7 9 21 10 32 2 11 8 22 13 23 6 2 8 8 4 13 -3 5 0 9 6 9 7 0 5 9 -4 22 -10 14 -16 44 -16 75 0 29 -3 53 -7 53 -3 0 -22 -12 -41 -27 l-35 -26 7 36 c4 20 13 48 21 64 19 36 4 53 -46 53 -28 0 -41 -5 -49 -20 -15 -28 -58 -26 -86 6 -19 20 -22 29 -14 44 16 31 44 40 115 40 36 0 76 5 88 11 21 11 20 10 -3 -15 -23 -25 -23 -29 -10 -53 13 -23 22 -27 68 -27 53 -1 70 11 44 30 -14 10 -12 15 11 38 15 15 26 30 25 34 -4 12 34 63 45 59 5 -1 19 -21 31 -42z m-141 -12 c-7 -2 -21 -2 -30 0 -10 3 -4 5 12 5 17 0 24 -2 18 -5z m-545 -203 l42 -5 -30 -20 c-32 -20 -34 -37 -14 -90 7 -17 3 -16 -26 7 l-34 27 -33 -20 c-35 -22 -39 -17 -23 25 8 22 5 28 -23 50 l-32 26 43 0 c23 0 42 4 42 9 0 5 5 22 11 38 l11 28 12 -35 c11 -31 17 -36 54 -40z m1086 35 c13 -31 19 -35 53 -35 l38 0 -32 -26 c-28 -22 -31 -28 -23 -50 16 -42 12 -47 -22 -26 l-32 20 -35 -26 c-31 -24 -34 -25 -27 -7 20 53 18 70 -14 90 l-30 20 42 5 c38 4 43 9 52 38 5 17 10 32 12 32 2 0 10 -16 18 -35z m-1094 -379 c-15 -41 -13 -50 23 -71 l32 -20 -44 -5 c-40 -5 -45 -8 -56 -40 l-12 -35 -16 38 c-14 33 -20 37 -54 37 l-38 0 32 26 c28 22 31 28 23 50 -16 42 -12 47 23 26 l32 -20 30 23 c35 28 39 27 25 -9z m1108 6 c34 21 38 16 22 -26 -8 -22 -5 -28 23 -50 l32 -26 -42 0 c-24 0 -43 -4 -43 -9 0 -5 -5 -22 -11 -38 l-11 -28 -12 35 c-11 31 -17 36 -54 40 l-42 5 30 20 c32 20 34 37 14 90 -7 18 -4 17 27 -7 l35 -26 32 20z m-753 -191 c0 -21 -3 -37 -7 -34 -10 5 -10 35 -2 57 9 23 10 20 9 -23z m60 -21 c3 -5 4 -10 1 -10 -3 0 -8 5 -11 10 -3 6 -4 10 -1 10 3 0 8 -4 11 -10z m64 -49 c-15 -5 -22 6 -14 19 6 9 10 9 16 -1 5 -8 4 -15 -2 -18z m-303 -34 c11 -30 14 -32 55 -30 l44 2 -37 -30 c-34 -28 -36 -32 -26 -60 14 -39 7 -44 -26 -18 l-28 22 -28 -22 c-39 -28 -40 -27 -27 15 10 34 9 38 -18 60 l-29 23 39 3 c36 3 40 6 48 41 10 42 17 41 33 -6z m749 -37 l40 -5 -30 -21 c-27 -21 -28 -24 -18 -58 13 -42 11 -43 -28 -15 l-29 20 -30 -21 c-32 -23 -36 -17 -20 24 8 22 5 28 -23 50 l-32 26 38 0 c21 0 40 6 42 13 2 6 10 26 16 42 l11 30 12 -40 c11 -37 15 -40 51 -45z m-357 -94 c-11 -36 -10 -40 14 -61 l26 -23 -38 -6 c-33 -5 -39 -11 -45 -36 -9 -39 -20 -38 -31 3 -8 28 -14 32 -47 35 l-37 3 27 23 c25 22 26 26 16 60 -13 42 -11 43 28 15 l30 -21 32 25 c18 14 33 24 34 23 1 -1 -3 -19 -9 -40z"/>
<path d="M3370 1960 c0 -7 3 -10 7 -7 3 4 3 10 0 14 -4 3 -7 0 -7 -7z"/>
<path d="M3410 1920 c0 -7 3 -10 7 -7 3 4 3 10 0 14 -4 3 -7 0 -7 -7z"/>
<path d="M3304 1778 l-29 -33 33 29 c30 28 37 36 29 36 -2 0 -16 -15 -33 -32z"/>
<path d="M3264 1728 c-4 -7 -3 -8 4 -4 12 7 16 16 8 16 -3 0 -8 -5 -12 -12z"/>
</g>
<g id="layer108" fill="#714995" stroke="none">
<path d="M3151 1781 c-74 -76 -95 -128 -96 -236 0 -49 6 -109 13 -132 12 -41 13 -42 50 -36 49 8 58 23 66 106 3 38 17 102 30 141 16 48 21 76 15 88 -5 9 -9 39 -9 67 0 30 -5 51 -11 51 -6 0 -32 -22 -58 -49z"/>
<path d="M3280 1421 c-24 -19 -38 -43 -45 -72 l-11 -43 -46 3 c-25 1 -49 -2 -53 -8 -3 -6 -10 -9 -14 -7 -4 3 -22 8 -39 11 -29 5 -32 3 -32 -19 0 -14 8 -31 18 -38 9 -7 22 -22 28 -33 16 -29 61 -48 97 -41 39 7 143 91 139 111 -2 8 2 15 9 15 6 0 9 7 5 15 -3 9 3 19 14 25 11 6 17 16 14 25 -4 8 -1 15 6 15 7 0 10 7 6 17 -4 9 -1 20 5 24 20 12 0 29 -34 29 -21 0 -45 -10 -67 -29z m-175 -151 c3 -5 4 -10 1 -10 -3 0 -8 5 -11 10 -3 6 -4 10 -1 10 3 0 8 -4 11 -10z m75 -41 c0 -5 -9 -9 -20 -9 -22 0 -27 16 -7 23 15 5 27 -1 27 -14z"/>
</g>
<g id="layer109" fill="#fcd116" stroke="none">
<path d="M2800 2750 c0 -247 2 -450 5 -450 3 0 22 8 43 19 37 18 142 54 195 65 l27 6 0 405 0 405 -135 0 -135 0 0 -450z"/>
<path d="M3170 1995 c-20 -21 -22 -28 -12 -50 8 -17 20 -25 39 -26 16 -1 39 -2 53 -2 32 -2 43 13 22 30 -16 12 -15 15 11 37 15 14 27 28 27 31 0 3 -26 5 -58 5 -49 0 -62 -4 -82 -25z"/>
<path d="M0 1335 l0 -135 1250 0 c688 0 1250 2 1250 5 0 3 -9 23 -19 44 -19 36 -53 138 -65 194 l-6 27 -1205 0 -1205 0 0 -135z"/>
<path d="M3984 1443 c-11 -53 -47 -158 -65 -195 -11 -21 -19 -40 -19 -43 0 -3 563 -5 1250 -5 l1250 0 0 135 0 135 -1205 0 -1205 0 -6 -27z"/>
<path d="M3042 1284 c4 -32 28 -50 53 -40 14 5 15 9 5 21 -11 13 -10 14 4 9 9 -3 16 -1 16 4 0 14 -10 20 -49 27 -30 5 -32 4 -29 -21z"/>
<path d="M2800 450 l0 -450 135 0 135 0 0 405 0 405 -27 6 c-53 11 -158 47 -195 65 -21 11 -40 19 -43 19 -3 0 -5 -202 -5 -450z"/>
</g>
<g id="layer110" fill="#ffffff" stroke="none">
<path d="M3330 2795 l0 -405 28 -6 c52 -11 157 -47 194 -65 21 -11 40 -19 43 -19 3 0 5 203 5 450 l0 450 -135 0 -135 0 0 -405z"/>
<path d="M0 1865 l0 -135 1205 0 1205 0 6 28 c11 52 47 157 65 194 11 21 19 40 19 43 0 3 -562 5 -1250 5 l-1250 0 0 -135z"/>
<path d="M3900 1995 c0 -3 8 -22 19 -43 18 -37 54 -142 65 -194 l6 -28 1205 0 1205 0 0 135 0 135 -1250 0 c-687 0 -1250 -2 -1250 -5z"/>
<path d="M3560 885 c-26 -15 -154 -59 -202 -69 l-28 -6 0 -405 0 -405 135 0 135 0 0 450 c0 248 -3 450 -7 450 -5 -1 -19 -7 -33 -15z"/>
</g>


</svg>