<svg id="dragon" xmlns="http://www.w3.org/2000/svg" viewBox="0 0 192 192"><defs><style>.cls-1{fill:#0a0405;}.cls-2{fill:#fff;}</style></defs><title>dragon</title><path class="cls-1" d="M123.9,56.79a2,2,0,0,1-1.06.77l-1.72.79c-2.45,1.15-4.87,2.33-7.28,3.52a170.85,170.85,0,0,0-16.29,9.18c-1.31.85-2.63,1.69-3.92,2.56a21.4,21.4,0,0,0-2.68,2,7.29,7.29,0,0,0-2.07,3c-.56,1.71-.26,3.51-.32,5.25,0,.23.06.45.06.68-.05,1.44-.47,3.41-2,4.36a7.45,7.45,0,0,1-2.53.51c-1.8.28-3.61.59-5.4.91q-.9.16-1.8.3a1.33,1.33,0,0,1-.71,0c-.3-.15-.4-.68-.5-.94-.27-.72-.78-1.36,0-2a1.86,1.86,0,0,1,.47-.29c1.07-.46,2.13,0,3.19.2A2.42,2.42,0,0,0,78,85.19c-1-.5-2.31-.67-2.86-1.57-.4-.64-.5-2,.57-2.25a4.63,4.63,0,0,1,2.29.44,15.64,15.64,0,0,0,2.7,1.07,4.17,4.17,0,0,0-1.8-3.54c-.89-.56-2.08-.63-2.67-1.52a1.47,1.47,0,0,1,1.44-2.26c1.33.19,2.39,1,3.77,1a4.2,4.2,0,0,0-2-3.58c-.53-.3-1.22-.41-1.79-.66-.23-.1-.54-.26-.62-.48-.14-.39.52-.65.87-.75a10.65,10.65,0,0,1,3.19-.06c-.43-1.22-1.69-1.9-3-2.41a6.07,6.07,0,0,1-1.36-.47,3.84,3.84,0,0,1-.83-1.1C75.57,66.65,75,66,75,65.48c0-.94,1.11-1.67,2-2.13q1.8-1,3.6-2a7,7,0,0,0-1.72-.2,20.42,20.42,0,0,1,.57-3.64,2.47,2.47,0,0,0-.41-.14,6.1,6.1,0,0,1-3.35,1.51c-1.42.32-2.89.63-4.26,1.07a9.25,9.25,0,0,0-1.88.8c-.31.18-.61.53-1,.6a11.67,11.67,0,0,1-2.21-.06c-1.83,0-3.66-.11-5.48-.21A19,19,0,0,0,57.05,61a7.07,7.07,0,0,0-3.27,1.1,2.93,2.93,0,0,0-.71.74c-.24.36-.27.77-.84.85-1.26.17-2.58.14-3.85.24-4,.31-8.65,1.25-11,4.3,2.27,0,4.51-.41,6.79-.41a8.52,8.52,0,0,1,3.27.42,2.83,2.83,0,0,1,1.37,1.14c.15.25.22.64.47.83s.59.13.86.22a5.12,5.12,0,0,1,1.15.7,34.25,34.25,0,0,1-4.42.2c-2.15.05-4.31.11-6.46.07-1,0-2.08-.14-3.11-.14a4.91,4.91,0,0,1,1.06-.49c.68-.28,1.39-.54,2.05-.86a10.89,10.89,0,0,0-2.38-.45c-1.32-.22-2.64-.5-3.92-.83a22,22,0,0,1-4.34-1.58c-.82-.4-1.55-.93-2.37-1.32a7.31,7.31,0,0,0,1.36,2.84,23.53,23.53,0,0,0,5.84,5.62,13.87,13.87,0,0,0,2.53,1.51c.23.09.76.37,1,.21s0-.4-.1-.53c-.33-.52-.73-1-1-1.55,1.86,0,3.71.13,5.56.2,1.29,0,2.57,0,3.85.11.7.07,1.42,0,2.13.08.26,0,.63,0,.84.12.37.3.32,1,.42,1.44a4.61,4.61,0,0,0,.48,1.28,3.2,3.2,0,0,1,.42.68,3.73,3.73,0,0,1,0,.81,1.89,1.89,0,0,0,1.31,2,14,14,0,0,0,1.15-2.29A6.58,6.58,0,0,0,53.78,77,7.71,7.71,0,0,1,55,78.63c.39-.52.42-1.2.81-1.75a7.26,7.26,0,0,1,4.51-2.5A11.73,11.73,0,0,0,61.15,76a3.37,3.37,0,0,0-2.43,2.57c-.08.4.2,1.06-.14,1.38a5.93,5.93,0,0,0-1.67,2,3.2,3.2,0,0,0-.22,1c0,.2.06.41,0,.6s-.6.51-.89.75a4,4,0,0,0-1.09,1.41,3.78,3.78,0,0,0-.3,1.35c0,.21.1.53,0,.72s-.62.36-.84.57a4.09,4.09,0,0,0-1,1.68,6.26,6.26,0,0,0-.22,2.15c0,.28.13.69,0,.95-.28.52-.82.93-1.09,1.48a4.36,4.36,0,0,0,.11,3.78,2.79,2.79,0,0,0,1.32,1.48c-.52.61-1.27,1-1.31,1.82a4.58,4.58,0,0,0-1.23.06c-.23.06-.48.27-.74.24s-.68-.41-1-.56a3.11,3.11,0,0,0-2.53-.21c-.48-1.23-2.21-2-3.69-2a2.81,2.81,0,0,0-1.31-2.4c-.34-.22-1-.33-1.2-.64s-.15-1-.22-1.34a17.36,17.36,0,0,0-.81-3.23A8,8,0,0,0,37.8,90c-.19-.29-.51-.54-.54-.88-.11-1.09,1.19-1.61,2.12-2.12a2.37,2.37,0,0,0,1.39-1.79,9.73,9.73,0,0,1,0-1.21c.2-1,1-2,.21-3a3.52,3.52,0,0,0-.56-.53,3.7,3.7,0,0,0-.9-.48,3.49,3.49,0,0,1-1,3c-.27.22-.65.21-1,.39s-.63.58-1,.83c0-1,.82-1.9.73-3a3.72,3.72,0,0,0-.89-1.68,5.55,5.55,0,0,0-3.6-2.52,9,9,0,0,0-1.56,0c.71.55,1.55.87,2,1.62a2.81,2.81,0,0,1,.51,1.55,3.21,3.21,0,0,1-.32.88c-.19.51-.35,1-.5,1.55a6.58,6.58,0,0,0-.07,3.24c-.83-1.08-1.07-2.41-1.88-3.51A3.85,3.85,0,0,0,30,81.52a7.21,7.21,0,0,0-2.12-1.19,8.74,8.74,0,0,0-2.7-.08c0,.47.66.53,1.06.79a3,3,0,0,1,1.07,1.23c.2.45-.35.82-.3,1.28.07.61.55,1,.74,1.56.15.41.08.86.26,1.28a4.29,4.29,0,0,0,2.89,2.15c-.38,1.71-.46,3.48-.71,5.2a6,6,0,0,1-.27,1.74c-.15.32-.6.54-.85.82A15.17,15.17,0,0,1,27.66,98a6.35,6.35,0,0,0-1.26,1,.68.68,0,0,0,0,.86c.14.17.39.27.37.5a1.48,1.48,0,0,1-.27.53c-.63,1-1.89,1.33-3.21,1.42,1.3,1.08,3.77.68,5-.28.51-.41,1.25-.41,1.71-.87s.63-1.53,1-2.22a5.86,5.86,0,0,1,.79-1,6.28,6.28,0,0,0,.81-1.35,13.19,13.19,0,0,1,1.06,2.36A17.33,17.33,0,0,0,36.4,103,14.3,14.3,0,0,0,38.56,105c.52.36,1.15.64,1.62,1,2.65,2.28,5.35,4.88,6.67,7.89a12,12,0,0,1,1,4.58,7.89,7.89,0,0,0,2.83-3.37c.21-.43.45-.85.63-1.28a1.77,1.77,0,0,1,.34-.72,5.46,5.46,0,0,1,2.17-.52,39.65,39.65,0,0,1,6-.38,4,4,0,0,0-.56,1.42,2.46,2.46,0,0,0,.16.74,2.06,2.06,0,0,0-1.56,3.1,3.42,3.42,0,0,0-2.2,2.49c-.08.45,0,1.08-.17,1.49a4.19,4.19,0,0,1-.77.81,13.5,13.5,0,0,1-2.5,1.9,8.33,8.33,0,0,1-6.71.33c-.77-.25-1.44-.67-2.21-.91a8.06,8.06,0,0,0-1.56-.37c-.32,0-.66.05-1,0s-.76-.29-1.14-.39c-2-.53-3.6.44-3.69,2.13a3.81,3.81,0,0,1,1.8-.79c.43,0,1.13.29,1.24.66.06.2,0,.4,0,.61s.31.41.1.67c-.57.69-1.56.35-2.43.42-1.69.13-3.23,1.13-3.27,2.61a9.59,9.59,0,0,1,1.06-.54,6.12,6.12,0,0,1,3.52,0c.34.11,1,.22,1.22.48s.09.45.09.65c-2.34.16-2.91,2.15-3.27,3.71a7,7,0,0,0,1.06-.8,5,5,0,0,1,2.62-1.08c.63,0,1,.46,1.55.61a6.89,6.89,0,0,0,3-.06c1.66-.37,2.77-1.55,4.42-1.87,1.39-.28,2.7.43,4.09.15,1.13-.23,1.83-1.09,3.11-1a5.32,5.32,0,0,1,2.29.8c.31.19.57.45.9.63a6,6,0,0,0,1.72.49,6.31,6.31,0,0,0,2.45,0c.91-.25,1.5-.81,2.54-.69a4.82,4.82,0,0,1,2,1.07,2.68,2.68,0,0,0-1.63-2.78c-.56-.22-1.16-.22-1.72-.4-.31-.09-.51-.32-.82-.43a9,9,0,0,0-1.88-.22,19.12,19.12,0,0,1-2.29-.32,1.8,1.8,0,0,1-.84-.34c-.18-.22.11-.68.18-.91a10.78,10.78,0,0,1,1.36-2.63c1.37-2,3.41-3.45,5.35-5,1.53-1.26,2.88-2.61,4.34-3.92a22.66,22.66,0,0,0,2.86,6,3.66,3.66,0,0,0,.77-.95,11.14,11.14,0,0,0,1.25-2.36c.17-.44.25-1.34.69-1.64s1.29-.59,1.87-.92a7.25,7.25,0,0,1,1.23-.73c.49-.14,1.18.22,1.72.16a11.66,11.66,0,0,0,4.83-1.8,4.89,4.89,0,0,0,1.47-1.07,9,9,0,0,0,3.76.14,4.8,4.8,0,0,0-.15,1.41,4,4,0,0,0,2.2,2.66c.65.37,1.47.51,2.1.87.33.18.35.59.52.85a2.59,2.59,0,0,0,1.06.86,10.28,10.28,0,0,0,3.6.68,7.46,7.46,0,0,1,1.06,0c.37.08.5.48.76.68a6.85,6.85,0,0,0,1.29.58,2.07,2.07,0,0,0-1.47,2c-1.24,0-2.64.46-2.79,1.62a17.45,17.45,0,0,0-3.68.34,6.4,6.4,0,0,1-2.45.51,10.09,10.09,0,0,1-3.93-1.48c-.66-.46-1.14-1.06-1.8-1.51a8.21,8.21,0,0,0-.9-.41,4,4,0,0,0-.82-.44,1.53,1.53,0,0,0-1,0c-.23.11-.4.37-.69.35A10.71,10.71,0,0,0,81.6,121a2.78,2.78,0,0,0-2.78,2.48c.74-.35,1.61-1.06,2.53-1,1.12.1.87,1,1.64,1.41,1.74.92,4.76.58,5.48,2.59a8.15,8.15,0,0,1-3.19-.2,15.14,15.14,0,0,0-2.45-1,4.3,4.3,0,0,0-1.56,0c-.27.06-.53.2-.82.24a5.56,5.56,0,0,1-.81-.08,4.15,4.15,0,0,0-1,.14,3.72,3.72,0,0,0-2.47,1.94,4.44,4.44,0,0,0-.23,1.14,9,9,0,0,1,2.13-1.17,3.83,3.83,0,0,1,1.07,0c-.14.59.44.78,1,1a16.73,16.73,0,0,0,1.55.71,4.14,4.14,0,0,0-1.36.68,2.25,2.25,0,0,0-.27,2.62c.26-.21.43-.5.69-.73a3,3,0,0,1,2.09-.75c.65,0,1.25.62,1.88.42a5.85,5.85,0,0,0,.9-.55,8,8,0,0,1,1.47-.62,17.09,17.09,0,0,1,3.36-.56c1-.11,2-.3,3-.31a4.91,4.91,0,0,1,1.48.22,3.33,3.33,0,0,0,.81.26,4.75,4.75,0,0,0,1.31-.41,3.76,3.76,0,0,1,2-.06c1.7.35,3,1.62,4.66,2a4.16,4.16,0,0,0,2.13-.12,4.46,4.46,0,0,1,2-.39c1,.1,1.48.89,2.29,1.27A4.06,4.06,0,0,0,110,131c-.43-1.46-2.25-1.56-3.64-2a11.94,11.94,0,0,0-1.8-.78c-1.14-.19-2.29-.08-3.44-.29,1.35-.49,2.82-.77,4.18-1.27a25.06,25.06,0,0,0,10.26-7c.27-.31.55-.62.8-.94.11-.15.24-.37.48-.41a1.52,1.52,0,0,1,.56.12l1.23.35c.86.27,1.75.45,2.62.7a10.86,10.86,0,0,0,1.72.45,5.93,5.93,0,0,0-.21-1.82,4.69,4.69,0,0,0-3.72-2.75c-.61-.13-1.27-.12-1.88-.26-.94-.21-1.87-.57-2.78-.87-.57-.18-1.15-.37-1.72-.53a4.62,4.62,0,0,1-1.29-.47,2.84,2.84,0,0,1-1-1.59,2.64,2.64,0,0,1,.58-2.63,23.42,23.42,0,0,1,1.93-1.42,5.34,5.34,0,0,0,.84-.8c.15-.17.27-.38.56-.38a4.66,4.66,0,0,1,1.63.53,8.7,8.7,0,0,1,1.44.49c.31.21.48.54.77.77a6.88,6.88,0,0,0,2.54,1.17,7.12,7.12,0,0,0,1.31.18,7.07,7.07,0,0,1,1.22,0,16.18,16.18,0,0,1,1.56.66,8,8,0,0,0,2,.32,7.07,7.07,0,0,0,1.72-.09,3.76,3.76,0,0,1,1.15-.16,4.41,4.41,0,0,1,.9.44,5.93,5.93,0,0,0,1.88.55,7.24,7.24,0,0,0,1.8,0,7.64,7.64,0,0,1,1.06-.21c.47,0,.94.35,1.39.46a7.2,7.2,0,0,0,1.39.14,2.75,2.75,0,0,1,.64,0c.31.09.51.49.71.69a3.52,3.52,0,0,0,1.52,1,4.08,4.08,0,0,0,0,2.9,5.84,5.84,0,0,1,.39.94,2.13,2.13,0,0,1-.22.81,3,3,0,0,0-.13,1.15c0,.27.25.67.08.93a2.09,2.09,0,0,1-.5.37,2.11,2.11,0,0,0-.78.85,1.75,1.75,0,0,0-.08,1.08c.06.22.21.45.17.68a1.36,1.36,0,0,1-.46.67,7.24,7.24,0,0,1-1.47,1.21,6.07,6.07,0,0,1-1.06.5,5.75,5.75,0,0,1-4.67-.67c-.56-.31-1.19-.57-1.71-.93-.68-.45-1.27-1-1.89-1.52s-1.69-1.4-2.5-.66a.72.72,0,0,0-.2.32c-1.23-.19-2.84,0-3.54.94a2.49,2.49,0,0,0-.38,1.42,6.72,6.72,0,0,1,1.14-.65,4.26,4.26,0,0,1,2.29.18.94.94,0,0,0,0,.85c.13.17.4.19.62.25.44.12.86.27,1.31.38a14.78,14.78,0,0,0-2.21,0,6.55,6.55,0,0,0-1.39.65c-1.34.52-2.82.93-3.15,2.28a4.89,4.89,0,0,0,0,1.21c.38-.31.64-.7,1.06-1a4.37,4.37,0,0,1,2.62-.43c.09.47.8.57,1.31.54.68-.05,1.2-.48,1.88-.53a30.89,30.89,0,0,1,3.35.33,5.7,5.7,0,0,1-1.39.26,3.82,3.82,0,0,0-1.6.63c-.32.22-.5.38-.53.73a3.51,3.51,0,0,0-3.19,3.24,20.1,20.1,0,0,1,3.6-1.32,4.43,4.43,0,0,1,1.15-.09,2.32,2.32,0,0,0,1,0,7.78,7.78,0,0,0,1.31-.69,8.16,8.16,0,0,1,3.6-1.32,3.81,3.81,0,0,1,1.47.15c.41.15.74.4,1.15.53a5.17,5.17,0,0,0,1.8.19,10.58,10.58,0,0,0,2.29-.67,9,9,0,0,1,3.27-.33,9.7,9.7,0,0,1,3.36,1.19,5.23,5.23,0,0,0,1.22.57c.41.08.72-.22,1.07-.35a2.72,2.72,0,0,1,1.47-.06,4.58,4.58,0,0,1,1.79.77c.13.1.41.35.6.19s-.17-1-.31-1.24a3.67,3.67,0,0,0-1.67-1.53c-.34-.15-.73-.21-1.06-.35s-.47-.29-.74-.39c-.74-.29-1.53-.51-2.29-.76a3.54,3.54,0,0,1-1-.37,3.66,3.66,0,0,1-1-1.46c-.28-.7.26-1,.45-1.61.36-1.23.63-2.48.95-3.71a16,16,0,0,0-.46-10.59c1.57.8,3,2.25,4.91,2.48a4.83,4.83,0,0,0,1.47-.08c.23,0,.44-.08.47-.31.06-.4-.29-.78-.56-1.08a12.17,12.17,0,0,0-2.78-2,95.38,95.38,0,0,0-9.24-4.54l-2.62-1.18a8.38,8.38,0,0,0-1.39-.55,13.94,13.94,0,0,1,1.72-.22c1.14-.13,2.31-.29,3.43-.53,6.37-1.4,13.62-4.29,16.09-9.7a6.94,6.94,0,0,0,.45-4.59,9.21,9.21,0,0,0-.54-1.55,2.48,2.48,0,0,1-.42-1,5.82,5.82,0,0,1,.57-1.55c.36-1,.76-2,1.15-3a9.71,9.71,0,0,0,.62-1.76c.67.47,1.09,1.23,1.72,1.76a13.86,13.86,0,0,0,4.75,2.42,22.89,22.89,0,0,1-1.09-2.36,35.65,35.65,0,0,1-1.37-9,27.76,27.76,0,0,1,.49-7.55,7,7,0,0,0-1.09,1L162,67c-1.81,1.73-3.72,3.4-5.64,5.06s-3.83,3.09-5.73,4.65a18.92,18.92,0,0,0-2.37,1.95c.61.07,1.19.21,1.8.26a23.56,23.56,0,0,0,6.22-.32c-.43,1.22-1.53,2.27-2,3.5-.82-.2-1.57-.62-2.38-.85a17.15,17.15,0,0,0-6.54-.61c-3.27.33-6.87,1.92-7.49,4.83A4.25,4.25,0,0,0,138,87a4.38,4.38,0,0,0,.56,1.55A5.63,5.63,0,0,0,140,90.11c2.94,2.24,7.91,2,11.36.86-.72,2.08-3.69,2.71-6,3-.51.06-1,.12-1.56.13a42.31,42.31,0,0,1-7-.23c-.61-.09-1.2-.29-1.8-.42-1.25-.26-2.5-.47-3.77-.61a90.18,90.18,0,0,0-9.73-.22c1-2,3.75-3.19,6.13-3.76a12.73,12.73,0,0,1,2-.35,13.36,13.36,0,0,1,2.53.08c.47.07.92.2,1.39.25-.38-.47-.87-.87-1.26-1.34a7,7,0,0,1-1.49-3.11,6.59,6.59,0,0,1,1.34-4.72c2.35-3.53,6.88-5.73,11.4-6.94a7.8,7.8,0,0,0-1.48-.5,5.61,5.61,0,0,1-3-2.06c-.78-1.32.25-2.84,1.17-3.91a19.6,19.6,0,0,1,3.35-3,63.12,63.12,0,0,1,5.56-3.7c-.24-.49-1.06,0-1.47.14l-4.34,1.48c-4.32,1.47-8.66,3-13.09,4.27-1.78.5-3.66,1.39-5.56.91a4.21,4.21,0,0,1-1.07-.43c-2.48-1.53-1.69-4.61-.71-6.64a10.51,10.51,0,0,1,.62-1.14C123.75,57.72,124.15,57.27,123.9,56.79Z"/><path class="cls-1" d="M54.93,64.81c.43-.08.86-.16,1.31-.2.12,1.54,1.91,2.26,3.51,1.57a3.45,3.45,0,0,0,.94-.58c.16-.14.31-.36.54-.43s.83.18,1.22.15a15.58,15.58,0,0,0,3.28-.71,1.54,1.54,0,0,0-.17-.34,9.51,9.51,0,0,1-3.35.7,9.51,9.51,0,0,1-1.31-.27,16.53,16.53,0,0,0-3.35-.5,10.85,10.85,0,0,0-1.89.13C55.25,64.39,55,64.43,54.93,64.81Z"/><path class="cls-2" d="M56.65,64.54a1.84,1.84,0,0,0,.2.68,1.52,1.52,0,0,0,.4.52c1.08,1,2.76.12,3.49-.73L60,64.88a2.42,2.42,0,0,1-.57.48,3.17,3.17,0,0,1-.49.24,1.91,1.91,0,0,1-.41.11C57.48,65.79,57.55,64.57,56.65,64.54Z"/></svg>