<svg id="eagle" xmlns="http://www.w3.org/2000/svg" viewBox="0 0 192 192"><defs><style>.cls-1{fill-rule:evenodd;}</style></defs><title>eagle</title><path class="cls-1" d="M88.66,65q-.8,0-1.8.09a2.85,2.85,0,0,0-2.8,3.31h0a2.63,2.63,0,0,1,2-.94,12.09,12.09,0,0,0,2.28-.06c2.28,0,2.5,1.52,2.5,2.1a1.3,1.3,0,0,0-.46.36,3.52,3.52,0,0,0-.92,1.42,3.55,3.55,0,0,1-2.83,2.82c1.21.49,1.71.26,1.71.26a10.49,10.49,0,0,0-2.63,1.85c-1,1.17-1.83,1-1.83,1A2.66,2.66,0,0,0,86,77.7a5.49,5.49,0,0,1-1.75,1.59s24,1.61,23.17,0a8.48,8.48,0,0,0-2.86-2.76,6.12,6.12,0,0,0,2.42-.63h0a11.45,11.45,0,0,1-4.85-3.41,7.71,7.71,0,0,0,2.23,0c-3.4-3.53-1.82-4.4-3.07-6.73a6.32,6.32,0,0,0-3.91-3,13.66,13.66,0,0,0-5.4.07A3.16,3.16,0,0,0,90.43,64c-.15,0-1.24-.13-1.65.7A1.34,1.34,0,0,0,88.66,65ZM57.52,116.58h0c-.26-.07-1.3-.4-.94-1.9a4,4,0,0,1,2.11-2.6c1.24-.84,5.64-.45,5.64-.45a6.55,6.55,0,0,0,4.15-2.15,6.9,6.9,0,0,1-.79,0c1.27-.84,1.94-1.12,1.86-3.61s3.17-4.56,3.17-4.56c4.21-2.66,4.74-4.77,4.74-4.77h0s7.27,6.46,7.36,7.66-3.22,2.13-3.22,2.13c-2.92,1.16-3.39,2.48-3.39,2.48a3.49,3.49,0,0,1-2.58,2.27c-1,.24-1.22.78-1.22.78a2.17,2.17,0,0,1-.19-.63,33,33,0,0,0-4.28,1.45c-.86.36-2,.65-2.61,1-.46.23-.92.2-1.42,2.08s-1.55,1.7-4.11,2.24-2.64-.58-2.64-.58h0C59,113.79,61.1,114,61.1,114h0l-3.58,2.59Zm66.09-7.1a6.93,6.93,0,0,0,.79,0c-1.28-.84-1.94-1.12-1.86-3.61s-3.17-4.56-3.17-4.56c-4.21-2.66-4.75-4.77-4.75-4.77h0s-7.27,6.46-7.35,7.66,3.22,2.13,3.22,2.13c2.92,1.16,3.39,2.48,3.39,2.48a3.49,3.49,0,0,0,2.58,2.27c1,.24,1.22.78,1.22.78a3,3,0,0,0,.19-.63,33.55,33.55,0,0,1,4.28,1.45c.85.36,2,.65,2.61,1,.46.23.92.2,1.42,2.08s1.55,1.7,4.11,2.24,2.63-.58,2.63-.58h0c.14-3.59-1.94-3.39-1.94-3.39h0l-7.37-4.51Zm11,7.1h0c.25-.06,1.31-.39.95-1.9a4,4,0,0,0-2.11-2.6c-1.25-.84-5.64-.45-5.64-.45-1.8,0-3.38-1.37,6.8,5Zm-40.11-6.76c-1.37-1.66-6.23-7.06-9.28-4.5-1.25,1-1.63,1.75-1.59,2.23h0c-12,8.14-6.16,8.86-6.16,8.86h0c0,2.09,2.53,1.6,2.53,1.6h0c-.28,2.22,2.06,1.92,2.06,1.92h0A2,2,0,0,0,84.48,122h0c.44,2.68,3.19,1.6,3.19,1.6h0c-.14,2.3,1.72,2.42,1.72,2.42A3.22,3.22,0,0,0,92.7,124h0c0,.39,0,.77.08,1.13a3.27,3.27,0,0,0,6.53,0c0-.36.06-.74.08-1.13A3.21,3.21,0,0,0,102.7,126s1.86-.12,1.72-2.42h0s2.75,1.08,3.19-1.6h0a2,2,0,0,0,2.47-2.07s2.33.3,2.06-1.92c0,0,2.52.49,2.52-1.6,0,0,5.83-.72-6.15-8.86h0c0-.48-.34-1.19-1.59-2.24-3-2.55-7.91,2.85-9.29,4.51a2.3,2.3,0,0,0-1.59-.64,2.33,2.33,0,0,0-1.59.64ZM46.91,67.63c-6.47-1-17.36-3.51-17.36-3.51-4.64-.94-8.55-3-9.83-1.25s1.72,3,1.72,3C20.28,68.3,24,69.18,24,69.18,22.14,71.76,30,73.35,30,73.35c-.7,1.19.65,2.08.65,2.08C33,77,37.75,77.72,37.75,77.72a1.11,1.11,0,0,0-.2.35,1.19,1.19,0,0,0,.36,1.36c1.5,1.26,6.69,1.86,6.69,1.86-.5,0-.53.39-.53.39a1,1,0,0,0,.33,1c1.14,1.34,5.7,1.88,5.7,1.88-1,.84.69,1.64.69,1.64,2.08,1.18,7.14,1.19,7.14,1.19a1.54,1.54,0,0,0-.7,2c.65,1.52,3.06,1.06,3.06,1.06-.62.13-1.31,1.23-.17,2.34s3.36.79,3.36.79,0,.78,1.28,1.3a4.17,4.17,0,0,0,2.79-.14c.16.39.45,1.07,2.2,1.3a3.43,3.43,0,0,0,2.63-.56c2.16,1.56,4.74,0,4.74,0h0l-.6-3.15c3.41-1.47.73-11.08.73-11.08h0s-1.65-.91-4.58.16a1.87,1.87,0,0,1-1.77,0,1,1,0,0,1,.19-1.8,3.43,3.43,0,0,0-.34-6.29s-4.81-2.11-22.47-5.43h0l-1.37-.19ZM128.6,93.56h0s2.23.33,3.36-.79.45-2.21-.16-2.34c0,0,2.4.46,3-1.06a1.53,1.53,0,0,0-.69-2h0s5.06,0,7.13-1.19c0,0,1.72-.8.7-1.64,0,0,4.55-.54,5.69-1.88a1,1,0,0,0,.33-1s0-.37-.53-.39c0,0,5.2-.6,6.7-1.86a1.19,1.19,0,0,0,.36-1.36,1.25,1.25,0,0,0-.21-.35s4.73-.73,7.06-2.29c0,0,1.35-.89.66-2.08h0s7.89-1.59,6.06-4.17h0s3.7-.88,2.53-3.35c0,0,3.05-1.14,1.72-3s-5.19.31-9.83,1.25c0,0-10.88,2.54-17.36,3.51l-1.37.19h0c-17.65,3.32-22.47,5.43-22.47,5.43a3.43,3.43,0,0,0-.33,6.29,1,1,0,0,1,.18,1.8,1.84,1.84,0,0,1-1.76,0c-2.94-1.07-4.59-.16-4.59-.16s-2.67,9.6.74,11.08L115,95.46h0s2.58,1.56,4.75,0h0a3.39,3.39,0,0,0,2.62.56c1.75-.23,2-.91,2.21-1.3h0a4.16,4.16,0,0,0,2.79.14c1.27-.52,1.27-1.29,1.27-1.3Zm-24.18,30s-.28-4.34-5.37-10.56l5.37,10.56Z"/></svg>