<!DOCTYPE svg PUBLIC "-//W3C//DTD SVG 20010904//EN" "http://www.w3.org/TR/2001/REC-SVG-20010904/DTD/svg10.dtd">
<svg version="1.0" xmlns="http://www.w3.org/2000/svg" width="320px" height="213px" viewBox="0 0 3200 2130" preserveAspectRatio="xMidYMid meet">
<g id="layer101" fill="#ff0000" stroke="none">
 <path d="M0 1065 l0 -1065 1600 0 1600 0 0 1065 0 1065 -1600 0 -1600 0 0 -1065z"/>
 </g>
<g id="layer102" fill="#ffffff" stroke="none">
 <path d="M0 1705 l0 -425 695 0 695 0 0 425 0 425 -695 0 -695 0 0 -425z m754 160 c-3 -27 -7 -61 -10 -74 l-5 -24 75 6 76 7 0 -71 0 -70 -76 7 -75 7 5 -24 c3 -13 7 -46 10 -74 l6 -50 -71 0 -71 0 7 74 7 74 -76 -7 -76 -7 0 70 0 71 76 -7 76 -6 -7 74 -7 74 71 0 71 0 -6 -50z"/>
 <path d="M1810 1705 l0 -425 695 0 695 0 0 425 0 425 -695 0 -695 0 0 -425z m765 136 l-7 -74 76 6 76 7 0 -71 0 -70 -76 7 -76 7 7 -74 7 -74 -71 0 -71 0 6 50 c3 28 7 61 10 74 l5 24 -75 -7 -76 -7 0 70 0 71 76 -7 75 -6 -5 24 c-3 13 -7 47 -10 74 l-6 50 71 0 71 0 -7 -74z"/>
 <path d="M0 425 l0 -425 695 0 695 0 0 425 0 425 -695 0 -695 0 0 -425z m754 150 c-3 -27 -7 -61 -10 -74 l-5 -24 75 6 76 7 0 -71 0 -70 -76 7 -75 7 5 -24 c3 -13 7 -46 10 -74 l6 -50 -71 0 -71 0 7 74 7 74 -76 -7 -76 -7 0 70 0 71 76 -7 76 -6 -7 74 -7 74 71 0 71 0 -6 -50z"/>
 <path d="M1810 425 l0 -425 695 0 695 0 0 425 0 425 -695 0 -695 0 0 -425z m765 126 l-7 -74 76 6 76 7 0 -71 0 -70 -76 7 -76 7 7 -74 7 -74 -71 0 -71 0 6 50 c3 28 7 61 10 74 l5 24 -75 -7 -76 -7 0 70 0 71 76 -7 75 -6 -5 24 c-3 13 -7 47 -10 74 l-6 50 71 0 71 0 -7 -74z"/>
 </g>

</svg>