<!DOCTYPE svg PUBLIC "-//W3C//DTD SVG 20010904//EN" "http://www.w3.org/TR/2001/REC-SVG-20010904/DTD/svg10.dtd">
<svg version="1.0" xmlns="http://www.w3.org/2000/svg" width="1600px" height="800px" viewBox="0 0 16000 8000" preserveAspectRatio="xMidYMid meet">
<g id="layer101" fill="#0c0403" stroke="none">
<path d="M0 4000 l0 -4000 8000 0 8000 0 0 4000 0 4000 -8000 0 -8000 0 0 -4000z"/>
</g>
<g id="layer102" fill="#da000c" stroke="none">
<path d="M0 4000 l0 -4000 8000 0 8000 0 0 4000 0 4000 -8000 0 -8000 0 0 -4000z m8080 2986 l0 -895 93 -54 c247 -146 270 -157 314 -157 l43 0 0 -85 0 -85 -52 0 c-47 0 -66 -8 -173 -70 l-120 -69 -5 -118 c-3 -65 -3 -130 -1 -145 l3 -28 499 0 499 0 0 -45 0 -45 570 0 570 0 0 -28 c0 -16 3 -63 6 -104 l7 -76 -142 -92 -141 -93 2 -861 3 -861 63 -3 62 -3 0 -69 0 -70 75 0 75 0 0 -175 0 -175 -90 0 -89 0 -3 87 -3 88 -110 0 -110 0 -3 -86 -3 -86 -89 -7 -90 -8 0 -529 0 -529 35 0 34 0 3 -77 3 -78 58 -3 57 -3 0 -154 0 -155 -120 0 -120 0 0 70 0 70 -85 0 -85 0 0 -70 0 -70 -176 0 -176 0 4 73 3 72 -87 -3 -88 -3 0 -70 0 -69 -100 0 -101 0 3 157 3 158 33 3 32 3 0 69 c0 67 0 69 28 72 l27 3 3 530 c2 457 0 531 -12 541 -11 7 -16 35 -18 95 l-3 84 -125 0 -125 0 -3 -92 -3 -93 -38 0 -38 0 -7 -61 c-8 -81 -8 -1157 0 -1238 l7 -61 43 0 43 0 3 -97 3 -98 58 -3 57 -3 0 -129 0 -130 -110 0 -110 0 0 65 0 65 -90 0 -90 0 0 -65 0 -66 -137 3 -138 3 -3 62 -3 63 -89 0 -89 0 -3 -63 -3 -62 -137 -3 -138 -3 0 66 0 65 -90 0 -89 0 -3 -63 -3 -62 -107 -3 -108 -3 0 130 0 130 58 3 57 3 3 98 3 97 43 0 43 0 7 61 c8 80 8 1226 0 1268 -6 28 -10 31 -45 31 l-38 0 -3 93 -3 92 -125 0 -125 0 -3 -84 c-2 -60 -7 -88 -18 -95 -12 -10 -14 -84 -12 -541 l3 -530 27 -3 c26 -3 27 -5 30 -75 l3 -72 33 -3 32 -3 0 -155 0 -154 -100 0 -100 0 0 69 0 70 -87 3 -88 3 3 -72 4 -73 -176 0 -176 0 0 70 0 70 -85 0 -85 0 0 -70 0 -70 -120 0 -120 0 0 155 0 154 58 3 57 3 3 78 3 77 34 0 35 0 0 530 0 530 -44 0 c-24 0 -64 3 -89 6 l-46 7 -3 86 -3 86 -110 0 -110 0 -3 -88 -3 -87 -89 0 -90 0 0 175 0 175 75 0 75 0 0 70 0 69 63 3 62 3 3 861 2 862 -141 92 -142 92 7 76 c3 41 6 88 6 104 l0 28 570 0 570 0 0 45 0 45 508 2 507 3 3 126 3 127 -147 86 c-135 79 -150 86 -200 86 l-54 0 0 84 0 84 53 4 c43 5 80 21 222 105 l170 100 3 506 2 507 -270 0 -271 0 3 138 3 137 93 3 92 3 0 -66 0 -65 90 0 89 0 3 63 3 62 83 3 82 3 0 29 0 29 -82 3 -83 3 -3 63 -3 62 -89 0 -90 0 0 -65 0 -66 -92 3 -93 3 -3 138 -3 137 271 0 270 0 0 80 0 80 95 0 95 0 0 -894z"/>
<path d="M7841 5890 c-74 -44 -139 -81 -145 -83 -6 -3 -9 -6 -6 -9 8 -7 151 -88 157 -88 2 0 16 14 30 30 35 42 74 60 127 60 55 0 93 -14 128 -47 l26 -25 61 33 c34 19 61 36 61 39 0 7 -285 170 -296 169 -5 0 -69 -36 -143 -79z"/>
<path d="M7962 5694 c-29 -20 -28 -42 2 -55 20 -9 31 -7 65 12 23 12 41 26 41 29 0 9 -47 30 -68 30 -10 0 -28 -7 -40 -16z"/>
<path d="M8035 5483 c-34 -23 -43 -24 -69 -15 -16 7 -31 10 -32 9 -6 -5 -8 -167 -2 -172 3 -3 22 2 44 11 23 10 53 14 76 11 l38 -5 0 94 c0 52 -3 94 -7 93 -5 0 -26 -12 -48 -26z"/>
<path d="M6850 5155 l0 -95 535 0 c294 0 535 3 535 6 0 3 -8 18 -19 32 -10 15 -21 38 -25 52 -4 14 -14 42 -23 63 l-16 37 -494 0 -493 0 0 -95z"/>
<path d="M8187 5244 c-3 -3 -1 -18 4 -32 14 -37 3 -86 -27 -122 l-26 -30 506 0 506 0 0 95 0 95 -478 0 c-263 0 -481 -3 -485 -6z"/>
<path d="M5710 5080 l0 -80 585 0 c322 0 585 2 585 5 0 2 -13 11 -30 20 -28 15 -30 19 -30 75 l0 60 -555 0 -555 0 0 -80z"/>
<path d="M9180 5100 c0 -59 -1 -60 -37 -79 l-38 -20 593 -1 592 0 0 80 0 80 -555 0 -555 0 0 -60z"/>
<path d="M7025 4975 l110 -54 268 -1 268 0 57 29 c31 17 75 41 97 55 l40 25 -475 0 -475 0 110 -54z"/>
<path d="M8211 5012 c13 -10 51 -35 84 -55 l60 -37 255 0 255 1 110 54 110 54 -449 0 c-436 1 -448 1 -425 -17z"/>
<path d="M5857 4895 l113 -75 577 2 578 3 3 32 c3 31 1 33 -83 72 l-85 41 -608 0 -607 0 112 -75z"/>
<path d="M7993 4949 c-18 -12 -33 -23 -33 -25 0 -2 33 -4 73 -4 l72 0 -30 25 c-37 30 -42 30 -82 4z"/>
<path d="M8952 4928 c-80 -39 -83 -41 -80 -72 l3 -31 578 -3 577 -2 113 75 112 75 -610 -1 -610 0 -83 -41z"/>
<path d="M7203 4883 l-43 -4 0 -830 0 -829 840 0 840 0 0 829 0 828 -123 7 c-68 4 -152 4 -185 0 l-62 -7 0 -321 c0 -355 -7 -423 -50 -512 -73 -150 -223 -234 -420 -234 -250 0 -424 135 -460 356 -6 33 -10 206 -10 385 l0 326 -67 6 c-69 7 -184 7 -260 0z"/>
<path d="M5980 3929 l0 -861 474 4 c261 2 477 6 481 10 4 4 10 36 12 72 l6 66 88 0 89 0 0 785 0 785 -60 0 -60 0 0 -232 c0 -255 -9 -315 -54 -392 -33 -56 -101 -114 -164 -140 -73 -29 -182 -27 -252 5 -65 31 -137 100 -171 166 -23 47 -24 54 -27 321 l-3 272 -179 0 -180 0 0 -861z"/>
<path d="M8870 4005 l0 -785 89 0 88 0 7 -69 7 -68 67 -7 c37 -3 253 -6 480 -6 l412 0 0 860 0 860 -180 0 -179 0 -3 -272 c-3 -262 -4 -275 -26 -319 -32 -65 -107 -137 -172 -168 -144 -67 -334 -5 -417 136 -44 76 -53 137 -53 391 l0 232 -60 0 -60 0 0 -785z"/>
<path d="M6980 3130 l0 -60 1020 0 1020 0 0 59 0 59 -1020 1 -1020 0 0 -59z"/>
<path d="M5854 3018 c3 -13 6 -38 6 -55 l0 -33 500 0 500 0 0 55 0 55 -506 0 -506 0 6 -22z"/>
<path d="M6890 2825 l0 -215 90 0 89 0 3 88 3 87 158 3 157 3 0 -91 0 -90 175 0 175 0 0 90 0 90 260 0 260 0 0 -90 0 -90 175 0 175 0 0 90 0 91 158 -3 157 -3 3 -87 3 -88 89 0 90 0 0 215 0 215 -1110 0 -1110 0 0 -215z"/>
<path d="M9140 2985 l0 -55 500 0 500 0 0 33 c0 17 3 42 6 55 l6 22 -506 0 -506 0 0 -55z"/>
<path d="M5706 2869 c-3 -17 -6 -83 -6 -145 l0 -114 60 0 59 0 3 88 3 87 140 0 140 0 3 -87 3 -88 169 0 170 0 0 90 0 90 205 0 205 0 0 55 0 55 -574 0 -573 0 -7 -31z"/>
<path d="M9140 2845 l0 -55 205 0 205 0 0 -90 0 -90 170 0 169 0 3 88 3 87 140 0 140 0 3 -87 3 -88 59 0 60 0 0 145 0 145 -580 0 -580 0 0 -55z"/>
<path d="M6933 2573 l-43 -4 0 -167 c0 -141 -3 -173 -19 -207 -36 -77 -124 -135 -204 -135 -87 0 -185 69 -206 146 -6 22 -11 112 -11 202 l0 162 -80 0 -80 0 0 -530 0 -530 375 0 375 0 0 535 0 535 -32 -2 c-18 -1 -52 -3 -75 -5z"/>
<path d="M7480 1900 l0 -680 520 0 520 0 0 674 0 674 -22 6 c-30 8 -100 8 -177 0 l-61 -7 0 -226 c0 -258 -6 -280 -79 -342 -50 -43 -98 -59 -181 -59 -83 0 -131 16 -181 59 -73 62 -79 84 -79 342 l0 226 -92 7 c-50 3 -108 6 -130 6 l-38 0 0 -680z m580 -305 l0 -255 -60 0 -60 0 0 255 0 255 60 0 60 0 0 -255z m-259 195 c0 -11 1 -90 1 -175 0 -85 -1 -162 -1 -170 -1 -12 -15 -15 -61 -15 l-60 0 0 190 0 190 60 0 c53 0 60 -2 61 -20z m519 -170 l0 -190 -60 0 c-46 0 -60 3 -61 15 0 8 -1 85 -1 170 0 85 1 164 1 175 1 18 8 20 61 20 l60 0 0 -190z"/>
<path d="M8960 2046 l0 -536 375 0 375 0 0 530 0 530 -80 0 -80 0 0 -162 c0 -90 -5 -180 -11 -202 -21 -77 -119 -146 -206 -146 -80 0 -168 58 -204 135 -16 34 -19 66 -19 208 l0 167 -52 0 c-29 0 -63 3 -75 6 l-23 6 0 -536z"/>
<path d="M6220 1415 l0 -55 440 0 440 0 0 55 0 55 -440 0 -440 0 0 -55z"/>
<path d="M8900 1415 l0 -55 440 0 440 0 0 55 0 55 -440 0 -440 0 0 -55z"/>
<path d="M6100 1195 l0 -125 90 0 90 0 0 70 0 70 115 0 115 0 1 -47 c1 -27 0 -58 -1 -70 -1 -23 -1 -23 139 -23 l141 0 1 58 c1 31 1 63 0 70 -1 9 28 12 119 12 l120 0 0 -70 0 -70 70 0 70 0 0 125 0 125 -535 0 -535 0 0 -125z"/>
<path d="M8830 1195 l0 -125 70 0 70 0 0 70 0 70 120 0 c91 0 120 -3 119 -12 -1 -7 -1 -39 0 -70 l1 -58 141 0 c128 0 140 2 138 18 -1 9 -1 41 0 70 l1 52 115 0 115 0 0 -70 0 -70 90 0 90 0 0 125 0 125 -535 0 -535 0 0 -125z"/>
<path d="M7380 1095 l0 -85 620 0 620 0 0 85 0 85 -620 0 -620 0 0 -85z"/>
<path d="M7260 880 l0 -101 78 3 77 3 3 63 3 62 119 0 120 0 0 -65 0 -66 108 3 107 3 3 63 3 62 119 0 119 0 3 -62 3 -63 108 -3 107 -3 0 66 0 65 120 0 119 0 3 -62 3 -63 78 -3 77 -3 0 101 0 100 -740 0 -740 0 0 -100z"/>
</g>
<g id="layer103" fill="#efd00d" stroke="none">
<path d="M7920 7820 l0 -30 65 0 65 0 0 30 0 30 -65 0 -65 0 0 -30z"/>
<path d="M7925 7748 c-3 -7 -4 -353 -3 -768 l3 -755 60 0 60 0 3 768 2 767 -60 0 c-39 0 -62 -4 -65 -12z"/>
<path d="M7382 7583 l3 -108 63 -3 62 -3 0 66 0 65 120 0 119 0 3 -62 3 -63 68 -3 67 -3 0 111 0 110 -255 0 -256 0 3 -107z"/>
<path d="M7387 7343 c-4 -3 -7 -53 -7 -110 l0 -103 255 0 255 0 0 110 0 111 -67 -3 -68 -3 -3 -62 -3 -63 -119 0 -120 0 0 65 0 65 -58 0 c-32 0 -62 -3 -65 -7z"/>
<path d="M7920 6150 l0 -40 35 17 c34 16 37 16 65 -1 l30 -17 0 40 0 41 -65 0 -65 0 0 -40z"/>
<path d="M7762 5979 c-170 -99 -230 -129 -257 -129 l-35 0 0 -50 0 -50 35 0 c26 0 73 -22 180 -85 80 -47 148 -85 150 -85 3 0 5 21 5 48 l0 47 -105 59 c-58 33 -105 63 -105 66 0 3 80 52 179 108 l179 102 98 -57 c55 -32 134 -78 177 -103 42 -24 77 -46 77 -50 0 -3 -79 -53 -176 -109 l-177 -104 -28 17 -29 17 0 -50 c0 -45 3 -52 29 -65 27 -15 31 -14 92 23 240 145 384 221 415 221 l34 0 0 50 0 50 -35 0 c-27 0 -87 30 -253 126 -119 70 -219 128 -222 130 -3 1 -106 -56 -228 -127z"/>
<path d="M7933 5751 c-59 -37 -63 -57 -63 -291 0 -234 4 -255 63 -290 36 -22 97 -26 115 -8 20 20 14 23 -39 23 -45 0 -54 4 -80 33 l-29 32 0 211 0 211 34 34 c44 44 99 47 144 9 39 -33 55 -13 19 23 -36 35 -118 42 -164 13z"/>
<path d="M8122 5423 c2 -82 7 -118 16 -121 9 -3 12 25 12 117 0 102 -2 121 -15 121 -13 0 -15 -17 -13 -117z"/>
<path d="M7993 5298 c-18 -5 -33 -13 -33 -18 0 -8 52 -50 63 -50 7 0 14 71 8 74 -3 2 -21 -1 -38 -6z"/>
<path d="M8065 5269 c-9 -41 -2 -45 36 -21 l32 20 -31 16 -30 16 -7 -31z"/>
<path d="M8118 5222 c-38 -23 -35 -32 12 -32 40 0 45 5 34 34 -8 20 -12 20 -46 -2z"/>
<path d="M8080 5154 c0 -15 36 -64 47 -64 14 0 43 38 43 57 0 9 -15 13 -45 13 -25 0 -45 -3 -45 -6z"/>
<path d="M7914 5121 c22 -41 30 -44 57 -21 21 17 22 19 6 20 -10 0 -32 7 -48 16 l-30 15 15 -30z"/>
<path d="M8024 5110 c-13 -13 5 -90 20 -90 5 0 20 10 33 21 l22 22 -20 28 c-21 30 -38 36 -55 19z"/>
<path d="M7964 5062 c-17 -14 -20 -25 -16 -59 5 -48 10 -51 41 -25 20 16 21 20 9 59 -13 41 -13 42 -34 25z"/>
<path d="M8086 5015 l-30 -24 25 -20 c35 -29 39 -26 39 24 0 25 -1 45 -2 45 -2 -1 -16 -12 -32 -25z"/>
<path d="M7878 5009 c-13 -7 -18 -23 -18 -60 l0 -50 30 16 c27 14 30 21 30 60 0 47 -9 54 -42 34z"/>
<path d="M8152 4970 c2 -42 8 -56 26 -68 l23 -15 -3 53 c-2 42 -8 56 -26 68 l-23 15 3 -53z"/>
<path d="M7788 4954 c-25 -13 -28 -20 -28 -65 l0 -51 33 19 c28 17 32 25 35 66 3 51 0 53 -40 31z"/>
<path d="M8230 4910 c0 -27 2 -50 4 -50 2 0 11 -3 20 -6 13 -5 16 2 16 44 0 46 -9 62 -36 62 -2 0 -4 -22 -4 -50z"/>
<path d="M7693 4903 c-30 -15 -33 -20 -33 -65 l0 -48 35 17 c33 16 35 20 35 65 0 26 -1 48 -2 47 -2 0 -18 -8 -35 -16z"/>
<path d="M8310 4860 c0 -27 2 -50 4 -50 2 0 11 -3 20 -6 13 -5 16 2 16 44 0 46 -9 62 -36 62 -2 0 -4 -22 -4 -50z"/>
<path d="M7593 4854 c-30 -15 -33 -21 -33 -60 0 -24 2 -44 4 -44 1 0 17 5 35 11 29 10 31 14 31 60 0 27 -1 49 -2 49 -2 0 -18 -8 -35 -16z"/>
<path d="M8380 4826 c0 -35 5 -48 22 -60 33 -24 38 -20 38 28 0 35 -5 48 -22 60 -33 24 -38 20 -38 -28z"/>
</g>
<g id="layer104" fill="#ffffff" stroke="none">
<path d="M0 2680 l0 -2680 8000 0 8000 0 0 2680 0 2680 -3910 0 -3910 0 0 -40 0 -40 500 0 500 0 0 -45 0 -45 570 0 570 0 0 -28 c0 -16 3 -63 6 -104 l7 -76 -142 -92 -141 -93 2 -861 3 -861 63 -3 62 -3 0 -69 0 -70 75 0 75 0 0 -175 0 -175 -90 0 -89 0 -3 88 -3 87 -110 0 -110 0 -3 -86 -3 -86 -89 -7 -90 -8 0 -529 0 -529 35 0 34 0 3 -77 3 -78 58 -3 57 -3 0 -154 0 -155 -120 0 -120 0 0 70 0 70 -85 0 -85 0 0 -70 0 -70 -175 0 -175 0 0 70 0 70 -85 0 -85 0 0 -70 0 -70 -100 0 -101 0 3 158 3 157 33 3 32 3 0 69 c0 67 0 69 28 72 l27 3 3 530 c2 457 0 531 -12 541 -11 7 -16 35 -18 95 l-3 84 -125 0 -125 0 -3 -92 -3 -93 -38 0 -38 0 -7 -61 c-8 -81 -8 -1157 0 -1238 l7 -61 43 0 43 0 3 -97 3 -98 58 -3 57 -3 0 -129 0 -130 -110 0 -110 0 0 65 0 65 -90 0 -90 0 0 -65 0 -66 -137 3 -138 3 -3 63 -3 62 -89 0 -89 0 -3 -63 -3 -62 -137 -3 -138 -3 0 66 0 65 -90 0 -89 0 -3 -62 -3 -63 -107 -3 -108 -3 0 130 0 130 58 3 57 3 3 98 3 97 43 0 43 0 7 61 c8 80 8 1226 0 1268 -6 28 -10 31 -45 31 l-38 0 -3 93 -3 92 -125 0 -125 0 -3 -84 c-2 -60 -7 -88 -18 -95 -12 -10 -14 -84 -12 -541 l3 -530 27 -3 c26 -3 27 -5 30 -75 l3 -72 33 -3 32 -3 0 -155 0 -154 -100 0 -100 0 0 70 0 70 -85 0 -85 0 0 -70 0 -70 -175 0 -175 0 0 70 0 70 -85 0 -85 0 0 -70 0 -70 -120 0 -120 0 0 155 0 154 58 3 57 3 3 78 3 77 34 0 35 0 0 530 0 530 -44 0 c-24 0 -64 3 -89 6 l-46 7 -3 86 -3 86 -110 0 -110 0 -3 -87 -3 -88 -89 0 -90 0 0 175 0 175 75 0 75 0 0 70 0 69 63 3 62 3 3 861 2 862 -141 92 -142 92 7 76 c3 41 6 88 6 104 l0 28 570 0 570 0 0 45 0 45 508 2 507 3 3 38 3 37 -3920 0 -3921 0 0 -2680z"/>
<path d="M7930 5330 c0 -35 -3 -34 46 -14 23 10 53 14 76 11 32 -4 38 -2 38 14 0 17 -8 19 -80 19 l-80 0 0 -30z"/>
</g>


</svg>