<!DOCTYPE svg PUBLIC "-//W3C//DTD SVG 20010904//EN" "http://www.w3.org/TR/2001/REC-SVG-20010904/DTD/svg10.dtd">
<svg version="1.0" xmlns="http://www.w3.org/2000/svg" width="1024px" height="614px" viewBox="0 0 10240 6140" preserveAspectRatio="xMidYMid meet">
<g id="layer101" fill="#007a5e" stroke="none">
 <path d="M0 3070 l0 -3070 5120 0 5120 0 0 3070 0 3070 -5120 0 -5120 0 0 -3070z"/>
 </g>
<g id="layer102" fill="#ce1126" stroke="none">
 <path d="M0 3070 l0 -3070 5120 0 5120 0 0 3070 0 3070 -5120 0 -5120 0 0 -3070z m2868 1170 c1183 -613 1591 -829 1588 -840 -3 -8 -16 -47 -30 -86 -14 -38 -31 -113 -37 -166 -10 -80 -9 -110 4 -191 9 -53 28 -125 43 -162 15 -36 25 -67 23 -69 -2 -1 -758 -393 -1679 -871 -921 -477 -1730 -897 -1797 -932 l-123 -65 0 2212 0 2211 208 -108 c115 -59 925 -479 1800 -933z m6510 -2274 l-3 -1104 -1789 929 c-984 510 -1793 932 -1798 937 -4 4 3 36 17 70 14 34 33 106 42 159 13 81 14 111 4 191 -6 53 -23 128 -37 166 -14 39 -26 78 -27 86 -1 9 580 316 1793 946 l1795 932 3 -1104 c1 -607 1 -1601 0 -2208z"/>
 <path d="M1592 3564 c-210 -61 -334 -172 -371 -335 -16 -70 -13 -207 10 -367 23 -164 28 -268 16 -326 -8 -36 -7 -38 8 -22 39 38 112 79 261 146 195 87 274 133 342 200 105 104 150 230 138 389 -3 47 -12 110 -19 140 l-12 53 -48 -68 c-51 -75 -137 -174 -137 -160 0 5 6 46 14 90 15 82 26 196 19 196 -17 0 -97 -52 -163 -105 -44 -36 -80 -61 -80 -55 0 22 61 167 86 203 14 21 24 40 22 42 -1 2 -40 -8 -86 -21z"/>
 </g>
<g id="layer103" fill="#fcd116" stroke="none">
 <path d="M2843 6018 c17 -48 77 -243 77 -254 0 -7 -50 -49 -111 -93 l-111 -80 143 -3 143 -3 41 -127 c22 -70 43 -129 46 -132 3 -3 25 55 48 129 l42 134 141 3 140 3 -111 80 c-61 44 -111 82 -111 85 0 3 18 61 40 130 22 69 40 129 40 134 0 5 -10 0 -22 -11 -40 -35 -196 -143 -207 -143 -9 0 -136 89 -220 154 -12 9 -13 8 -8 -6z"/>
 <path d="M4890 6023 c0 -4 19 -65 43 -136 l42 -130 -25 -18 c-14 -10 -65 -48 -115 -84 l-90 -65 142 0 142 0 43 -135 c24 -74 45 -135 48 -135 3 0 24 61 48 135 l43 134 140 3 140 3 -111 79 c-60 43 -110 84 -110 90 0 7 18 66 40 131 22 65 40 123 40 127 0 4 -49 -28 -109 -72 -60 -44 -114 -80 -120 -80 -6 0 -61 36 -121 80 -61 44 -110 77 -110 73z"/>
 <path d="M6940 6022 c0 -4 18 -63 40 -132 22 -69 40 -128 40 -131 0 -3 -50 -41 -110 -85 l-111 -79 140 -3 139 -3 43 -134 c23 -74 45 -132 48 -129 3 3 24 63 46 132 l41 127 141 5 141 5 -109 78 c-60 44 -109 85 -109 92 0 7 18 68 40 136 21 68 38 124 37 125 -1 1 -50 -33 -109 -77 -60 -43 -113 -79 -119 -79 -7 0 -61 36 -121 80 -59 44 -108 76 -108 72z"/>
 <path d="M910 5255 c25 -13 834 -433 1799 -934 l1755 -910 40 62 c194 297 568 410 905 274 121 -49 250 -156 325 -272 22 -33 40 -61 41 -62 1 -2 3469 1795 3570 1850 28 15 -284 16 -4225 16 l-4255 0 45 -24z"/>
 <path d="M4730 3604 c0 -5 32 -106 70 -225 39 -120 70 -221 70 -226 0 -4 -87 -71 -194 -148 l-194 -140 244 -3 244 -2 72 -225 c40 -124 75 -225 78 -225 3 0 38 101 78 225 l72 225 244 2 244 3 -194 140 c-106 77 -194 144 -194 149 0 4 32 107 71 228 39 121 69 221 67 223 -2 2 -46 -28 -98 -67 -52 -38 -139 -101 -192 -139 l-98 -71 -162 118 c-90 64 -178 128 -195 142 -18 13 -33 21 -33 16z"/>
 <path d="M1592 3564 c-210 -61 -334 -172 -371 -335 -16 -70 -13 -207 10 -367 23 -164 28 -268 16 -326 -8 -36 -7 -38 8 -22 39 38 112 79 261 146 195 87 274 133 342 200 105 104 150 230 138 389 -3 47 -12 110 -19 140 l-12 53 -47 -69 c-27 -38 -80 -102 -120 -142 -76 -76 -213 -173 -238 -169 -38 7 -14 227 40 366 16 42 41 94 56 115 14 21 24 40 22 42 -1 2 -40 -8 -86 -21z"/>
 <path d="M2668 1797 l-1797 -932 2125 -3 c1168 -1 3080 -1 4249 0 l2125 3 -1791 930 c-986 512 -1795 931 -1798 933 -4 1 -15 -12 -25 -30 -95 -164 -272 -296 -461 -344 -91 -23 -256 -23 -350 0 -181 44 -348 165 -450 328 l-31 48 -1796 -933z"/>
 <path d="M2843 738 c15 -42 77 -246 77 -256 0 -6 -50 -47 -111 -91 l-111 -80 143 -3 143 -3 40 -127 c23 -70 44 -129 47 -132 3 -3 25 55 48 129 l43 134 140 3 141 3 -112 79 c-61 44 -111 82 -111 85 0 3 18 62 40 130 22 69 38 127 36 129 -2 2 -54 -32 -114 -77 l-110 -80 -103 76 c-57 42 -110 81 -118 87 -12 9 -13 8 -8 -6z"/>
 <path d="M4890 743 c0 -4 19 -65 43 -136 l42 -130 -25 -18 c-14 -10 -65 -48 -115 -84 l-90 -65 142 0 142 0 43 -135 c24 -74 45 -135 48 -135 3 0 24 61 48 135 l43 134 140 3 140 3 -111 79 c-60 43 -110 84 -110 90 0 7 18 66 40 131 22 65 40 123 40 127 0 4 -49 -28 -109 -72 -60 -44 -114 -80 -121 -80 -7 0 -61 36 -121 80 -60 44 -109 77 -109 73z"/>
 <path d="M6977 618 c23 -73 43 -136 43 -139 0 -3 -50 -41 -110 -85 l-111 -79 140 -3 139 -3 43 -134 c23 -74 45 -132 48 -129 3 3 24 62 46 132 l41 127 143 3 143 3 -111 80 c-61 44 -111 86 -111 93 0 11 61 210 77 253 3 9 -44 -21 -105 -66 -61 -44 -117 -81 -123 -81 -7 0 -61 36 -121 80 -60 44 -110 80 -112 80 -1 0 17 -60 41 -132z"/>
 </g>

</svg>