<svg id="hand" xmlns="http://www.w3.org/2000/svg" viewBox="0 0 192 192"><defs><style>.cls-1{stroke:#000;stroke-miterlimit:10;stroke-width:3px;}</style></defs><title>hand</title><path class="cls-1" d="M86.51,56c-3.23,0-3.29,2.16-3.29,4.92,0,6.26.33,12.48.33,18.73,0,2.05.57,5.43-.93,7.1-1.32,1.48-2.19-.82-2.35-1.85A66.18,66.18,0,0,1,79.61,75,51.46,51.46,0,0,0,79,65.8c-2.6.09-3.4,1.84-3.58,4.27-.43,5.83-.06,11.58-.78,17.41-1.17,9.46-3.63,18.41-1.51,27.92.74,3.33,2,7.21,4.44,9.75,1,1,2.77.95,4.06.87,2.74-.17,5.49-.64,8.21-.75,4.35-.19,8.38,1.85,12.81.84,1.82-.42,3.22-1.91,4.6-3.06a18.38,18.38,0,0,0,3.35-3.06c2.86-3.89,3.43-9.22,4.58-13.79,1.76-7.08,4.3-14.37,4.88-21.68-5.47,0-5.72,6.13-7.16,10.19-.8,2.27-2.08,4.36-3,6.57h-.66c-.8-1.88-1.63-3.66-2.3-5.59-1.92.92-3.3,2.94-4.59,4.6C98.63,105,95.72,111,95.7,117H94.39c0-6.09,2.94-12,6.54-16.75,1.45-1.94,3.24-3.61,4.63-5.58a70.69,70.69,0,0,0-13.14,3.17c-3.3,1.11-6.72,2.6-10.18,3.07,1.17-2.07,4.43-2.49,6.57-3.1,5.76-1.65,11.65-4.33,17.73-4.46,0-2.54-.45-5-.62-7.55-.5-7.18-.84-14.49-1-21.68,0-2,.2-4.43-.76-6.22a1.87,1.87,0,0,0-2.81-.81c-1.77,1.27-1.36,4.16-1.36,6V78.94a18.12,18.12,0,0,1-.56,5.24c-.2.63-.61,1.41-1.39,1.32s-1.13-1-1.26-1.64c-.33-1.81,0-3.74-.21-5.58-.83-6.29-.18-13-.19-19.38,0-1.86.12-5.86-2-6.7-3.3-1.29-2.92,3.95-2.92,5.72V77.3c0,2,.5,5.76-.93,7.45-1,1.24-2-.66-2.18-1.54a34,34,0,0,1-.5-7.88c0-2.53-.32-5-.33-7.56A65,65,0,0,0,86.51,56Z"/><path class="cls-1" d="M78.3,127.22A80.23,80.23,0,0,1,79,137.41c0,1-.45,2.88.27,3.63,1.39,1.43,5.31.05,7-.26,6.17-1.15,12.18.79,18.39-.42a75,75,0,0,1,1-14.12c-1.79.51-3.36,1.47-5.26,1.61-2.84.21-5.4-.92-8.21-.95-3.24,0-6.33.54-9.52.64C81.13,127.59,79.73,127.25,78.3,127.22Z"/></svg>