<svg id="human" xmlns="http://www.w3.org/2000/svg" viewBox="0 0 192 192"><defs><style>.cls-1,.cls-2,.cls-3{stroke:#000;}.cls-1,.cls-2{stroke-width:0.94px;}.cls-2,.cls-3{stroke-linejoin:round;}.cls-3{stroke-width:1.7px;}</style></defs><title>human</title><path class="cls-1" d="M150.46,129.76s.29.05.53-.38-.53-.61-.86-1.09l-.38.76Zm-9.88-1-3.85,2.09s-1.9.38-2,0,0-.71,1-.76,3.71-2.52,3.71-2.52l1.14,1.19Zm0-68.38s.09.9.14,1.37a2.56,2.56,0,0,1-.81,1.43c-.05,0-.43,0-.38.33s.62.38.62.38-.24,1,0,1.05-.62,1.28,0,1.61a4.58,4.58,0,0,0,2.14.67c.47-.1,0,1.85,0,1.85L141,71.88l7.31-.76L146.8,68.7a1.85,1.85,0,0,1-.52-1.85c.19-1.38-.09-7.61-.09-7.61L141,58.53l-.33,1.81ZM139.3,71.17a4.3,4.3,0,0,0-2.29,4c-.61,2.85-.95,5.7-.95,5.7s-2.8,3.19-3.66,4.33-2.13,3.47-2.61,4.08-2.33,2.66-2.28,3.43-.43,4.13,1.43,4.51c.47.19,2-3.9,2-3.9s.1-1.76-.43-2.09,1.14-1.47,1.14-1.47,3.19-2.33,3.9-2.9,2.66-2.76,2.66-2.76l1.1-13Z"/><path class="cls-1" d="M142,68.94s.62,1.66,2,1.38a9.07,9.07,0,0,0,3-1.57s1.29,0,1.48.14,3.47,3.37,3.37,4.37-1.52.71-2,1.38a5.3,5.3,0,0,0-1.14,3.56c.23,1.24,1,2.86.85,3.47s-.62.81-.62,1.14.43.91.43,1.52-.57,1.53-.47,2.14.14,2.43.14,2.43l-.14,8.36a1.17,1.17,0,0,1,.52.76c0,.48,3.23,14.3,3.23,14.3s-.14.43-.47.38,1.28,2.14,1.33,2.76,1.66,5.46,1.61,6.13a7.38,7.38,0,0,1-.43,2.19c-.14,0,1.05,3,.86,3.51s-2.14.43-2.14.43l-.52-.09s0,.61-.33.66-3.19-.14-3.19-.14-.81,1.23-1.28,1.19-1.09-.91-1.24-.76.43.95.29,1.18-2.57.76-3-.38.28-.85.14-1.09-1.24-.85-1.57-.66.86.47.81,1-1.05,1.18-1.43,1.18-1.28-1.75-2.61-1.56a11.09,11.09,0,0,0-2.19.52,5.87,5.87,0,0,1-2.23.52,1.12,1.12,0,0,1-.95-1,17.85,17.85,0,0,0,.43-1.9c0-.38-.43-.76-.43-1.33a10.92,10.92,0,0,1,1.09-2.52l0-8.74s-1,0-1-.62,1.52-13.83,1.76-14.68.85-3.9.85-3.9-.71.33-.76,0S138,86.71,138,86.71s.38-3.75.38-4.75a21.55,21.55,0,0,0-.19-2.38s-1.95-.82-2-2.09c-.18-2,1.85-3.13,2.09-3.8l.95-2.66A4.55,4.55,0,0,1,142,68.94Z"/><path class="cls-1" d="M149.61,130.52a.68.68,0,0,0,.9,0c.43-.43-.86-1.33-.86-1.33l-.61.71Zm2-57a59.76,59.76,0,0,1,1.76,5.89c.19,1.19.81,5.94.57,6.61s-2.66,3.85-2.95,4.65-2,3.9-2,3.9a22.28,22.28,0,0,1-.62,3.19c-.19.14.49.88.43,1.14s-1.38,1.61-1.95,1.47-1.47-.81-1.52-1.43a7.29,7.29,0,0,1,.47-3.18c.43-.52,2.66-5.8,2.81-6.13a46,46,0,0,0,2.09-5.18,5,5,0,0,0-1.27-3C148,77,148.58,74.39,151.65,73.48Z"/><path class="cls-1" d="M140.48,60.05a3.19,3.19,0,0,0,1.62-.19c.57-.33,1.23-.47,1.71.19s.81.62.81.62-.72,1.76,0,1.95,1,.19,1.09.43-.62.76-.43,1,.53.53.57.72-.42,1-.28,1.18.57,1,.85,1,.1,1.19,1,.91a1.08,1.08,0,0,0,.81-1,1.48,1.48,0,0,0,1.14-1,1.44,1.44,0,0,1,.81-1s1.14-.61-.38-1.56c0-6.66-4.37-5.94-4.37-5.94s-.52-1.19-1.38-1-.9,1.14-1.52,1-.76-.53-.81-.48a5,5,0,0,0-.57,1.24c0,.23-1.66-.34-1.52.9s.95,1.19.9,1.09Z"/><path class="cls-1" d="M148.18,70.79s-4.23,2.71-4.13,3.66m5.08-3.18s-.95,1-1,1m2.29.1s-2.1,1.71-1.76,2.8m-8.13-4.66s-.62,1.29-.47,1.71a16.68,16.68,0,0,1,1.33,3,5.69,5.69,0,0,1,0,1.71m-1.95-4.09a5.81,5.81,0,0,0,.47,1.81,6.44,6.44,0,0,1,1.14,2.09m-2,2.42s1.23.62,2.37-1.76m1.86-1.66s-.91,2.33.62,3.18a3.94,3.94,0,0,0,3.32.52,8.44,8.44,0,0,0,1.38-.66m-6-.19s.1,3.14,4.71,6.22m-4.52-3.27s-.05,2.75,1.76,4m-2.71-7.23s-1.38,4.09-2.47,4.52m2-1.52a19.25,19.25,0,0,1-.42,4m-.38.71s1,1.19,2,1.1,1.47-1.34,2.19-1.14a6,6,0,0,0,3,.61m-2.38,1.24s0,2.42.43,2.66.24,2.47.24,2.47m-6.46-6.27a15.52,15.52,0,0,1-.34,3.09,9,9,0,0,0-.76,3.37m-1.8,1.33a8.1,8.1,0,0,0,1-.81m.43.53s-2,8.74-1.47,14m1.95-13.55s-1,6.56-.57,7.8m0-8,4,.29m.57-.52a5.42,5.42,0,0,0,2.62.47m-3.09,2.71s-.19,11.21-.48,13.69M148.13,100s1.24,9.83,2,10.74m-4.32-9.51s.76,8.7,1.19,9.46m-12,3a7.45,7.45,0,0,0,2.8-1.9c1.53,2,3.85.09,3.85.09s3.62,2.47,5.23-.28c2.47,1.61,3.71-.24,3.71-.24s.9,1.38,1.57,1.24m-3.95,1s1.85,8.69,4.61,11.16M138.63,112.7s.24,7.27.67,12.41m-1-4.19s-.24,4.76-.53,5.09m-2.28.47s.53,2,3.14.15,2.66.71,2.76,1,.52,2.32,1.52.61m2.09-2.8s-.43,4.23,3.32,1.14,4.38,0,4.47.9m-7.74-69a1.59,1.59,0,0,0,1.9,1.9,1.23,1.23,0,0,0,.57,1.52m1.66,1.28s1,.62-.05,1.38M146,64.8s.47.57,1,.43,1.37.52,1.37.52.72.24.81.1m-6.08.76s1.62.62,2.66-2m-5.65-.76L141,64m-11.5,29.92.08,2.08m-2-2.24s1.33,2.24,1.22,3.43"/><path class="cls-2" d="M140.2,64.85h.85l-.76.33m5.17,33.2s1-.1,1,1.56c.64-2.07,1.94-2.12,1.94-2.12"/><path class="cls-3" d="M141.39,62.19c.14,0,.66-.19.76,0S141.58,62.38,141.39,62.19Z"/></svg>