<svg id="key" xmlns="http://www.w3.org/2000/svg" viewBox="0 0 192 192"><defs><style>.cls-1{stroke:#000;stroke-miterlimit:10;stroke-width:2px;}</style></defs><title>key</title><polygon class="cls-1" points="93.75 133.15 75 133.15 75 125 79.35 125 79.35 129.62 88.86 129.62 88.86 125 93.75 125 93.75 133.15"/><polygon class="cls-1" points="93.75 120.1 88.86 120.1 88.86 115.48 79.35 115.48 79.35 120.1 75 120.1 75 111.95 93.75 111.95 93.75 120.1"/><rect class="cls-1" x="95.11" y="136.68" width="4.62" height="2.17"/><path class="cls-1" d="M99.3,135.32c-.89.7-3.11.27-4.19.27V78.25h4.62v53.54C99.73,132.69,100.1,134.68,99.3,135.32Z"/><path class="cls-1" d="M95.11,77.16v-3c2,.71,2.65.57,4.62,0v3Z"/><path class="cls-1" d="M116.58,64.39c-5,0-9.86,4-14.13,6.52-1.34.79-3.57,2.73-5.16,2.71-1.27,0-3-1.43-4.08-2.08-2.67-1.65-5.43-3.19-8.15-4.75A23.71,23.71,0,0,0,81,64.58c-.78-.26-2.15.08-2.71-.63S78,61.49,78,60.58c5.24,0,8.8-4.72,13.59-6.25,0,.9.39,2.36,0,3.17s-1.44,1.16-2.15,1.57c-1.82,1.06-4.11,2-5.43,3.69,3.43,1,6.67,3.65,9.78,5.39A12.08,12.08,0,0,0,97,69.85c1.38.23,3-1.17,4.08-1.82a110.67,110.67,0,0,0,9.79-5.82c-3.24-1.39-6.2-3.53-9.24-5.28-1.19-.68-2.94-2.17-4.35-2.15a6.42,6.42,0,0,0-1.91.64c0-1.52-.44-3.94,1.63-4.22,1.83-.24,4,1.76,5.44,2.62,2.34,1.38,4.73,2.67,7.07,4s4.25,2.71,7.06,2.71Z"/></svg>