<!DOCTYPE svg PUBLIC "-//W3C//DTD SVG 20010904//EN" "http://www.w3.org/TR/2001/REC-SVG-20010904/DTD/svg10.dtd">
<svg version="1.0" xmlns="http://www.w3.org/2000/svg" width="640px" height="427px" viewBox="0 0 6400 4270" preserveAspectRatio="xMidYMid meet">
<g id="layer101" fill="#278e43" stroke="none">
 <path d="M0 2135 l0 -2135 3200 0 3200 0 0 2135 0 2135 -3200 0 -3200 0 0 -2135z"/>
 </g>
<g id="layer102" fill="#ed2024" stroke="none">
 <path d="M3040 3010 l0 -160 -68 0 -68 0 -78 115 c-43 63 -80 115 -81 115 -2 0 13 -48 31 -107 19 -58 34 -110 34 -115 0 -4 -57 -8 -126 -8 -121 0 -127 1 -162 28 l-37 27 18 -27 17 -28 -1260 0 -1260 0 0 -1425 0 -1425 3200 0 3200 0 0 1425 0 1425 -1260 0 -1260 0 17 28 18 27 -37 -27 c-35 -27 -41 -28 -163 -28 l-127 0 7 31 c4 18 20 69 36 116 15 46 24 81 20 79 -4 -3 -41 -55 -81 -116 l-73 -110 -68 0 -69 0 -2 163 -3 162 -49 -162 -49 -163 -57 0 -57 0 -48 160 c-26 88 -50 160 -52 160 -1 0 -3 -72 -3 -160z"/>
 </g>
<g id="layer103" fill="#febd11" stroke="none">
 <path d="M3040 3010 l0 -160 -68 0 -68 0 -78 115 c-43 63 -80 115 -81 115 -2 0 13 -48 31 -107 19 -58 34 -110 34 -115 0 -4 -57 -8 -126 -8 -121 0 -127 1 -162 28 l-37 27 18 -27 17 -28 -1260 0 -1260 0 0 -715 0 -715 1340 0 1340 0 -25 -51 c-52 -102 -48 -107 26 -26 l71 77 89 0 c104 0 97 16 69 -155 -11 -66 -20 -124 -20 -130 0 -5 31 55 68 135 l69 145 60 3 60 3 11 -73 c6 -40 17 -115 23 -166 7 -50 15 -92 19 -92 4 0 12 42 19 93 6 50 17 125 23 165 l10 72 60 0 59 0 66 -140 c36 -77 68 -138 70 -136 2 2 -5 57 -17 123 -11 66 -20 128 -20 137 0 14 13 16 89 16 l90 0 67 -75 c38 -41 70 -73 72 -71 2 2 -13 36 -32 75 l-36 71 1340 0 1340 0 0 715 0 715 -1260 0 -1260 0 17 28 18 27 -37 -27 c-35 -27 -41 -28 -163 -28 l-127 0 7 31 c4 18 20 69 36 116 15 46 24 81 20 79 -4 -3 -41 -55 -81 -116 l-73 -110 -68 0 -69 0 -2 163 -3 162 -49 -162 -49 -163 -57 0 -57 0 -48 160 c-26 88 -50 160 -52 160 -1 0 -3 -72 -3 -160z"/>
 </g>
<g id="layer104" fill="#ffffff" stroke="none">
 <path d="M0 2135 l0 -715 1340 0 1340 0 81 161 c48 96 74 159 65 156 -8 -3 -102 -57 -208 -120 -106 -62 -204 -120 -218 -127 -23 -13 6 21 239 270 77 82 98 110 80 105 -307 -73 -484 -113 -487 -111 -1 2 99 61 223 131 124 70 224 129 223 131 -2 1 -121 10 -265 20 -145 10 -261 19 -260 21 2 1 118 28 257 58 140 31 256 57 257 59 2 2 -107 45 -241 97 -135 51 -243 95 -241 97 1 2 116 -6 255 -18 139 -12 253 -20 255 -18 2 2 -91 77 -206 167 -115 90 -209 166 -209 167 0 4 15 -2 294 -115 110 -45 201 -80 203 -78 1 2 -55 86 -125 188 l-127 184 -1263 3 -1262 2 0 -715z"/>
 <path d="M2574 2841 c9 -14 318 -263 321 -259 2 2 -15 63 -38 136 l-41 132 -124 0 c-70 0 -121 -4 -118 -9z"/>
 <path d="M2910 2845 c0 -3 29 -49 65 -103 l65 -97 0 103 0 102 -65 0 c-36 0 -65 -2 -65 -5z"/>
 <path d="M3150 2839 c0 -21 43 -159 50 -159 7 0 50 138 50 159 0 7 -21 11 -50 11 -29 0 -50 -4 -50 -11z"/>
 <path d="M3357 2748 c-4 -56 -5 -103 -3 -105 3 -3 136 194 136 202 0 3 -29 5 -63 5 l-64 0 -6 -102z"/>
 <path d="M3542 2718 c-22 -73 -39 -134 -37 -136 3 -4 312 245 321 259 3 5 -48 9 -119 9 l-123 0 -42 -132z"/>
 <path d="M3857 2818 c-56 -74 -237 -341 -234 -344 2 -2 104 37 228 87 123 50 234 94 247 99 12 5 22 8 22 6 0 -2 -94 -77 -210 -167 -115 -90 -206 -165 -200 -167 5 -2 120 6 256 18 136 11 248 19 250 18 2 -2 -108 -46 -243 -98 -135 -52 -242 -95 -237 -97 5 -2 121 -28 258 -58 137 -30 251 -56 253 -58 2 -2 -88 -10 -199 -17 -112 -7 -232 -15 -267 -19 l-64 -6 231 -130 c126 -71 229 -131 228 -133 -2 -1 -117 25 -256 58 -139 33 -255 60 -257 60 -3 0 46 -54 108 -121 63 -66 146 -155 184 -197 l70 -76 -45 26 c-25 14 -129 76 -232 136 -104 61 -188 109 -188 106 0 -2 36 -76 80 -164 l80 -160 1340 0 1340 0 0 715 0 715 -1259 0 -1260 0 -24 -32z"/>
 <path d="M2859 1538 l-104 -113 84 -3 c46 -2 87 1 91 5 8 9 42 214 37 220 -2 2 -51 -47 -108 -109z"/>
 <path d="M3436 1610 c4 -25 12 -76 18 -115 l12 -70 87 -3 c106 -3 108 -9 -28 133 l-95 100 6 -45z"/>
 <path d="M3072 1511 l-41 -91 60 0 c53 0 60 2 55 18 -3 9 -8 44 -12 77 -3 33 -10 66 -13 73 -5 8 -23 -22 -49 -77z"/>
 <path d="M3277 1580 c-9 -36 -25 -154 -22 -158 1 -2 28 -2 58 0 l55 3 -43 90 c-36 78 -43 87 -48 65z"/>
 </g>

</svg>