<?xml version="1.0" encoding="utf-8"?>
<!-- Generator: Adobe Illustrator 24.0.1, SVG Export Plug-In . SVG Version: 6.00 Build 0)  -->
<svg version="1.1" id="katman_1" xmlns="http://www.w3.org/2000/svg" xmlns:xlink="http://www.w3.org/1999/xlink" x="0px" y="0px"
	 viewBox="0 0 192 192" style="enable-background:new 0 0 192 192;" xml:space="preserve">
<style type="text/css">
	.st0{fill:#FFFFFF;stroke:#000000;stroke-width:2;stroke-linecap:round;stroke-linejoin:round;stroke-miterlimit:10;}
</style>
<g>
	<path class="st0" d="M186.2,128.2v-2l-1-1v-2l1-1l1,1l-0.1-1.5l-0.6-1.3l-0.2-0.5L185,119l1.3-2l0.4-0.6l0.3-1.4l-1.4-0.7H185
		l-2-0.3l1.2-2l0.4-0.6l0.5-1.4h-5l1.3-2l0.4-0.6l0.3-1.4l-2.1-0.7l-1-0.4l-0.9-0.5l-1.9-1.4l-1.3-1.4L174,100h-2.1H170l-1,0.1
		l-2,0.3l-1,0.2l-2,0.3l-1,0.1l-2,0.1l-2,0.2l-2,0.4l-1,0.2l-2,0.4l-2,0.2l-1-0.1l-1-0.3l-1-0.5l-2-1.6l-0.9-0.9l-1-1L143,96h14h4h2
		l2-0.1l2-0.3l1-0.2l1-0.2l2-0.3l1-0.2l1-0.2l1-0.3l2-0.7l1-0.4l1-0.4l2-1.2l1.9-1.6l1.4-1.9l0.4-1l0.3-1l0.3-2v-1l-0.1-1l-0.4-2
		l-0.8-2l-0.6-0.9l-1.6-1.6l-1.9-1.2l-2-0.8l-1-0.3l-1-0.2l-2-0.4l-1-0.2l-2-0.3l-2-0.1h-1h-2l-1,0.1l-2,0.3l-1,0.2l-2,0.3l-1,0.1
		l-2,0.2l-1,0.2l-2,0.4l-2,0.4l-1,0.2l-2,0.5l-1,0.3l-2,0.5l-1,0.2l-2,0.5l-2,0.6l-2,0.6l-2,0.4l-2,0.4l-1,0.2l-1,0.2l-2,0.4l-1,0.2
		l-1,0.2l-1,0.2l-2,0.4l-2,0.4l-2,0.3l-1,0.1l-2,0.3l-1,0.2l-2,0.3l-1,0.1h-1h-2l-1,0.1l-2,0.2l-1,0.1h-1l-2-0.2l-1-0.1l-1-0.1
		l-2-0.1l-2-0.3l-2-0.7L95,80.3l-0.8-0.6l-0.8-0.8L92,77l1.5-0.7l0.6-0.4l1-0.6l1.9-0.8l1-0.1l1,0.1l2,0.6l1,0.4l1,0.4l2,0.6l2,0.3
		l1,0.1h2h2h1l2-0.1l1-0.1l1-0.2l2-0.6l2-0.5l2,0.2l1.9,0.7l1,0.3l0.6,0.2L128,77l0.7-1.5V75l0.2-1l0.1-2h2.1l1,0.1l1.9,0.3l1,0.2
		l2,0.3l1,0.1h2l2-0.1l2-0.3l1-0.3l2-0.5l1-0.3l2-0.7l1.9-1.2l0.8-0.8l1.4-1.9l0.6-0.9l0.4-1l0.3-0.6L156,63l-1.5,0.1l-1.6,0.4
		l-1.9,0.8l-1,0.5l-1.9,0.8l-1.6,0.4H145l-0.3-1.5l-0.6-1.4l-0.6-0.8l-0.3-0.5L142,61l-1.5,1.5l-1.6,1.3l-1.9,1.3l-1,0.4l-2,0.3
		l-2-0.2l-2-0.4l-1-0.1l-2-0.2l-1-0.1l-2-0.4l-2-0.3l-1-0.1h-2l-1,0.1l-2,0.3l-1,0.2l-2,0.3l-1,0.1l-2,0.2l-2,0.4l-1,0.2l-2,0.4
		l-1,0.2l-1,0.2l-1,0.2l-2,0.4l-1,0.2l-1,0.3l-2,0.5l-1,0.3l-1,0.3l-2,0.7l-1,0.4l-2,1l-1.9,1.4L85.6,74l-0.5,1l-0.6,2l0.1,2l0.3,1
		l0.4,0.9l1.2,1.7l1.6,1.3l1.9,1l2,0.8l1,0.3l2,0.6l2,0.3l1,0.1h2h2h3h6h2h1l1-0.1l2-0.3l1-0.2l1-0.2l1-0.2l1-0.1l2-0.3l2-0.5l1-0.3
		l2-0.5l1-0.2l2-0.4l1-0.2l1-0.2l2-0.3l1-0.1l2-0.3l1-0.2l1-0.2l2-0.4l1-0.2l2-0.4l2-0.1l2,0.6l2,1.4l1.9,1.6l1.6,1L156,86l0.4-1.4
		l0.3-1.1L157,82l1.5,1.5l1.6,1.3l0.9,0.6l1.6,0.6h1.4l-0.3-1.5l-0.1-0.5l-0.4-1.5L163,81l1.3,0.8l0.4,0.5l1.6,1.3l0.8,0.5l1.5,0.7
		L170,85v-5l1-1h6l0.7,2.1l0.2,1L178,83l-0.6,1.9l-1.5,1.6l-1.9,1.2l-1,0.5l-2,0.9l-1,0.4l-1,0.3l-1,0.2l-2,0.4l-1,0.2l-2,0.3
		l-1,0.1h-1h-2h-2h-5h-2h-1l-1-0.1l-2-0.3l-1-0.2l-2-0.3l-1-0.1h-1h-2l-1-0.1l-2-0.3l-1-0.2l-2-0.3l-1-0.1h-1h-2h-6h-7h-2h-2l-1,0.1
		l-2,0.3l-1,0.2l-2,0.3l-1,0.1l-2,0.1l-1,0.1l-2,0.3l-2,0.4L97,91l-2,0.2l-1,0.1l-2,0.4L90,92h-1l-2,0.1l-2,0.3l-1,0.2l-2,0.3L81,93
		h-2h-0.9H75l-0.3-1.5l-0.1-0.6l-0.2-1L74.2,88l0.2-1l0.4-1l0.6-1l1.6-2l1.4-2l0.5-1l0.7-2l0.3-1.9l0.1-0.6V74l-2.1,0.1L76,74.4
		L74,75v-4l-1.5-0.8L72,69.9l-1.8-1.2l-1.6-1.6l-1.7-1.4L65,65.1l-1.9,0.1l-1.3,0.6L61,67l-1.5-0.7l-1.6,0.1L57,66.6l-2,0.7l-1,0.2
		l-1.9-0.1l-0.6-0.1L50,67l-1.1,1.5l-0.2,0.6L48.1,71v1l0.3,2l0.2,1l-0.1,2l-0.9,2l-0.7,0.9L46,80.7l-0.5,0.5L44,82v1.5l0.3,1.3
		l0.6,0.9L46,86l-1.1,1.5L44,89.1L43.2,91L43,92v2l-2.1-2.1L39,90.1l-2-1.7l-1-0.8L34,86l-2-1.6l-0.9-0.8l-1.6-1.7L28.9,81l-0.6-1
		l-0.4-0.9l-0.6-1.6L27,76l1.2-0.4l0.9-1l0.6-1.6l0.2-1.5V70l-1.1,0.7L28.5,71c0.1,0.8,0.1,1.6-0.3,2.5c-0.3-2.4-1.6-0.7-2.9-0.8
		l-0.1,0L24,73l-0.4-1.4l-0.9-0.9l-0.3-0.3L21,70l2-1v-0.7c0-0.1-0.1-0.2-0.1-0.4l-1.3-0.4l-1.1-0.3L19,67l-0.4,0.8
		c0.5,0.1,1,0.3,1.5,0.5c-1,0.6-1.8,1.2-2.4,1.6l0,0.1l-0.3,0.5L17,72l-1.4-0.3l-1.1-0.3L13,71l-0.4,1.4l-1,1.1L10,74.6L9.3,75
		l-0.6,0.6l-0.4,0.3l-0.1,0.3c2.3-0.4,4,0.4,3.7,3.6l0.1,0.1l0.4,1l1.1,1.8l1.5,1.6l0.9,0.8l0.5,0.4L18,87l-1.4,0.1l-0.9,0.6
		l-0.3,0.6l-0.2,0.3L15,90l1.5,1l0.6,0.2l0.9,0.4l1.5,0.4H21l-1.3,1.4l-0.4,0.4L19,95l2,0.6l1,0.2l0.5,0.1L24,96v4l1.5,1l1.6,0.6
		L29,102h2l-1.3,2l-0.4,0.6L29,106l1.5,0.7h0.6l1,0.2H33l2,0.1l1,0.2l1,0.4l1.9,1.1l1,0.5l0.6,0.3L42,110l-1.5,0.8l-0.6,0.2
		l-1.9,0.8l-1,0.4l-1,0.5l-1,0.4l-1,0.6l-1,0.4l-2,0.9l-1,0.4l-1,0.4l-2,0.5l-2-0.1l-1-0.4l-1-0.5l-2-1.3l-0.9-0.6l-1.6-1L17,112
		l-0.8,1.4l-0.5,0.4l-1.4,1.5l-0.5,0.4L13,117l-0.3-0.1c-0.3,0.3-0.7,0.5-1.1,0.8c-0.3-0.5-0.6-0.9-0.9-1.3l-0.2-0.1L9,116l0.7,1.8
		l0.2,0.5L11,119l-0.8,1.5l0,0c0,1-0.5,2.2-1.1,3.1L9,124l1.1,1.4l1.2,1.2l0.5,0.4l0.4-1.4l1.4-0.7L13,127c2.1,1.1,3.4,2.7,5,4.3
		c-0.5,0-0.9,0-1.4,0.1L17,132l1.5-0.1l1.6-0.5l1.9-1l1-0.5l0.9-0.6l1.6-0.8L27,128v4l1.5-0.4l0.6-0.2l1.9-0.8l1.9-1l1.3-1.1L35,127
		l1,2h1l1.8-0.8l0.5-0.2l0.7-1l1,2h1l1.5-0.5l0.6-0.4l1-0.6L47,126l1-0.8l0.6-0.5L50,124v2h2l1.4-1.5l0.4-0.5l1.6-1.7l0.8-0.8
		l1.8-1.2l1-0.5l2-1.2l1-0.7l1-0.7l1-0.7l2-1l2-0.4l1-0.1l2-0.2l2-0.4l2-0.3l1-0.1l2-0.4l2-0.6l1-0.4l1-0.4l1-0.4l1-0.5l1-0.5l2-1.1
		l1-0.6l1-0.6l2-1.3l2-1.3l3-2l1-0.7l2-1.3l1-0.6l0.9-0.6l1-0.5l0.6-0.4L104,99l-1,2h1l2-0.3h0.6l1.4-0.7v3.1v0.9v1l0.1,2l0.1,0.9
		l0.2,1l0.6,2.1l-1.5,0.7l-0.6,0.4l-1.9,1.1l-1,0.5l-2,0.8l-2,0.9l-2,1l-1,0.5l-2,0.6h-1l-2-0.5l-2-0.8l-1.9-0.6l-1-0.2l-0.6-0.1
		L85,115v2.1l0.1,1l0.3,1.9l0.2,1l0.3,2l0.3,2l0.4,1.9l0.1,0.6L87,129l1.5,0.8l0.6,0.4l1.9,1.1l1,0.4l1,0.3l2,0.4l1.9,0.4l0.6,0.1
		L99,133l1-1.5l0.3-0.5l1.2-1.7l1.4-1.1l1.1-0.1l1.1,0.9l1.5-0.8l1.3-1.3l0.6-0.9l0.6-1.5l0.1-1.5l1,1v2l1.5-0.1l1.5-0.6l1.6-1.3
		l1-1.4l0.4-1.5l1,1v2l1.5-0.4l1.4-1l1.6-1.6l1.7-1.6l1.9-1.2l0.6-0.3l1.5-1l-0.1-1.5l-0.6-1.6l-0.6-0.9l-1.6-2l-0.7-1l-0.5-1
		l-0.2-0.9v-1l0.3-2.1l2.1,2.1l1,1l0.9,0.9l2,1.7l1,0.7l1,0.7l2,1.1l1,0.4l1,0.3l2,0.4l1,0.2l1,0.2l2,0.3l1,0.1h1h2h2l1-0.1l2-0.3
		l2-0.4l1-0.1l2-0.2l2-0.3l1-0.2h2l2,0.8l1.9,1.4l1.7,1.6l1.6,1.8l0.8,1l1.6,1.9l0.5,0.6l0.8,1.5l-1.5,0.3l-1.6,0.6l-0.9,0.4l-1,0.6
		l-0.6,0.2l-1.5,1l0.8,1.4l0.5,0.4l0.8,0.8l0.9,0.7l1,0.8l2,1.2l1,0.4l1.9,0.9l1.6,1l1.5,1.4h2l1.5-1.2l1.6-0.9l0.9-0.4l1.9-0.4
		l1-0.1h2.1v-2v-1l-1-1V128.2z M65,82.4l0.7,0.7l-5.2,0.7c-1.5-2.4-2.7-4.2,0-6C59.9,81.5,61.6,82.4,65,82.4z M62,75.7l-6,1.5l0.7-3
		c-1.3-0.1-1.9-0.2-3-0.7C56.7,73.7,59.5,74.4,62,75.7z M51.6,74.9c-2-1.9-2-3.3-1.5-6h1.5C52.3,71.2,52.3,72.7,51.6,74.9z
		 M65.9,89.1c-1.6,2.5-1.4,5.6-3.1,8.1c-1.6,2.4-4.2,3-6.8,3.8l-2.2-3.7l0.7,0.7c0.9-1.5,0.9-3.5,1.5-5.2h-3c-0.1,1.3-0.2,1.9-0.7,3
		c0.2-3.6,2.2-6.8,2.2-10.4c0-3-1.8-5.3-2.2-8.2l3.7,3.7c-0.4,4.3,2.2,4.8,6,4.5c1.9,2.8,3.7,1.2,4.5-1.5c2.2,0.1,3.4-0.3,5.2-1.5
		C70.7,85.3,67.7,86.5,65.9,89.1z M68,80.9c-0.9-1.6-1.8-3-3-4.5l-0.7-0.7c2.5,0.8,5.1,1.8,7.4,3L68,80.9z M77.6,76.4
		c-0.7,2.6-1.4,3.9-3.7,5.2C74.3,78.8,74.9,77.5,77.6,76.4z"/>
	<path class="st0" d="M23,68.3c0.3,1.3,0.6,2.8,1.2,3.6c0.4,0.5,0.8,0.7,1.2,0.8l1.4-0.6l1.6-1l0.1-0.1c-0.5-2.6-3.4-4.2-6.2-4.9
		c0.2,0.5,0.4,1.2,0.6,1.9l0.1,0V68.3z"/>
	<path class="st0" d="M18.6,67.8c-2.2-0.5-4.5-0.3-6.7-0.3c2.4,4.3,3.5,3.9,5.7,2.4l0.7-1.4L18.6,67.8z"/>
	<path class="st0" d="M10.4,77.5l-1.1-0.6L8,77l0.2-0.8c-0.9,0.2-2,0.5-3,1c2.1,1.3,4.3,2.4,6.7,3c0-0.2,0-0.3,0-0.4L11.5,79
		L10.4,77.5z"/>
	<path class="st0" d="M12.7,116.9c1.5-1.2,1.9-2.7,3.2-4.3c-2.7-0.8-5.4,0.2-7.9,1.4c1.2,0.8,2,1.4,2.7,2.3l0.9,0.2L12.7,116.9z"/>
	<path class="st0" d="M10,121l0.2-0.5c0-0.9-0.6-1.5-2.2-1.1c-1.9,0.5-2.8,2.4-3.6,4c1.9-0.2,2.6-0.1,4.3,0.7
		c0.1-0.1,0.3-0.3,0.4-0.5l0.3-1.1L10,121z"/>
	<path class="st0" d="M15.7,130.1l-1.7-1.6l-0.9-0.6l-1.3-0.9l-1.7,5.8c2.3-0.7,4.3-1.2,6.5-1.4l-0.5-0.8L15.7,130.1z"/>
</g>
</svg>
