<?xml version="1.0" encoding="utf-8"?>
<!-- Generator: Adobe Illustrator 24.0.1, SVG Export Plug-In . SVG Version: 6.00 Build 0)  -->
<svg version="1.1" id="katman_1" xmlns="http://www.w3.org/2000/svg" xmlns:xlink="http://www.w3.org/1999/xlink" x="0px" y="0px"
	 viewBox="0 0 384 384" style="enable-background:new 0 0 384 384;" xml:space="preserve">
<path d="M192,89H10v101v101h182h182V190V89H192z M356,268v5H192H28v-5v-5h164h164V268z M356,246v5H192H28v-5v-5h164h164V246z
	 M356,224v5H192H28v-5v-5h164h164V224z M356,202v5H192H28v-5v-5h164h164V202z M356,180v5H192H28v-5v-5h164h164V180z M356,158v5H192
	H28v-5v-5h164h164V158z M356,136v5H192H28v-5v-5h164h164V136z M356,113v6H192H28v-6v-6h164h164V113z"/>
</svg>
