<svg id="map" xmlns="http://www.w3.org/2000/svg" viewBox="0 0 192 192"><title>map</title><path d="M71,78.69a3.25,3.25,0,0,1,.54-.3l.66-.2a1.61,1.61,0,0,1,.51-.17,1.11,1.11,0,0,1,.66.37,2.89,2.89,0,0,0,.69.47s.4.13.47,0a.52.52,0,0,1,.44-.24c.19,0,.22-.17.22-.3a.75.75,0,0,1,.21-.47,1.22,1.22,0,0,1,.44-.27s.4-.17.44-.4.43-.4.66-.44,0-.13.58-.07.66-.13.69-.3,0-.34.37-.31.54,0,.54-.17.33-.3-.25-.46-.54,0-.58-.31,0-.23-.4-.27-.19-.23-.21-.44a1.44,1.44,0,0,0-.22-.43c-.08-.14-.29-.14-.29-.34s0-.3-.25-.3-.29,0-.29-.2,0-.36.25-.36a.29.29,0,0,0,.29-.37,4.72,4.72,0,0,1,0-.64l.29-.34a10.22,10.22,0,0,0,1-.84.28.28,0,0,1,.5,0,1.65,1.65,0,0,0,.33.46c.11.14.44,0,.51-.1a3.69,3.69,0,0,1,.3-.89,1.85,1.85,0,0,0,.38-.61c.05-.22.14-.39.38-.39s.38-.31.38-.49a.37.37,0,0,1,.37-.39c.29,0,.43-.22.53,0s.19.26.38.35.48.22.61.09.22-.35.43-.21.35,0,.4-.26.09-.61.09-.61,0-.18.38-.18.1-.22.29-.35.19-.26.42-.18.62-.11.43-.32-.61-.57-.38-.83.33-.7.1-.75-.57,0-.61-.21-.15-.44.14-.49.76,0,.91-.18.61-.21.61-.6.15-.44.19-.66a1.16,1.16,0,0,0-.14-.88,3.87,3.87,0,0,1-.53-.66.85.85,0,0,0-.52-.44c-.28-.09-.53-.13-.53-.35s.2.05.2-.52-.38-.66-.38-.66L84,59a10,10,0,0,0-1.28-.27c-.27,0-.58-.28-.27-.46a.57.57,0,0,0,.27-.75.78.78,0,0,0-.62-.54c-.43-.11-.55-.22-.35-.47s.23-.43.47-.25a1,1,0,0,0,.93.11c.31-.14.43-.25.58-.11s.35.29.59.07a.85.85,0,0,1,.85-.14,1.28,1.28,0,0,0,.82,0c.15-.07.46-.32.46-.46a.81.81,0,0,1,.39-.51c.2-.1.43-.46.63-.46s.27-.22.27-.36a2.3,2.3,0,0,1,.19-.54.53.53,0,0,1,.7,0,1.68,1.68,0,0,0,.62.28,1.37,1.37,0,0,0,.59,0,.79.79,0,0,1,.74,0,1.37,1.37,0,0,0,.66.18,2.36,2.36,0,0,0,.08-.43c0-.14.07-.39-.08-.5s-.35-.25,0-.47a.72.72,0,0,1,.62-.18c.31,0,.51,0,.74,0s.62.21.62.43a.55.55,0,0,0,.35.46c.2.11.43.22.35.4s-.08.32.16.28.31.11.31.29.08.29.31.36.35.21.35.39a1,1,0,0,0,0,.47,2.8,2.8,0,0,0,.31.46s.43.51-.12.26-.66-.36-.85-.33a.64.64,0,0,0-.31.15,2.46,2.46,0,0,1-.47.07c-.19,0-.39.39-.08.46s.43.15.43.4-.12.18-.27.36-.27.07-.55.07-.35.21-.35.43.12.18.24.36a.3.3,0,0,0,.5,0c.2-.18.35-.29.47,0s.27.32.5.32a.79.79,0,0,0,.51-.11c.19-.11.43,0,.47.29s.23.32.42.43.32.18.35.36.16.25.35.14.51-.18.63,0l.31.43,0,.36.74.25a1.09,1.09,0,0,1,.07.32c0,.15.12.22.31.18a3.12,3.12,0,0,1,.55,0s.27-.1.27-.32.12-.28.31-.28.62.14.74-.08a.64.64,0,0,1,.74-.18l1,.4s-.08,0,.16.39a.84.84,0,0,0,.66.36,2.15,2.15,0,0,0,.11.47.51.51,0,0,0,.63.07,1.29,1.29,0,0,1,.7-.32c.23,0,.39,0,.39-.15s-.24-.25-.24-.46.24-.22.27-.43.28,0,.43.1.35.29.35.43a1.28,1.28,0,0,0,.51.72c.19.07.7.11.85-.07s.55-.25.51.18-.12.46.15.61a.49.49,0,0,1,.08.78c-.23.15-.31.18-.31.43s-.08.54.12.68.31.26.31.4a5.69,5.69,0,0,0,.23.79,3.74,3.74,0,0,1,.08.78c0,.15-.12.4.23.36s.43,0,.43.25.12.4-.08.51-.31.46-.11.53a.59.59,0,0,1,.39.32c0,.15.35.4.54.26s.23-.22.39-.26.27-.14.12-.32-.2-.36,0-.46a1,1,0,0,0,.23-.47.3.3,0,0,1,.51,0c.27.32.31.22.5.22s.27.18.27.35.39.15.39.43.08,1,.08,1,0,.4.23.54.2.18.08.36a1.11,1.11,0,0,0-.08.61c0,.14.08.21-.11.35s-.28.33-.16.54.08.36.39.61.27.36.27.54.31.43.31.61.24.39.43.43a.67.67,0,0,1,.43.53c0,.18,0,.65,0,.65s0,.11.19.11.39.25.47,0,.31-.32.47-.39.46-.22.62-.11a.83.83,0,0,0,.5.11l.9,0s.19,0,.31.25.47.61.27.75-.19.43,0,.43.47,0,.47.18,0,.33.23.22.31-.15.39,0,.23.14.43.25.27,0,.39-.11a1.8,1.8,0,0,1,.58-.29,2.65,2.65,0,0,1,.85-.07,4.37,4.37,0,0,1,.55.22,1.07,1.07,0,0,1,.08.57c-.08.22-.16.18-.08.5s-.08.36-.23.32-.32,0-.32.26-.15.35-.15.6,0,.22-.16.33-.19.28,0,.32.16.29.16.43,0,.46,0,.46,0,.18-.23.18-.51,0-.55.15-.35.46-.08.64.2.29,0,.36a.3.3,0,0,0,0,.54c.31.1.27.21.08.36s-.58.25-.58.46-.08.22-.32.25-.35.32-.07.68.35.29.54.29.2-.29.2-.29l.85,0a1.15,1.15,0,0,0,.62-.11c.16-.11.59-.29.59,0s.07.28.27.43.23,0,.39.25.19,0,.31-.22.35-.5.54-.21.2.21.43.21.31.11.31.29.23.18.51.14.31.14.42.32.16.15.32.15a.46.46,0,0,0,.42-.15c.12-.14.28-.32.43-.1a.31.31,0,0,0,.55-.08c.07-.25.42-.46.62-.17a.66.66,0,0,0,.54.32c.2,0,.47,0,.59.21s.5.47.23.68-.58.5-.35.58a1,1,0,0,1,.54.32,1.92,1.92,0,0,0,.9.29.76.76,0,0,0,.7-.15c.27-.21.54-.21.5.07a1.22,1.22,0,0,0,.12.61,2.93,2.93,0,0,1,.19.65c0,.18,0,.21.32.43s.31.36.58.14.35-.32.35-.5v-.57a2.17,2.17,0,0,0,.54-.18c.16-.11.78-.43.94-.29a.44.44,0,0,0,.5,0,1.68,1.68,0,0,1,.62-.08,1,1,0,0,0,.74-.21c.31-.25.31-.18.51,0a.39.39,0,0,1,.08.54.31.31,0,0,0,.27.46c.27,0,.35.15.35.32a2.62,2.62,0,0,0,.08.58c0,.14,0,.21.46.32s.35.36.43.54.08.32-.15.32a.3.3,0,0,0-.35.29c0,.18-.39.25-.39.25L137,91a.5.5,0,0,0-.35.14c-.12.14-.35.43-.2.68s.16.39,0,.5-.23.65-.39.54-.35,0-.5.11-.12.57.19.75a.86.86,0,0,1,.39.43l.35.53a.84.84,0,0,0-.19.29c-.08.18-.31.54-.08.61s.12.47-.12.47-.5-.11-.54.17-.16.22-.39.18-.82-.18-1,.11-.2.4-.47.36-.16.43-.08.61a1.87,1.87,0,0,0,.35.43.7.7,0,0,1,.24.54c0,.35-.16.32-.32.07s-.46-.22-.5.07-.08.72-.35.72a.57.57,0,0,0-.51.21c-.11.14-.31.39-.31.54a.28.28,0,0,1-.23.32c-.2,0-.23.43-.23.43s-.47.07-.51.25,0,.47-.35.5a1,1,0,0,0-.74.47.36.36,0,0,0,0,.5c.16.18.27.75.47.86s.35.14.31.43-.27.5,0,.5.5.07.39.32-.12.29-.35.4-.35.1-.35.39.07.29-.12.39-.19.25-.19.47-.08.14-.32.39a.68.68,0,0,1-.73.18c-.2-.07-.24-.07-.28-.28s-.39-.22-.58-.18a1.42,1.42,0,0,0-.47.25s-.35.21-.19.39.08.47-.2.43-.89.29-1.08,0-.74-.54-.82-.11.23.39.19.82-.11.43-.27.57a.7.7,0,0,0-.19.43c0,.18-.08.58.19.72a.92.92,0,0,1,.39.75c0,.22,0,.43.27.43s.51,0,.55-.28a.32.32,0,0,1,.62.1c0,.51,0,.76.23,1a5.24,5.24,0,0,0,.51.61,4.16,4.16,0,0,1,.42,1c-.38.08-.48.57-.72.67s-.29,0-.41.1-.1.21-.23.27c-.29.12-.24-.31-.58-.15s-.34.5-.79.35c-.23-.08-.38-1-.44-1.21a5.54,5.54,0,0,0-.36-.62c-.27-.39-.79,0-1-.12s-.14-.48-.54-.52c-.81-.05-.23.5-.57.62-.65.23-.65-.61-1.14-.22-.19.14.29.23.17.48s-.57.52-.54.76.4.43.51.71c.29.73-.2,1.24-.93.67-.41-.32-.48-.92-1.12-.88-.14,0-.19.17-.34.18s-.26-.13-.41-.09,0,.25-.08.38a4.39,4.39,0,0,0-.36.33c-.18.23-.12.44-.37.63s-.38.06-.61.31-.27.65-.58.9c-.15.12-.26-.38-.45-.05a1,1,0,0,0-.08.14.23.23,0,0,0,0,.25c.41.78-.45,1.08-.71,1.64-.12.23.2.44.08.62s-.47.5-.5.58a1.06,1.06,0,0,1-.14.33c-.06.07-.3,0-.32.14s.25.22.31.3,0,.24,0,.26c.44.44.18.31.4.69,0,.06.17,0,.22.1s-.11.13,0,.28.32.45.32.46-.59.41-.73.41c-.37,0,.32-.76-.28-.76-.26,0-.28.6-.35.66s-.27,0-.33,0c-.39,0-.64.48-.8.53s-.31-.06-.48,0-.34.18-.48.18-.15-.06-.23-.11a3.69,3.69,0,0,0-.69-.2c-.1,0-.31.13-.37.09s.08-.31-.21-.47a2.7,2.7,0,0,1-.24-.56,2.6,2.6,0,0,0,.15-1.07c0-.37-.63-.68-.78-1s-.23-.81-.45-1a2,2,0,0,1-.59-.72c0-.07.07-.2,0-.32s-.29-.19-.33-.37,0-.61-.17-.71a9.76,9.76,0,0,0-1.66-.27.5.5,0,0,1-.39-.13c-.05,0-.13-.23-.17-.23a2.58,2.58,0,0,0-.37.06c-.08,0-.23,0-.31,0-.38.26-.47.59-.83.87s-.78.27-1.15.59-.39.7-.62.93-.26,0-.29.05c-.2.24-.47.38-.67.61,0,0,0,.13-.07.17l-.42.1c-.11,0-.31,0-.4,0s-.18.27-.85.4a.7.7,0,0,0-.17.09c-.08,0-.14.13-.21.18s-.2,0-.29,0-.26.17-.41.18c-.35,0-.92-.16-1.19,0s-.62.57-.79.63a.43.43,0,0,1-.3-.06c-.06.07-.19.63-.24.75s-.75.64-.81.71a3.69,3.69,0,0,1-.25.34.51.51,0,0,1-.33.15,3.29,3.29,0,0,1-.54-.14,7.11,7.11,0,0,0-1.38,0c-.26.06-.18.81-.83.88-.38,0-.73.12-1.12.15a.82.82,0,0,0-.51-.09c-.08,0-.37.31-.37.4v.16s.08.13.07.13a5.88,5.88,0,0,0-.58.64.44.44,0,0,1-.12.15c-.09.06-.53.23-.57.32-.11.26.31.51.27.62-.12.35-.58.68-.73,1-.06.13.16.58.15.73a9.36,9.36,0,0,0-.18,1.37,3,3,0,0,0,.09.55c.05.08.16.12.22.19a10.12,10.12,0,0,1,.61,1.18c.09.75-1,.49-.36,1.23a2.3,2.3,0,0,0,.28.34c.13.14.93.72.94.78s-.64.22-.76.33c-.31.31-.57.87-.87,1.18s-.35,0-.6.44c-.08.17,0,.56-.1.67s-.28-.06-.44,0-.11.23-.17.28a8.07,8.07,0,0,1-1.88.91c-.08,0-.17-.3-.18-.38a.8.8,0,0,0-.19-.35,1,1,0,0,0-1.4,0c-.1.11-.11.27-.23.37s-.46.35-.66.52c0,0-.16.17-.21.17s-.53-.45-.63-.57a3.88,3.88,0,0,1-.73-.93,8.78,8.78,0,0,0-.88-2.41h.38c.44-.3.32-1,1.1-.73.1-.14.09-.28.28-.38s.19-.07.23-.13a3.64,3.64,0,0,0,.3-2.34c-.24-.36-.5-.34-.69-.93-.06-.16.05-.35,0-.53s-.3-1-.34-1.06-.21-.16-.22-.2a9.66,9.66,0,0,1,0-1.07c-.27-.72-1.15-1.17-1.2-1.25s-.21-.4-.33-.58a1.93,1.93,0,0,1-.21-.56c0-.1-.18-.18-.19-.29s.52-.58.5-.91c0-.11-.34-.43-.27-.61s.4-.61.39-.81-.53-.88-.6-1.18c0-.14.21-.26.15-.35s-.62-.62-.7-.77.2-.25,0-.44,0-.12-.08-.27-.25-.32-.33-.5-.54-1.84-.53-1.94-.21-.21-.28-.33-.1-.34-.15-.43-.53-.16-.63-.31a4.69,4.69,0,0,0-.23-.75c-.07-.09-.17-.08-.25-.15s-.06-.15-.11-.21c-.15-.22-.47,0-.68-.81a6.65,6.65,0,0,1-.79-.61s-.07-.1-.13-.12a2.31,2.31,0,0,1-.65-.25,3.58,3.58,0,0,1-.68-.06s-.11-.26-.15-.27c-.27,0-.72,0-1-.22s-.23-.94-.56-.83a.21.21,0,0,0-.13,0c-.22-.28-1-.31-1.26-.49-.09-.06-.37,0-.37-.09a1.07,1.07,0,0,0,.06-.43c-.16-.16-.27-.35-.39-.47-.28-.06-.17-.09-.35-.19-.48,0-.53,0-.84.33-.08.07-.24.09-.33.14s-.22.39-.45.25a.77.77,0,0,1-.19-.17c-.13-.11-.21,0-.28-.27-.4-.21-1.5.53-1.76,0-.18-.1-.32,0-.47-.13s.21-1-.59-1.35c.19-.14.38-.24.56-.37s0-.25,0-.35.09-.45.07-.56-.15-.19-.19-.32,0-.28-.06-.42a.82.82,0,0,0-.25-.12,3.49,3.49,0,0,1-.59-.49s-.07-.12-.12-.16-.62-.25-.6-.47.1-.08.13-.16,0-.2.08-.28c.22-.31.72-.17.64-.74,0-.25-.21-.46-.26-.73-.09-.06-.1-.17-.17-.23-.49,0-.42-.55-.6-.67-.51-.35-.91-.13-.34-.82.08-.22-.49-.58-.61-.71s-.11-.61-.19-.82-.37-.3-.48-.45-.12-.28-.17-.3V99c.11-.08.05-.24,0-.34s-.21,0-.26-.09a5.11,5.11,0,0,0-1.64-.85c-.17-.07-.12-.2-.26-.26a7.06,7.06,0,0,0-1-.41c-.09,0-.16-.39-.23-.51a2.36,2.36,0,0,0-.29-.31c0-.34-.2-.39-.46-.57,0,0,0-.15,0-.2s.18-.64.21-.72.21-.24.18-.38a4.38,4.38,0,0,0-.15-.77c-.26-.7-.57-.61-.4-1.52,0-.19,0-.3.11-.47,0,0,.07-.1.08-.12s.33-.21.38-.27.23-.65.42-.79.52-.32.59-.41.15-.29.1-.38a.84.84,0,0,0-.41-.06,1.84,1.84,0,0,0-.36-.16s-.11-.1-.11-.17l0,0A2.88,2.88,0,0,1,58,89a3.56,3.56,0,0,1-.58-.18c-.32-.18-.67-.67-1-.74a3.41,3.41,0,0,0-1.06,0c-.25,0-.25-.13-.45-.2s-.07.15-.69,0c-.08-.06,0-.28,0-.36s-.21,0-.33,0c-.51-.12-.32-.59-.45-.89-.06-.07-.28-.06-.37-.07s0,0,0-.07l0,0c.08-.14-.23-.48-.22-.52s.65-.21.74-.22-.06-.15-.07-.23a1.43,1.43,0,0,1,.16-.57l0-.06c-.17-.1-.23-.24-.39-.36,0-.08.12-.13.14-.21.3-.83.77-.17,1.17-.94a2.32,2.32,0,0,0,.2-.39h.08c.07,0,.18.08.26.05a.46.46,0,0,1,.28-.13l.15,0c.75-.16.58-.44,1-.75a3.16,3.16,0,0,1,.61-.17,6.08,6.08,0,0,0,.71.45c.22.09,1,.25,1.12.32s.19.3.34.38c.43.24.18-.16.6-.08a7,7,0,0,1,1.18.61.84.84,0,0,0,.31,0,5,5,0,0,1,.87-.13c.08,0,.2.1.27.12s.18-.19.25-.18c.29,0,.3.16.69.12,0,0,.2-1.09.39-1.14s.4.26.48.27,0-.22,0-.24a6,6,0,0,1-.23-.82s.19,0,.28,0a1.6,1.6,0,0,0,.66-.3l.36-.51c0-.08-.08-.27,0-.33a3.13,3.13,0,0,0,.32-.22c.13-.12.15-.34.33-.43.69-.06.93-.6,1.55-.67l.21,0,.12.21a1.62,1.62,0,0,0,.53.29s.08-.11.14-.13a.79.79,0,0,0,.52-.3s-.08-.13,0-.2a4.39,4.39,0,0,1,.53-.41,1.23,1.23,0,0,1,.47,0c.09,0,.1.17.19.18s.31,0,.38,0,.13-.16.24-.17Z"/></svg>