<!DOCTYPE svg PUBLIC "-//W3C//DTD SVG 20010904//EN" "http://www.w3.org/TR/2001/REC-SVG-20010904/DTD/svg10.dtd">
<svg version="1.0" xmlns="http://www.w3.org/2000/svg" width="591px" height="720px" viewBox="0 0 5910 7200" preserveAspectRatio="xMidYMid meet">
<g id="layer101" fill="#003893" stroke="none">
 <path d="M0 3599 l0 -3600 38 23 c22 13 1351 844 2955 1848 l2916 1825 -1862 3 -1862 2 1750 1750 1750 1750 -2843 0 -2842 0 0 -3601z"/>
 </g>
<g id="layer102" fill="#dc143c" stroke="none">
 <path d="M217 6983 c-9 -8 -9 -6593 -1 -6593 9 0 4916 3070 4934 3086 12 12 -264 14 -1735 15 l-1750 0 1748 1742 c961 958 1747 1745 1747 1750 0 9 -4934 10 -4943 0z"/>
 </g>
<g id="layer103" fill="#ffffff" stroke="none">
 <path d="M1430 6245 c-12 -27 -49 -115 -82 -195 -34 -80 -64 -149 -68 -153 -4 -5 -85 51 -180 123 -95 72 -174 129 -175 128 -1 -2 10 -101 24 -221 l27 -218 -36 5 c-104 17 -372 47 -385 44 -10 -2 25 -55 114 -173 72 -93 127 -173 123 -177 -4 -3 -90 -41 -192 -84 -102 -42 -188 -80 -193 -84 -4 -3 54 -33 130 -65 76 -32 166 -71 201 -87 l63 -28 -130 -172 c-72 -95 -127 -174 -122 -176 5 -2 102 8 215 22 113 15 207 26 209 26 2 0 -9 -98 -24 -217 -15 -120 -26 -219 -25 -220 0 -1 79 57 175 129 95 71 177 126 181 121 5 -4 39 -80 76 -168 37 -88 73 -176 81 -194 l15 -35 85 202 c47 111 89 202 94 202 4 0 82 -57 174 -126 91 -69 169 -124 171 -121 3 2 -7 98 -22 211 -14 114 -23 210 -21 213 5 4 287 -27 401 -44 l38 -6 -131 173 c-72 94 -131 175 -131 179 0 5 88 45 195 91 107 46 195 86 195 89 0 4 -90 44 -200 90 l-199 83 125 165 c69 90 127 169 130 176 4 10 -46 7 -208 -14 -117 -14 -214 -25 -216 -24 -2 2 8 99 22 216 15 116 25 213 24 215 -2 1 -81 -56 -177 -127 -95 -72 -174 -129 -176 -127 -2 2 -42 94 -89 203 l-84 200 -22 -50z"/>
 <path d="M1253 3290 c-109 -24 -171 -47 -271 -101 -284 -152 -488 -459 -508 -764 l-5 -80 44 83 c55 103 143 217 216 283 67 61 165 129 183 129 7 -1 28 -14 46 -29 l34 -29 -76 -57 c-42 -32 -76 -60 -76 -64 0 -4 43 -17 95 -30 94 -23 96 -24 82 -45 -47 -74 -89 -148 -85 -151 2 -2 46 2 98 10 52 8 95 13 96 12 1 -1 -5 -44 -12 -96 -8 -52 -12 -96 -10 -99 4 -3 74 35 152 85 20 13 21 10 45 -82 13 -52 26 -95 30 -95 4 0 32 34 64 76 l57 75 44 -57 c25 -32 53 -69 63 -83 l18 -24 24 96 c12 53 28 97 33 97 6 -1 45 -21 86 -45 86 -51 88 -49 71 49 -19 111 -25 105 81 89 50 -7 95 -12 99 -11 4 2 -14 39 -41 83 -27 44 -50 83 -50 87 0 3 43 16 95 29 52 13 95 25 95 28 0 4 -34 31 -75 60 -41 30 -75 58 -75 62 0 9 66 59 78 59 15 0 131 -88 190 -143 72 -69 152 -175 207 -277 l46 -85 -7 75 c-13 143 -56 276 -135 417 -61 108 -234 282 -342 342 -167 94 -294 130 -482 136 -106 4 -147 1 -222 -15z"/>
 </g>

</svg>