<!DOCTYPE svg PUBLIC "-//W3C//DTD SVG 20010904//EN" "http://www.w3.org/TR/2001/REC-SVG-20010904/DTD/svg10.dtd">
<svg version="1.0" xmlns="http://www.w3.org/2000/svg" width="320px" height="160px" viewBox="0 0 3200 1600" preserveAspectRatio="xMidYMid meet">
<g id="layer101" fill="#012169" stroke="none">
 <path d="M0 800 l0 -800 1600 0 1600 0 0 800 0 800 -1600 0 -1600 0 0 -800z"/>
 </g>
<g id="layer102" fill="#c8102e" stroke="none">
 <path d="M2320 1386 c0 -2 7 -23 15 -47 13 -36 13 -44 2 -51 -8 -4 -25 -16 -38 -27 l-24 -20 47 -1 48 0 11 -45 c6 -25 15 -45 19 -45 4 0 13 20 19 45 l11 45 48 0 47 1 -24 20 c-13 11 -30 23 -38 27 -11 7 -11 15 2 51 8 24 15 45 15 47 0 3 -18 -8 -40 -22 l-40 -27 -40 27 c-22 14 -40 25 -40 22z"/>
 <path d="M0 755 l0 -45 178 -89 177 -90 -177 0 -178 -1 0 -130 0 -130 178 -1 177 0 -177 -90 -178 -89 0 -45 0 -45 90 0 90 0 240 120 c132 66 242 120 245 120 3 0 5 -54 5 -120 l0 -120 130 0 130 0 0 120 c0 66 2 120 5 120 3 0 113 -54 245 -120 l240 -120 90 0 90 0 0 45 0 45 -177 89 -178 90 178 0 177 1 0 130 0 130 -177 1 -178 0 178 90 177 89 0 45 0 45 -90 0 -90 0 -240 -120 c-132 -66 -242 -120 -245 -120 -3 0 -5 54 -5 120 l0 120 -130 0 -130 0 0 -120 c0 -66 -2 -120 -5 -120 -3 0 -113 54 -245 120 l-240 120 -90 0 -90 0 0 -45z"/>
 <path d="M1963 775 c3 -11 8 -31 12 -43 6 -19 0 -30 -27 -53 l-33 -28 43 -1 c37 0 44 -3 53 -27 5 -16 12 -35 15 -43 4 -10 10 -1 18 25 11 39 13 40 61 45 l50 5 -38 24 c-30 19 -37 28 -33 45 3 11 9 32 13 46 l7 25 -37 -28 -37 -28 -36 28 c-32 24 -36 25 -31 8z"/>
 <path d="M2660 654 c16 -40 12 -52 -21 -71 l-31 -18 43 -5 c38 -4 44 -9 54 -40 l12 -35 12 38 c12 35 15 37 54 37 40 1 41 1 22 16 -11 8 -26 19 -34 23 -11 7 -12 15 -2 41 14 42 10 45 -23 19 l-28 -22 -28 22 c-37 27 -42 27 -30 -5z"/>
 <path d="M2333 399 c4 -13 10 -34 13 -46 4 -16 -2 -27 -32 -46 l-37 -26 49 -3 c47 -3 49 -4 60 -43 l12 -40 11 30 c6 17 14 36 16 43 3 7 23 12 52 12 l48 0 -39 26 c-30 20 -36 30 -32 47 3 12 9 33 13 46 l6 24 -36 -27 -37 -28 -37 28 -36 27 6 -24z"/>
 </g>
<g id="layer103" fill="#faf7f9" stroke="none">
 <path d="M2320 1386 c0 -2 7 -23 15 -47 13 -36 13 -44 2 -51 -8 -4 -25 -16 -38 -27 l-24 -20 47 -1 48 0 11 -45 c6 -25 15 -45 19 -45 4 0 13 20 19 45 l11 45 48 0 47 1 -24 20 c-13 11 -30 23 -38 27 -11 7 -11 15 2 51 8 24 15 45 15 47 0 3 -18 -8 -40 -22 l-40 -27 -40 27 c-22 14 -40 25 -40 22z m106 -50 l26 17 -7 -34 c-5 -30 -3 -36 22 -51 l28 -17 -38 -1 c-34 0 -38 -3 -43 -30 -4 -16 -10 -30 -14 -30 -4 0 -10 14 -13 30 -6 27 -10 30 -44 30 l-38 1 28 17 c25 15 27 21 22 51 l-7 34 26 -17 c24 -15 28 -15 52 0z"/>
 <path d="M0 755 l0 -45 178 -89 177 -90 -177 0 -178 -1 0 -25 0 -25 360 0 360 0 0 160 0 160 -25 0 -25 0 0 -120 c0 -66 -2 -120 -5 -120 -3 0 -113 54 -245 120 -140 70 -251 120 -267 119 -19 0 55 -42 237 -134 l265 -134 -58 0 c-54 -1 -72 7 -327 134 l-270 135 0 -45z"/>
 <path d="M880 640 l0 -160 360 0 360 0 0 25 0 25 -177 1 -178 0 178 90 c111 56 177 95 177 104 0 11 -63 -17 -210 -90 -195 -98 -214 -105 -267 -104 l-58 0 265 134 265 134 -88 0 -87 1 -240 -120 c-132 -66 -242 -120 -245 -120 -3 0 -5 54 -5 120 l0 120 -25 0 -25 0 0 -160z"/>
 <path d="M1963 775 c3 -11 8 -31 12 -43 6 -19 0 -30 -27 -53 l-33 -28 43 -1 c37 0 44 -3 53 -27 5 -16 12 -35 15 -43 4 -10 10 -1 18 25 11 39 13 40 61 45 l50 5 -38 24 c-30 19 -37 28 -33 45 3 11 9 32 13 46 l7 25 -37 -28 -37 -28 -36 28 c-32 24 -36 25 -31 8z m69 -45 c9 0 21 7 28 15 18 21 22 13 11 -18 -9 -22 -6 -29 17 -46 l27 -21 -32 6 c-28 6 -33 3 -39 -20 -8 -33 -20 -33 -28 0 -6 21 -12 25 -31 21 -30 -5 -31 0 -4 22 18 14 19 20 9 46 -11 28 -10 28 8 12 10 -9 26 -17 34 -17z"/>
 <path d="M2660 654 c16 -40 12 -52 -21 -71 l-31 -18 43 -5 c38 -4 44 -9 54 -40 l12 -35 12 38 c12 35 15 37 54 37 40 1 41 1 22 16 -11 8 -26 19 -34 23 -11 7 -12 15 -2 41 14 42 10 45 -23 19 l-28 -22 -28 22 c-37 27 -42 27 -30 -5z m77 -17 c23 15 23 15 14 -10 -8 -21 -6 -28 12 -42 l22 -16 -23 5 c-16 3 -26 -2 -36 -21 l-13 -26 -7 27 c-5 22 -11 26 -29 20 -21 -6 -21 -6 -5 13 11 12 15 27 11 43 -5 24 -5 24 12 8 16 -15 20 -15 42 -1z"/>
 <path d="M2333 399 c4 -13 10 -34 13 -46 4 -16 -2 -27 -32 -46 l-37 -26 49 -3 c47 -3 49 -4 60 -43 l12 -40 11 30 c6 17 14 36 16 43 3 7 23 12 52 12 l48 0 -39 26 c-30 20 -36 30 -32 47 3 12 9 33 13 46 l6 24 -36 -27 -37 -28 -37 28 -36 27 6 -24z m47 -31 c16 -10 24 -10 40 0 28 17 31 15 20 -13 -8 -20 -6 -27 10 -37 28 -18 25 -30 -5 -22 -20 5 -25 2 -31 -20 -8 -33 -20 -33 -28 0 -6 22 -11 25 -31 20 -30 -8 -33 4 -5 22 16 10 18 17 10 37 -11 28 -8 30 20 13z"/>
 <path d="M0 295 l0 -25 178 -1 177 0 -177 -90 c-112 -56 -178 -95 -178 -104 0 -11 63 17 210 90 195 98 214 105 267 104 l58 0 -265 -134 -265 -134 88 0 87 -1 240 120 c132 66 242 120 245 120 3 0 5 -54 5 -120 l0 -120 25 0 25 0 0 160 0 160 -360 0 -360 0 0 -25z"/>
 <path d="M880 160 l0 -160 25 0 25 0 0 120 c0 66 2 120 5 120 3 0 113 -54 245 -120 140 -70 251 -120 267 -119 19 0 -55 42 -237 134 l-265 134 58 0 c54 1 72 -7 327 -134 l270 -135 0 45 0 45 -177 89 -178 90 178 0 177 1 0 25 0 25 -360 0 -360 0 0 -160z"/>
 </g>

</svg>