<?xml version="1.0" standalone="yes"?>
<svg xmlns="http://www.w3.org/2000/svg" width="2200" height="1100">
<path style="fill:#c9112f; stroke:none;" d="M0 0L0 29C0 32.4376 -0.911262 37.5698 1.02778 40.6096C2.68499 43.2076 6.36779 44.4353 9 45.7531L26 54.2469L92 87.2469L222 152.247L262 172.247C268.874 175.684 276.452 180.978 284 182.61C292.397 184.425 302.425 183 311 183L365 183C360.66 179.404 355.032 177.269 350 174.753L324 161.753L238 118.753L80 39.7531C53.5417 26.5239 27.3026 11.3667 0 0z"/>
<path style="fill:#fefefe; stroke:none;" d="M1 0C6.35288 4.41931 13.7607 7.07104 20 10.108C28.3714 14.1829 36.6719 18.4377 45 22.6018L131 65.6018L289 144.602L339 169.602C347.54 173.872 355.943 178.916 365 182C355.037 184.945 342.369 183 332 183L301 183C295.492 183 289.399 183.71 284 182.471C275.73 180.572 267.465 174.821 260 170.889C247.503 164.307 234.64 158.289 222 151.969C171.357 126.648 120.643 101.512 70 76.1913C46.6626 64.5228 23.6347 52.0356 0 41C0 46.2428 -2.05507 56.9469 1.02778 61.3627C3.98844 65.6034 12.4819 67.9879 17 70.2469L55 89.2469L179 151.247L219 171.247C226.451 174.972 233.979 179.69 242 182C234.001 184.364 224.312 183 216 183L166 183L0 183L0 220L364 220L441 220L463 220C466.295 220 470.609 220.701 473.714 219.397C477.655 217.74 480.236 213.004 483.09 210.015C486.247 206.707 490.667 204.212 493.397 200.561C496.322 196.649 495 189.617 495 185L495 147L495 0L458 0L458 167C426.894 154.049 397.122 136.87 367 121.809C315.692 96.1545 264.311 70.6831 213 45.0309L153 15.0309C143.579 10.3204 133.271 2.90955 123 0.418213C118.601 -0.648682 113.498 0 109 0L84 0L1 0z"/>
<path style="fill:#012169; stroke:none;" d="M124 0C128.34 3.59595 133.968 5.7312 139 8.24695L165 21.2469L247 62.2469L387 132.247L433 155.247C441.084 159.289 449.3 164.494 458 167L458 0L124 0z"/>
<path style="fill:#c9112f; stroke:none;" d="M495 0L495 199C502.617 195.839 509.068 190.234 517 187.597C539.148 180.234 560.906 179.864 583 187.713C590.855 190.504 597.517 195.502 605 199L605 0L495 0z"/>
<path style="fill:#fefefe; stroke:none;" d="M605 0L605 147L605 185C605 190.16 603.866 196.619 607.318 200.911C610.048 204.305 613.913 206.825 616.911 210.004C619.962 213.24 622.65 217.785 627.001 219.397C630.304 220.62 634.538 220 638 220L661 220L738 220L1100 220L1100 183L858 183C877.24 171.77 898.071 162.717 918 152.753L1033 95.2469L1080 71.7531C1085.23 69.1392 1095.57 66.2413 1098.97 61.3627C1101.7 57.4597 1100 48.5795 1100 44L1100 0C1018.22 43.0271 934.648 82.9229 852 124.247L771 164.602L747 176.753C742.867 178.819 738.554 181.625 734 182.61C725.603 184.425 715.575 183 707 183L653 183C673.518 171.024 695.747 161.379 717 150.753L839 89.7531L955 31.7531C975.507 21.4995 995.838 9.8103 1017 1C1011.05 -1.49719 1002.42 0 996 0C990.215 0 983.676 -0.834717 978 0.390381C970.88 1.92725 964.475 6.57983 958 9.68042C942.2 17.2462 926.667 25.3577 911 33.1913C853.665 61.8588 796.306 90.4686 739 119.191L679 149.191C666.684 155.349 653.788 160.857 642 168L642 0L605 0z"/>
<path style="fill:#012169; stroke:none;" d="M642 0L642 167C653.412 163.712 664.387 156.553 675 151.247L737 120.247L894 41.7531C921.12 28.1934 948.015 12.6509 976 1C967.882 -2.40662 954.797 0 946 0L878 0L642 0z"/>
<path style="fill:#ffdd01; stroke:none;" d="M976 0L977 1L976 0z"/>
<path style="fill:#c9112f; stroke:none;" d="M653 182C656.699 183.552 661.017 183 665 183L688 183L718 183C723.161 183 728.933 183.705 734 182.61C741.548 180.978 749.126 175.684 756 172.247L800 150.247L997 51.7531L1063 18.7531C1074.91 12.7977 1086.71 6.11755 1099 1C1095.3 -0.552002 1090.98 0 1087 0L1064 0L1034 0C1028.84 0 1023.07 -0.704956 1018 0.390381C1010.45 2.02197 1002.87 7.31592 996 10.7531L952 32.7531L755 131.247L689 164.247C677.089 170.202 665.292 176.882 653 182z"/>
<path style="fill:#ffdd01; stroke:none;" d="M1100 0L1100 550L0 550L0 1100L2200 1100L2200 0L1100 0M974 1L975 2L974 1M1097 1L1098 2L1097 1M127 2L128 3L127 2M972 2L973 3L972 2M1095 2L1096 3L1095 2M129 3L130 4L129 3M970 3L971 4L970 3M1093 3L1094 4L1093 3M9 4L10 5L9 4M1091 4L1092 5L1091 4M1089 5L1090 6L1089 5M1087 6L1088 7L1087 6M962 7L963 8L962 7M1085 7L1086 8L1085 7M139 8L140 9L139 8M960 8L961 9L960 8M1083 8L1084 9L1083 8M141 9L142 10L141 9M958 9L959 10L958 9M1081 9L1082 10L1081 9M21 10L22 11L21 10M956 10L957 11L956 10M1079 10L1080 11L1079 10M1077 11L1078 12L1077 11M1075 12L1076 13L1075 12M950 13L951 14L950 13M1073 13L1074 14L1073 13M151 14L152 15L151 14M948 14L949 15L948 14M1071 14L1072 15L1071 14M153 15L154 16L153 15M946 15L947 16L946 15M1069 15L1070 16L1069 15M33 16L34 17L33 16M944 16L945 17L944 16M1067 16L1068 17L1067 16M1065 17L1066 18L1065 17M1063 18L1064 19L1063 18M938 19L939 20L938 19M1061 19L1062 20L1061 19M163 20L164 21L163 20M936 20L937 21L936 20M1059 20L1060 21L1059 20M165 21L166 22L165 21M934 21L935 22L934 21M1057 21L1058 22L1057 21M45 22L46 23L45 22M932 22L933 23L932 22M1055 22L1056 23L1055 22M1053 23L1054 24L1053 23M1051 24L1052 25L1051 24M926 25L927 26L926 25M1049 25L1050 26L1049 25M175 26L176 27L175 26M924 26L925 27L924 26M1047 26L1048 27L1047 26M177 27L178 28L177 27M922 27L923 28L922 27M1045 27L1046 28L1045 27M57 28L58 29L57 28M920 28L921 29L920 28M1043 28L1044 29L1043 28M1041 29L1042 30L1041 29M1039 30L1040 31L1039 30M914 31L915 32L914 31M1037 31L1038 32L1037 31M187 32L188 33L187 32M912 32L913 33L912 32M1035 32L1036 33L1035 32M189 33L190 34L189 33M910 33L911 34L910 33M1033 33L1034 34L1033 33M69 34L70 35L69 34M908 34L909 35L908 34M1031 34L1032 35L1031 34M1029 35L1030 36L1029 35M1027 36L1028 37L1027 36M902 37L903 38L902 37M1025 37L1026 38L1025 37M199 38L200 39L199 38M900 38L901 39L900 38M1023 38L1024 39L1023 38M201 39L202 40L201 39M898 39L899 40L898 39M1021 39L1022 40L1021 39M81 40L82 41L81 40M896 40L897 41L896 40M1019 40L1020 41L1019 40M1017 41L1018 42L1017 41M4 43L5 44L4 43M549 43C547.023 51.5449 543.466 59.5699 541.152 68C540.213 71.42 539.807 76.8256 536.581 78.9722C533.62 80.9429 528.379 80 525 80L498 80C504.507 86.2841 512.75 91.0601 520 96.4745C522.667 98.4666 527.412 100.923 528.647 104.184C529.855 107.375 527.343 111.996 526.333 115C523.449 123.569 519.852 132.141 518 141C525.995 137.201 532.894 130.96 540 125.735C542.667 123.774 546.485 119.875 550 119.875C553.531 119.875 557.292 123.779 560 125.709C567.238 130.869 574.228 136.669 582 141C579.322 128.192 574.505 115.267 570 103C581.663 97.4515 590.843 87.4184 602 81C597.785 79.2313 592.535 80 588 80L562 80C560.727 71.3787 556.829 63.3489 554.485 55C553.305 50.7952 552.626 45.7205 549 43M890 43L891 44L890 43M1013 43L1014 44L1013 43M6 44L7 45L6 44M211 44L212 45L211 44M888 44L889 45L888 44M1011 44L1012 45L1011 44M8 45L9 46L8 45M213 45L214 46L213 45M886 45L887 46L886 45M1009 45L1010 46L1009 45M10 46L11 47L10 46M93 46L94 47L93 46M884 46L885 47L884 46M1007 46L1008 47L1007 46M1005 47L1006 48L1005 47M16 49L17 50L16 49M878 49L879 50L878 49M1001 49L1002 50L1001 49M18 50L19 51L18 50M876 50L877 51L876 50M999 50L1000 51L999 50M20 51L21 52L20 51M225 51L226 52L225 51M874 51L875 52L874 51M997 51L998 52L997 51M22 52L23 53L22 52M105 52L106 53L105 52M872 52L873 53L872 52M995 52L996 53L995 52M870 53L871 54L870 53M993 53L994 54L993 53M866 55L867 56L866 55M989 55L990 56L989 55M30 56L31 57L30 56M864 56L865 57L864 56M987 56L988 57L987 56M32 57L33 58L32 57M237 57L238 58L237 57M862 57L863 58L862 57M985 57L986 58L985 57M34 58L35 59L34 58M239 58L240 59L239 58M860 58L861 59L860 58M983 58L984 59L983 58M119 59L120 60L119 59M981 59L982 60L981 59M979 60L980 61L979 60M977 61L978 62L977 61z"/>
<path style="fill:#012169; stroke:none;" d="M0 62L0 183L242 183C233.434 175.903 220.951 171.729 211 166.753L151 136.753L51 86.7531L19 70.7531C12.8187 67.6624 6.65665 63.9176 0 62z"/>
<path style="fill:#ffdd01; stroke:none;" d="M42 62L43 63L42 62M852 62L853 63L852 62M975 62L976 63L975 62z"/>
<path style="fill:#012169; stroke:none;" d="M858 182C864.194 184.599 873.314 183 880 183L929 183L1100 183L1100 62C1091.3 64.5063 1083.08 69.7108 1075 73.7531L1031 95.7531L918 152.247C898.154 162.17 878.48 173.473 858 182z"/>
<path style="fill:#ffdd01; stroke:none;" d="M44 63L45 64L44 63M249 63L250 64L249 63M850 63L851 64L850 63M973 63L974 64L973 63M46 64L47 65L46 64M251 64L252 65L251 64M848 64L849 65L848 64M971 64L972 65L971 64M48 65L49 66L48 65M131 65L132 66L131 65M846 65L847 66L846 65M969 65L970 66L969 65M967 66L968 67L967 66M965 67L966 68L965 67M54 68L55 69L54 68M840 68L841 69L840 68M963 68L964 69L963 68M56 69L57 70L56 69M261 69L262 70L261 69M838 69L839 70L838 69M961 69L962 70L961 69M58 70L59 71L58 70M263 70L264 71L263 70M836 70L837 71L836 70M959 70L960 71L959 70M60 71L61 72L60 71M143 71L144 72L143 71M834 71L835 72L834 71M957 71L958 72L957 71M955 72L956 73L955 72M953 73L954 74L953 73M66 74L67 75L66 74M828 74L829 75L828 74M951 74L952 75L951 74M68 75L69 76L68 75M273 75L274 76L273 75M826 75L827 76L826 75M949 75L950 76L949 75M70 76L71 77L70 76M275 76L276 77L275 76M824 76L825 77L824 76M947 76L948 77L947 76M72 77L73 78L72 77M155 77L156 78L155 77M822 77L823 78L822 77M945 77L946 78L945 77M943 78L944 79L943 78M941 79L942 80L941 79M78 80L79 81L78 80M816 80L817 81L816 80M939 80L940 81L939 80M80 81L81 82L80 81M285 81L286 82L285 81M814 81L815 82L814 81M937 81L938 82L937 81M82 82L83 83L82 82M287 82L288 83L287 82M812 82L813 83L812 82M935 82L936 83L935 82M84 83L85 84L84 83M167 83L168 84L167 83M810 83L811 84L810 83M933 83L934 84L933 83M931 84L932 85L931 84M929 85L930 86L929 85M90 86L91 87L90 86M804 86L805 87L804 86M927 86L928 87L927 86M92 87L93 88L92 87M297 87L298 88L297 87M802 87L803 88L802 87M925 87L926 88L925 87M94 88L95 89L94 88M299 88L300 89L299 88M800 88L801 89L800 88M923 88L924 89L923 88M96 89L97 90L96 89M179 89L180 90L179 89M798 89L799 90L798 89M921 89L922 90L921 89M919 90L920 91L919 90M917 91L918 92L917 91M102 92L103 93L102 92M792 92L793 93L792 92M915 92L916 93L915 92M104 93L105 94L104 93M309 93L310 94L309 93M790 93L791 94L790 93M913 93L914 94L913 93M106 94L107 95L106 94M311 94L312 95L311 94M788 94L789 95L788 94M911 94L912 95L911 94M108 95L109 96L108 95M191 95L192 96L191 95M786 95L787 96L786 95M909 95L910 96L909 95M907 96L908 97L907 96M114 98L115 99L114 98M780 98L781 99L780 98M903 98L904 99L903 98M116 99L117 100L116 99M321 99L322 100L321 99M778 99L779 100L778 99M901 99L902 100L901 99M118 100L119 101L118 100M323 100L324 101L323 100M776 100L777 101L776 100M899 100L900 101L899 100M120 101L121 102L120 101M203 101L204 102L203 101M774 101L775 102L774 101M897 101L898 102L897 101M895 102L896 103L895 102M126 104L127 105L126 104M768 104L769 105L768 104M891 104L892 105L891 104M128 105L129 106L128 105M766 105L767 106L766 105M889 105L890 106L889 105M130 106L131 107L130 106M335 106L336 107L335 106M764 106L765 107L764 106M887 106L888 107L887 106M132 107L133 108L132 107M215 107L216 108L215 107M762 107L763 108L762 107M885 107L886 108L885 107M760 108L761 109L760 108M883 108L884 109L883 108M756 110L757 111L756 110M879 110L880 111L879 110M140 111L141 112L140 111M754 111L755 112L754 111M877 111L878 112L877 111M142 112L143 113L142 112M347 112L348 113L347 112M752 112L753 113L752 112M875 112L876 113L875 112M144 113L145 114L144 113M349 113L350 114L349 113M750 113L751 114L750 113M873 113L874 114L873 113M229 114L230 115L229 114M871 114L872 115L871 114M869 115L870 116L869 115M867 116L868 117L867 116M152 117L153 118L152 117M742 117L743 118L742 117M865 117L866 118L865 117M154 118L155 119L154 118M359 118L360 119L359 118M740 118L741 119L740 118M863 118L864 119L863 118M156 119L157 120L156 119M361 119L362 120L361 119M738 119L739 120L738 119M861 119L862 120L861 119M158 120L159 121L158 120M241 120L242 121L241 120M736 120L737 121L736 120M859 120L860 121L859 120M857 121L858 122L857 121M855 122L856 123L855 122M164 123L165 124L164 123M730 123L731 124L730 123M853 123L854 124L853 123M166 124L167 125L166 124M371 124L372 125L371 124M728 124L729 125L728 124M851 124L852 125L851 124M168 125L169 126L168 125M373 125L374 126L373 125M726 125L727 126L726 125M849 125L850 126L849 125M170 126L171 127L170 126M253 126L254 127L253 126M724 126L725 127L724 126M847 126L848 127L847 126M845 127L846 128L845 127M843 128L844 129L843 128M176 129L177 130L176 129M718 129L719 130L718 129M841 129L842 130L841 129M178 130L179 131L178 130M383 130L384 131L383 130M716 130L717 131L716 130M839 130L840 131L839 130M180 131L181 132L180 131M385 131L386 132L385 131M714 131L715 132L714 131M837 131L838 132L837 131M182 132L183 133L182 132M265 132L266 133L265 132M712 132L713 133L712 132M835 132L836 133L835 132M833 133L834 134L833 133M831 134L832 135L831 134M188 135L189 136L188 135M706 135L707 136L706 135M829 135L830 136L829 135M190 136L191 137L190 136M395 136L396 137L395 136M704 136L705 137L704 136M827 136L828 137L827 136M192 137L193 138L192 137M397 137L398 138L397 137M702 137L703 138L702 137M825 137L826 138L825 137M194 138L195 139L194 138M277 138L278 139L277 138M700 138L701 139L700 138M823 138L824 139L823 138M821 139L822 140L821 139M819 140L820 141L819 140M200 141L201 142L200 141M694 141L695 142L694 141M817 141L818 142L817 141M202 142L203 143L202 142M407 142L408 143L407 142M692 142L693 143L692 142M815 142L816 143L815 142M204 143L205 144L204 143M409 143L410 144L409 143M690 143L691 144L690 143M813 143L814 144L813 143M206 144L207 145L206 144M289 144L290 145L289 144M688 144L689 145L688 144M811 144L812 145L811 144M809 145L810 146L809 145M807 146L808 147L807 146M212 147L213 148L212 147M682 147L683 148L682 147M805 147L806 148L805 147M214 148L215 149L214 148M419 148L420 149L419 148M680 148L681 149L680 148M803 148L804 149L803 148M216 149L217 150L216 149M421 149L422 150L421 149M678 149L679 150L678 149M801 149L802 150L801 149M218 150L219 151L218 150M301 150L302 151L301 150M676 150L677 151L676 150M799 150L800 151L799 150M797 151L798 152L797 151M224 153L225 154L224 153M670 153L671 154L670 153M793 153L794 154L793 153M226 154L227 155L226 154M431 154L432 155L431 154M668 154L669 155L668 154M791 154L792 155L791 154M228 155L229 156L228 155M433 155L434 156L433 155M666 155L667 156L666 155M789 155L790 156L789 155M230 156L231 157L230 156M313 156L314 157L313 156M664 156L665 157L664 156M787 156L788 157L787 156M785 157L786 158L785 157M236 159L237 160L236 159M658 159L659 160L658 159M781 159L782 160L781 159M238 160L239 161L238 160M656 160L657 161L656 160M779 160L780 161L779 160M240 161L241 162L240 161M445 161L446 162L445 161M654 161L655 162L654 161M777 161L778 162L777 161M242 162L243 163L242 162M325 162L326 163L325 162M652 162L653 163L652 162M775 162L776 163L775 162M650 163L651 164L650 163M773 163L774 164L773 163M646 165L647 166L646 165M769 165L770 166L769 165M250 166L251 167L250 166M644 166L645 167L644 166M767 166L768 167L767 166M252 167L253 168L252 167M642 167L643 168L642 167M765 167L766 168L765 167M254 168L255 169L254 168M763 168L764 169L763 168M339 169L340 170L339 169M761 169L762 170L761 169M759 170L760 171L759 170M757 171L758 172L757 171M262 172L263 173L262 172M755 172L756 173L755 172M264 173L265 174L264 173M753 173L754 174L753 173M266 174L267 175L266 174M751 174L752 175L751 174M268 175L269 176L268 175M351 175L352 176L351 175M749 175L750 176L749 175M747 176L748 177L747 176M745 177L746 178L745 177M274 178L275 179L274 178M743 178L744 179L743 178M276 179L277 180L276 179M741 179L742 180L741 179M278 180L279 181L278 180M739 180L740 181L739 180M280 181L281 182L280 181M363 181L364 182L363 181z"/>
<path style="fill:#012169; stroke:none;" d="M462 246L510 246C514.622 246 524.451 247.857 528.298 244.972C532.445 241.862 533.678 231.739 535.194 227C539.832 212.507 543.578 196.795 550 183C556.383 196.711 560.574 212.503 564.856 227C566.249 231.717 567.598 241.894 571.702 244.972C575.548 247.857 585.378 246 590 246L639 246C636.655 236.129 631.13 227.047 625.105 219C595.118 178.955 536.825 169.785 496 198.59C484.353 206.808 473.833 218.301 467.258 231C464.719 235.904 462.29 240.413 462 246z"/>
<path style="fill:#ffdd01; stroke:none;" d="M737 181L738 182L737 181M735 182L736 183L735 182M549 183C545.837 198.281 539.028 212.982 534.728 228C533.394 232.661 531.924 242.175 527.606 244.972C523.281 247.774 513.988 246 509 246L462 246C470.814 255.93 484.209 263.306 495 271C501.692 275.772 508.288 282.033 516 285C510.932 306.907 499.331 327.76 496 350C509.157 341.879 521.488 331.935 534 322.848C538.07 319.892 544.716 312.462 550 312.455C555.115 312.449 561.063 319.183 565 321.964C578.163 331.262 591.361 344.304 606 351C598.943 335.9 593.749 318.115 589.522 302C588.387 297.671 583.675 290.538 585.929 286.171C588.448 281.289 595.674 277.946 600 274.859C607.405 269.574 614.602 264.006 622 258.71C627.478 254.789 633.726 251.25 638 246L589 246C584.474 246 575.244 247.751 571.702 244.397C568.574 241.434 567.655 234.965 566.333 231C562.676 220.028 559.323 208.97 555.667 198C554.081 193.243 553.118 186.092 549 183z"/>
<path style="fill:#c9112f; stroke:none;" d="M547.333 188.667C547.278 188.722 547.222 189.778 547.667 189.333C547.722 189.278 547.778 188.222 547.333 188.667M552 188L553 189L552 188M546 192L547 193L546 192z"/>
<path style="fill:#ffdd01; stroke:none;" d="M605 199L606 200L605 199M606 200L607 201L606 200M611 204L612 205L611 204M487 205L488 206L487 205M612 205L613 206L612 205M486 206L487 207L486 206M485 207L486 208L485 207M484 208L485 209L484 208M483 209L484 210L483 209M482 210L483 211L482 210M481 211L482 212L481 211M480 212L481 213L480 212z"/>
<path style="fill:#c9112f; stroke:none;" d="M560.333 212.667C560.278 212.722 560.222 213.778 560.667 213.333C560.722 213.278 560.778 212.222 560.333 212.667z"/>
<path style="fill:#ffdd01; stroke:none;" d="M475 218L476 219L475 218M624 218L625 219L624 218M625 219L626 220L625 219z"/>
<path style="fill:#c9112f; stroke:none;" d="M0 220L0 330L474 330C470.633 322.881 465.734 316.425 462.951 309C454.654 286.862 455.325 264.205 462.619 241.985C465.229 234.034 470.81 227.585 474 220L0 220M626 220C630.107 228.681 638.006 236.91 638 247C642.139 252.056 642.397 260.667 643.155 267C644.621 279.242 643.164 293.384 638.68 305C635.255 313.871 630.019 321.505 626 330L1100 330L1100 220L626 220M563 222L564 223L563 222M564 225L565 226L564 225z"/>
<path style="fill:#ffdd01; stroke:none;" d="M228 227C226.5 235.822 222.887 244.545 220.003 253C218.865 256.337 218.042 261.005 214.775 262.972C211.829 264.747 207.288 264 204 264L179 264C185.481 272.399 199.22 281.886 209 286C206.059 298.712 201.499 311.753 197 324C204.943 320.659 212.007 314.296 219 309.29C221.787 307.295 225.396 303.452 229 303.242C232.667 303.027 236.262 307 239 308.989C246.091 314.142 253.06 320.227 261 324C259.701 315.207 255.869 306.505 253.279 298C252.384 295.061 250.072 291.177 250.813 288.04C251.672 284.409 256.212 282.14 259 280.14L280 265C272.6 261.895 261.008 264.001 253 264C249.786 264 245.143 264.769 242.56 262.397C240.618 260.613 239.925 257.389 239.047 255C236.175 247.186 234.906 232.081 228 227M870 227C866.77 239.08 860.087 251.551 859 264L820 264C825.677 270.392 834.057 275.154 841 280.14C843.674 282.061 848.299 284.31 849.454 287.616C850.435 290.422 848.054 294.342 847.275 297C844.624 306.034 840.904 314.756 839 324C846.92 320.652 854.12 314.022 861 308.873C863.723 306.836 867.329 303.06 871 303.216C874.711 303.374 878.189 307.199 881 309.265C887.903 314.34 895.089 320.672 903 324C899.39 311.279 894.04 298.829 891 286C902.455 281.594 913.025 271.144 923 264C919.014 263.043 914.17 264 910 264L883 264C882.101 255.029 877.979 244.471 874.807 236C873.563 232.678 872.882 229.164 870 227z"/>
<path style="fill:#c9112f; stroke:none;" d="M534 229L535 230L534 229M532 235L533 236L532 235M530 241L531 242L530 241z"/>
<path style="fill:#012169; stroke:none;" d="M460 247C459.75 252.477 457.717 257.56 457.171 263C455.577 278.861 457.322 294.981 462.951 310C475.929 344.625 513.843 370.408 551 368.96C570.645 368.194 587.019 361.073 604 352C601.382 346.643 595.728 343.599 591 340.151L563 319.849C559.45 317.26 553.821 311.214 549 312.132C543.488 313.182 537.445 319.608 533 322.849C520.715 331.807 507.565 340.136 496 350C499.012 327.649 512.704 307.318 516 285C502.054 278.055 489.68 266.331 477 257.291C471.7 253.512 466.421 248.522 460 247M605 350C612.71 346.563 618.713 339.604 623.764 333C636.451 316.413 644.468 295.095 643.985 274C643.776 264.852 641.165 256.018 640 247C633.809 248.468 629.052 253.163 624 256.849C615.363 263.149 606.596 269.271 598 275.629C594.294 278.37 586.031 282.183 585.071 287.09C584.155 291.77 588.275 298.506 589.536 303C593.882 318.479 598.652 335.249 605 350z"/>
<path style="fill:#c9112f; stroke:none;" d="M464 248L465 249L464 248M468 251L469 252L468 251M627 254L628 255L627 254M623 257L624 258L623 257M620 259L621 260L620 259M616 262L617 263L616 262M609 267L610 268L609 267M494 270L495 271L494 270M497 272L498 273L497 272M501 275L502 276L501 275M594 278L595 279L594 278M508 280L509 281L508 280M591 280L592 281L591 280M512 283L513 284L512 283M584 287L585 288L584 287M586 293L587 294L586 293M512 296L513 297L512 296M591.333 308.667C591.278 308.722 591.222 309.778 591.667 309.333C591.722 309.278 591.778 308.222 591.333 308.667M507 312L508 313L507 312M547 312L548 313L547 312M552 312L553 313L552 312M543 315L544 316L543 315M559 317L560 318L559 317M505 318L506 319L505 318M596.333 323.667C596.278 323.722 596.222 324.778 596.667 324.333C596.722 324.278 596.778 323.222 596.333 323.667M570 325L571 326L570 325M597 327L598 328L597 327M525 328L526 329L525 328M574 328L575 329L574 328z"/>
<path style="fill:#fefefe; stroke:none;" d="M0 330L0 367L243 367C227.943 375.755 211.578 382.581 196 390.37C152.963 411.889 110.039 433.672 67 455.191C51.3358 463.023 35.5299 470.582 20 478.681C14.8088 481.388 4.55209 483.939 1.02778 488.699C-1.73245 492.427 0 501.55 0 506L0 550C30.0316 537.497 58.8967 520.799 88 506.247L261 419.753L333 383.753C343.495 378.506 355.512 369.874 367 367.39C375.397 365.575 385.425 367 394 367L447 367C439.383 372.423 430.351 376.071 422 380.247L378 402.247L242 470.247L136 523.247L102 540.247C95.8186 543.338 89.6567 547.082 83 549C88.951 551.497 97.5798 550 104 550C110.094 550 117.022 550.902 123 549.61C131.206 547.836 139.521 541.986 147 538.247L193 515.247L368 427.753C397.765 412.871 427.286 395.787 458 383L458 550L495 550L495 403L495 365C495 359.84 496.134 353.381 492.682 349.089C489.668 345.342 485.391 342.525 482.09 338.999C479.346 336.069 476.914 332.065 472.996 330.603C469.701 329.374 465.456 330 462 330L439 330L362 330L0 330z"/>
<path style="fill:#ffdd01; stroke:none;" d="M474 330L475 331L474 330M625 330L626 331L625 330z"/>
<path style="fill:#fefefe; stroke:none;" d="M605 550L642 550L642 383C669.985 394.651 696.88 410.193 724 423.753L883 503.247L945 534.247C954.862 539.178 965.384 546.35 976 549.363C980.401 550.612 985.471 550 990 550L1015 550L1099 550C1086.96 540.889 1070.51 535.386 1057 528.63L959 479.63L813 406.63C787.191 393.717 761.711 378.959 735 368C741.012 366.223 747.761 367 754 367L789 367C797.443 367 807.826 365.382 816 367.634C824.64 370.015 833.089 375.555 841 379.681C853.513 386.206 866.254 392.622 879 398.68C930.429 423.125 981.065 449.502 1032 474.969C1054.57 486.252 1076.83 499.02 1100 509C1100 503.813 1102.07 492.989 1098.97 488.649C1095.92 484.368 1086.67 481.742 1082 479.514C1069.26 473.432 1056.51 467.05 1044 460.514C1004.05 439.64 963.313 420.187 923 400.031C901.562 389.312 880.362 376.676 858 368C865.999 365.636 875.688 367 884 367L934 367L1100 367L1100 330L734 330L660 330L638 330C634.577 330 630.293 329.349 627.039 330.603C623.646 331.912 621.391 335.465 618.961 338C615.135 341.991 609.694 345.529 606.603 350.089C603.757 354.289 605 361.169 605 366L605 404L605 550z"/>
<path style="fill:#ffdd01; stroke:none;" d="M475 331L476 332L475 331z"/>
<path style="fill:#c9112f; stroke:none;" d="M521 331L522 332L521 331M500 333L501 334L500 333z"/>
<path style="fill:#ffdd01; stroke:none;" d="M622 334L623 335L622 334M621 335L622 336L621 335M479 336L480 337L479 336M480 337L481 338L480 337z"/>
<path style="fill:#c9112f; stroke:none;" d="M498 339L498 342C498.696 340.446 498.696 340.554 498 339M510 339L511 340L510 339M497.333 342.667C497.278 342.722 497.222 343.778 497.667 343.333C497.722 343.278 497.778 342.222 497.333 342.667z"/>
<path style="fill:#ffdd01; stroke:none;" d="M488 345L489 346L488 345z"/>
<path style="fill:#c9112f; stroke:none;" d="M496 346L497 347L496 346M599 346L600 347L599 346z"/>
<path style="fill:#ffdd01; stroke:none;" d="M610 346L611 347L610 346M493 349L494 350L493 349M494 350L495 351L494 350z"/>
<path style="fill:#c9112f; stroke:none;" d="M495 351L495 550L605 550L605 351C598.147 354.204 592.107 358.764 585 361.536C564.299 369.61 542.18 370.9 521 363.91C511.56 360.795 503.866 355.145 495 351z"/>
<path style="fill:#012169; stroke:none;" d="M0 367L0 488C8.70044 485.494 16.9157 480.289 25 476.247L69 454.247L182 397.753C201.846 387.83 221.52 376.527 242 368C235.564 365.299 225.951 367 219 367L170 367L0 367z"/>
<path style="fill:#ffdd01; stroke:none;" d="M242 367L243 368L242 367z"/>
<path style="fill:#c9112f; stroke:none;" d="M1 549C4.69861 550.552 9.01721 550 13 550L36 550L66 550C71.1612 550 76.9329 550.705 82 549.61C89.5477 547.978 97.1256 542.684 104 539.247L150 516.247L347 417.753C380.071 401.218 412.875 382.208 447 368C443.301 366.448 438.983 367 435 367L412 367L382 367C376.839 367 371.067 366.295 366 367.39C357.195 369.294 347.939 375.652 340 379.833C326.179 387.113 311.976 393.765 298 400.753L101 499.247L35 532.247C23.7826 537.856 12.664 544.404 1 549M735 367C739.34 370.596 744.968 372.731 750 375.247L776 388.247L862 431.247L1020 510.247C1046.46 523.476 1072.7 538.633 1100 550L1100 521C1100 517.562 1100.91 512.43 1098.97 509.39C1097.32 506.793 1093.63 505.565 1091 504.247L1074 495.753L1008 462.753L878 397.753L838 377.753C831.126 374.316 823.548 369.022 816 367.39C807.603 365.575 797.575 367 789 367L735 367z"/>
<path style="fill:#012169; stroke:none;" d="M858 367C866.566 374.097 879.049 378.271 889 383.247L949 413.247L1049 463.247L1081 479.247C1087.18 482.338 1093.34 486.082 1100 488L1100 367L858 367z"/>
<path style="fill:#ffdd01; stroke:none;" d="M240 368L241 369L240 368M445 368L446 369L445 368M736 368L737 369L736 368M859 368L860 369L859 368M238 369L239 370L238 369M443 369L444 370L443 369M738 369L739 370L738 369M861 369L862 370L861 369M236 370L237 371L236 370M441 370L442 371L441 370M740 370L741 371L740 370M823 370L824 371L823 370M439 371L440 372L439 371M825 371L826 372L825 371M437 372L438 373L437 372M230 373L231 374L230 373M435 373L436 374L435 373M228 374L229 375L228 374M433 374L434 375L433 374M748 374L749 375L748 374M871 374L872 375L871 374M226 375L227 376L226 375M431 375L432 376L431 375M750 375L751 376L750 375M873 375L874 376L873 375M224 376L225 377L224 376M429 376L430 377L429 376M752 376L753 377L752 376M835 376L836 377L835 376M427 377L428 378L427 377M837 377L838 378L837 377M425 378L426 379L425 378M218 379L219 380L218 379M423 379L424 380L423 379M216 380L217 381L216 380M421 380L422 381L421 380M760 380L761 381L760 380M214 381L215 382L214 381M337 381L338 382L337 381M419 381L420 382L419 381M762 381L763 382L762 381M885 381L886 382L885 381M212 382L213 383L212 382M417 382L418 383L417 382M764 382L765 383L764 382M847 382L848 383L847 382M210 383L211 384L210 383M415 383L416 384L415 383z"/>
<path style="fill:#012169; stroke:none;" d="M124 549C132.118 552.407 145.203 550 154 550L222 550L458 550L458 383C446.588 386.288 435.613 393.447 425 398.753L363 429.753L206 508.247C178.88 521.807 151.985 537.349 124 549M642 383L642 550L976 550C971.66 546.404 966.032 544.269 961 541.753L935 528.753L853 487.753L713 417.753L667 394.753C658.916 390.711 650.701 385.506 642 383z"/>
<path style="fill:#ffdd01; stroke:none;" d="M849 383L850 384L849 383M413 384L414 385L413 384M206 385L207 386L206 385M411 385L412 386L411 385M204 386L205 387L204 386M409 386L410 387L409 386M772 386L773 387L772 386M202 387L203 388L202 387M407 387L408 388L407 387M774 387L775 388L774 387M897 387L898 388L897 387M200 388L201 389L200 388M405 388L406 389L405 388M776 388L777 389L776 388M859 388L860 389L859 388M899 388L900 389L899 388M403 389L404 390L403 389M861 389L862 390L861 389M401 390L402 391L401 390M399 391L400 392L399 391M192 392L193 393L192 392M397 392L398 393L397 392M784 392L785 393L784 392M190 393L191 394L190 393M395 393L396 394L395 393M786 393L787 394L786 393M909 393L910 394L909 393M188 394L189 395L188 394M393 394L394 395L393 394M788 394L789 395L788 394M871 394L872 395L871 394M911 394L912 395L911 394M186 395L187 396L186 395M391 395L392 396L391 395M873 395L874 396L873 395M389 396L390 397L389 396M387 397L388 398L387 397M180 398L181 399L180 398M385 398L386 399L385 398M178 399L179 400L178 399M383 399L384 400L383 399M798 399L799 400L798 399M921 399L922 400L921 399M176 400L177 401L176 400M381 400L382 401L381 400M800 400L801 401L800 400M883 400L884 401L883 400M923 400L924 401L923 400M174 401L175 402L174 401M379 401L380 402L379 401M885 401L886 402L885 401M377 402L378 403L377 402M887 402L888 403L887 402M375 403L376 404L375 403M168 404L169 405L168 404M373 404L374 405L373 404M166 405L167 406L166 405M371 405L372 406L371 405M810 405L811 406L810 405M933 405L934 406L933 405M164 406L165 407L164 406M369 406L370 407L369 406M812 406L813 407L812 406M935 406L936 407L935 406M162 407L163 408L162 407M367 407L368 408L367 407M814 407L815 408L814 407M897 407L898 408L897 407M365 408L366 409L365 408M899 408L900 409L899 408M363 409L364 410L363 409M156 410L157 411L156 410M361 410L362 411L361 410M549 410C545.802 422.33 539.86 434.404 538 447L499 447C504.513 453.21 512.293 457.582 519 462.424C521.881 464.505 526.396 466.877 528.021 470.174C529.723 473.628 527.03 478.74 525.807 482C522.708 490.261 519.99 499.397 518 508C525.798 503.557 532.735 497.547 540 492.293C542.736 490.315 546.4 486.455 550 486.455C553.61 486.455 557.248 490.321 560 492.29C566.979 497.285 573.941 503.945 582 507C580.012 498.612 577.023 490.139 574.142 482C573.045 478.902 570.493 474.454 571.546 471.093C572.626 467.643 577.25 465.388 580 463.421C586.984 458.427 595.563 453.678 601 447L562 447C560.15 434.475 554.333 422.218 551 410L549 410M154 411L155 412L154 411M359 411L360 412L359 411M822 411L823 412L822 411M945 411L946 412L945 411M152 412L153 413L152 412M357 412L358 413L357 412M824 412L825 413L824 412M947 412L948 413L947 412M150 413L151 414L150 413M355 413L356 414L355 413M826 413L827 414L826 413M909 413L910 414L909 413M353 414L354 415L353 414M911 414L912 415L911 414M351 415L352 416L351 415M144 416L145 417L144 416M349 416L350 417L349 416M142 417L143 418L142 417M347 417L348 418L347 417M834 417L835 418L834 417M957 417L958 418L957 417M140 418L141 419L140 418M345 418L346 419L345 418M836 418L837 419L836 418M959 418L960 419L959 418M138 419L139 420L138 419M343 419L344 420L343 419M838 419L839 420L838 419M921 419L922 420L921 419M341 420L342 421L341 420M923 420L924 421L923 420M339 421L340 422L339 421M132 422L133 423L132 422M337 422L338 423L337 422M130 423L131 424L130 423M335 423L336 424L335 423M846 423L847 424L846 423M969 423L970 424L969 423M128 424L129 425L128 424M333 424L334 425L333 424M848 424L849 425L848 424M971 424L972 425L971 424M126 425L127 426L126 425M331 425L332 426L331 425M850 425L851 426L850 425M933 425L934 426L933 425M329 426L330 427L329 426M935 426L936 427L935 426M327 427L328 428L327 427M120 428L121 429L120 428M325 428L326 429L325 428M118 429L119 430L118 429M323 429L324 430L323 429M858 429L859 430L858 429M981 429L982 430L981 429M116 430L117 431L116 430M321 430L322 431L321 430M860 430L861 431L860 430M983 430L984 431L983 430M114 431L115 432L114 431M319 431L320 432L319 431M862 431L863 432L862 431M945 431L946 432L945 431M317 432L318 433L317 432M947 432L948 433L947 432M315 433L316 434L315 433M108 434L109 435L108 434M313 434L314 435L313 434M106 435L107 436L106 435M311 435L312 436L311 435M870 435L871 436L870 435M104 436L105 437L104 436M227 436L228 437L227 436M309 436L310 437L309 436M872 436L873 437L872 436M995 436L996 437L995 436M102 437L103 438L102 437M307 437L308 438L307 437M874 437L875 438L874 437M957 437L958 438L957 437M100 438L101 439L100 438M305 438L306 439L305 438M959 438L960 439L959 438M303 439L304 440L303 439M96 440L97 441L96 440M301 440L302 441L301 440M94 441L95 442L94 441M299 441L300 442L299 441M882 441L883 442L882 441M92 442L93 443L92 442M297 442L298 443L297 442M884 442L885 443L884 442M1007 442L1008 443L1007 442M90 443L91 444L90 443M295 443L296 444L295 443M886 443L887 444L886 443M969 443L970 444L969 443M1009 443L1010 444L1009 443M293 444L294 445L293 444M971 444L972 445L971 444M291 445L292 446L291 445M289 446L290 447L289 446M82 447L83 448L82 447M287 447L288 448L287 447M894 447L895 448L894 447M80 448L81 449L80 448M285 448L286 449L285 448M896 448L897 449L896 448M1019 448L1020 449L1019 448M78 449L79 450L78 449M283 449L284 450L283 449M898 449L899 450L898 449M981 449L982 450L981 449M1021 449L1022 450L1021 449M76 450L77 451L76 450M281 450L282 451L281 450M983 450L984 451L983 450M279 451L280 452L279 451M277 452L278 453L277 452M70 453L71 454L70 453M275 453L276 454L275 453M68 454L69 455L68 454M273 454L274 455L273 454M908 454L909 455L908 454M1031 454L1032 455L1031 454M66 455L67 456L66 455M271 455L272 456L271 455M910 455L911 456L910 455M993 455L994 456L993 455M1033 455L1034 456L1033 455M64 456L65 457L64 456M269 456L270 457L269 456M995 456L996 457L995 456M267 457L268 458L267 457M997 457L998 458L997 457M265 458L266 459L265 458M58 459L59 460L58 459M263 459L264 460L263 459M56 460L57 461L56 460M261 460L262 461L261 460M920 460L921 461L920 460M1043 460L1044 461L1043 460M54 461L55 462L54 461M259 461L260 462L259 461M922 461L923 462L922 461M1045 461L1046 462L1045 461M52 462L53 463L52 462M257 462L258 463L257 462M924 462L925 463L924 462M1007 462L1008 463L1007 462M255 463L256 464L255 463M1009 463L1010 464L1009 463M253 464L254 465L253 464M46 465L47 466L46 465M251 465L252 466L251 465M44 466L45 467L44 466M249 466L250 467L249 466M932 466L933 467L932 466M1055 466L1056 467L1055 466M42 467L43 468L42 467M247 467L248 468L247 467M934 467L935 468L934 467M1057 467L1058 468L1057 467M40 468L41 469L40 468M245 468L246 469L245 468M936 468L937 469L936 468M1019 468L1020 469L1019 468M243 469L244 470L243 469M1021 469L1022 470L1021 469M241 470L242 471L241 470M34 471L35 472L34 471M239 471L240 472L239 471M32 472L33 473L32 472M237 472L238 473L237 472M944 472L945 473L944 472M1067 472L1068 473L1067 472M30 473L31 474L30 473M235 473L236 474L235 473M946 473L947 474L946 473M1069 473L1070 474L1069 473M28 474L29 475L28 474M233 474L234 475L233 474M948 474L949 475L948 474M1031 474L1032 475L1031 474M231 475L232 476L231 475M1033 475L1034 476L1033 475M229 476L230 477L229 476M22 477L23 478L22 477M227 477L228 478L227 477M20 478L21 479L20 478M225 478L226 479L225 478M956 478L957 479L956 478M1079 478L1080 479L1079 478M18 479L19 480L18 479M223 479L224 480L223 479M958 479L959 480L958 479M1081 479L1082 480L1081 479M16 480L17 481L16 480M221 480L222 481L221 480M960 480L961 481L960 480M1043 480L1044 481L1043 480M219 481L220 482L219 481M1045 481L1046 482L1045 481M217 482L218 483L217 482M10 483L11 484L10 483M215 483L216 484L215 483M8 484L9 485L8 484M213 484L214 485L213 484M968 484L969 485L968 484M1091 484L1092 485L1091 484M6 485L7 486L6 485M211 485L212 486L211 485M970 485L971 486L970 485M1093 485L1094 486L1093 485M4 486L5 487L4 486M209 486L210 487L209 486M972 486L973 487L972 486M1055 486L1056 487L1055 486M207 487L208 488L207 487M1057 487L1058 488L1057 487M205 488L206 489L205 488M203 489L204 490L203 489M201 490L202 491L201 490M980 490L981 491L980 490M117 491L118 492L117 491M199 491L200 492L199 491M982 491L983 492L982 491M197 492L198 493L197 492M984 492L985 493L984 492M1067 492L1068 493L1067 492M195 493L196 494L195 493M1069 493L1070 494L1069 493M193 494L194 495L193 494M191 495L192 496L191 495M189 496L190 497L189 496M992 496L993 497L992 496M187 497L188 498L187 497M994 497L995 498L994 497M185 498L186 499L185 498M996 498L997 499L996 498M1079 498L1080 499L1079 498M183 499L184 500L183 499M1081 499L1082 500L1081 499M181 500L182 501L181 500M179 501L180 502L179 501M177 502L178 503L177 502M1004 502L1005 503L1004 502M175 503L176 504L175 503M1006 503L1007 504L1006 503M173 504L174 505L173 504M1008 504L1009 505L1008 504M1091 504L1092 505L1091 504M171 505L172 506L171 505M1093 505L1094 506L1093 505M169 506L170 507L169 506M167 507L168 508L167 507M165 508L166 509L165 508M163 509L164 510L163 509M1018 509L1019 510L1018 509M161 510L162 511L161 510M1020 510L1021 511L1020 510M159 511L160 512L159 511M157 512L158 513L157 512M155 513L156 514L155 513M153 514L154 515L153 514M151 515L152 516L151 515M1030 515L1031 516L1030 515M149 516L150 517L149 516M1032 516L1033 517L1032 516M147 517L148 518L147 517M1034 517L1035 518L1034 517M145 518L146 519L145 518M143 519L144 520L143 519M141 520L142 521L141 520M139 521L140 522L139 521M1042 521L1043 522L1042 521M137 522L138 523L137 522M1044 522L1045 523L1044 522M135 523L136 524L135 523M1046 523L1047 524L1046 523M133 524L134 525L133 524M131 525L132 526L131 525M129 526L130 527L129 526M127 527L128 528L127 527M1054 527L1055 528L1054 527M125 528L126 529L125 528M1056 528L1057 529L1056 528M123 529L124 530L123 529M1058 529L1059 530L1058 529M121 530L122 531L121 530M119 531L120 532L119 531M117 532L118 533L117 532M115 533L116 534L115 533M1066 533L1067 534L1066 533M113 534L114 535L113 534M1068 534L1069 535L1068 534M111 535L112 536L111 535M1070 535L1071 536L1070 535M109 536L110 537L109 536M107 537L108 538L107 537M105 538L106 539L105 538M103 539L104 540L103 539M1078 539L1079 540L1078 539M101 540L102 541L101 540M1080 540L1081 541L1080 540M99 541L100 542L99 541M1082 541L1083 542L1082 541M97 542L98 543L97 542M95 543L96 544L95 543M93 544L94 545L93 544M91 545L92 546L91 545M1090 545L1091 546L1090 545M7 546L8 547L7 546M89 546L90 547L89 546M1092 546L1093 547L1092 546M87 547L88 548L87 547M1094 547L1095 548L1094 547M85 548L86 549L85 548z"/>
</svg>
