<?xml version="1.0" encoding="utf-8"?>
<!-- Generator: Adobe Illustrator 24.0.1, SVG Export Plug-In . SVG Version: 6.00 Build 0)  -->
<svg version="1.1" id="katman_1" xmlns="http://www.w3.org/2000/svg" xmlns:xlink="http://www.w3.org/1999/xlink" x="0px" y="0px"
	 viewBox="0 0 192 192" style="enable-background:new 0 0 192 192;" xml:space="preserve">
<path d="M5,47v99h182V47H5z M51,137H14V56h37V137z M132,137H61V56h71V137z M178,137h-36V56h36V137z"/>
<path d="M83,67l-1,1.5l-0.3,0.6L80.6,71l-1.2,2l-0.6,1l-0.6,1l-1,2l-0.4,1l-1,2l-0.6,1l-0.4,0.9l-0.6,1L74,83.5L73,85l0.5,1.5
	l0.3,0.6l0.4,1l1,1.9l0.6,1l0.4,1l0.6,1l0.4,1l0.6,1l1,2l0.5,1l0.6,1l0.6,1l1.2,1.9l0.3,0.6L83,104l1.3-0.8l0.4-0.5l0.7-0.8l1.3-1.9
	l0.6-1l0.6-1l1-2l0.4-1l0.6-1l1-2l0.4-1l0.6-1l0.4-0.9l0.6-1l0.2-0.6l1-1.5l-0.5-1.5l-0.3-0.6L92.2,82l-0.4-1l-0.6-1l-0.4-1l-0.6-1
	l-1-2l-0.5-1l-0.6-1l-0.6-1l-1.2-2l-1.2-1.9l-0.6-0.8l-0.4-0.5L83,67 M108,67l-1,1.5l-0.3,0.6l-1.1,1.9l-1.2,2l-0.6,1l-0.6,1l-1,2
	l-0.4,1l-1,2l-0.6,1l-0.4,0.9l-0.6,1L99,83.5L98,85l0.5,1.5l0.3,0.6l0.4,1l1,1.9l0.6,1l0.4,1l0.6,1l0.4,1l0.6,1l1,2l0.5,1l0.6,1
	l0.6,1l1.2,1.9l0.3,0.6l1.1,1.5l1.3-0.8l0.4-0.5l0.7-0.8l1.3-1.9l0.6-1l0.6-1l1-2l0.4-1l0.6-1l1-2l0.4-1l0.6-1l0.4-0.9l0.6-1
	l0.2-0.6l1-1.5l-0.5-1.5l-0.3-0.6l-0.9-1.9l-0.4-1l-0.6-1l-0.4-1l-0.6-1l-1-2l-0.5-1l-0.6-1l-0.6-1l-1.2-2l-1.2-1.9l-0.6-0.8
	l-0.4-0.5L108,67 M95,90l-0.7,1.5l-0.4,0.6L92.8,94l-0.6,1l-1,2l-0.4,1l-0.6,1l-0.4,1l-1,2l-1,2l-0.5,1l-0.8,2l-0.2,2l0.5,2l0.4,1
	l1,2l0.6,1l1,2l0.5,1l0.6,1l0.6,1l1.2,2l1.1,1.9l0.4,1l0.3,0.6L95,127h2l0.5-1.5l0.3-0.6l0.4-1l1.1-1.9l1.2-2l0.6-1l0.6-1l0.5-1l1-2
	l0.6-1l1-2l0.4-1l0.5-2l-0.2-2l-0.8-2l-0.5-1l-1-2l-1-2l-0.4-1l-0.6-1l-0.4-1l-1-2l-0.6-1l-1.1-1.9l-0.4-0.6L97,90H95z"/>
</svg>
