<svg id="pall" xmlns="http://www.w3.org/2000/svg" viewBox="0 0 192 192"><title>pall</title><path d="M31,51.35v9.8a2.08,2.08,0,0,0,.06.9c.19.32.79.55,1.1.77.92.66,1.86,1.27,2.8,1.9l9.86,6.57c8.3,5.54,16.65,11,25,16.56,2.45,1.64,4.94,3.24,7.36,4.94.82.57,1.68,1.1,2.5,1.68a13.13,13.13,0,0,0,2.19,1.44,4.87,4.87,0,0,1-1.52,1.18c-.63.37-1.23.77-1.83,1.17-2.54,1.69-5.1,3.35-7.61,5.07-3.29,2.27-6.66,4.44-10,6.66-6.07,4-12.13,8.11-18.2,12.15-2.8,1.87-5.63,3.69-8.4,5.6-.79.54-1.6,1-2.38,1.59-.24.18-.69.35-.85.62a2.08,2.08,0,0,0-.06.9v9.8H45.63a5.28,5.28,0,0,0,1.64-.06,6.43,6.43,0,0,0,1.4-.9l2.86-1.9c3-2,6-4,9-6,3.72-2.56,7.51-5,11.26-7.51,5.52-3.68,11-7.39,16.56-11,2.92-1.9,5.77-3.91,8.71-5.8.73-.47,1.47-1,2.19-1.46a7,7,0,0,1,1.46-1,5.38,5.38,0,0,1,1.88-.1h62.34V87.08h-62.4a5.14,5.14,0,0,1-1.88-.12A7.78,7.78,0,0,1,99.2,86c-.91-.62-1.83-1.22-2.74-1.83l-9-6C77.69,71.67,68,65,58.17,58.67c-2.55-1.64-5-3.37-7.55-5.05-.71-.47-1.43-.94-2.13-1.42a5.66,5.66,0,0,0-1.22-.79,4.9,4.9,0,0,0-1.58-.06H31Z"/></svg>