<svg id="pattern" xmlns="http://www.w3.org/2000/svg" viewBox="0 0 192 192"><title>pattern</title><g id="b"><path id="a" d="M97.05,51.32v3.29h-.89V51.32ZM85.72,57.07h1.59V55.76h.81v-1.6h1.13V52.77h.92V51.32H93v1.45h.9v1.39H95v1.6h.81v1.31h1.23v2H95.82v1.31H95V62H93.88v1.39H93v1.49h-.65v1.25H90.82V64.88h-.65V63.39h-.92V62H88.12V60.41h-.81V59.1H85.72m0-7.09h1.59v1.81H85.72m6.25.54h-.83v1.23h-.78v1.56h-.77v1.91h.77v1.55h.78v1.21H92V60.61h.78V59.06h.79V57.15h-.79V55.59H92Zm.08,2.81V59h-1V57.17Zm-6.33,4.75h1.59v2H85.72M97.05,62.1v2.76h-.89V62.1Zm-2.18,3.07v1.37h1V68h1.21V69.8H95.84v1.43h-1V72.6H93.74V71.23h-1V69.8H92V68h.8V66.54h1V65.17ZM85.72,68h1.59V66.54h1V65.17h1.11v1.37h1V68h.8V69.8h-.8v1.43h-1V72.6H88.28V71.23h-1V69.8H85.72m9-1.81H93.9v1.75h.83Zm-5.46,0h-.83v1.75h.83Zm.32,29v-.94h-.68V94.65H88v-.87h-.69V92.39H85.72V89.17h1.59v.92H88v1.35h.91v1.61h1.28V91.6h1V90.54h.69V89.27h.9V87.92h.67V86.55H94V85.13h.87V83.24H93.76V81.53H92.51v-1H90.42V82h1.21v1.35h-.81V85h-.95v1.45H88.68V85h-1V83.34h-.61V82H85.72V79.43h1.59V77.78h.61V76.51h.56V75.06h.81V73.63h.78v-.95h1V71.25h1.15v1.43h1v.95h.8v1.43h.79v1.45h.64v1.25H96v1.09h1v8H95.86V88.2h-.35v1.41h-.88V91h-.55v1h-.56v1.06h-1v1H91.16V97m5.89-24.44v2.76h-.89V72.58Zm-11.33.52h1.59v2H85.72m0,9.79h1.59v2H85.72Zm11.29,5v1.77h-.85V89.81ZM95.84,97v-1.1h-.53v-.87h-.76v-2.6h.76v1h.81V95H97v2m-4.32,0V95.71h.85V97"/><path id="a-2" data-name="a" d="M96.16,51.32v3.29h.89V51.32Zm11.32,5.75h-1.59V55.76h-.8v-1.6H104V52.77H103V51.32h-2.8v1.45h-.91v1.39H98.19v1.6h-.8v1.31H96.16v2h1.23v1.31h.8V62h1.13v1.39h.91v1.49h.64v1.25h1.52V64.88H103V63.39H104V62h1.13V60.41h.8V59.1h1.59m0-7.09h-1.59v1.81h1.59m-6.24.54h.82v1.23h.79v1.56h.76v1.91h-.76v1.55h-.79v1.21h-.82V60.61h-.79V59.06h-.78V57.15h.78V55.59h.79Zm-.08,2.81V59h1V57.17Zm6.32,4.75h-1.59v2h1.59M96.16,62.1v2.76h.89V62.1Zm2.18,3.07v1.37h-1V68H96.16V69.8h1.21v1.43h1V72.6h1.12V71.23h1V69.8h.81V68h-.81V66.54h-1V65.17ZM107.48,68h-1.59V66.54h-1V65.17h-1.1v1.37h-1V68H102V69.8h.81v1.43h1V72.6h1.1V71.23h1V69.8h1.59m-9-1.81h.82v1.75h-.82Zm5.46,0h.82v1.75h-.82Zm-.33,29v-.94h.69V94.65h.91v-.87h.68V92.39h1.59V89.17h-1.59v.92h-.68v1.35h-.91v1.61H103V91.6h-1V90.54h-.68V89.27h-.91V87.92h-.66V86.55h-.65V85.13H98.3V83.24h1.14V81.53h1.25v-1h2.1V82h-1.21v1.35h.81V85h.94v1.45h1.19V85h1V83.34h.6V82h1.37V79.43h-1.59V77.78h-.6V76.51h-.57V75.06h-.8V73.63h-.79v-.95h-.95V71.25H101v1.43h-1v.95h-.81v1.43H98.5v1.45h-.65v1.25h-.64v1.09h-1v8h1.19V88.2h.34v1.41h.89V91h.54v1h.57v1.06h1v1H102V97M96.16,72.58v2.76h.89V72.58Zm11.32.52h-1.59v2h1.59m0,9.79h-1.59v2h1.59Zm-11.28,5v1.77h.85V89.81ZM97.37,97v-1.1h.52v-.87h.77v-2.6h-.77v1h-.8V95H96.2v2m4.31,0V95.71h-.84V97"/></g><g id="b-2" data-name="b"><path id="a-3" data-name="a" d="M97.05,142v-3.28h-.89V142Zm-11.33-5.74h1.59v1.31h.81v1.59h1.13v1.39h.92V142H93v-1.45h.9v-1.39H95v-1.59h.81v-1.31h1.23v-2H95.82v-1.31H95v-1.59H93.88v-1.39H93v-1.49h-.65v-1.25H90.82v1.25h-.65v1.49h-.92v1.39H88.12v1.59h-.81v1.31H85.72m0,7.09h1.59V139.5H85.72M92,139h-.83v-1.23h-.78v-1.55h-.77v-1.92h.77v-1.55h.78V131.5H92v1.21h.78v1.55h.79v1.92h-.79v1.55H92Zm.08-2.8v-1.82h-1v1.82Zm-6.33-4.76h1.59v-2H85.72m11.33,1.77v-2.76h-.89v2.76Zm-2.18-3.06v-1.37h1v-1.41h1.21v-1.86H95.84v-1.43h-1v-1.37H93.74v1.37h-1v1.43H92v1.86h.8v1.41h1v1.37Zm-9.15-2.78h1.59v1.41h1v1.37h1.11v-1.37h1v-1.41h.8v-1.86h-.8v-1.43h-1v-1.37H88.28v1.37h-1v1.43H85.72m9,1.82H93.9v-1.76h.83Zm-5.46,0h-.83v-1.76h.83Zm.32-29v1h-.68v1.43H88v.86h-.69v1.39H85.72v3.23h1.59v-.93H88v-1.35h.91v-1.61h1.28v1.45h1v1.07h.69v1.27h.9v1.35h.67v1.37H94v1.41h.87v1.89H93.76v1.71H92.51v1H90.42v-1.49h1.21V110h-.81v-1.65h-.95v-1.45H88.68v1.45h-1V110h-.61v1.35H85.72v2.56h1.59v1.65h.61v1.27h.56v1.45h.81v1.43h.78v1h1v1.43h1.15v-1.43h1v-1h.8v-1.43h.79v-1.45h.64v-1.25H96v-1.09h1v-8H95.86v-1.35h-.35v-1.41h-.88v-1.37h-.55v-1h-.56v-1.07h-1v-1H91.16V96.3m5.89,24.44V118h-.89v2.76Zm-11.33-.52h1.59v-2H85.72m0-9.79h1.59v-2H85.72Zm11.29-5v-1.77h-.85v1.77ZM95.84,96.3v1.11h-.53v.86h-.76v2.6h.76V99.82h.81V98.29H97v-2m-4.32,0v1.29h.85V96.32"/><path id="a-4" data-name="a" d="M96.16,142v-3.28h.89V142Zm11.32-5.74h-1.59v1.31h-.8v1.59H104v1.39H103V142h-2.8v-1.45h-.91v-1.39H98.19v-1.59h-.8v-1.31H96.16v-2h1.23v-1.31h.8v-1.59h1.13v-1.39h.91v-1.49h.64v-1.25h1.52v1.25H103v1.49H104v1.39h1.13v1.59h.8v1.31h1.59m0,7.09h-1.59V139.5h1.59m-6.24-.54h.82v-1.23h.79v-1.55h.76v-1.92h-.76v-1.55h-.79V131.5h-.82v1.21h-.79v1.55h-.78v1.92h.78v1.55h.79Zm-.08-2.8v-1.82h1v1.82Zm6.32-4.76h-1.59v-2h1.59m-11.32,1.77v-2.76h.89v2.76Zm2.18-3.06v-1.37h-1v-1.41H96.16v-1.86h1.21v-1.43h1v-1.37h1.12v1.37h1v1.43h.81v1.86h-.81v1.41h-1v1.37Zm9.14-2.78h-1.59v1.41h-1v1.37h-1.1v-1.37h-1v-1.41H102v-1.86h.81v-1.43h1v-1.37h1.1v1.37h1v1.43h1.59m-9,1.82h.82v-1.76h-.82Zm5.46,0h.82v-1.76h-.82Zm-.33-29v1h.69v1.43h.91v.86h.68v1.39h1.59v3.23h-1.59v-.93h-.68v-1.35h-.91v-1.61H103v1.45h-1v1.07h-.68v1.27h-.91v1.35h-.66v1.37h-.65v1.41H98.3v1.89h1.14v1.71h1.25v1h2.1v-1.49h-1.21V110h.81v-1.65h.94v-1.45h1.19v1.45h1V110h.6v1.35h1.37v2.56h-1.59v1.65h-.6v1.27h-.57v1.45h-.8v1.43h-.79v1h-.95v1.43H101v-1.43h-1v-1h-.81v-1.43H98.5v-1.45h-.65v-1.25h-.64v-1.09h-1v-8h1.19v-1.35h.34v-1.41h.89v-1.37h.54v-1h.57v-1.07h1v-1H102V96.3m-5.88,24.44V118h.89v2.76Zm11.32-.52h-1.59v-2h1.59m0-9.79h-1.59v-2h1.59Zm-11.28-5v-1.77h.85v1.77Zm1.17-7.21v1.11h.52v.86h.77v2.6h-.77V99.82h-.8V98.29H96.2v-2m4.31,0v1.29h-.84V96.32"/></g></svg>