<svg id="plant" xmlns="http://www.w3.org/2000/svg" viewBox="0 0 192 192"><title>plant</title><path d="M95.81,48.62c-.59,1.44-1.42,2.79-2.11,4.18-1.33,2.65-2.63,5.34-4,7.94-.46.83-.86,1.7-1.3,2.54a1.89,1.89,0,0,1-1.29,1.2c-1,.15-2-.73-2.75-1.19-1-.59-2-1.12-3-1.7a29.6,29.6,0,0,0-3-1.67c1.31,6.73,2.59,13.45,3.93,20.16.21,1,.37,2,.57,3.06a6,6,0,0,1,.27,1.73,1.58,1.58,0,0,1-1.51,1.38,2.07,2.07,0,0,1-1.32-.77c-.63-.62-1.22-1.29-1.83-1.94-1.83-2-3.64-4-5.5-5.9-.71-.74-1.42-1.9-2.34-2.34-.62,1.5-1.27,3-1.91,4.48a3.79,3.79,0,0,1-1.15,1.86,2,2,0,0,1-1.53.1c-.78-.15-1.56-.33-2.34-.5-3.24-.73-6.51-1.46-9.77-2.07a23.6,23.6,0,0,0,1.22,4c.72,2.16,1.41,4.34,2.11,6.51.24.75.49,1.5.74,2.24s.44,1.14.09,1.73a3.6,3.6,0,0,1-1.92,1.31,38.52,38.52,0,0,0-3.67,1.75,26.1,26.1,0,0,0,2.14,1.77c1.42,1.17,2.84,2.32,4.28,3.47,3.27,2.62,6.47,5.33,9.77,7.93,1.51,1.18,3,2.4,4.48,3.61.61.49,1.53,1.06,1.77,1.85s-.35,1.67-.58,2.34a59.36,59.36,0,0,0-2.11,5.91,35.52,35.52,0,0,0,5.3-.88c3.29-.59,6.59-1.12,9.87-1.73,1.19-.22,2.38-.4,3.57-.61a3.8,3.8,0,0,1,2.64,0c1.9,1,1,3.71,1,5.42,0,3.11-.37,6.25-.5,9.36-.08,1.8-.12,3.61-.29,5.4-.07.65,0,1.29-.12,1.93h4.27c-.28-3.58-.45-7.19-.6-10.79-.08-1.72,0-3.49-.27-5.19-.06-.48,0-1-.05-1.43-.1-1.44-.6-3.62.83-4.58a3.2,3.2,0,0,1,2.54-.23c1.22.21,2.44.4,3.66.64,3,.59,6,1,9.06,1.57,1.33.24,2.65.47,4,.72a15.51,15.51,0,0,0,2.35.36c-.47-2-1.41-4-2.07-5.91-.23-.68-.84-1.61-.62-2.34s1-1.21,1.57-1.67c1.34-1.12,2.71-2.21,4.07-3.3,3.88-3.11,7.73-6.28,11.6-9.41,1.19-1,2.39-1.9,3.57-2.87a6.59,6.59,0,0,0,1.63-1.48,34.52,34.52,0,0,1-4.08-1.82,2.71,2.71,0,0,1-1.55-1.24,2.25,2.25,0,0,1,.13-1.63l.81-2.44c.72-2.17,1.39-4.35,2.11-6.52a18.74,18.74,0,0,0,1.15-3.76c-1.72.48-3.54.75-5.29,1.12-1.6.33-3.18.73-4.79,1-1,.18-2.62.94-3.56.33a4.15,4.15,0,0,1-1.18-2c-.62-1.46-1.2-3-1.88-4.38-.93.44-1.62,1.6-2.34,2.34-1.91,2-3.67,4.06-5.6,6-.59.6-1.13,1.24-1.73,1.83a2.07,2.07,0,0,1-1.32.77,1.64,1.64,0,0,1-1.51-1.48A6.81,6.81,0,0,1,109,83c.19-1,.37-2,.57-3,1.34-6.71,2.6-13.44,3.91-20.16a61.8,61.8,0,0,0-6,3.45c-.73.42-1.66,1.21-2.55,1.12a1.8,1.8,0,0,1-1.22-.9c-.58-.89-1-1.92-1.46-2.85-2.18-4-3.94-8.19-6.17-12.12Z"/></svg>