<!DOCTYPE svg PUBLIC "-//W3C//DTD SVG 20010904//EN" "http://www.w3.org/TR/2001/REC-SVG-20010904/DTD/svg10.dtd">
<svg version="1.0" xmlns="http://www.w3.org/2000/svg" width="1600px" height="1067px" viewBox="0 0 16000 10670" preserveAspectRatio="xMidYMid meet">
<g id="layer101" fill="#000000" stroke="none">
<path d="M0 5335 l0 -5335 8000 0 8000 0 0 5335 0 5335 -8000 0 -8000 0 0 -5335z"/>
</g>
<g id="layer102" fill="#009e49" stroke="none">
<path d="M0 4370 l0 -4370 6557 0 c3606 0 6554 2 6552 4 -13 11 -13100 8736 -13104 8736 -3 0 -5 -1966 -5 -4370z"/>
</g>
<g id="layer103" fill="#ce1126" stroke="none">
<path d="M2891 10666 c14 -12 13100 -8736 13104 -8736 3 0 5 1967 5 4370 l0 4370 -6557 0 c-3606 0 -6554 -2 -6552 -4z"/>
</g>
<g id="layer104" fill="#fcd116" stroke="none">
<path d="M2891 10666 c14 -12 13100 -8736 13104 -8736 3 0 5 171 5 379 l0 380 -32 24 c-18 13 -2710 1809 -5982 3991 l-5949 3966 -575 0 c-316 0 -573 -2 -571 -4z"/>
<path d="M2 8358 l3 -383 185 -124 c102 -68 2792 -1862 5979 -3987 l5795 -3864 575 0 c316 0 572 2 570 4 -13 11 -13100 8736 -13104 8736 -3 0 -4 -172 -3 -382z"/>
</g>
<g id="layer105" fill="#ffffff" stroke="none">
<path d="M4751 8326 l-144 -513 -111 -7 c-61 -3 -295 -13 -521 -21 -225 -9 -419 -17 -430 -18 -13 -1 140 -109 428 -300 246 -164 447 -304 447 -310 0 -7 -32 -124 -71 -262 -38 -137 -101 -362 -140 -500 -38 -137 -72 -256 -75 -264 -4 -12 -2 -12 13 0 20 17 111 90 547 433 l288 228 445 -297 c245 -163 447 -294 449 -292 2 2 -38 118 -90 258 -52 140 -135 364 -185 498 -50 134 -89 247 -86 251 2 4 191 155 420 335 229 180 414 330 411 332 -2 3 -116 0 -253 -6 -529 -23 -718 -31 -767 -31 l-51 0 -42 113 c-49 132 -262 710 -301 815 -15 39 -29 72 -32 72 -3 0 -70 -231 -149 -514z"/>
<path d="M10977 4784 c-2 -5 -19 -61 -37 -124 -17 -63 -69 -248 -115 -410 -46 -162 -95 -339 -110 -392 l-27 -97 -37 -5 c-20 -3 -232 -13 -471 -21 -239 -9 -465 -19 -502 -23 l-66 -7 444 -295 c244 -162 444 -300 444 -306 0 -9 -149 -548 -258 -932 -16 -56 -28 -102 -26 -102 2 0 106 81 231 181 224 178 346 274 527 415 l91 71 447 -299 c247 -164 448 -295 448 -291 0 4 -39 111 -86 238 -47 126 -102 273 -121 325 -19 52 -64 173 -100 269 -35 95 -63 175 -61 177 2 2 94 74 204 161 111 87 298 235 417 328 119 94 216 172 217 175 0 3 -75 2 -167 -2 -359 -14 -761 -29 -833 -31 l-74 -2 -187 504 c-102 277 -189 499 -192 495z"/>
</g>


</svg>