<?xml version="1.0" encoding="utf-8"?>
<!-- Generator: Adobe Illustrator 24.0.1, SVG Export Plug-In . SVG Version: 6.00 Build 0)  -->
<svg version="1.1" id="katman_1" xmlns="http://www.w3.org/2000/svg" xmlns:xlink="http://www.w3.org/1999/xlink" x="0px" y="0px"
	 viewBox="0 0 192 192" style="enable-background:new 0 0 192 192;" xml:space="preserve">
<path d="M62,60l-1.7,0.8L59.8,61l-1,0.4L54,63c-1,0.3-2,0.7-2.9,1.1c-0.9,0.4-1.7,0.9-2.4,1.6l-1,1.5l-0.3,0.9L47.4,69l0.1,0.9
	l0.6,1.8l1.3,1.5l0.8,0.6l0.9,0.5l1,0.4l2,0.8l2,0.7c1.3,0.4,2.5,0.8,3.8,1.2l1.5,0.3L63,78l-1.7,0.8l-1.5,0.6L56,80.7l-2,0.7
	c-1.9,0.7-3.9,1.4-5.3,3.1l-0.9,1.7L47.6,87l0,0.9l0.5,1.8l0.5,0.8l1.5,1.3l1.9,1c1,0.4,2,0.8,3,1.1c1.6,0.5,3.2,1,4.8,1.5l1,0.2
	l0.5,0.1L63,96l-1.7,0.8L60.8,97l-1,0.4l-5.8,2c-1,0.3-2,0.6-2.9,1.1c-0.9,0.4-1.8,0.8-2.5,1.5l-1,1.4l-0.3,0.9l-0.1,0.9v0.9
	l0.1,0.9l0.7,1.6l1.3,1.2l1.7,0.9c1,0.4,2,0.7,2.9,1.1l4,1.3l1.9,0.5l1,0.2l0.5,0.1L63,114l-1.7,0.8l-1.5,0.6l-3.8,1.3l-2,0.7
	l-2,0.8l-1,0.4l-0.9,0.5l-1.5,1.3l-1,1.7l-0.2,0.9l-0.1,0.9l0.4,1.8l0.4,0.8l1.3,1.4l1.7,1.1l0.9,0.4c1,0.4,2,0.8,3,1.1
	c1.6,0.6,3.2,1.1,4.8,1.6l1,0.3l0.5,0.1L63,133l-1.7,0.8l-0.5,0.2l-1,0.4L55,136l-2,0.7l-1,0.4l-0.9,0.4c-0.9,0.5-1.7,1.1-2.3,1.9
	l-0.9,1.7l-0.2,0.9l0,0.9l0.6,1.7l1.2,1.3l0.8,0.4l0.9,0.3l1.9,0.2l2-0.2l1-0.2l2-0.6l2-0.7l4-1.3l10-3.3l4-1.4l1.9-0.8l1.7-1
	l0.7-0.7l0.6-0.8l0.4-0.9l0.2-0.9l0.1-0.9l-0.3-1.8l-0.4-0.8l-1.3-1.3l-0.8-0.5l-1.9-0.8l-1-0.4l-3-1l-5.3-1.8L68,124l1.7-0.8
	l1.5-0.6l3.8-1.3l2-0.7l2-0.8l1-0.4l0.9-0.5l1.5-1.3l0.9-1.7l0.1-1.9l-0.2-0.9l-0.4-0.9l-0.5-0.8l-1.5-1.3l-1.8-1
	c-1-0.4-2-0.8-3-1.1c-1.6-0.6-3.2-1-4.8-1.5l-1-0.2l-0.5-0.1L68,106l1.7-0.7l0.5-0.1l1-0.3l0.9-0.3c1.7-0.5,3.3-1,5-1.6l2-0.7l1-0.4
	l0.9-0.4l1.5-1.1l1-1.5l0.2-0.9l0.1-0.9L83.6,96L83,94.3l-1.3-1.4l-1.7-1l-1-0.4l-2-0.7l-3-1l-2.8-0.9l-1-0.3l-0.5-0.1L68,88
	l1.7-0.8l0.5-0.2l1-0.4l3.8-1.3l3-1l1.9-0.8l1.7-1.1l0.7-0.7l0.6-0.8l0.6-1.8l-0.2-1.9L83,76.2l-0.6-0.8l-0.7-0.7l-1.7-1.1L78,72.7
	l-3-1l-3.8-1.3l-1-0.4l-0.5-0.2L68,69l1.7-0.5l3.4-1.1l3-1l3-1l1.8-0.8l1.5-1.1l1-1.5l0.3-1.8l-0.3-1.8l-0.4-0.8l-1.2-1.3l-1.7-1
	L78,54.3l-5-1.7l-12-4l-4-1.3l-2-0.6l-1-0.2l-1-0.1l-1.9,0.1l-0.9,0.3l-0.8,0.4l-1.2,1.2l-0.4,0.8l-0.2,0.9L47.5,51l0.1,0.9l0.7,1.7
	c0.5,0.8,1.2,1.4,2,1.9l0.9,0.4l0.9,0.4l2,0.7l4.8,1.6l1,0.4l0.5,0.2L62,60z"/>
</svg>
