<!DOCTYPE svg PUBLIC "-//W3C//DTD SVG 20010904//EN" "http://www.w3.org/TR/2001/REC-SVG-20010904/DTD/svg10.dtd">
<svg version="1.0" xmlns="http://www.w3.org/2000/svg" width="320px" height="192px" viewBox="0 0 3200 1920" preserveAspectRatio="xMidYMid meet">
<g id="layer101" fill="#0065bd" stroke="none">
 <path d="M0 960 l0 -960 1600 0 1600 0 0 960 0 960 -1600 0 -1600 0 0 -960z"/>
 </g>
<g id="layer102" fill="#ffffff" stroke="none">
 <path d="M0 1807 l0 -112 610 -365 c335 -201 609 -367 609 -370 0 -3 -274 -169 -609 -370 l-610 -365 0 -112 0 -113 188 0 187 0 608 365 c335 201 612 365 617 365 5 0 282 -164 617 -365 l608 -365 188 0 187 0 0 113 0 112 -610 365 c-335 201 -609 367 -609 370 0 3 274 169 609 370 l610 365 0 112 0 113 -187 0 -188 0 -608 -365 c-335 -201 -612 -365 -617 -365 -5 0 -282 164 -617 365 l-608 365 -187 0 -188 0 0 -113z"/>
 </g>

</svg>