<svg id="ship" xmlns="http://www.w3.org/2000/svg" viewBox="0 0 192 192"><defs><style>.cls-1{stroke:#000;stroke-miterlimit:10;}</style></defs><title>ship</title><path class="cls-1" d="M163.18,135.67c-3.81.16-6.94-2.22-10.33-3.57-1.51-.61-3.54-1.53-5.17-.84a3.43,3.43,0,0,0-1.86,2.68c-.14.7-.15,1.67-.81,2.09-.39.25-.82.05-1.21-.08a11.72,11.72,0,0,1-2.92-1.4c-.54-.39-.39-1.23-.45-1.81a6,6,0,0,0-.75-2.07,14.37,14.37,0,0,0-7.24-7.15c.58-1,1.41-2,2.09-2.93,1.31-1.87,2.54-3.8,3.71-5.77.82-1.37,1.56-2.77,2.26-4.22a12.25,12.25,0,0,1,.74-1.79c.32-.46,1.53-.31,2-.35.28,0,.67,0,.81-.29a2.49,2.49,0,0,0,0-1.27,29.92,29.92,0,0,0-.52-3.1h2.06v-4a8.72,8.72,0,0,1,0-2,4.89,4.89,0,0,1,.56-1.12c.44-.87.92-1.72,1.36-2.59,1.48-2.88,3-5.73,4.52-8.61.85-1.62,1.72-3.27,2.69-4.82.57-.91,1.27-1.6.86-2.76a1.82,1.82,0,0,0-3.38-.08c-.34.64-.12,1.4-.47,2.06-.22.42-.56,1-1.1,1a29.4,29.4,0,0,1-4-.69c-1.72-.32-3.45-.59-5.17-.85-.75-.11-1.5-.25-2.24-.39a3.44,3.44,0,0,0-1.19-.14c-.28.06-.41.43-.53.65-.34.6-.65,1.22-1,1.81-1.07,1.8-2.05,3.67-3,5.51a10.12,10.12,0,0,0-1.31,2.76c1.69.07,3.38.31,5.08.42,1.26.09,2.53.1,3.79.19,1.52.1,3,.34,4.56.34a50.8,50.8,0,0,1-2.92,5.25c-.28.47-.63,1.53-1.14,1.76a2.64,2.64,0,0,1-.93,0h-7.84a7.66,7.66,0,0,0-3.53.43c-.63-2.75-1.18-5.48-1.64-8.27a14.56,14.56,0,0,1-.39-4.82,13.76,13.76,0,0,1,1.4-3.53,54.8,54.8,0,0,1,4.12-6.81,42.92,42.92,0,0,1,3.56-4.39,13.2,13.2,0,0,1,2.34-2.14c1.17-.77,3.61-.78,3.6-2.68,0-1.46-1.82-1.44-2.83-1.84l-6.11-2.39c-.58-.22-1.15-.48-1.73-.71a3.18,3.18,0,0,1-.92-.46c-.46-.43,0-1.42.15-1.92a24.76,24.76,0,0,1,.72-2.41c.38-.92,1.15-1.63.62-2.67-.64-1.27-2.6-1.69-3.4-.35a2.15,2.15,0,0,0-.26,1.29,2,2,0,0,0,.34,1c-1.12-.09-2.24-.29-3.36-.34a23.81,23.81,0,0,0-3.27.18c-1.77.18-3.47.85-5.26.93a12.12,12.12,0,0,1-3.18-.29,10.83,10.83,0,0,0-2.5-.48c0,2.24,2.4,3.57,4.31,4-1.19.41-2.41.71-3.62,1a9.38,9.38,0,0,0-1.55.43c1.39,1.12,3.49,1.12,5.17,1a37.68,37.68,0,0,0,5.16-.92,20.14,20.14,0,0,1,6.29-.28,64.25,64.25,0,0,1-6.46,5.15c-3.25,2.48-6.47,5-9.82,7.4a9.38,9.38,0,0,0-2.5,2c-.42.61-.73,1.86-.13,2.46a2.2,2.2,0,0,0,1.08.47,22.36,22.36,0,0,1-1.52,2.58c-.7,1.29-1.19,2.7-1.92,4a20.22,20.22,0,0,1-1.24-4,6,6,0,0,1-.2-2.15,7.62,7.62,0,0,1,1.13-2.33,45,45,0,0,1,2.6-4,23.83,23.83,0,0,1,3-3.46c.4-.36,1.18-.92,1.09-1.53s-.87-1-1.43-1.27a13.33,13.33,0,0,1-1.3-.8Q106.65,62.9,104,61a17.32,17.32,0,0,1-2.48-1.84c-.45-.47,0-1.43.21-2a21.59,21.59,0,0,1,1.05-2.59c.41-.74,1-1.4.73-2.32a2,2,0,0,0-3.35-.68,2.56,2.56,0,0,0-.38,1.88c-.57,0-1.14-.21-1.72-.25a27.11,27.11,0,0,0-5.25.19c-1.84.24-3.64.92-5.51.92-1.71,0-3.25-.81-4.91-.94a3.12,3.12,0,0,0,.53,1.46,5,5,0,0,0,3.77,2.59,7.13,7.13,0,0,1-1.63.49c-.61.15-1.19.37-1.81.46-.26,0-1.14.09-1.23.37s.54.63.8.74a7.56,7.56,0,0,0,3,.52c4.26,0,8.37-2.32,12.66-1.21a6.58,6.58,0,0,1-3.27,2.78c-.81.21-2.29-.14-2.88.59s.2,2.18-.42,3a27.46,27.46,0,0,1-3.07,2.93c-2.47,2.35-5,4.69-7.5,7-.62.55-1.24,1.11-1.89,1.62a6.1,6.1,0,0,0-1.22,1,1.38,1.38,0,0,0,0,1.63c.23.39.6.55.36,1-.63,1.25-1.62,2.34-2.33,3.54A36.43,36.43,0,0,0,73,91.05,14.68,14.68,0,0,1,72.42,89a28.61,28.61,0,0,1-.88-5.34,8.82,8.82,0,0,1,.1-3.28A12,12,0,0,1,74,76.93a53.21,53.21,0,0,1,5.35-5.58A23.83,23.83,0,0,1,84.64,68c.76-.4,1.69-.89,1.71-1.87,0-1.41-1.5-1.09-2.4-1.13a5.93,5.93,0,0,1-.86-.13c-2.45-.41-4.89-.85-7.32-1.35-.78-.16-1.56-.29-2.33-.45a10.34,10.34,0,0,0-1.55-.3,12.17,12.17,0,0,1,.53-2.24,12.75,12.75,0,0,1,.79-2.5c.42-.86,1.35-1.6,1-2.67a2,2,0,0,0-3.2-.85A2.46,2.46,0,0,0,70.68,57c-4,.17-7.79,1.87-11.79,2.14a8.07,8.07,0,0,1-2.59-.26,13,13,0,0,0-1.72-.5,3.11,3.11,0,0,0,1.21,3.15,11.74,11.74,0,0,0,1.37.81,8.19,8.19,0,0,1-2.84.16,5.76,5.76,0,0,0-2.15,0,4.29,4.29,0,0,0,2.5,2.76,9,9,0,0,0,2.06.38,9.4,9.4,0,0,0,2.59-.17,28.82,28.82,0,0,0,3.87-.87,14.74,14.74,0,0,1,5.6-1,3.58,3.58,0,0,1-1,1c-.76.61-1.55,1.18-2.33,1.77-2,1.49-4,2.94-6,4.38a17.1,17.1,0,0,0-3.67,3c-.68.89.13,1.66-.2,2.59a26.68,26.68,0,0,1-1.38,2.58,23,23,0,0,0-1.66,4.31,24,24,0,0,0-.74,3.36,6.78,6.78,0,0,1-.4,2.58,8,8,0,0,1-1.16,1.38c-.68.74-1.37,1.47-2,2.24-2.38,2.75-4.65,5.57-6.88,8.44a25.22,25.22,0,0,0-3.67,5.34,2.64,2.64,0,0,0-1.46-1.11,1.89,1.89,0,0,0-2,2.74c.53,1,1.73.74,2.63,1a40,40,0,0,1,4.57,2.08,13.21,13.21,0,0,0,2.15,1c-.78,1.14-2.62,2.82-1.26,4.28a1.67,1.67,0,0,0,1.35.37,15,15,0,0,1,1.89.12,10.78,10.78,0,0,1,4.65,2.12,35.78,35.78,0,0,1,3.79,3.7c2.46,2.52,4.88,5.11,7.49,7.48a42.62,42.62,0,0,0,5.51,4.23A36.26,36.26,0,0,1,70.68,137a7.08,7.08,0,0,1-3.27-1c-2.23-1-4.5-2.46-7-2.84-1.64-.25-3.51-.18-4.73,1.11-.93,1-1.46,3.17-3.11,3.17a6.93,6.93,0,0,1-3-1.09c-2.34-1.21-4.58-3.2-7.23-3.7a8.09,8.09,0,0,0-5.68,1.08,17.33,17.33,0,0,1-3.11,1.82,2.78,2.78,0,0,1-1.72-.22,9.1,9.1,0,0,1-2.67-1.22c-.31-.23-.48-.6-.79-.82a.85.85,0,0,0-1.14.21,1,1,0,0,0,.39,1.34c.28.11.56-.08.85.07s.6.6.95.83a9.42,9.42,0,0,0,3.45,1.42c1.21.2,2.29-.53,3.27-1.14,1.55-1,3.16-2.05,5.08-1.92,2.89.2,5.17,1.8,7.58,3.25,1.3.78,3,1.9,4.56,1.6s1.79-1.48,2.59-2.53a4.69,4.69,0,0,1,1.89-1.59,4.75,4.75,0,0,1,1.55-.14c2.56.07,5,1.24,7.24,2.4.81.42,1.65.76,2.49,1.12a3.29,3.29,0,0,0,1.73.4c1.62-.28,2.84-2,4-3.06a4.59,4.59,0,0,1,1.55-1.14,4.2,4.2,0,0,1,1.46,0,9.05,9.05,0,0,1,2.84.8,41.27,41.27,0,0,1,5.6,3,20.45,20.45,0,0,0,2.85,1.42,3.43,3.43,0,0,0,1.63.35c1.21-.13,1.16-1.28,1.44-2.22.45-1.49,1.39-3.23,3.13-3.35a19.71,19.71,0,0,1,9.56,2.25c1.18.56,2.39,1.08,3.61,1.56a3.23,3.23,0,0,0,1.64.44c.83-.19.85-1.55,1.11-2.19.56-1.37,1.74-3.1,3.28-3.4a3,3,0,0,1,1,0,10.4,10.4,0,0,1,2.41.48c2.49.84,4.76,2.18,7.15,3.24,1.17.52,2.73,1.42,4.05,1.08S130,136,130.16,135a3.41,3.41,0,0,1,1.76-2.09c1.38-.74,3.11-.12,4.39.52,1.75.85,3.4,1.88,5.08,2.85a10.66,10.66,0,0,0,3.19,1.44,2.27,2.27,0,0,0,.52,0c1.08-.09,1.11-1.13,1.29-2,.25-1.16,1-2.83,2.32-3.07a8.33,8.33,0,0,1,3.88.8c2.77,1,5.23,2.72,8.09,3.54a4.37,4.37,0,0,0,2.47.23c.22-.09.35-.31.56-.42.51-.28,1-.14,1-.91A.78.78,0,0,0,163.18,135.67ZM36.15,108a.86.86,0,1,1-.6-1.6C36.37,106.1,37,107.63,36.15,108ZM143,107.45c-.2.26-.84.14-1.12.14h-3.1c-4.28,0-8.55-.09-12.83-.09a20,20,0,0,1,2.31-2.75c.27-.32.56-.83,1-1a3.72,3.72,0,0,1,1.29-.06H142.6c.07.93.34,1.83.42,2.76C143.05,106.73,143.2,107.22,143,107.45ZM59.27,97.25c-.1.39-.17,1.22-.51,1.47s-1.24.07-1.68.09-1.61.2-1.9-.21,0-1.4.14-1.86c.66-2.19,2.84-3.1,4.94-3.1A30.12,30.12,0,0,1,59.27,97.25Zm1.58-2.06c.08-.33.19-.92.5-1.12.48-.31,1,.35,1,.77A5.38,5.38,0,0,1,62.05,96c-.16.64-.28,1.27-.49,1.9a1.62,1.62,0,0,1-.61,1c-.26.14-.9.3-1-.1a2.37,2.37,0,0,1,.22-1.11C60.39,96.8,60.64,96,60.85,95.19Zm-5.67,4.56H68.7v4.74H55.18Zm7.15-.86c.1-1.31.76-2.5,1-3.79a3,3,0,0,1,1.2.78,7,7,0,0,1,2.24,2.84A19.5,19.5,0,0,1,62.33,98.89Zm5.15,6.81a3.17,3.17,0,0,1,.8,1.46,20.85,20.85,0,0,0,1.14,2.5A18.7,18.7,0,0,0,77,117.47a38.21,38.21,0,0,0,14,3.66A50,50,0,0,0,111.94,119a34.94,34.94,0,0,0,6.8-3,40.08,40.08,0,0,0,4.57-3.07,41.61,41.61,0,0,0,3.36-3.15,5.79,5.79,0,0,1,1.55-1.28c.2-.1.73-.18.76.17s-.49.78-.7,1c-.75.85-1.59,1.62-2.39,2.41a37.33,37.33,0,0,1-5.25,4.48,32.27,32.27,0,0,1-7,3.48c-5.07,1.9-10.66,2.34-16,2.47-6.89.17-14.15-.22-20.41-3.49a20.26,20.26,0,0,1-9.58-9.86,12.67,12.67,0,0,1-1.19-3.71A1.69,1.69,0,0,1,67.48,105.7Zm35.93,14.38a56,56,0,0,1-11.28.17,9.3,9.3,0,0,1,2.22-4.48c.3-.34.74-1,1.22-1.12a1.1,1.1,0,0,1,.69.27l1.38.85c1.24.78,2.43,1.61,3.62,2.46A8.89,8.89,0,0,1,103.41,120.08Zm0-3.71a48,48,0,0,1-2.45-7.32,10.2,10.2,0,0,1-.59-3.36,5.52,5.52,0,0,1,.55-1.55c.47-1.07,1.05-2.1,1.5-3.18a3.7,3.7,0,0,1,.18,1.29c0,.66.11,1.32.18,2a29.5,29.5,0,0,0,3.11,10.85c.46.87,1,1.72,1.42,2.59a6.6,6.6,0,0,1,.71,1.55,8.26,8.26,0,0,1-2.16.41c-.26,0-.6.13-.83,0a2.31,2.31,0,0,1-.57-.89C104,117.94,103.71,117.16,103.37,116.37Zm-10.57-.43a14.73,14.73,0,0,0-1.62,3.19A5.42,5.42,0,0,1,89.85,117a30.56,30.56,0,0,1-1.49-3.71c-.13-.48-.31-1-.41-1.46,0-.19-.06-.46.16-.55.44-.19,1.37.35,1.78.53,1,.44,2.07.95,3.1,1.42a10.63,10.63,0,0,0,1.46.67A13.93,13.93,0,0,1,92.8,115.94Zm-2.65,4.14c-2.57-.06-5.05-1-7.58-1.29a10.88,10.88,0,0,1,.8-2.76c.47-1.36.87-2.75,1.27-4.13.21-.77.55-1.8,1.54-1.33.79.38.85,2,1,2.7C87.81,115.71,89.3,117.75,90.15,120.08Zm-7-6.55c-.54,1.69-1,3.4-1.58,5.08-.43-.13-1.25-.27-1.38-.78s.37-1.46.54-2c.42-1.26.86-2.52,1.23-3.79a4.87,4.87,0,0,1,.85-2c.36-.35.93-.07,1.34.06A21.82,21.82,0,0,1,83.12,113.53Zm-2.45-.6c-.33,1.06-.67,2.14-1.06,3.19-.12.31-.22.92-.52,1.11s-.79-.08-1.08-.23a3,3,0,0,1-1.45-2.69,3.07,3.07,0,0,1,.77-2,5.46,5.46,0,0,1,4.29-2.41A20.58,20.58,0,0,1,80.67,112.93Zm36.92-2.76a14.51,14.51,0,0,0,1.59,2,15.9,15.9,0,0,1,1.54,1.64,21.57,21.57,0,0,1-3.7,2.06,30.32,30.32,0,0,1-3.7,1.73A17.93,17.93,0,0,1,114,115c.66-2.4,1.54-4.8,2-7.24a2.45,2.45,0,0,1,.71,1A13.33,13.33,0,0,0,117.59,110.17Zm-.57-3.7a10.9,10.9,0,0,1,5.17.2,4.14,4.14,0,0,1,1.62.85c.29.3.18.69.41,1s1.5.25,1.43.8c0,.38-.46.77-.71,1a24.68,24.68,0,0,1-2.32,2c-.33.26-.76.65-1.21.49s-1.06-.93-1.44-1.39a17.6,17.6,0,0,1-2.28-3.36A6.16,6.16,0,0,1,117,106.47Zm-2.39,2.84c-.47,1.79-1.06,3.55-1.53,5.34-.22.84-.48,1.67-.73,2.5a3.48,3.48,0,0,1-.37,1.07.94.94,0,0,1-.58.26,7.09,7.09,0,0,1-1.38.22,14.12,14.12,0,0,1,.8-2.84c.5-1.67,1-3.33,1.55-5a7.29,7.29,0,0,1,1.2-2.83,3.11,3.11,0,0,1,1.53-.78A8.71,8.71,0,0,1,114.63,109.31Zm-4.73,6.2c-.18.58-.39,1.15-.59,1.73a3.46,3.46,0,0,1-.47,1.12,9.28,9.28,0,0,1,1.24-6.89c.46-.73,1.11-1.29,1.6-2h.17Zm43.72-37.66c1-.4,1.72,1.2.69,1.6S152.61,78.25,153.62,77.85Zm-1.22,3.21a1.24,1.24,0,0,1,.62-.84c.32-.11.45.24.39.5a1.07,1.07,0,0,1-.65.72C152.48,81.52,152.35,81.32,152.4,81.06Zm-12.47,8.1c-1.49-.06-3-.11-4.48-.28-.36,0-1.22,0-1.46-.29s.24-1.09.41-1.41c.64-1.29,1.33-2.56,2.07-3.79.47-.79.91-1.61,1.37-2.41.18-.32.36-.84.72-1a2.24,2.24,0,0,1,1.2.08c.83.17,1.66.29,2.49.43l6.55,1.12a19.86,19.86,0,0,1,3.7.73,18.23,18.23,0,0,1-1,2.15c-.55,1.09-1.09,2.2-1.69,3.27-.27.47-.61,1.52-1.12,1.76a6.16,6.16,0,0,1-2.38,0C144.17,89.45,142.06,89.26,139.93,89.16Zm4.5,5.51c.41-.65.78-1.32,1.16-2a5.82,5.82,0,0,1,1.4-2c.26-.17.86-.21,1,.13s-.08.48-.17.66c-.23.5-.49,1-.73,1.47-.54,1.07-1.08,2.14-1.67,3.19a3.72,3.72,0,0,1-1,1.39,2.07,2.07,0,0,1-1.47.07A9.89,9.89,0,0,1,144.43,94.67ZM129.79,100c.13-.37.22-1,.54-1.23a1.9,1.9,0,0,1,1.16-.23c.89,0,1.78-.09,2.67-.09h10.33c0,1.5.26,3,.26,4.48H128.82C129.09,102,129.47,101,129.79,100Zm-2-3.19a13.68,13.68,0,0,1,.67,3.62,10.28,10.28,0,0,1-.59,2.24,10.43,10.43,0,0,1-.17,1.12,6,6,0,0,1-1.48,1.89,2,2,0,0,1-.86.61,23.35,23.35,0,0,1-1.09-12.4,67,67,0,0,1,1.7-6.55,4.83,4.83,0,0,1,.32,1.46c.16,1,.3,2,.47,3C127.06,93.49,127.4,95.18,127.8,96.82Zm2.74-35.48c.49.16,1,.32,1.47.5,1.38.54,2.76,1.07,4.13,1.65a12.92,12.92,0,0,1,2.07.95,53.16,53.16,0,0,1-5.77,1.87c-1.46.44-2.9,1-4.4,1.32a22.14,22.14,0,0,1,1.26-4.74c.11-.41.19-1.39.6-1.62C130.09,61.15,130.35,61.28,130.54,61.34Zm-.6-8.55c1.22-.48,2,1.34.77,1.78S128.75,53.26,129.94,52.79ZM125,58.94c-2.57-.06-5.15.78-7.67,1.22-1,.16-2.42.63-3.35.23l1.55-.6,1-.4c.42-.17,1.67-.71.85-1.23a3.24,3.24,0,0,0-1.28-.29c-1-.14-2.7-.42-3.19-1.44,1.49,0,2.9.3,4.39.16s2.92-.6,4.4-.81a27.81,27.81,0,0,1,3.87-.21,14.9,14.9,0,0,1,3.19.4c.31.07.84.12,1,.41a1.17,1.17,0,0,1,.06.74,10.35,10.35,0,0,1-.43,1.81c-.08.24-.15.62-.42.71s-1.07-.18-1.45-.29A9.79,9.79,0,0,0,125,58.94Zm2.25,4.47c.12-.41.26-.8.38-1.21a6.29,6.29,0,0,1,.49-1.36c.11-.17.33-.33.52-.18s.11.41.08.59a15.16,15.16,0,0,1-.39,1.47c-.42,1.46-.79,3-1.29,4.39-.25.72-.51,1.35-1.35,1.38a23.26,23.26,0,0,1,.91-3C126.83,64.78,127.07,64.1,127.28,63.41Zm-12.16,7.42,2.85-2.2c2.89-2.24,5.85-4.39,8.7-6.69a2.74,2.74,0,0,1-.23,1.12c-.22.67-.41,1.33-.65,2s-.5,1.5-.72,2.24a3.44,3.44,0,0,1-.53,1.28,4.85,4.85,0,0,1-2.09.85c-1.7.51-3.37,1.17-5.09,1.61-.86.21-1.74.51-2.58.8a2.61,2.61,0,0,1-1.38.29A10.67,10.67,0,0,0,115.12,70.83ZM109,76.44c-.73-.67.39-1.55.91-1.85a26.06,26.06,0,0,1,5.51-2c5.22-1.5,10.4-3.21,15.59-4.81q3.39-1,6.81-2c.8-.23,1.59-.51,2.41-.68.54-.11,1.54,0,.9.78a5.16,5.16,0,0,1-2.28,1c-1.59.51-3.15,1.12-4.74,1.65-5.69,1.9-11.31,4-17,6.06-1.94.69-3.87,1.43-5.86,1.93C110.64,76.66,109.48,76.92,109,76.44Zm-2.73,9.45a26.7,26.7,0,0,1,3.57-7.24,4.79,4.79,0,0,1,1.62-1.48c.21-.1.59-.25.77,0s.06.52.09.73a2.61,2.61,0,0,1,1.81-1.55,8.87,8.87,0,0,0-.6,1.63c.76-.63.89-1.84,1.89-2.24.21.74-.32,1.46-.51,2.16.75-.87,1.46-2.69,2.75-2.76a9.79,9.79,0,0,1-1,2.33,2.42,2.42,0,0,0-.37,1,18.62,18.62,0,0,1,2.11-3.1,2.93,2.93,0,0,1,1.25-1.12,4.41,4.41,0,0,1-.63,1.81c-.36.71-.7,1.42-1,2.15.93-1.09,1.58-2.4,2.47-3.53A3,3,0,0,1,122,73.4a6.58,6.58,0,0,1-.91,2,33.16,33.16,0,0,0-1.84,3.36c1.15-1.33,2-2.9,3.07-4.31.42-.56.9-1.38,1.58-1.63l.09.08a8.45,8.45,0,0,1-1,1.81c-.5.86-1,1.72-1.49,2.58a5.34,5.34,0,0,0-.84,1.73,18.77,18.77,0,0,1,1.52-2.24c.77-1.09,1.5-2.21,2.3-3.28.57-.75,1.11-1.59,2.13-1.63a52.44,52.44,0,0,1-3.23,5.25,7.41,7.41,0,0,0-1.25,2.24,16.72,16.72,0,0,1,1.52-2.15c1-1.42,2-2.85,3.08-4.22.54-.7,1.21-1.77,2.11-2a8.12,8.12,0,0,1-1.37,2.49c-1,1.67-2.11,3.31-3.1,5a10.39,10.39,0,0,0,1.81-2.33c.9-1.3,1.83-2.59,2.76-3.87.72-1,1.51-2.18,2.83-2.24a11.46,11.46,0,0,1-1.91,3.19c-1.43,2.12-3,4.22-4.29,6.46.78-.86,1.45-1.84,2.14-2.76,1.08-1.43,2.16-2.85,3.2-4.31.5-.69,1-1.37,1.53-2.06a5.7,5.7,0,0,1,1-1.25,3.55,3.55,0,0,1,1.2-.45c.71-.24,1.42-.52,2.15-.72a26.33,26.33,0,0,1-2.56,2.93,46.05,46.05,0,0,0-3.83,5.17A51.72,51.72,0,0,0,124,90.88a28,28,0,0,0-1.14,8.18,23.52,23.52,0,0,0,.75,5.08c.21.79.53,1.54.71,2.33a14.33,14.33,0,0,1-1.64-.65,2.2,2.2,0,0,1-.79-.44,6.66,6.66,0,0,1-.74-2.27c-.36-1.24-.72-2.47-1.11-3.7a10.48,10.48,0,0,0-.63-1.81c.22,1.73.67,3.45,1,5.17a10.69,10.69,0,0,1,.45,2.06c0,.57-1.13.56-1.49.33-.54-.34-.68-1.48-.85-2-.37-1.26-.69-2.53-1.08-3.79a10.3,10.3,0,0,0-.6-1.72c.32,2.54.94,5.07,1.46,7.58-.36.12-1,.4-1.32.11-.52-.45-.67-1.63-.84-2.26-.26-1-.58-1.9-.84-2.85a11.34,11.34,0,0,0-.79-2.41c.28,2.22.75,4.44,1.19,6.63.12.61.41,1.4-.33,1.72a.67.67,0,0,1-.42,0c-.5-.17-.68-1.14-.8-1.58a23.16,23.16,0,0,0-1.45-4.57,11.18,11.18,0,0,0,.33,2.15c.25,1.39.57,2.76.82,4.14.09.46-.52,1.27-1,1.09s-.5-.84-.6-1.18a14,14,0,0,0-1.13-3.44c.16.85.24,1.72.36,2.58a19.92,19.92,0,0,1,.32,2.15c0,.39-.13,1.56-.82,1.2-.24-.13-.34-.53-.42-.77a7.72,7.72,0,0,0-.73-2c.08,1.08.62,2.39.38,3.45-.06.27-.37,1.18-.78.94s-.43-1-.64-1.37a12.12,12.12,0,0,1,.07,2.41c-.08.65-.44.72-.84.26,0,1.46.2,3.3-.52,4.65a28.2,28.2,0,0,1-3.41-9.39,36.74,36.74,0,0,1-.38-6.11c0-1.5,0-3,.1-4.48A43.92,43.92,0,0,1,106.23,85.89Zm-1.43-1.12a2.25,2.25,0,0,1,.36.86,6.15,6.15,0,0,1-.53,1.89c-.34,1-.57,2.13-.82,3.19s-.55,2.41-.72,3.62a23.24,23.24,0,0,1-.78,4.47,15.84,15.84,0,0,1-1.41,2.67,8.4,8.4,0,0,1-1.11,2.07,46.41,46.41,0,0,1,3.36-23.6h.18a13.34,13.34,0,0,0,.88,3.53C104.4,83.91,104.58,84.35,104.8,84.77Zm-.61-22.29,3.1,2.18A10.24,10.24,0,0,1,109,66a23.71,23.71,0,0,1-3.36,1.33,16.71,16.71,0,0,1-3.27,1.08,20.07,20.07,0,0,1,1.28-2.84c.15-.33.48-.83.38-1.2s-.39-.5-.63-.66a10.18,10.18,0,0,0-2-1c-.34-.13-.89-.15-1.05-.53-.25-.54.19-1.44.36-2A18.14,18.14,0,0,1,104.19,62.48Zm-2.84,4.75c-.19-.22,0-.68.12-.89.29-.73.76-1.34.56-2.16a4,4,0,0,0-1.14,1.64,2,2,0,0,1-.66,1,11.78,11.78,0,0,1,.55-2.33c0-.19.09-.67-.21-.67s-.45.4-.55.59c-.32.61-.38,1.42-.91,1.89,0-1,.25-2,.25-3.1a7.77,7.77,0,0,1,2.85.93c.3.16.75.38.71.79a5.86,5.86,0,0,1-1,2.07C101.85,67.09,101.55,67.46,101.35,67.23Zm.25,1.6c-1.31.31-2.56.89-3.87,1.21a22.58,22.58,0,0,1,.86-2.76A5.93,5.93,0,0,1,101.6,68.83Zm-2.84-6.71a4.18,4.18,0,0,1,.52-2.24c.08-.21.27-.69.57-.58s0,.65,0,.84C99.6,60.81,99.45,61.78,98.76,62.12Zm2.67-10.2c1-.29,1.73,1.41.6,1.72S100.11,52.3,101.43,51.92Zm-5.94,5.63c-2.59,0-5.12,1-7.67,1.39-.86.12-2.09.51-2.92.16l1.72-.57c.35-.12.69-.25,1-.4s1.84-.73,1.26-1.32c-.33-.35-1.07-.2-1.52-.26-1.2-.16-2.87-.53-3.44-1.75.44.06.85.23,1.29.3a15.09,15.09,0,0,0,3.36.12,41.31,41.31,0,0,0,4.13-.82,22,22,0,0,1,4-.21,21.12,21.12,0,0,1,3.27.47c.32.06.91.07,1.12.37s0,.58,0,.8a9.09,9.09,0,0,1-.62,1.89c-.1.21-.22.47-.46.54-.39.11-1-.25-1.37-.33A15.44,15.44,0,0,0,95.49,57.55Zm2.65,5.54c.2-.25.52-.19.79-.11-.13.49-.34,1-.46,1.46s-.09,1.25-.66,1.55c0-.67.12-1.31.17-2C98,63.71,97.93,63.34,98.14,63.09Zm-.5-1.75h.17a.65.65,0,0,1-.34.35Zm-.75,1.36c.41-.12.4.47.37.71a5.7,5.7,0,0,1-.57,2.5c0-.81-.09-1.61-.08-2.42C96.61,63.26,96.59,62.78,96.89,62.7Zm-.11,4.84c.19-.4.39-.71.86-.6-.13.55-.31,1.1-.49,1.64-.12.37-.24.74-.37,1.11a2.88,2.88,0,0,1-.51,1.09c-.16.16-.46.22-.53-.06s.19-.74.29-1C96.28,69,96.47,68.24,96.78,67.54ZM96,62.63c0,1-.26,1.95-.35,2.93-.69-.45.08-1.83-.49-2.46-.29-.33-.44.17-.45.39a7.83,7.83,0,0,1-.27,2.33c-.34-1-.24-2.06-.51-3.1A7.52,7.52,0,0,1,96,62.63Zm-.09,4.31A22.18,22.18,0,0,1,95,69.87a3.5,3.5,0,0,1-.59,1.48,2.81,2.81,0,0,1-1,.41,14.73,14.73,0,0,1-2.58.78,24.13,24.13,0,0,1,3.1-4.31C94.5,67.53,95,66.94,95.92,66.94Zm-2.67-4c.48.52.28,1.74.26,2.41a.9.9,0,0,1-.26.69A4.3,4.3,0,0,1,93.25,62.89ZM83.69,74.52c.76-.74,1.55-1.44,2.32-2.16,1.37-1.27,2.69-2.58,4.08-3.83A6.38,6.38,0,0,1,92,67c.24-.08.45,0,.69,0a2.83,2.83,0,0,0,.77-.07,11.48,11.48,0,0,1-1.51,2.16c-.64.8-1.25,1.62-1.9,2.41a8.69,8.69,0,0,1-1.68,1.89,10,10,0,0,1-2.06.82,19.06,19.06,0,0,1-3.61,1.25A7.71,7.71,0,0,1,83.69,74.52ZM79.22,78.1a5.26,5.26,0,0,1,1.28-.63c1.89-.8,3.84-1.46,5.77-2.15,5.06-1.81,10.13-3.61,15.16-5.49q2.91-1.1,5.86-2.09a15.89,15.89,0,0,1,3.7-1c-.18.55-1,.74-1.55.94-1.49.62-3,1.21-4.48,1.81-6.18,2.47-12.36,5-18.6,7.3-1.78.65-3.53,1.41-5.34,2-.47.15-1.64.45-2-.09A.48.48,0,0,1,79.22,78.1ZM77.3,84a14.84,14.84,0,0,1,3.2-4.09,7.65,7.65,0,0,1,2-1,4,4,0,0,1,2.07-.43,1.76,1.76,0,0,1,1.38-.86,10.8,10.8,0,0,0-.35,1.55A4,4,0,0,1,87.48,77a11.69,11.69,0,0,1-.43,1.72c.87-.67,1-2,2.15-2.41-.08.84-.69,1.56-.77,2.41.82-1,1.38-2.94,2.75-3.19a12.61,12.61,0,0,1-1,2.5,3.05,3.05,0,0,0-.34,1.2A22.2,22.2,0,0,1,92,75.81c.34-.46.61-1,1.22-1a14,14,0,0,1-1.14,2.75,5.35,5.35,0,0,0-.67,1.72,30.8,30.8,0,0,1,2.3-3.7,4.67,4.67,0,0,1,1.58-1.72c0,1.48-1.2,2.92-1.81,4.22A3.14,3.14,0,0,0,93,79.34a10.3,10.3,0,0,1,1.18-1.89c.61-.92,1.17-1.86,1.8-2.76a4.87,4.87,0,0,1,1.41-1.64c.09.58-.33,1.14-.58,1.64-.54,1.07-1.14,2.11-1.68,3.19a3.67,3.67,0,0,0-.58,1.46A13,13,0,0,1,96,77c.73-1.13,1.4-2.29,2.21-3.36.46-.61,1-1.44,1.78-1.55a7.07,7.07,0,0,1-1,2.15c-1,1.76-2.18,3.44-3,5.25,1.61-1.86,2.84-4.11,4.27-6.11.53-.74,1.16-1.93,2.1-2.15a8.3,8.3,0,0,1-1.17,2.32c-.8,1.41-1.64,2.8-2.43,4.22a6.33,6.33,0,0,0-1,2.07,22.71,22.71,0,0,1,1.58-2.41c1.09-1.71,2.18-3.42,3.33-5.09.74-1.06,1.48-2.12,2.84-2.32a12.58,12.58,0,0,1-1.63,2.84L101,77.36A21.19,21.19,0,0,0,99.36,80a30.2,30.2,0,0,0,2-2.76c1.24-1.81,2.47-3.63,3.75-5.42,1-1.37,1.94-2.92,3.74-3.19a4.82,4.82,0,0,1-1.31,2.15A48.55,48.55,0,0,0,104.72,75,45.49,45.49,0,0,0,99.51,88a41.07,41.07,0,0,0-.84,8.35,61.65,61.65,0,0,0,.19,7.32,37.19,37.19,0,0,0,1.1,5.52,44.62,44.62,0,0,0,1.75,5.51,18.41,18.41,0,0,1,1.36,3.62,6.93,6.93,0,0,1-2.75-2.24,17.82,17.82,0,0,1-1.13-3.54c-.79-2.54-1.49-5.11-2.26-7.66a21,21,0,0,0-1.18-3.7c.18,1.24.58,2.48.88,3.7.56,2.32,1.11,4.65,1.68,7a35.34,35.34,0,0,1,.8,3.53c-1.57-.28-1.93-2.15-2.33-3.45-.68-2.2-1.35-4.42-2-6.63a18.6,18.6,0,0,0-1.1-3.36A54.8,54.8,0,0,0,95,107.76c.5,2,.9,4,1.42,6-1.54-.23-1.9-1.72-2.28-3-.49-1.67-1-3.33-1.48-5a17.62,17.62,0,0,0-1.07-3.27c.27,3.32,1.8,6.49,2.07,9.82a3.71,3.71,0,0,1-1.53-.71,3.52,3.52,0,0,1-.73-1.62c-.17-.6-.37-1.2-.53-1.81a36.14,36.14,0,0,0-1.69-5.6c.27,2.15.9,4.24,1.23,6.38a6.6,6.6,0,0,1,.21,1.46c0,.29-.18.53-.49.46-.75-.16-1.11-.94-1.38-1.58-.36-.87-.67-1.77-1-2.67a4.53,4.53,0,0,0-.76-1.72c.13.57.19,1.15.31,1.72a26,26,0,0,1,.64,3.28,2.84,2.84,0,0,1-1.55-.33c-1-.63-1.09-2.26-1.64-3.21a11.36,11.36,0,0,0,.29,1.73,1.56,1.56,0,0,1,0,.83c-.18.4-.84.3-1.15.15-.78-.38-1-1.43-1.47-2.1,0,.46.44,1.37.17,1.78-.13.2-.39.2-.6.2-.53,0-1-.11-1.12-.69h-.17A1,1,0,0,1,79,109c-.1.75-.77,1.1-1.29,1.57a9,9,0,0,0-1.22,1.53c-.16.23-.53.89-.88.63a4,4,0,0,1-.8-1.49,21.2,21.2,0,0,1-1.54-4.57,30.08,30.08,0,0,1-.47-4.73A31.66,31.66,0,0,1,77.3,84Zm-5.83,5.77a13.57,13.57,0,0,1,.93,3.45,19.56,19.56,0,0,1-.48,3.1,30.34,30.34,0,0,0-.19,6.8,29.19,29.19,0,0,0,2,7.92c.57,1.44,1.67,2.86,1.9,4.4A7.66,7.66,0,0,1,74,114.25a18.17,18.17,0,0,1-4.16-5.8,8.64,8.64,0,0,1-1-2.76c.73-.2.75-1.06.77-1.72,0-1.69,0-3.39,0-5.08-.42,0-1.09.13-1.44-.14a1.85,1.85,0,0,1-.48-1.06,13.71,13.71,0,0,1-.32-3.19,28.09,28.09,0,0,1,.39-5.94A21.93,21.93,0,0,1,69,85.11a12.52,12.52,0,0,1,1.27-2.75,2.78,2.78,0,0,1,.18,1.55,12.69,12.69,0,0,0,.29,2.67C71,87.63,71.14,88.73,71.47,89.76Zm2-25.62c1.55.31,3.1.61,4.65,1a9.92,9.92,0,0,1,2.93.73,5.19,5.19,0,0,1-1.55.49c-.61.14-1.21.34-1.81.52-1.43.42-2.88.77-4.31,1.2a19.78,19.78,0,0,1-3.18.89c.24-1.15.54-2.32.86-3.45a13.08,13.08,0,0,0,.52-1.72A17.6,17.6,0,0,1,73.44,64.14Zm-1.12-9.29c1.1-.26,1.5,1.56.43,1.88a1.14,1.14,0,0,1-1.35-.9C71.38,55.36,71.91,55,72.32,54.85Zm-5.77,7.81a18.71,18.71,0,0,0-3.19.83,22.21,22.21,0,0,1-6,1.21c-1.12,0-2.87-.16-3.54-1.21a22.08,22.08,0,0,0,6.89-1.2c-1.2-.51-2.5-.78-3.7-1.31-.52-.23-1.19-.48-1.29-1.1a26.54,26.54,0,0,0,3.44.34,12.58,12.58,0,0,0,2.59-.4,58.36,58.36,0,0,1,7.4-1.59,8.52,8.52,0,0,1,2.76,0,26.08,26.08,0,0,1-.81,3.36c-.08.3-.09.93-.36,1.12s-.78,0-1.07,0A22.92,22.92,0,0,0,66.55,62.66ZM68.8,67.2A17.91,17.91,0,0,1,70,63.67h.25a4.57,4.57,0,0,1-.31,2.24c-.24.77-.43,1.55-.69,2.32-.18.54-.34,1.19-1,1.29A9.87,9.87,0,0,1,68.8,67.2Zm-3.46.61a15.85,15.85,0,0,1,2.85-2,16,16,0,0,1-.8,2.84c-.1.31-.14.83-.37,1.07s-1.16.39-1.59.52c-1.11.32-2.25.57-3.36.92a4.4,4.4,0,0,1-1.89.42C61.91,70.34,63.63,69.07,65.34,67.81Zm-7.92,5.68A38.61,38.61,0,0,1,62.59,72c4.48-1.22,9-2.41,13.43-3.7,1.81-.52,3.61-1,5.43-1.51,1-.28,2.11-.66,3.19-.85.48-.09,1.06.21.5.67a6.88,6.88,0,0,1-2.14.84q-2.43.81-4.91,1.51-7.29,2.1-14.55,4.34c-1.77.54-3.55,1.06-5.34,1.49-.4.09-1.41.53-1.74.17C56,74.44,57,73.65,57.42,73.49ZM52.61,87.26a24.33,24.33,0,0,1,2.55-8.09c.71-1.44,1.54-3.54,3.38-3.7a4.11,4.11,0,0,1-.17.6,8.79,8.79,0,0,1,1.89-1.21,1.7,1.7,0,0,1-.26.69c.62-.54,1.62-1.42,2.5-1.2-.22.47-.63.81-.86,1.29,1-.6,1.66-1.74,2.76-2.07-.09.79-.74,1.4-1.12,2.07,1.06-.87,2.2-2.51,3.61-2.76A3.64,3.64,0,0,1,66,74.26c-.46.57-.89,1.17-1.37,1.72a36.27,36.27,0,0,0,2.92-2.77,3.84,3.84,0,0,1,1.3-.93,3.21,3.21,0,0,1-.77,1.38c-.58.77-1.22,1.51-1.73,2.32,1.09-1.09,2.12-2.24,3.27-3.28a3.64,3.64,0,0,1,2-1.2,6,6,0,0,1-1.23,1.73,40.61,40.61,0,0,0-2.82,3.44c1.25-1.24,2.52-2.47,3.68-3.79C72,72.06,72.81,71,74,70.81a6.21,6.21,0,0,1-1.24,1.81,31.38,31.38,0,0,0-2.9,3.71c1.59-1.59,3-3.34,4.64-4.87A4.23,4.23,0,0,1,77.06,70,10.89,10.89,0,0,1,75,72.71c-.91,1.05-1.78,2.13-2.68,3.19a26.14,26.14,0,0,0-1.79,2.15c.6-.52,1.1-1.15,1.64-1.72,1.6-1.68,3.1-3.45,4.74-5.08.94-.94,2-2.21,3.44-2.33-.45,1-1.66,1.61-2.41,2.33a49.85,49.85,0,0,0-4.65,5c-3,3.78-5.73,8.37-6.59,13.18a48.64,48.64,0,0,0-.47,6.72c-.53-.17-.57-.81-.6-1.3a12.7,12.7,0,0,0-.44-3.53A33.21,33.21,0,0,1,65,94.76c-.73,0-.89-.55-.94-1.21a15.76,15.76,0,0,0-.18-3.44A11.27,11.27,0,0,0,63.54,93c0,.22,0,.81-.28.87s-.46-.89-.51-1.13c-.26-1.23-.06-2.58-.42-3.79a30.52,30.52,0,0,1-.11,3.45c0,.43-.25,1.22-.78.58a2.06,2.06,0,0,1-.27-1c-.13-1,.11-2.12-.39-3-.23,1,0,2-.27,3-.07.27-.31,1-.71.63s-.22-.88-.23-1.24A5.06,5.06,0,0,0,59.14,89c0,1,0,2-.09,2.93,0,.28-.15,1-.57.63a1.56,1.56,0,0,1-.37-1,10.12,10.12,0,0,0-.26-2.41,18.1,18.1,0,0,1-.31,2.93c-.08.48-.11,1-.64,1.12-.2-.81-.06-1.62-.25-2.41h-.18a9.19,9.19,0,0,0-.25,1.29A5.29,5.29,0,0,1,56,94.15h-.18a5.53,5.53,0,0,1-.08-1.29c-.9.52-.23,1.92-1,2.59l-.26-.26c-.15.64-.13,1.32-.26,2-.51-.27-.62-.86-.77-1.38a24.55,24.55,0,0,1-.67-3.62A23,23,0,0,1,52.61,87.26Zm.33,10.17c.44.28.56.91.74,1.37a12,12,0,0,1,.55,4.66v1.46c0,.21,0,.48.14.64.31.3,1.19.13,1.59.13a34.09,34.09,0,0,0,.29,4.74c.12.84.39,1.66.49,2.5.06.59.5,1.94-.19,2.32-.53.29-1.52-.43-2-.67a53,53,0,0,0-5.43-2.86c.17-1,.54-2,.79-2.92.71-2.83,1.55-5.62,2.26-8.44A27.92,27.92,0,0,0,52.94,97.43Zm-13.55,8.26c.72-1.08,1.5-2.14,2.28-3.18a107.93,107.93,0,0,1,9.81-11.63A18.71,18.71,0,0,1,52,93.81a6,6,0,0,1,.37,1.81,30.29,30.29,0,0,1-1,3.44c-.64,2.69-1.41,5.36-2.17,8a30,30,0,0,0-1.15,4.22,7.46,7.46,0,0,1-2.58-.67,51.74,51.74,0,0,1-4.74-2.15c-.58-.29-1.17-.55-1.72-.88-.2-.12-.45-.26-.44-.52C38.66,106.62,39.15,106.06,39.39,105.69Zm3.91,5.79c-1.48-.63-2.89-1.4-4.31-2.15A3.59,3.59,0,0,1,37.27,108c.81-.21,1.95.48,2.67.84,1,.49,2,.94,3,1.42a12.68,12.68,0,0,0,2.41,1C44.92,112.07,44,111.76,43.3,111.48Zm-.61,4c.08-1.65,1.69-2.79,3.19-3.07,2.88-.55,5.56,1.41,7.92,2.76.8.46,2.17,1.36,3.1.85a2.19,2.19,0,0,0,1.1-1.83,30.36,30.36,0,0,0-.64-3,32.84,32.84,0,0,1-.37-5.69h8a1.29,1.29,0,0,1,.73.09c.34.24.42,1,.54,1.38a20.21,20.21,0,0,0,7,10.21c5.68,4.43,13,5.75,20.07,6.06a66.52,66.52,0,0,0,10.93-.57c4.69-.58,9.41-1.48,13.61-3.76a34.6,34.6,0,0,0,7.92-6l3-3a6.81,6.81,0,0,1,1.46-1.38,2.18,2.18,0,0,1,.95-.09h1.89a56.82,56.82,0,0,1,7.15.17,5.64,5.64,0,0,1-.83,2.07c-.64,1.19-1.29,2.36-2,3.53-.9,1.55-1.86,3.09-2.88,4.57a14,14,0,0,1-2.33,2.81,13.58,13.58,0,0,1-3.87,2,58,58,0,0,1-6.89,2.31,92.12,92.12,0,0,1-17.14,2.93,113.64,113.64,0,0,1-12.92.1c-2.24-.1-4.48-.06-6.72-.27a69.21,69.21,0,0,1-19.12-4.61c-4.45-1.8-8.45-4.54-12.74-6.68a20.22,20.22,0,0,0-6.81-2.47,6,6,0,0,0-1.89.06A10.36,10.36,0,0,1,42.69,115.51Zm74.59,16.19c-1,0-1.91-.46-2.93-.31a3.88,3.88,0,0,0-1.64.6c-.3.21-.55.49-.86.67a8.87,8.87,0,0,1-1,.34h.77a11.57,11.57,0,0,0-1.25,2.75c-.1.38-.24,1-.65,1.19s-.89-.14-1.2-.26c-1-.38-1.95-.81-2.93-1.24A35.58,35.58,0,0,0,98.67,133a10.44,10.44,0,0,0-3.1-.3,3.89,3.89,0,0,0-3.66,2.48c-.31.79-.4,1.62-.69,2.41a1,1,0,0,1-.73.76c-1.16.21-2.62-.76-3.61-1.25-2.76-1.39-5.28-3.29-8.27-4.18a4.53,4.53,0,0,0-4.74,1.31l-1.38,1.38c-.19.19-.41.47-.69.53s-.62-.17-.86-.29c-.67-.35-1.32-.75-2-1.13a40.22,40.22,0,0,1-5.94-4.1,12.7,12.7,0,0,1-2.15-2c1,.44,2,1,3.1,1.35a37.81,37.81,0,0,0,6.11,1.67,3.34,3.34,0,0,0-1.38-.55c-.75-.23-1.5-.49-2.24-.78a33.23,33.23,0,0,1-7.75-4,9.18,9.18,0,0,1-2.49-2.44,7.64,7.64,0,0,1,2.06.84c1,.51,2.06,1.06,3.1,1.54A58.9,58.9,0,0,0,70,129.31c1,.28,2.06.51,3.1.75a3.39,3.39,0,0,0,1.63.18c-2-.65-4-1.22-6-1.9a67.79,67.79,0,0,1-10.93-4.81,35.81,35.81,0,0,1-4.83-3.16,25.23,25.23,0,0,0-5-3.54,8.3,8.3,0,0,0-2.67-.7,9.06,9.06,0,0,1-1.38-.1v-.17a7.29,7.29,0,0,1,3.53.2,34,34,0,0,1,7.32,3.18c3.3,1.71,6.41,3.74,9.82,5.24a63.61,63.61,0,0,0,12.14,3.74A87.88,87.88,0,0,0,92,129.9a98.51,98.51,0,0,0,25.4-2.11,80.06,80.06,0,0,0,9.13-2.64c1.49-.51,3-1.35,4.48-1.71a6.89,6.89,0,0,1-3.79,3.22,50.93,50.93,0,0,1-9,2.77,12.79,12.79,0,0,0-3.54.9,31.74,31.74,0,0,0,8.19-1.46c1-.3,2-.62,3-1a8.68,8.68,0,0,1,1.64-.52c-1.34,2.62-4.9,3.22-7.5,3.76A15.2,15.2,0,0,1,117.28,131.7Zm3.62,1.52a2.66,2.66,0,0,1-1.12-.41,16.77,16.77,0,0,1-1.73-.76c1-.29,2-.38,2.93-.59a24.4,24.4,0,0,1,3.27-.7,5.89,5.89,0,0,1-2.41,2.08A2.33,2.33,0,0,1,120.9,133.22ZM132.52,131a3.33,3.33,0,0,0-3,2.47c-.14.79.15,2-.56,2.55-.53.43-1.47.15-2.06,0a51.18,51.18,0,0,1-5-2.17v-.17a24.56,24.56,0,0,0,3-2.67c2.29-2.13,4.42-4.42,6.63-6.64,0,.36-.31.68-.52,1-.51.67-1,1.35-1.54,2,1-.72,1.83-2.25,3.1-2.5a10.09,10.09,0,0,1-1.29,2.07,5.42,5.42,0,0,1,2.49-1.81,3.13,3.13,0,0,1-.51,1.38c.27-.26.63-.66,1-.68s.49.19.69.34a14.66,14.66,0,0,1,1.29,1.2,11.66,11.66,0,0,1,3.19,6.46C137.26,132.81,135.13,130.67,132.52,131Z"/><path d="M138.07,99.84c-.16-.13-.45-.09-.64-.09h-1.64v2.41h1.64c.21,0,.54,0,.69-.13s.09-.85.09-1.16S138.31,100,138.07,99.84Z"/><rect x="140.53" y="99.75" width="2.33" height="2.41"/><path d="M131.2,99.84c-.19.15-.14.48-.14.69v1.63h2.41V99.75h-1.64C131.64,99.75,131.36,99.71,131.2,99.84Z"/><path d="M56.78,101.13c-.18.15-.13.48-.13.69v1.64h2.41V101H57.42A1.08,1.08,0,0,0,56.78,101.13Z"/><rect x="61.38" y="101.04" width="2.33" height="2.41"/><rect x="66.12" y="101.04" width="2.33" height="2.41"/><rect x="130.37" y="104.75" width="2.33" height="2.41"/><rect x="137.86" y="104.75" width="2.41" height="2.41"/><path d="M136.82,112.52c.38-.17.41-1.32.13-1.59a2.64,2.64,0,0,0-1.84-.09c-.44.19-.52,1.27-.2,1.59A2.78,2.78,0,0,0,136.82,112.52Z"/><path d="M129.46,112.45a2.85,2.85,0,0,0,1.85.08c.47-.19.47-1.27.13-1.59a2.59,2.59,0,0,0-1.84-.1C129.14,111.05,129.1,112.13,129.46,112.45Z"/><rect x="114.09" y="122.32" width="2.41" height="3.36"/><rect x="74.47" y="121.28" width="2.33" height="3.36"/><rect x="94.54" y="124.64" width="2.33" height="3.36"/></svg>