<!DOCTYPE svg PUBLIC "-//W3C//DTD SVG 20010904//EN" "http://www.w3.org/TR/2001/REC-SVG-20010904/DTD/svg10.dtd">
<svg version="1.0" xmlns="http://www.w3.org/2000/svg" width="160px" height="107px" viewBox="0 0 1600 1070" preserveAspectRatio="xMidYMid meet">
<g id="layer101" fill="#0c4ea2" stroke="none">
 <path d="M0 535 l0 -535 800 0 800 0 0 535 0 535 -800 0 -800 0 0 -535z"/>
 </g>
<g id="layer102" fill="#ec1d26" stroke="none">
 <path d="M0 890 l0 -180 159 0 160 0 -32 -62 c-29 -56 -32 -70 -35 -175 l-4 -113 -124 0 -124 0 0 -180 0 -180 800 0 800 0 0 180 0 180 -444 0 -444 0 -3 113 c-4 105 -7 119 -36 175 l-32 62 480 0 479 0 0 180 0 180 -800 0 -800 0 0 -180z m535 -116 c50 -33 94 -73 107 -97 20 -38 -49 -76 -80 -45 -9 9 -16 5 -32 -15 -29 -36 -71 -36 -100 0 -16 20 -23 24 -32 15 -31 -31 -100 7 -80 45 22 39 132 123 162 123 8 0 33 -12 55 -26z"/>
 </g>
<g id="layer103" fill="#fdfbfc" stroke="none">
 <path d="M413 781 c-120 -78 -163 -162 -163 -321 l0 -100 -125 0 -125 0 0 -180 0 -180 800 0 800 0 0 180 0 180 -445 0 -445 0 0 93 c0 162 -40 245 -159 325 -34 23 -66 42 -70 42 -5 0 -35 -17 -68 -39z m100 9 c14 -11 28 -20 31 -20 13 0 79 -66 101 -100 41 -66 50 -116 47 -262 l-3 -138 -209 0 -210 0 -1 138 c-1 75 -1 141 0 145 1 4 2 15 4 25 6 38 53 114 93 152 24 22 46 40 49 40 4 0 18 9 32 20 14 11 29 20 33 20 4 0 19 -9 33 -20z"/>
 <path d="M460 549 l0 -41 -55 4 -55 3 0 -30 0 -30 55 3 c54 4 55 3 55 -23 0 -27 -1 -28 -45 -22 -45 7 -45 6 -45 -24 l0 -30 46 7 47 7 -7 -42 c-6 -40 -6 -41 24 -41 30 0 30 1 24 41 l-7 42 47 -7 46 -7 0 30 c0 30 0 31 -45 24 -44 -6 -45 -5 -45 22 0 26 1 27 55 23 l55 -3 0 30 0 30 -55 -3 -55 -4 0 41 c0 34 -3 41 -20 41 -17 0 -20 -7 -20 -41z"/>
 </g>

</svg>