<!DOCTYPE svg PUBLIC "-//W3C//DTD SVG 20010904//EN" "http://www.w3.org/TR/2001/REC-SVG-20010904/DTD/svg10.dtd">
<svg version="1.0" xmlns="http://www.w3.org/2000/svg" width="1600px" height="800px" viewBox="0 0 16000 8000" preserveAspectRatio="xMidYMid meet">
<g id="layer101" fill="#215b33" stroke="none">
<path d="M0 4000 l0 -4000 8000 0 8000 0 0 4000 0 4000 -8000 0 -8000 0 0 -4000z"/>
</g>
<g id="layer102" fill="#0051ba" stroke="none">
<path d="M0 4000 l0 -4000 8000 0 8000 0 0 203 0 202 -7598 3798 -7597 3798 -402 -1 -403 0 0 -4000z"/>
</g>
<g id="layer103" fill="#fcd116" stroke="none">
<path d="M0 7798 l0 -203 7598 -3798 7597 -3798 403 1 402 0 0 203 0 202 -7598 3798 -7597 3798 -402 -1 -403 0 0 -202z"/>
</g>
<g id="layer104" fill="#ffffff" stroke="none">
<path d="M760 4373 c4 -15 18 -57 30 -93 115 -351 141 -434 132 -439 -5 -3 -109 -78 -230 -166 l-221 -160 283 -3 284 -2 10 -28 c6 -15 46 -136 89 -269 42 -134 80 -243 83 -243 4 0 46 121 94 270 l87 270 285 2 285 3 -220 159 c-122 88 -225 164 -230 170 -5 7 28 123 80 281 48 148 87 270 86 271 -1 1 -106 -74 -234 -167 l-232 -169 -223 161 c-123 89 -228 166 -235 171 -9 7 -10 3 -3 -19z"/>
<path d="M3910 4399 c0 -2 40 -125 89 -274 51 -156 84 -275 80 -281 -5 -6 -108 -82 -230 -170 l-220 -159 285 -3 285 -2 87 -270 c48 -149 90 -270 94 -270 3 0 41 109 83 243 43 133 83 254 89 269 l10 28 284 2 283 3 -221 160 c-121 88 -225 163 -230 166 -9 5 17 88 132 439 39 117 40 123 27 112 -7 -5 -112 -82 -235 -171 l-222 -162 -203 147 c-111 81 -217 158 -234 172 -18 13 -33 23 -33 21z"/>
<path d="M2333 3033 c3 -5 42 -122 87 -262 45 -140 84 -259 86 -265 2 -6 -101 -87 -230 -181 l-234 -170 290 -5 291 -5 83 -255 c46 -140 84 -261 84 -267 0 -7 5 -13 10 -13 6 0 10 6 10 13 0 6 38 127 84 267 l83 255 293 5 c294 5 294 5 265 24 -27 17 -419 300 -437 315 -4 4 32 128 81 276 48 149 87 271 85 273 -1 2 -102 -69 -225 -158 -122 -89 -227 -164 -234 -166 -6 -3 -114 70 -238 161 -212 154 -245 177 -234 158z"/>
<path d="M775 1617 c13 -39 53 -162 89 -272 51 -157 63 -202 53 -212 -12 -12 -157 -118 -356 -261 l-94 -67 286 -3 285 -2 10 -28 c23 -58 162 -489 162 -500 0 -7 4 -12 8 -12 4 0 29 66 55 148 26 81 65 201 87 267 l39 120 287 5 287 5 -231 167 -230 168 34 107 c18 60 58 182 88 273 30 90 54 165 53 167 -1 1 -104 -72 -227 -162 -124 -90 -231 -164 -238 -165 -7 0 -110 71 -230 158 -119 87 -222 161 -228 165 -7 4 -2 -25 11 -66z"/>
<path d="M3910 1689 c0 -2 41 -125 90 -274 l89 -270 -23 -20 c-13 -11 -117 -87 -231 -170 l-208 -150 287 -5 287 -5 39 -120 c22 -66 61 -186 87 -267 26 -82 49 -148 52 -148 4 0 45 121 92 268 l86 267 287 5 288 5 -227 164 c-124 91 -228 168 -230 171 -2 4 20 81 50 171 108 329 123 379 111 372 -6 -4 -109 -78 -228 -165 -120 -87 -222 -158 -228 -158 -9 0 -358 247 -457 323 -7 5 -13 8 -13 6z"/>
</g>


</svg>