<?xml version="1.0" standalone="yes"?>
<svg xmlns="http://www.w3.org/2000/svg" width="2200" height="1467">
<path style="fill:#017749; stroke:none;" d="M0 0L0 127L0 161C0 165.287 -1.22848 171.957 1.02778 175.787C4.16438 181.111 13.9904 184.848 19 188.427C34.0852 199.207 49.5709 209.381 65 219.667L227 327.667C363.466 418.644 500.539 508.693 637 599.667C677.358 626.572 718.242 652.939 758 680.72C771.519 690.166 785.536 698.903 799 708.424C810.283 716.404 822.333 726.464 835 732C828.818 740.751 819.012 745.99 810 751.4C799.8 757.522 789.896 764.069 780 770.667C738.347 798.435 696.22 825.615 655 854.026C600.917 891.302 545.654 926.897 491 963.333C391.285 1029.81 291.716 1096.52 192 1163C146.012 1193.66 99.5131 1223.61 54 1254.97C41.1131 1263.86 27.7506 1272.06 15 1281.14C10.9742 1284.01 3.56224 1286.91 1.02778 1291.21C-1.22851 1295.04 0 1301.71 0 1306L0 1340L0 1467L185 1467L240 1467C248.309 1467 259.086 1468.8 267 1466.03C275.437 1463.09 282.651 1456.24 290 1451.33L337 1420C386.37 1387.09 436.147 1354.7 485 1321.03C546.005 1278.98 608.386 1238.82 670 1197.67C760.561 1137.18 850.81 1076.19 942 1016.66C989.972 985.338 1036.83 952.333 1085 921.308C1097.11 913.51 1109.2 905.529 1121 897.28C1128.67 891.917 1136.21 885.23 1145 881.761C1154.24 878.117 1166.23 880 1176 880L1239 880L1456 880L2200 880L2200 587L1455 587L1238 587L1175 587C1165.15 587 1153.31 588.795 1144 585.07C1135.21 581.556 1127.76 574.623 1120 569.344C1105.1 559.202 1090.01 549.32 1075 539.333C1025.64 506.487 976.334 473.556 927 440.667C766.759 333.839 607.906 224.59 446 120.308C404.197 93.3831 363.366 64.9109 322 37.3334C310.334 29.556 298.538 21.941 287 13.9745C280.606 9.55957 274.427 3.61414 267 0.969116C259.396 -1.73901 248.994 0 241 0L186 0L0 0z"/>
<path style="fill:#ffffff; stroke:none;" d="M266 0C286.055 16.7936 310.281 30.0297 332 44.6698C377.178 75.123 422.668 105.112 468 135.333L873 405.333C938.301 448.867 1002.74 494.004 1069 536.053C1085.88 546.766 1102.47 558.096 1119 569.344C1127.48 575.113 1135.9 583.338 1146 586.073C1156.71 588.974 1169.96 587 1181 587L1250 587L1474 587L2200 587L2200 489L1477 489L1264 489C1246.46 489 1228.5 487.891 1211 489.089C1199.18 489.899 1184.39 492.499 1173 488.289C1164.89 485.292 1158.05 478.882 1151 474.026C1139.13 465.841 1127 458 1115 450L992 368C862.058 281.372 731.951 194.967 602 108.333C564.613 83.4088 527.384 58.256 490 33.3334C478.714 25.8097 467.32 18.4608 456 10.9969C451.251 7.86584 446.072 2.32764 440.715 0.513916C435.562 -1.23022 428.393 0 423 0L387 0L266 0z"/>
<path style="fill:#e13d31; stroke:none;" d="M442 0C447.2 8.98755 460.545 14.3662 469 20C490.055 34.0302 510.952 48.3013 532 62.3334C607.386 112.59 682.617 163.078 758 213.333C853.57 277.046 949.43 340.287 1045 404L1133 462.667C1140.71 467.81 1148.45 472.91 1156 478.291C1161.68 482.338 1167.21 486.94 1174 488.956C1185.99 492.517 1200.74 489.576 1213 489.039C1231.92 488.211 1251.06 489 1270 489L1488 489L2200 489L2200 0L442 0z"/>
<path style="fill:#ffffff; stroke:none;" d="M0 176L1 177L0 176z"/>
<path style="fill:#ffb91d; stroke:none;" d="M0 177L0 259L0 282C0 285.233 -0.746586 289.647 0.603395 292.671C2.5744 297.087 10.0852 299.973 14 302.424C24.7964 309.184 35.4073 316.259 46 323.333C86.4201 350.329 126.123 378.363 167 404.692C212.542 434.025 257.084 465.054 302 495.33C371.38 542.097 441.384 587.923 511 634.333L613 702.333C621.646 708.097 630.193 714.061 639 719.576C646.074 724.005 654.052 728.125 659 735C652.143 737.599 646.083 742.611 640 746.667L609 767.333C574.946 790.036 541.054 812.964 507 835.667C398.722 907.852 290.282 979.812 182 1052C139.28 1080.48 96.7213 1109.19 54 1137.67C41.8995 1145.73 30.2284 1154.43 18 1162.31C13.1037 1165.46 4.31301 1168.72 1.02778 1173.61C-0.662642 1176.13 0.000184429 1180.13 0 1183L0 1205L0 1290C9.9503 1286.38 18.3612 1278.98 27 1273.03C38.8774 1264.84 51.1192 1257.21 63 1249.03C102.217 1222 141.957 1195.48 182 1169.69C330.488 1074.05 476.045 973.637 623 875.667L777 773C790.195 764.203 803.593 755.781 817 747.319C823.435 743.257 831.629 739.078 835 732C827.116 728.271 820.237 722.494 813 717.667C798.281 707.849 783.721 697.814 769 688C722.619 657.079 676.385 625.923 630 595C489.817 501.545 349.187 408.791 209 315.333L68 221.333C55.0001 212.667 41.8067 204.23 29 195.28C19.7692 188.829 10.69 180.891 0 177z"/>
<path style="fill:#8d9c31; stroke:none;" d="M3 178L4 179L3 178M5 179L6 180L5 179z"/>
<path style="fill:#6d9437; stroke:none;" d="M7 180L8 181L7 180z"/>
<path style="fill:#8d9c31; stroke:none;" d="M10 182L11 183L10 182M13 184L14 185L13 184M16 186L17 187L16 186z"/>
<path style="fill:#508d3b; stroke:none;" d="M19 188L20 189L19 188z"/>
<path style="fill:#8d9c31; stroke:none;" d="M20 189L21 190L20 189z"/>
<path style="fill:#6d9437; stroke:none;" d="M23 191L24 192L23 191z"/>
<path style="fill:#8d9c31; stroke:none;" d="M27 194L28 195L27 194M30 196L31 197L30 196z"/>
<path style="fill:#b3a62a; stroke:none;" d="M33 198L34 199L33 198M36 200L37 201L36 200M39 202L40 203L39 202M42 204L43 205L42 204M45 206L46 207L45 206M48 208L49 209L48 208M51 210L52 211L51 210z"/>
<path style="fill:#8d9c31; stroke:none;" d="M54 212L55 213L54 212M57 214L58 215L57 214M60 216L61 217L60 216M63 218L64 219L63 218M66 220L67 221L66 220M69 222L70 223L69 222M72 224L73 225L72 224M75 226L76 227L75 226M78 228L79 229L78 228M81 230L82 231L81 230M84 232L85 233L84 232M87 234L88 235L87 234M90 236L91 237L90 236M93 238L94 239L93 238M96 240L97 241L96 240M99 242L100 243L99 242M102 244L103 245L102 244M105 246L106 247L105 246M108 248L109 249L108 248M111 250L112 251L111 250M114 252L115 253L114 252M117 254L118 255L117 254M120 256L121 257L120 256M123 258L124 259L123 258M126 260L127 261L126 260M129 262L130 263L129 262M132 264L133 265L132 264M135 266L136 267L135 266M138 268L139 269L138 268M141 270L142 271L141 270M144 272L145 273L144 272M147 274L148 275L147 274M150 276L151 277L150 276M153 278L154 279L153 278M156 280L157 281L156 280M159 282L160 283L159 282M162 284L163 285L162 284M165 286L166 287L165 286M168 288L169 289L168 288M171 290L172 291L171 290M174 292L175 293L174 292z"/>
<path style="fill:#010101; stroke:none;" d="M0 294L0 1173C13.4516 1166.71 25.8633 1157.2 38 1148.72C51.5217 1139.27 65.2742 1130.15 79 1121L235 1017L513 831.667C561.647 799.235 611.469 768.043 659 734C652.523 726.703 643.051 722.33 635 716.996C619.305 706.598 603.668 696.112 588 685.667L437 585C334.324 516.582 232.311 447.102 129 379.656C99.9929 360.719 71.8196 340.547 43 321.333C28.9499 311.967 14.9186 301.942 0 294z"/>
<path style="fill:#af7f15; stroke:none;" d="M1 294L2 295L1 294z"/>
<path style="fill:#8d9c31; stroke:none;" d="M177 294L178 295L177 294z"/>
<path style="fill:#473409; stroke:none;" d="M2 295L3 296L2 295z"/>
<path style="fill:#7d5a0f; stroke:none;" d="M4 296L5 297L4 296z"/>
<path style="fill:#8d9c31; stroke:none;" d="M180 296L181 297L180 296z"/>
<path style="fill:#bf8b17; stroke:none;" d="M6 297L7 298L6 297z"/>
<path style="fill:#6c4e0d; stroke:none;" d="M7 298L8 299L7 298z"/>
<path style="fill:#8d9c31; stroke:none;" d="M183 298L184 299L183 298z"/>
<path style="fill:#966e12; stroke:none;" d="M9 299L10 300L9 299z"/>
<path style="fill:#473409; stroke:none;" d="M10 300L11 301L10 300z"/>
<path style="fill:#8d9c31; stroke:none;" d="M186 300L187 301L186 300z"/>
<path style="fill:#7d5a0f; stroke:none;" d="M12 301L13 302L12 301z"/>
<path style="fill:#bf8b17; stroke:none;" d="M14 302L15 303L14 302z"/>
<path style="fill:#8d9c31; stroke:none;" d="M189 302L190 303L189 302z"/>
<path style="fill:#6c4e0d; stroke:none;" d="M15 303L16 304L15 303z"/>
<path style="fill:#af7f15; stroke:none;" d="M17 304L18 305L17 304z"/>
<path style="fill:#8d9c31; stroke:none;" d="M192 304L193 305L192 304z"/>
<path style="fill:#473409; stroke:none;" d="M18 305L19 306L18 305z"/>
<path style="fill:#966e12; stroke:none;" d="M20 306L21 307L20 306z"/>
<path style="fill:#8d9c31; stroke:none;" d="M195 306L196 307L195 306z"/>
<path style="fill:#473409; stroke:none;" d="M21 307L22 308L21 307z"/>
<path style="fill:#7d5a0f; stroke:none;" d="M23 308L24 309L23 308z"/>
<path style="fill:#8d9c31; stroke:none;" d="M198 308L199 309L198 308z"/>
<path style="fill:#6c4e0d; stroke:none;" d="M26 310L27 311L26 310z"/>
<path style="fill:#8d9c31; stroke:none;" d="M201 310L202 311L201 310z"/>
<path style="fill:#bf8b17; stroke:none;" d="M28 311L29 312L28 311z"/>
<path style="fill:#6c4e0d; stroke:none;" d="M29 312L30 313L29 312z"/>
<path style="fill:#8d9c31; stroke:none;" d="M204 312L205 313L204 312z"/>
<path style="fill:#bf8b17; stroke:none;" d="M31 313L32 314L31 313z"/>
<path style="fill:#6c4e0d; stroke:none;" d="M32 314L33 315L32 314z"/>
<path style="fill:#8d9c31; stroke:none;" d="M207 314L208 315L207 314z"/>
<path style="fill:#af7f15; stroke:none;" d="M34 315L35 316L34 315z"/>
<path style="fill:#473409; stroke:none;" d="M35 316L36 317L35 316z"/>
<path style="fill:#8d9c31; stroke:none;" d="M210 316L211 317L210 316z"/>
<path style="fill:#af7f15; stroke:none;" d="M37 317L38 318L37 317z"/>
<path style="fill:#473409; stroke:none;" d="M38 318L39 319L38 318z"/>
<path style="fill:#8d9c31; stroke:none;" d="M213 318L214 319L213 318z"/>
<path style="fill:#af7f15; stroke:none;" d="M40 319L41 320L40 319z"/>
<path style="fill:#473409; stroke:none;" d="M41 320L42 321L41 320z"/>
<path style="fill:#8d9c31; stroke:none;" d="M216 320L217 321L216 320z"/>
<path style="fill:#af7f15; stroke:none;" d="M43 321L44 322L43 321z"/>
<path style="fill:#473409; stroke:none;" d="M44 322L45 323L44 322z"/>
<path style="fill:#8d9c31; stroke:none;" d="M219 322L220 323L219 322z"/>
<path style="fill:#bf8b17; stroke:none;" d="M46 323L47 324L46 323z"/>
<path style="fill:#6c4e0d; stroke:none;" d="M47 324L48 325L47 324z"/>
<path style="fill:#8d9c31; stroke:none;" d="M222 324L223 325L222 324z"/>
<path style="fill:#bf8b17; stroke:none;" d="M49 325L50 326L49 325z"/>
<path style="fill:#6c4e0d; stroke:none;" d="M50 326L51 327L50 326z"/>
<path style="fill:#8d9c31; stroke:none;" d="M225 326L226 327L225 326z"/>
<path style="fill:#bf8b17; stroke:none;" d="M52 327L53 328L52 327z"/>
<path style="fill:#6c4e0d; stroke:none;" d="M53 328L54 329L53 328z"/>
<path style="fill:#8d9c31; stroke:none;" d="M228 328L229 329L228 328z"/>
<path style="fill:#7d5a0f; stroke:none;" d="M56 330L57 331L56 330z"/>
<path style="fill:#8d9c31; stroke:none;" d="M231 330L232 331L231 330z"/>
<path style="fill:#7d5a0f; stroke:none;" d="M59 332L60 333L59 332z"/>
<path style="fill:#8d9c31; stroke:none;" d="M234 332L235 333L234 332z"/>
<path style="fill:#473409; stroke:none;" d="M60 333L61 334L60 333z"/>
<path style="fill:#966e12; stroke:none;" d="M62 334L63 335L62 334z"/>
<path style="fill:#8d9c31; stroke:none;" d="M237 334L238 335L237 334z"/>
<path style="fill:#473409; stroke:none;" d="M63 335L64 336L63 335z"/>
<path style="fill:#af7f15; stroke:none;" d="M65 336L66 337L65 336z"/>
<path style="fill:#8d9c31; stroke:none;" d="M240 336L241 337L240 336z"/>
<path style="fill:#473409; stroke:none;" d="M66 337L67 338L66 337z"/>
<path style="fill:#af7f15; stroke:none;" d="M68 338L69 339L68 338z"/>
<path style="fill:#8d9c31; stroke:none;" d="M243 338L244 339L243 338z"/>
<path style="fill:#6c4e0d; stroke:none;" d="M69 339L70 340L69 339z"/>
<path style="fill:#bf8b17; stroke:none;" d="M71 340L72 341L71 340z"/>
<path style="fill:#8d9c31; stroke:none;" d="M246 340L247 341L246 340z"/>
<path style="fill:#6c4e0d; stroke:none;" d="M72 341L73 342L72 341z"/>
<path style="fill:#8d9c31; stroke:none;" d="M249 342L250 343L249 342z"/>
<path style="fill:#7d5a0f; stroke:none;" d="M75 343L76 344L75 343z"/>
<path style="fill:#8d9c31; stroke:none;" d="M252 344L253 345L252 344z"/>
<path style="fill:#966e12; stroke:none;" d="M78 345L79 346L78 345z"/>
<path style="fill:#473409; stroke:none;" d="M79 346L80 347L79 346z"/>
<path style="fill:#8d9c31; stroke:none;" d="M255 346L256 347L255 346z"/>
<path style="fill:#af7f15; stroke:none;" d="M81 347L82 348L81 347z"/>
<path style="fill:#473409; stroke:none;" d="M82 348L83 349L82 348z"/>
<path style="fill:#8d9c31; stroke:none;" d="M258 348L259 349L258 348z"/>
<path style="fill:#af7f15; stroke:none;" d="M84 349L85 350L84 349z"/>
<path style="fill:#6c4e0d; stroke:none;" d="M85 350L86 351L85 350z"/>
<path style="fill:#8d9c31; stroke:none;" d="M261 350L262 351L261 350z"/>
<path style="fill:#bf8b17; stroke:none;" d="M87 351L88 352L87 351z"/>
<path style="fill:#6c4e0d; stroke:none;" d="M88 352L89 353L88 352z"/>
<path style="fill:#8d9c31; stroke:none;" d="M264 352L265 353L264 352z"/>
<path style="fill:#7d5a0f; stroke:none;" d="M91 354L92 355L91 354z"/>
<path style="fill:#8d9c31; stroke:none;" d="M267 354L268 355L267 354z"/>
<path style="fill:#966e12; stroke:none;" d="M94 356L95 357L94 356z"/>
<path style="fill:#8d9c31; stroke:none;" d="M270 356L271 357L270 356z"/>
<path style="fill:#966e12; stroke:none;" d="M97 358L98 359L97 358z"/>
<path style="fill:#8d9c31; stroke:none;" d="M273 358L274 359L273 358z"/>
<path style="fill:#af7f15; stroke:none;" d="M100 360L101 361L100 360z"/>
<path style="fill:#8d9c31; stroke:none;" d="M276 360L277 361L276 360z"/>
<path style="fill:#473409; stroke:none;" d="M101 361L102 362L101 361z"/>
<path style="fill:#af7f15; stroke:none;" d="M103 362L104 363L103 362z"/>
<path style="fill:#8d9c31; stroke:none;" d="M279 362L280 363L279 362z"/>
<path style="fill:#473409; stroke:none;" d="M104 363L105 364L104 363z"/>
<path style="fill:#bf8b17; stroke:none;" d="M106 364L107 365L106 364z"/>
<path style="fill:#8d9c31; stroke:none;" d="M282 364L283 365L282 364z"/>
<path style="fill:#6c4e0d; stroke:none;" d="M107 365L108 366L107 365z"/>
<path style="fill:#bf8b17; stroke:none;" d="M109 366L110 367L109 366z"/>
<path style="fill:#8d9c31; stroke:none;" d="M285 366L286 367L285 366z"/>
<path style="fill:#6c4e0d; stroke:none;" d="M110 367L111 368L110 367z"/>
<path style="fill:#bf8b17; stroke:none;" d="M112 368L113 369L112 368z"/>
<path style="fill:#8d9c31; stroke:none;" d="M288 368L289 369L288 368z"/>
<path style="fill:#6c4e0d; stroke:none;" d="M113 369L114 370L113 369z"/>
<path style="fill:#bf8b17; stroke:none;" d="M115 370L116 371L115 370z"/>
<path style="fill:#8d9c31; stroke:none;" d="M291 370L292 371L291 370z"/>
<path style="fill:#6c4e0d; stroke:none;" d="M116 371L117 372L116 371z"/>
<path style="fill:#bf8b17; stroke:none;" d="M118 372L119 373L118 372z"/>
<path style="fill:#8d9c31; stroke:none;" d="M294 372L295 373L294 372z"/>
<path style="fill:#6c4e0d; stroke:none;" d="M119 373L120 374L119 373z"/>
<path style="fill:#bf8b17; stroke:none;" d="M121 374L122 375L121 374z"/>
<path style="fill:#8d9c31; stroke:none;" d="M297 374L298 375L297 374z"/>
<path style="fill:#6c4e0d; stroke:none;" d="M122 375L123 376L122 375z"/>
<path style="fill:#af7f15; stroke:none;" d="M124 376L125 377L124 376z"/>
<path style="fill:#8d9c31; stroke:none;" d="M300 376L301 377L300 376z"/>
<path style="fill:#473409; stroke:none;" d="M125 377L126 378L125 377z"/>
<path style="fill:#af7f15; stroke:none;" d="M127 378L128 379L127 378z"/>
<path style="fill:#8d9c31; stroke:none;" d="M303 378L304 379L303 378z"/>
<path style="fill:#473409; stroke:none;" d="M128 379L129 380L128 379z"/>
<path style="fill:#af7f15; stroke:none;" d="M130 380L131 381L130 380z"/>
<path style="fill:#8d9c31; stroke:none;" d="M306 380L307 381L306 380z"/>
<path style="fill:#473409; stroke:none;" d="M131 381L132 382L131 381z"/>
<path style="fill:#966e12; stroke:none;" d="M133 382L134 383L133 382z"/>
<path style="fill:#8d9c31; stroke:none;" d="M309 382L310 383L309 382z"/>
<path style="fill:#966e12; stroke:none;" d="M136 384L137 385L136 384z"/>
<path style="fill:#8d9c31; stroke:none;" d="M312 384L313 385L312 384z"/>
<path style="fill:#966e12; stroke:none;" d="M139 386L140 387L139 386z"/>
<path style="fill:#8d9c31; stroke:none;" d="M315 386L316 387L315 386z"/>
<path style="fill:#966e12; stroke:none;" d="M142 388L143 389L142 388z"/>
<path style="fill:#8d9c31; stroke:none;" d="M318 388L319 389L318 388z"/>
<path style="fill:#966e12; stroke:none;" d="M145 390L146 391L145 390z"/>
<path style="fill:#8d9c31; stroke:none;" d="M321 390L322 391L321 390z"/>
<path style="fill:#7d5a0f; stroke:none;" d="M148 392L149 393L148 392z"/>
<path style="fill:#8d9c31; stroke:none;" d="M324 392L325 393L324 392z"/>
<path style="fill:#7d5a0f; stroke:none;" d="M151 394L152 395L151 394z"/>
<path style="fill:#8d9c31; stroke:none;" d="M327 394L328 395L327 394z"/>
<path style="fill:#7d5a0f; stroke:none;" d="M154 396L155 397L154 396z"/>
<path style="fill:#8d9c31; stroke:none;" d="M330 396L331 397L330 396z"/>
<path style="fill:#7d5a0f; stroke:none;" d="M157 398L158 399L157 398z"/>
<path style="fill:#8d9c31; stroke:none;" d="M333 398L334 399L333 398z"/>
<path style="fill:#7d5a0f; stroke:none;" d="M160 400L161 401L160 400z"/>
<path style="fill:#b3a62a; stroke:none;" d="M336 400L337 401L336 400z"/>
<path style="fill:#508d3b; stroke:none;" d="M338 401L339 402L338 401z"/>
<path style="fill:#7d5a0f; stroke:none;" d="M163 402L164 403L163 402z"/>
<path style="fill:#b3a62a; stroke:none;" d="M339 402L340 403L339 402z"/>
<path style="fill:#bf8b17; stroke:none;" d="M165 403L166 404L165 403z"/>
<path style="fill:#508d3b; stroke:none;" d="M341 403L342 404L341 403z"/>
<path style="fill:#6c4e0d; stroke:none;" d="M166 404L167 405L166 404z"/>
<path style="fill:#b3a62a; stroke:none;" d="M342 404L343 405L342 404z"/>
<path style="fill:#bf8b17; stroke:none;" d="M168 405L169 406L168 405z"/>
<path style="fill:#508d3b; stroke:none;" d="M344 405L345 406L344 405z"/>
<path style="fill:#6c4e0d; stroke:none;" d="M169 406L170 407L169 406z"/>
<path style="fill:#b3a62a; stroke:none;" d="M345 406L346 407L345 406z"/>
<path style="fill:#bf8b17; stroke:none;" d="M171 407L172 408L171 407z"/>
<path style="fill:#508d3b; stroke:none;" d="M347 407L348 408L347 407z"/>
<path style="fill:#6c4e0d; stroke:none;" d="M172 408L173 409L172 408z"/>
<path style="fill:#b3a62a; stroke:none;" d="M348 408L349 409L348 408z"/>
<path style="fill:#bf8b17; stroke:none;" d="M174 409L175 410L174 409z"/>
<path style="fill:#508d3b; stroke:none;" d="M350 409L351 410L350 409z"/>
<path style="fill:#6c4e0d; stroke:none;" d="M175 410L176 411L175 410z"/>
<path style="fill:#b3a62a; stroke:none;" d="M351 410L352 411L351 410z"/>
<path style="fill:#bf8b17; stroke:none;" d="M177 411L178 412L177 411z"/>
<path style="fill:#508d3b; stroke:none;" d="M353 411L354 412L353 411z"/>
<path style="fill:#6c4e0d; stroke:none;" d="M178 412L179 413L178 412z"/>
<path style="fill:#b3a62a; stroke:none;" d="M354 412L355 413L354 412z"/>
<path style="fill:#bf8b17; stroke:none;" d="M180 413L181 414L180 413z"/>
<path style="fill:#508d3b; stroke:none;" d="M356 413L357 414L356 413z"/>
<path style="fill:#6c4e0d; stroke:none;" d="M181 414L182 415L181 414z"/>
<path style="fill:#b3a62a; stroke:none;" d="M357 414L358 415L357 414z"/>
<path style="fill:#bf8b17; stroke:none;" d="M183 415L184 416L183 415z"/>
<path style="fill:#508d3b; stroke:none;" d="M359 415L360 416L359 415z"/>
<path style="fill:#6c4e0d; stroke:none;" d="M184 416L185 417L184 416z"/>
<path style="fill:#b3a62a; stroke:none;" d="M360 416L361 417L360 416z"/>
<path style="fill:#bf8b17; stroke:none;" d="M186 417L187 418L186 417z"/>
<path style="fill:#508d3b; stroke:none;" d="M362 417L363 418L362 417z"/>
<path style="fill:#6c4e0d; stroke:none;" d="M187 418L188 419L187 418z"/>
<path style="fill:#b3a62a; stroke:none;" d="M363 418L364 419L363 418z"/>
<path style="fill:#bf8b17; stroke:none;" d="M189 419L190 420L189 419z"/>
<path style="fill:#6d9437; stroke:none;" d="M365 419L366 420L365 419z"/>
<path style="fill:#6c4e0d; stroke:none;" d="M190 420L191 421L190 420z"/>
<path style="fill:#bf8b17; stroke:none;" d="M192 421L193 422L192 421z"/>
<path style="fill:#6d9437; stroke:none;" d="M368 421L369 422L368 421z"/>
<path style="fill:#6c4e0d; stroke:none;" d="M193 422L194 423L193 422z"/>
<path style="fill:#bf8b17; stroke:none;" d="M195 423L196 424L195 423z"/>
<path style="fill:#6d9437; stroke:none;" d="M371 423L372 424L371 423z"/>
<path style="fill:#6c4e0d; stroke:none;" d="M196 424L197 425L196 424z"/>
<path style="fill:#bf8b17; stroke:none;" d="M198 425L199 426L198 425z"/>
<path style="fill:#6d9437; stroke:none;" d="M374 425L375 426L374 425z"/>
<path style="fill:#6c4e0d; stroke:none;" d="M199 426L200 427L199 426z"/>
<path style="fill:#bf8b17; stroke:none;" d="M201 427L202 428L201 427z"/>
<path style="fill:#6d9437; stroke:none;" d="M377 427L378 428L377 427z"/>
<path style="fill:#6c4e0d; stroke:none;" d="M202 428L203 429L202 428z"/>
<path style="fill:#bf8b17; stroke:none;" d="M204 429L205 430L204 429z"/>
<path style="fill:#6d9437; stroke:none;" d="M380 429L381 430L380 429z"/>
<path style="fill:#6c4e0d; stroke:none;" d="M205 430L206 431L205 430z"/>
<path style="fill:#bf8b17; stroke:none;" d="M207 431L208 432L207 431z"/>
<path style="fill:#6d9437; stroke:none;" d="M383 431L384 432L383 431z"/>
<path style="fill:#6c4e0d; stroke:none;" d="M208 432L209 433L208 432z"/>
<path style="fill:#bf8b17; stroke:none;" d="M210 433L211 434L210 433z"/>
<path style="fill:#6d9437; stroke:none;" d="M386 433L387 434L386 433z"/>
<path style="fill:#6c4e0d; stroke:none;" d="M211 434L212 435L211 434z"/>
<path style="fill:#bf8b17; stroke:none;" d="M213 435L214 436L213 435z"/>
<path style="fill:#8d9c31; stroke:none;" d="M389 435L390 436L389 435z"/>
<path style="fill:#6c4e0d; stroke:none;" d="M214 436L215 437L214 436z"/>
<path style="fill:#8d9c31; stroke:none;" d="M392 437L393 438L392 437z"/>
<path style="fill:#7d5a0f; stroke:none;" d="M217 438L218 439L217 438z"/>
<path style="fill:#8d9c31; stroke:none;" d="M395 439L396 440L395 439z"/>
<path style="fill:#7d5a0f; stroke:none;" d="M220 440L221 441L220 440z"/>
<path style="fill:#8d9c31; stroke:none;" d="M398 441L399 442L398 441z"/>
<path style="fill:#7d5a0f; stroke:none;" d="M223 442L224 443L223 442z"/>
<path style="fill:#8d9c31; stroke:none;" d="M401 443L402 444L401 443z"/>
<path style="fill:#7d5a0f; stroke:none;" d="M226 444L227 445L226 444z"/>
<path style="fill:#8d9c31; stroke:none;" d="M404 445L405 446L404 445z"/>
<path style="fill:#7d5a0f; stroke:none;" d="M229 446L230 447L229 446z"/>
<path style="fill:#8d9c31; stroke:none;" d="M407 447L408 448L407 447z"/>
<path style="fill:#7d5a0f; stroke:none;" d="M232 448L233 449L232 448z"/>
<path style="fill:#8d9c31; stroke:none;" d="M410 449L411 450L410 449z"/>
<path style="fill:#7d5a0f; stroke:none;" d="M235 450L236 451L235 450z"/>
<path style="fill:#8d9c31; stroke:none;" d="M413 451L414 452L413 451z"/>
<path style="fill:#7d5a0f; stroke:none;" d="M238 452L239 453L238 452z"/>
<path style="fill:#8d9c31; stroke:none;" d="M416 453L417 454L416 453z"/>
<path style="fill:#966e12; stroke:none;" d="M241 454L242 455L241 454z"/>
<path style="fill:#8d9c31; stroke:none;" d="M419 455L420 456L419 455z"/>
<path style="fill:#966e12; stroke:none;" d="M244 456L245 457L244 456z"/>
<path style="fill:#8d9c31; stroke:none;" d="M422 457L423 458L422 457z"/>
<path style="fill:#966e12; stroke:none;" d="M247 458L248 459L247 458z"/>
<path style="fill:#8d9c31; stroke:none;" d="M425 459L426 460L425 459z"/>
<path style="fill:#966e12; stroke:none;" d="M250 460L251 461L250 460z"/>
<path style="fill:#8d9c31; stroke:none;" d="M428 461L429 462L428 461z"/>
<path style="fill:#966e12; stroke:none;" d="M253 462L254 463L253 462z"/>
<path style="fill:#508d3b; stroke:none;" d="M430 462L431 463L430 462z"/>
<path style="fill:#b3a62a; stroke:none;" d="M431 463L432 464L431 463z"/>
<path style="fill:#966e12; stroke:none;" d="M256 464L257 465L256 464z"/>
<path style="fill:#508d3b; stroke:none;" d="M433 464L434 465L433 464z"/>
<path style="fill:#b3a62a; stroke:none;" d="M434 465L435 466L434 465z"/>
<path style="fill:#966e12; stroke:none;" d="M259 466L260 467L259 466z"/>
<path style="fill:#508d3b; stroke:none;" d="M436 466L437 467L436 466z"/>
<path style="fill:#473409; stroke:none;" d="M260 467L261 468L260 467z"/>
<path style="fill:#b3a62a; stroke:none;" d="M437 467L438 468L437 467z"/>
<path style="fill:#af7f15; stroke:none;" d="M262 468L263 469L262 468z"/>
<path style="fill:#508d3b; stroke:none;" d="M439 468L440 469L439 468z"/>
<path style="fill:#473409; stroke:none;" d="M263 469L264 470L263 469z"/>
<path style="fill:#b3a62a; stroke:none;" d="M440 469L441 470L440 469z"/>
<path style="fill:#af7f15; stroke:none;" d="M265 470L266 471L265 470z"/>
<path style="fill:#508d3b; stroke:none;" d="M442 470L443 471L442 470z"/>
<path style="fill:#473409; stroke:none;" d="M266 471L267 472L266 471z"/>
<path style="fill:#b3a62a; stroke:none;" d="M443 471L444 472L443 471z"/>
<path style="fill:#af7f15; stroke:none;" d="M268 472L269 473L268 472z"/>
<path style="fill:#508d3b; stroke:none;" d="M445 472L446 473L445 472z"/>
<path style="fill:#473409; stroke:none;" d="M269 473L270 474L269 473z"/>
<path style="fill:#b3a62a; stroke:none;" d="M446 473L447 474L446 473z"/>
<path style="fill:#af7f15; stroke:none;" d="M271 474L272 475L271 474z"/>
<path style="fill:#6d9437; stroke:none;" d="M448 474L449 475L448 474z"/>
<path style="fill:#473409; stroke:none;" d="M272 475L273 476L272 475z"/>
<path style="fill:#af7f15; stroke:none;" d="M274 476L275 477L274 476z"/>
<path style="fill:#6d9437; stroke:none;" d="M451 476L452 477L451 476z"/>
<path style="fill:#473409; stroke:none;" d="M275 477L276 478L275 477z"/>
<path style="fill:#af7f15; stroke:none;" d="M277 478L278 479L277 478z"/>
<path style="fill:#6d9437; stroke:none;" d="M454 478L455 479L454 478z"/>
<path style="fill:#6c4e0d; stroke:none;" d="M278 479L279 480L278 479z"/>
<path style="fill:#bf8b17; stroke:none;" d="M280 480L281 481L280 480z"/>
<path style="fill:#6d9437; stroke:none;" d="M457 480L458 481L457 480z"/>
<path style="fill:#6c4e0d; stroke:none;" d="M281 481L282 482L281 481z"/>
<path style="fill:#bf8b17; stroke:none;" d="M283 482L284 483L283 482z"/>
<path style="fill:#6d9437; stroke:none;" d="M460 482L461 483L460 482z"/>
<path style="fill:#6c4e0d; stroke:none;" d="M284 483L285 484L284 483z"/>
<path style="fill:#bf8b17; stroke:none;" d="M286 484L287 485L286 484z"/>
<path style="fill:#6d9437; stroke:none;" d="M463 484L464 485L463 484z"/>
<path style="fill:#6c4e0d; stroke:none;" d="M287 485L288 486L287 485z"/>
<path style="fill:#bf8b17; stroke:none;" d="M289 486L290 487L289 486z"/>
<path style="fill:#6d9437; stroke:none;" d="M466 486L467 487L466 486z"/>
<path style="fill:#6c4e0d; stroke:none;" d="M290 487L291 488L290 487z"/>
<path style="fill:#bf8b17; stroke:none;" d="M292 488L293 489L292 488z"/>
<path style="fill:#8d9c31; stroke:none;" d="M469 488L470 489L469 488z"/>
<path style="fill:#6c4e0d; stroke:none;" d="M293 489L294 490L293 489z"/>
<path style="fill:#bf8b17; stroke:none;" d="M295 490L296 491L295 490z"/>
<path style="fill:#8d9c31; stroke:none;" d="M472 490L473 491L472 490z"/>
<path style="fill:#6c4e0d; stroke:none;" d="M296 491L297 492L296 491z"/>
<path style="fill:#8d9c31; stroke:none;" d="M475 492L476 493L475 492z"/>
<path style="fill:#6c4e0d; stroke:none;" d="M299 493L300 494L299 493z"/>
<path style="fill:#8d9c31; stroke:none;" d="M478 494L479 495L478 494z"/>
<path style="fill:#6c4e0d; stroke:none;" d="M302 495L303 496L302 495z"/>
<path style="fill:#8d9c31; stroke:none;" d="M481 496L482 497L481 496z"/>
<path style="fill:#6c4e0d; stroke:none;" d="M305 497L306 498L305 497z"/>
<path style="fill:#8d9c31; stroke:none;" d="M484 498L485 499L484 498z"/>
<path style="fill:#6c4e0d; stroke:none;" d="M308 499L309 500L308 499z"/>
<path style="fill:#8d9c31; stroke:none;" d="M487 500L488 501L487 500z"/>
<path style="fill:#6c4e0d; stroke:none;" d="M311 501L312 502L311 501z"/>
<path style="fill:#8d9c31; stroke:none;" d="M490 502L491 503L490 502z"/>
<path style="fill:#7d5a0f; stroke:none;" d="M314 503L315 504L314 503z"/>
<path style="fill:#8d9c31; stroke:none;" d="M493 504L494 505L493 504z"/>
<path style="fill:#7d5a0f; stroke:none;" d="M317 505L318 506L317 505z"/>
<path style="fill:#8d9c31; stroke:none;" d="M496 506L497 507L496 506z"/>
<path style="fill:#7d5a0f; stroke:none;" d="M320 507L321 508L320 507z"/>
<path style="fill:#8d9c31; stroke:none;" d="M499 508L500 509L499 508z"/>
<path style="fill:#7d5a0f; stroke:none;" d="M323 509L324 510L323 509z"/>
<path style="fill:#8d9c31; stroke:none;" d="M502 510L503 511L502 510z"/>
<path style="fill:#7d5a0f; stroke:none;" d="M326 511L327 512L326 511z"/>
<path style="fill:#b3a62a; stroke:none;" d="M505 512L506 513L505 512z"/>
<path style="fill:#7d5a0f; stroke:none;" d="M329 513L330 514L329 513z"/>
<path style="fill:#508d3b; stroke:none;" d="M507 513L508 514L507 513z"/>
<path style="fill:#b3a62a; stroke:none;" d="M508 514L509 515L508 514z"/>
<path style="fill:#7d5a0f; stroke:none;" d="M332 515L333 516L332 515z"/>
<path style="fill:#508d3b; stroke:none;" d="M510 515L511 516L510 515z"/>
<path style="fill:#b3a62a; stroke:none;" d="M511 516L512 517L511 516z"/>
<path style="fill:#7d5a0f; stroke:none;" d="M335 517L336 518L335 517z"/>
<path style="fill:#508d3b; stroke:none;" d="M513 517L514 518L513 517z"/>
<path style="fill:#b3a62a; stroke:none;" d="M514 518L515 519L514 518z"/>
<path style="fill:#7d5a0f; stroke:none;" d="M338 519L339 520L338 519z"/>
<path style="fill:#508d3b; stroke:none;" d="M516 519L517 520L516 519z"/>
<path style="fill:#b3a62a; stroke:none;" d="M517 520L518 521L517 520z"/>
<path style="fill:#af7f15; stroke:none;" d="M341 521L342 522L341 521z"/>
<path style="fill:#508d3b; stroke:none;" d="M519 521L520 522L519 521z"/>
<path style="fill:#b3a62a; stroke:none;" d="M520 522L521 523L520 522z"/>
<path style="fill:#af7f15; stroke:none;" d="M344 523L345 524L344 523z"/>
<path style="fill:#508d3b; stroke:none;" d="M522 523L523 524L522 523z"/>
<path style="fill:#b3a62a; stroke:none;" d="M523 524L524 525L523 524z"/>
<path style="fill:#af7f15; stroke:none;" d="M347 525L348 526L347 525z"/>
<path style="fill:#508d3b; stroke:none;" d="M525 525L526 526L525 525z"/>
<path style="fill:#af7f15; stroke:none;" d="M350 527L351 528L350 527z"/>
<path style="fill:#6d9437; stroke:none;" d="M528 527L529 528L528 527z"/>
<path style="fill:#af7f15; stroke:none;" d="M353 529L354 530L353 529z"/>
<path style="fill:#6d9437; stroke:none;" d="M531 529L532 530L531 529z"/>
<path style="fill:#af7f15; stroke:none;" d="M356 531L357 532L356 531z"/>
<path style="fill:#6d9437; stroke:none;" d="M534 531L535 532L534 531z"/>
<path style="fill:#af7f15; stroke:none;" d="M359 533L360 534L359 533z"/>
<path style="fill:#6d9437; stroke:none;" d="M537 533L538 534L537 533z"/>
<path style="fill:#af7f15; stroke:none;" d="M362 535L363 536L362 535z"/>
<path style="fill:#6d9437; stroke:none;" d="M540 535L541 536L540 535z"/>
<path style="fill:#af7f15; stroke:none;" d="M365 537L366 538L365 537z"/>
<path style="fill:#6d9437; stroke:none;" d="M543 537L544 538L543 537z"/>
<path style="fill:#af7f15; stroke:none;" d="M368 539L369 540L368 539z"/>
<path style="fill:#6d9437; stroke:none;" d="M546 539L547 540L546 539z"/>
<path style="fill:#af7f15; stroke:none;" d="M371 541L372 542L371 541z"/>
<path style="fill:#8d9c31; stroke:none;" d="M549 541L550 542L549 541z"/>
<path style="fill:#af7f15; stroke:none;" d="M374 543L375 544L374 543z"/>
<path style="fill:#8d9c31; stroke:none;" d="M552 543L553 544L552 543z"/>
<path style="fill:#af7f15; stroke:none;" d="M377 545L378 546L377 545z"/>
<path style="fill:#8d9c31; stroke:none;" d="M555 545L556 546L555 545z"/>
<path style="fill:#af7f15; stroke:none;" d="M380 547L381 548L380 547z"/>
<path style="fill:#8d9c31; stroke:none;" d="M558 547L559 548L558 547z"/>
<path style="fill:#af7f15; stroke:none;" d="M383 549L384 550L383 549z"/>
<path style="fill:#8d9c31; stroke:none;" d="M561 549L562 550L561 549z"/>
<path style="fill:#af7f15; stroke:none;" d="M386 551L387 552L386 551z"/>
<path style="fill:#8d9c31; stroke:none;" d="M564 551L565 552L564 551z"/>
<path style="fill:#af7f15; stroke:none;" d="M389 553L390 554L389 553z"/>
<path style="fill:#8d9c31; stroke:none;" d="M567 553L568 554L567 553z"/>
<path style="fill:#af7f15; stroke:none;" d="M392 555L393 556L392 555z"/>
<path style="fill:#8d9c31; stroke:none;" d="M570 555L571 556L570 555z"/>
<path style="fill:#966e12; stroke:none;" d="M395 557L396 558L395 557z"/>
<path style="fill:#8d9c31; stroke:none;" d="M573 557L574 558L573 557z"/>
<path style="fill:#7d5a0f; stroke:none;" d="M398 559L399 560L398 559z"/>
<path style="fill:#8d9c31; stroke:none;" d="M576 559L577 560L576 559z"/>
<path style="fill:#7d5a0f; stroke:none;" d="M401 561L402 562L401 561z"/>
<path style="fill:#8d9c31; stroke:none;" d="M579 561L580 562L579 561z"/>
<path style="fill:#7d5a0f; stroke:none;" d="M404 563L405 564L404 563z"/>
<path style="fill:#8d9c31; stroke:none;" d="M582 563L583 564L582 563z"/>
<path style="fill:#7d5a0f; stroke:none;" d="M407 565L408 566L407 565z"/>
<path style="fill:#8d9c31; stroke:none;" d="M585 565L586 566L585 565z"/>
<path style="fill:#7d5a0f; stroke:none;" d="M410 567L411 568L410 567z"/>
<path style="fill:#8d9c31; stroke:none;" d="M588 567L589 568L588 567z"/>
<path style="fill:#7d5a0f; stroke:none;" d="M413 569L414 570L413 569z"/>
<path style="fill:#8d9c31; stroke:none;" d="M591 569L592 570L591 569z"/>
<path style="fill:#6c4e0d; stroke:none;" d="M416 571L417 572L416 571z"/>
<path style="fill:#8d9c31; stroke:none;" d="M594 571L595 572L594 571z"/>
<path style="fill:#6c4e0d; stroke:none;" d="M419 573L420 574L419 573z"/>
<path style="fill:#8d9c31; stroke:none;" d="M597 573L598 574L597 573z"/>
<path style="fill:#6c4e0d; stroke:none;" d="M422 575L423 576L422 575z"/>
<path style="fill:#8d9c31; stroke:none;" d="M600 575L601 576L600 575z"/>
<path style="fill:#6c4e0d; stroke:none;" d="M425 577L426 578L425 577z"/>
<path style="fill:#8d9c31; stroke:none;" d="M603 577L604 578L603 577z"/>
<path style="fill:#bf8b17; stroke:none;" d="M427 578L428 579L427 578z"/>
<path style="fill:#6c4e0d; stroke:none;" d="M428 579L429 580L428 579z"/>
<path style="fill:#8d9c31; stroke:none;" d="M606 579L607 580L606 579z"/>
<path style="fill:#bf8b17; stroke:none;" d="M430 580L431 581L430 580z"/>
<path style="fill:#6c4e0d; stroke:none;" d="M431 581L432 582L431 581z"/>
<path style="fill:#8d9c31; stroke:none;" d="M609 581L610 582L609 581z"/>
<path style="fill:#bf8b17; stroke:none;" d="M433 582L434 583L433 582z"/>
<path style="fill:#6c4e0d; stroke:none;" d="M434 583L435 584L434 583z"/>
<path style="fill:#b3a62a; stroke:none;" d="M612 583L613 584L612 583z"/>
<path style="fill:#af7f15; stroke:none;" d="M436 584L437 585L436 584z"/>
<path style="fill:#508d3b; stroke:none;" d="M614 584L615 585L614 584z"/>
<path style="fill:#473409; stroke:none;" d="M437 585L438 586L437 585z"/>
<path style="fill:#b3a62a; stroke:none;" d="M615 585L616 586L615 585z"/>
<path style="fill:#af7f15; stroke:none;" d="M439 586L440 587L439 586z"/>
<path style="fill:#508d3b; stroke:none;" d="M617 586L618 587L617 586z"/>
<path style="fill:#473409; stroke:none;" d="M440 587L441 588L440 587z"/>
<path style="fill:#b3a62a; stroke:none;" d="M618 587L619 588L618 587z"/>
<path style="fill:#af7f15; stroke:none;" d="M442 588L443 589L442 588z"/>
<path style="fill:#508d3b; stroke:none;" d="M620 588L621 589L620 588z"/>
<path style="fill:#473409; stroke:none;" d="M443 589L444 590L443 589z"/>
<path style="fill:#b3a62a; stroke:none;" d="M621 589L622 590L621 589z"/>
<path style="fill:#af7f15; stroke:none;" d="M445 590L446 591L445 590z"/>
<path style="fill:#508d3b; stroke:none;" d="M623 590L624 591L623 590z"/>
<path style="fill:#b3a62a; stroke:none;" d="M624 591L625 592L624 591z"/>
<path style="fill:#966e12; stroke:none;" d="M448 592L449 593L448 592z"/>
<path style="fill:#508d3b; stroke:none;" d="M626 592L627 593L626 592z"/>
<path style="fill:#b3a62a; stroke:none;" d="M627 593L628 594L627 593z"/>
<path style="fill:#966e12; stroke:none;" d="M451 594L452 595L451 594z"/>
<path style="fill:#508d3b; stroke:none;" d="M629 594L630 595L629 594z"/>
<path style="fill:#b3a62a; stroke:none;" d="M630 595L631 596L630 595z"/>
<path style="fill:#966e12; stroke:none;" d="M454 596L455 597L454 596z"/>
<path style="fill:#508d3b; stroke:none;" d="M632 596L633 597L632 596z"/>
<path style="fill:#b3a62a; stroke:none;" d="M633 597L634 598L633 597z"/>
<path style="fill:#966e12; stroke:none;" d="M457 598L458 599L457 598z"/>
<path style="fill:#508d3b; stroke:none;" d="M635 598L636 599L635 598z"/>
<path style="fill:#b3a62a; stroke:none;" d="M636 599L637 600L636 599z"/>
<path style="fill:#966e12; stroke:none;" d="M460 600L461 601L460 600z"/>
<path style="fill:#508d3b; stroke:none;" d="M638 600L639 601L638 600z"/>
<path style="fill:#b3a62a; stroke:none;" d="M639 601L640 602L639 601z"/>
<path style="fill:#966e12; stroke:none;" d="M463 602L464 603L463 602z"/>
<path style="fill:#508d3b; stroke:none;" d="M641 602L642 603L641 602z"/>
<path style="fill:#b3a62a; stroke:none;" d="M642 603L643 604L642 603z"/>
<path style="fill:#7d5a0f; stroke:none;" d="M466 604L467 605L466 604z"/>
<path style="fill:#508d3b; stroke:none;" d="M644 604L645 605L644 604z"/>
<path style="fill:#b3a62a; stroke:none;" d="M645 605L646 606L645 605z"/>
<path style="fill:#7d5a0f; stroke:none;" d="M469 606L470 607L469 606z"/>
<path style="fill:#508d3b; stroke:none;" d="M647 606L648 607L647 606z"/>
<path style="fill:#b3a62a; stroke:none;" d="M648 607L649 608L648 607z"/>
<path style="fill:#7d5a0f; stroke:none;" d="M472 608L473 609L472 608z"/>
<path style="fill:#508d3b; stroke:none;" d="M650 608L651 609L650 608z"/>
<path style="fill:#b3a62a; stroke:none;" d="M651 609L652 610L651 609z"/>
<path style="fill:#7d5a0f; stroke:none;" d="M475 610L476 611L475 610z"/>
<path style="fill:#508d3b; stroke:none;" d="M653 610L654 611L653 610z"/>
<path style="fill:#b3a62a; stroke:none;" d="M654 611L655 612L654 611z"/>
<path style="fill:#7d5a0f; stroke:none;" d="M478 612L479 613L478 612z"/>
<path style="fill:#508d3b; stroke:none;" d="M656 612L657 613L656 612z"/>
<path style="fill:#b3a62a; stroke:none;" d="M657 613L658 614L657 613z"/>
<path style="fill:#7d5a0f; stroke:none;" d="M481 614L482 615L481 614z"/>
<path style="fill:#508d3b; stroke:none;" d="M659 614L660 615L659 614z"/>
<path style="fill:#b3a62a; stroke:none;" d="M660 615L661 616L660 615z"/>
<path style="fill:#7d5a0f; stroke:none;" d="M484 616L485 617L484 616z"/>
<path style="fill:#508d3b; stroke:none;" d="M662 616L663 617L662 616z"/>
<path style="fill:#b3a62a; stroke:none;" d="M663 617L664 618L663 617z"/>
<path style="fill:#7d5a0f; stroke:none;" d="M487 618L488 619L487 618z"/>
<path style="fill:#508d3b; stroke:none;" d="M665 618L666 619L665 618z"/>
<path style="fill:#b3a62a; stroke:none;" d="M666 619L667 620L666 619z"/>
<path style="fill:#966e12; stroke:none;" d="M490 620L491 621L490 620z"/>
<path style="fill:#508d3b; stroke:none;" d="M668 620L669 621L668 620z"/>
<path style="fill:#b3a62a; stroke:none;" d="M669 621L670 622L669 621z"/>
<path style="fill:#966e12; stroke:none;" d="M493 622L494 623L493 622z"/>
<path style="fill:#508d3b; stroke:none;" d="M671 622L672 623L671 622z"/>
<path style="fill:#b3a62a; stroke:none;" d="M672 623L673 624L672 623z"/>
<path style="fill:#966e12; stroke:none;" d="M496 624L497 625L496 624z"/>
<path style="fill:#508d3b; stroke:none;" d="M674 624L675 625L674 624z"/>
<path style="fill:#b3a62a; stroke:none;" d="M675 625L676 626L675 625z"/>
<path style="fill:#966e12; stroke:none;" d="M499 626L500 627L499 626z"/>
<path style="fill:#508d3b; stroke:none;" d="M677 626L678 627L677 626z"/>
<path style="fill:#b3a62a; stroke:none;" d="M678 627L679 628L678 627z"/>
<path style="fill:#966e12; stroke:none;" d="M502 628L503 629L502 628z"/>
<path style="fill:#508d3b; stroke:none;" d="M680 628L681 629L680 628z"/>
<path style="fill:#b3a62a; stroke:none;" d="M681 629L682 630L681 629z"/>
<path style="fill:#966e12; stroke:none;" d="M505 630L506 631L505 630z"/>
<path style="fill:#8d9c31; stroke:none;" d="M684 631L685 632L684 631z"/>
<path style="fill:#966e12; stroke:none;" d="M508 632L509 633L508 632z"/>
<path style="fill:#8d9c31; stroke:none;" d="M687 633L688 634L687 633z"/>
<path style="fill:#966e12; stroke:none;" d="M511 634L512 635L511 634z"/>
<path style="fill:#8d9c31; stroke:none;" d="M690 635L691 636L690 635z"/>
<path style="fill:#966e12; stroke:none;" d="M514 636L515 637L514 636z"/>
<path style="fill:#8d9c31; stroke:none;" d="M693 637L694 638L693 637z"/>
<path style="fill:#966e12; stroke:none;" d="M517 638L518 639L517 638z"/>
<path style="fill:#8d9c31; stroke:none;" d="M696 639L697 640L696 639z"/>
<path style="fill:#966e12; stroke:none;" d="M520 640L521 641L520 640z"/>
<path style="fill:#473409; stroke:none;" d="M521 641L522 642L521 641z"/>
<path style="fill:#8d9c31; stroke:none;" d="M699 641L700 642L699 641z"/>
<path style="fill:#af7f15; stroke:none;" d="M523 642L524 643L523 642z"/>
<path style="fill:#473409; stroke:none;" d="M524 643L525 644L524 643z"/>
<path style="fill:#8d9c31; stroke:none;" d="M702 643L703 644L702 643z"/>
<path style="fill:#af7f15; stroke:none;" d="M526 644L527 645L526 644z"/>
<path style="fill:#473409; stroke:none;" d="M527 645L528 646L527 645z"/>
<path style="fill:#8d9c31; stroke:none;" d="M705 645L706 646L705 645z"/>
<path style="fill:#af7f15; stroke:none;" d="M529 646L530 647L529 646z"/>
<path style="fill:#473409; stroke:none;" d="M530 647L531 648L530 647z"/>
<path style="fill:#8d9c31; stroke:none;" d="M708 647L709 648L708 647z"/>
<path style="fill:#af7f15; stroke:none;" d="M532 648L533 649L532 648z"/>
<path style="fill:#473409; stroke:none;" d="M533 649L534 650L533 649z"/>
<path style="fill:#8d9c31; stroke:none;" d="M711 649L712 650L711 649z"/>
<path style="fill:#af7f15; stroke:none;" d="M535 650L536 651L535 650z"/>
<path style="fill:#473409; stroke:none;" d="M536 651L537 652L536 651z"/>
<path style="fill:#8d9c31; stroke:none;" d="M714 651L715 652L714 651z"/>
<path style="fill:#af7f15; stroke:none;" d="M538 652L539 653L538 652z"/>
<path style="fill:#473409; stroke:none;" d="M539 653L540 654L539 653z"/>
<path style="fill:#8d9c31; stroke:none;" d="M717 653L718 654L717 653z"/>
<path style="fill:#af7f15; stroke:none;" d="M541 654L542 655L541 654z"/>
<path style="fill:#473409; stroke:none;" d="M542 655L543 656L542 655z"/>
<path style="fill:#8d9c31; stroke:none;" d="M720 655L721 656L720 655z"/>
<path style="fill:#af7f15; stroke:none;" d="M544 656L545 657L544 656z"/>
<path style="fill:#473409; stroke:none;" d="M545 657L546 658L545 657z"/>
<path style="fill:#8d9c31; stroke:none;" d="M723 657L724 658L723 657z"/>
<path style="fill:#af7f15; stroke:none;" d="M547 658L548 659L547 658z"/>
<path style="fill:#473409; stroke:none;" d="M548 659L549 660L548 659z"/>
<path style="fill:#8d9c31; stroke:none;" d="M726 659L727 660L726 659z"/>
<path style="fill:#bf8b17; stroke:none;" d="M550 660L551 661L550 660z"/>
<path style="fill:#6c4e0d; stroke:none;" d="M551 661L552 662L551 661z"/>
<path style="fill:#8d9c31; stroke:none;" d="M729 661L730 662L729 661z"/>
<path style="fill:#bf8b17; stroke:none;" d="M553 662L554 663L553 662z"/>
<path style="fill:#6c4e0d; stroke:none;" d="M554 663L555 664L554 663z"/>
<path style="fill:#8d9c31; stroke:none;" d="M732 663L733 664L732 663z"/>
<path style="fill:#bf8b17; stroke:none;" d="M556 664L557 665L556 664z"/>
<path style="fill:#6c4e0d; stroke:none;" d="M557 665L558 666L557 665z"/>
<path style="fill:#6d9437; stroke:none;" d="M735 665L736 666L735 665z"/>
<path style="fill:#bf8b17; stroke:none;" d="M559 666L560 667L559 666z"/>
<path style="fill:#6c4e0d; stroke:none;" d="M560 667L561 668L560 667z"/>
<path style="fill:#6d9437; stroke:none;" d="M738 667L739 668L738 667z"/>
<path style="fill:#bf8b17; stroke:none;" d="M562 668L563 669L562 668z"/>
<path style="fill:#6c4e0d; stroke:none;" d="M563 669L564 670L563 669z"/>
<path style="fill:#6d9437; stroke:none;" d="M741 669L742 670L741 669z"/>
<path style="fill:#bf8b17; stroke:none;" d="M565 670L566 671L565 670z"/>
<path style="fill:#6c4e0d; stroke:none;" d="M566 671L567 672L566 671z"/>
<path style="fill:#6d9437; stroke:none;" d="M744 671L745 672L744 671z"/>
<path style="fill:#bf8b17; stroke:none;" d="M568 672L569 673L568 672z"/>
<path style="fill:#6c4e0d; stroke:none;" d="M569 673L570 674L569 673z"/>
<path style="fill:#6d9437; stroke:none;" d="M747 673L748 674L747 673z"/>
<path style="fill:#bf8b17; stroke:none;" d="M571 674L572 675L571 674z"/>
<path style="fill:#b3a62a; stroke:none;" d="M748 674L749 675L748 674z"/>
<path style="fill:#6c4e0d; stroke:none;" d="M572 675L573 676L572 675z"/>
<path style="fill:#508d3b; stroke:none;" d="M750 675L751 676L750 675z"/>
<path style="fill:#bf8b17; stroke:none;" d="M574 676L575 677L574 676z"/>
<path style="fill:#b3a62a; stroke:none;" d="M751 676L752 677L751 676z"/>
<path style="fill:#6c4e0d; stroke:none;" d="M575 677L576 678L575 677z"/>
<path style="fill:#508d3b; stroke:none;" d="M753 677L754 678L753 677z"/>
<path style="fill:#bf8b17; stroke:none;" d="M577 678L578 679L577 678z"/>
<path style="fill:#b3a62a; stroke:none;" d="M754 678L755 679L754 678z"/>
<path style="fill:#6c4e0d; stroke:none;" d="M578 679L579 680L578 679z"/>
<path style="fill:#508d3b; stroke:none;" d="M756 679L757 680L756 679z"/>
<path style="fill:#bf8b17; stroke:none;" d="M580 680L581 681L580 680z"/>
<path style="fill:#b3a62a; stroke:none;" d="M757 680L758 681L757 680z"/>
<path style="fill:#6c4e0d; stroke:none;" d="M581 681L582 682L581 681z"/>
<path style="fill:#508d3b; stroke:none;" d="M759 681L760 682L759 681z"/>
<path style="fill:#bf8b17; stroke:none;" d="M583 682L584 683L583 682z"/>
<path style="fill:#b3a62a; stroke:none;" d="M760 682L761 683L760 682z"/>
<path style="fill:#473409; stroke:none;" d="M584 683L585 684L584 683z"/>
<path style="fill:#af7f15; stroke:none;" d="M586 684L587 685L586 684z"/>
<path style="fill:#8d9c31; stroke:none;" d="M763 684L764 685L763 684z"/>
<path style="fill:#473409; stroke:none;" d="M587 685L588 686L587 685z"/>
<path style="fill:#af7f15; stroke:none;" d="M589 686L590 687L589 686z"/>
<path style="fill:#8d9c31; stroke:none;" d="M766 686L767 687L766 686z"/>
<path style="fill:#473409; stroke:none;" d="M590 687L591 688L590 687z"/>
<path style="fill:#af7f15; stroke:none;" d="M592 688L593 689L592 688z"/>
<path style="fill:#8d9c31; stroke:none;" d="M769 688L770 689L769 688z"/>
<path style="fill:#473409; stroke:none;" d="M593 689L594 690L593 689z"/>
<path style="fill:#af7f15; stroke:none;" d="M595 690L596 691L595 690z"/>
<path style="fill:#8d9c31; stroke:none;" d="M772 690L773 691L772 690z"/>
<path style="fill:#473409; stroke:none;" d="M596 691L597 692L596 691z"/>
<path style="fill:#af7f15; stroke:none;" d="M598 692L599 693L598 692z"/>
<path style="fill:#8d9c31; stroke:none;" d="M775 692L776 693L775 692z"/>
<path style="fill:#473409; stroke:none;" d="M599 693L600 694L599 693z"/>
<path style="fill:#966e12; stroke:none;" d="M601 694L602 695L601 694z"/>
<path style="fill:#8d9c31; stroke:none;" d="M778 694L779 695L778 694z"/>
<path style="fill:#966e12; stroke:none;" d="M604 696L605 697L604 696z"/>
<path style="fill:#8d9c31; stroke:none;" d="M781 696L782 697L781 696z"/>
<path style="fill:#966e12; stroke:none;" d="M607 698L608 699L607 698z"/>
<path style="fill:#6d9437; stroke:none;" d="M784 698L785 699L784 698z"/>
<path style="fill:#966e12; stroke:none;" d="M610 700L611 701L610 700z"/>
<path style="fill:#6d9437; stroke:none;" d="M787 700L788 701L787 700z"/>
<path style="fill:#473409; stroke:none;" d="M611 701L612 702L611 701z"/>
<path style="fill:#966e12; stroke:none;" d="M613 702L614 703L613 702z"/>
<path style="fill:#6d9437; stroke:none;" d="M790 702L791 703L790 702z"/>
<path style="fill:#473409; stroke:none;" d="M614 703L615 704L614 703z"/>
<path style="fill:#b3a62a; stroke:none;" d="M791 703L792 704L791 703z"/>
<path style="fill:#7d5a0f; stroke:none;" d="M616 704L617 705L616 704z"/>
<path style="fill:#508d3b; stroke:none;" d="M793 704L794 705L793 704z"/>
<path style="fill:#b3a62a; stroke:none;" d="M794 705L795 706L794 705z"/>
<path style="fill:#7d5a0f; stroke:none;" d="M619 706L620 707L619 706z"/>
<path style="fill:#508d3b; stroke:none;" d="M796 706L797 707L796 706z"/>
<path style="fill:#b3a62a; stroke:none;" d="M797 707L798 708L797 707z"/>
<path style="fill:#7d5a0f; stroke:none;" d="M622 708L623 709L622 708z"/>
<path style="fill:#508d3b; stroke:none;" d="M799 708L800 709L799 708z"/>
<path style="fill:#8d9c31; stroke:none;" d="M800 709L801 710L800 709z"/>
<path style="fill:#7d5a0f; stroke:none;" d="M625 710L626 711L625 710z"/>
<path style="fill:#8d9c31; stroke:none;" d="M803 711L804 712L803 711z"/>
<path style="fill:#966e12; stroke:none;" d="M628 712L629 713L628 712z"/>
<path style="fill:#473409; stroke:none;" d="M629 713L630 714L629 713z"/>
<path style="fill:#8d9c31; stroke:none;" d="M806 713L807 714L806 713z"/>
<path style="fill:#966e12; stroke:none;" d="M631 714L632 715L631 714z"/>
<path style="fill:#473409; stroke:none;" d="M632 715L633 716L632 715z"/>
<path style="fill:#8d9c31; stroke:none;" d="M809 715L810 716L809 715z"/>
<path style="fill:#966e12; stroke:none;" d="M634 716L635 717L634 716z"/>
<path style="fill:#473409; stroke:none;" d="M635 717L636 718L635 717z"/>
<path style="fill:#8d9c31; stroke:none;" d="M812 717L813 718L812 717z"/>
<path style="fill:#966e12; stroke:none;" d="M637 718L638 719L637 718z"/>
<path style="fill:#473409; stroke:none;" d="M638 719L639 720L638 719z"/>
<path style="fill:#6d9437; stroke:none;" d="M815 719L816 720L815 719z"/>
<path style="fill:#7d5a0f; stroke:none;" d="M640 720L641 721L640 720z"/>
<path style="fill:#bf8b17; stroke:none;" d="M642 721L643 722L642 721z"/>
<path style="fill:#6d9437; stroke:none;" d="M818 721L819 722L818 721z"/>
<path style="fill:#6c4e0d; stroke:none;" d="M643 722L644 723L643 722z"/>
<path style="fill:#966e12; stroke:none;" d="M645 723L646 724L645 723z"/>
<path style="fill:#6d9437; stroke:none;" d="M821 723L822 724L821 723z"/>
<path style="fill:#473409; stroke:none;" d="M646 724L647 725L646 724z"/>
<path style="fill:#b3a62a; stroke:none;" d="M822 724L823 725L822 724z"/>
<path style="fill:#7d5a0f; stroke:none;" d="M648 725L649 726L648 725z"/>
<path style="fill:#508d3b; stroke:none;" d="M824 725L825 726L824 725z"/>
<path style="fill:#b3a62a; stroke:none;" d="M825 726L826 727L825 726z"/>
<path style="fill:#7d5a0f; stroke:none;" d="M651 727L652 728L651 727z"/>
<path style="fill:#508d3b; stroke:none;" d="M827 727L828 728L827 727z"/>
<path style="fill:#473409; stroke:none;" d="M652 728L653 729L652 728z"/>
<path style="fill:#b3a62a; stroke:none;" d="M828 728L829 729L828 728z"/>
<path style="fill:#bf8b17; stroke:none;" d="M654 729L655 730L654 729z"/>
<path style="fill:#966e12; stroke:none;" d="M655 730L656 731L655 730z"/>
<path style="fill:#8d9c31; stroke:none;" d="M831 730L832 731L831 730z"/>
<path style="fill:#473409; stroke:none;" d="M656 731L657 732L656 731z"/>
<path style="fill:#508d3b; stroke:none;" d="M833 731L834 732L833 731z"/>
<path style="fill:#7d5a0f; stroke:none;" d="M658 734L659 735L658 734z"/>
<path style="fill:#473409; stroke:none;" d="M656 735L657 736L656 735z"/>
<path style="fill:#966e12; stroke:none;" d="M655 736L656 737L655 736z"/>
<path style="fill:#af7f15; stroke:none;" d="M652 738L653 739L652 738z"/>
<path style="fill:#b3a62a; stroke:none;" d="M829 738L830 739L829 738z"/>
<path style="fill:#6d9437; stroke:none;" d="M828 739L829 740L828 739z"/>
<path style="fill:#af7f15; stroke:none;" d="M649 740L650 741L649 740z"/>
<path style="fill:#b3a62a; stroke:none;" d="M825 741L826 742L825 741z"/>
<path style="fill:#7d5a0f; stroke:none;" d="M646 742L647 743L646 742z"/>
<path style="fill:#6d9437; stroke:none;" d="M824 742L825 743L824 742z"/>
<path style="fill:#6c4e0d; stroke:none;" d="M643 744L644 745L643 744z"/>
<path style="fill:#6d9437; stroke:none;" d="M821 744L822 745L821 744z"/>
<path style="fill:#b3a62a; stroke:none;" d="M819 745L820 746L819 745z"/>
<path style="fill:#7d5a0f; stroke:none;" d="M640 746L641 747L640 746z"/>
<path style="fill:#508d3b; stroke:none;" d="M818 746L819 747L818 746z"/>
<path style="fill:#8d9c31; stroke:none;" d="M816 747L817 748L816 747z"/>
<path style="fill:#6c4e0d; stroke:none;" d="M637 748L638 749L637 748z"/>
<path style="fill:#508d3b; stroke:none;" d="M813 749L814 750L813 749z"/>
<path style="fill:#6c4e0d; stroke:none;" d="M634 750L635 751L634 750z"/>
<path style="fill:#8d9c31; stroke:none;" d="M811 750L812 751L811 750z"/>
<path style="fill:#7d5a0f; stroke:none;" d="M631 752L632 753L631 752z"/>
<path style="fill:#508d3b; stroke:none;" d="M808 752L809 753L808 752z"/>
<path style="fill:#b3a62a; stroke:none;" d="M806 753L807 754L806 753z"/>
<path style="fill:#966e12; stroke:none;" d="M628 754L629 755L628 754z"/>
<path style="fill:#6d9437; stroke:none;" d="M803 755L804 756L803 755z"/>
<path style="fill:#7d5a0f; stroke:none;" d="M625 756L626 757L625 756z"/>
<path style="fill:#6d9437; stroke:none;" d="M800 757L801 758L800 757z"/>
<path style="fill:#966e12; stroke:none;" d="M622 758L623 759L622 758z"/>
<path style="fill:#7d5a0f; stroke:none;" d="M619 760L620 761L619 760z"/>
<path style="fill:#966e12; stroke:none;" d="M616 762L617 763L616 762z"/>
<path style="fill:#b3a62a; stroke:none;" d="M792 762L793 763L792 762z"/>
<path style="fill:#7d5a0f; stroke:none;" d="M613 764L614 765L613 764z"/>
<path style="fill:#8d9c31; stroke:none;" d="M789 764L790 765L789 764z"/>
<path style="fill:#7d5a0f; stroke:none;" d="M610 766L611 767L610 766z"/>
<path style="fill:#8d9c31; stroke:none;" d="M786 766L787 767L786 766z"/>
<path style="fill:#7d5a0f; stroke:none;" d="M607 768L608 769L607 768z"/>
<path style="fill:#8d9c31; stroke:none;" d="M783 768L784 769L783 768z"/>
<path style="fill:#7d5a0f; stroke:none;" d="M604 770L605 771L604 770z"/>
<path style="fill:#8d9c31; stroke:none;" d="M780 770L781 771L780 770z"/>
<path style="fill:#7d5a0f; stroke:none;" d="M601 772L602 773L601 772z"/>
<path style="fill:#8d9c31; stroke:none;" d="M777 772L778 773L777 772z"/>
<path style="fill:#7d5a0f; stroke:none;" d="M598 774L599 775L598 774z"/>
<path style="fill:#8d9c31; stroke:none;" d="M774 774L775 775L774 774z"/>
<path style="fill:#7d5a0f; stroke:none;" d="M595 776L596 777L595 776z"/>
<path style="fill:#8d9c31; stroke:none;" d="M771 776L772 777L771 776z"/>
<path style="fill:#7d5a0f; stroke:none;" d="M592 778L593 779L592 778z"/>
<path style="fill:#8d9c31; stroke:none;" d="M768 778L769 779L768 778z"/>
<path style="fill:#7d5a0f; stroke:none;" d="M589 780L590 781L589 780z"/>
<path style="fill:#8d9c31; stroke:none;" d="M765 780L766 781L765 780z"/>
<path style="fill:#7d5a0f; stroke:none;" d="M586 782L587 783L586 782z"/>
<path style="fill:#8d9c31; stroke:none;" d="M762 782L763 783L762 782z"/>
<path style="fill:#7d5a0f; stroke:none;" d="M583 784L584 785L583 784z"/>
<path style="fill:#8d9c31; stroke:none;" d="M759 784L760 785L759 784z"/>
<path style="fill:#7d5a0f; stroke:none;" d="M580 786L581 787L580 786z"/>
<path style="fill:#8d9c31; stroke:none;" d="M756 786L757 787L756 786z"/>
<path style="fill:#7d5a0f; stroke:none;" d="M577 788L578 789L577 788z"/>
<path style="fill:#b3a62a; stroke:none;" d="M753 788L754 789L753 788z"/>
<path style="fill:#508d3b; stroke:none;" d="M752 789L753 790L752 789z"/>
<path style="fill:#7d5a0f; stroke:none;" d="M574 790L575 791L574 790z"/>
<path style="fill:#b3a62a; stroke:none;" d="M750 790L751 791L750 790z"/>
<path style="fill:#7d5a0f; stroke:none;" d="M571 792L572 793L571 792z"/>
<path style="fill:#8d9c31; stroke:none;" d="M747 792L748 793L747 792z"/>
<path style="fill:#7d5a0f; stroke:none;" d="M568 794L569 795L568 794z"/>
<path style="fill:#8d9c31; stroke:none;" d="M744 794L745 795L744 794z"/>
<path style="fill:#7d5a0f; stroke:none;" d="M565 796L566 797L565 796z"/>
<path style="fill:#8d9c31; stroke:none;" d="M741 796L742 797L741 796z"/>
<path style="fill:#7d5a0f; stroke:none;" d="M562 798L563 799L562 798z"/>
<path style="fill:#8d9c31; stroke:none;" d="M738 798L739 799L738 798z"/>
<path style="fill:#7d5a0f; stroke:none;" d="M559 800L560 801L559 800z"/>
<path style="fill:#8d9c31; stroke:none;" d="M735 800L736 801L735 800z"/>
<path style="fill:#6c4e0d; stroke:none;" d="M556 802L557 803L556 802z"/>
<path style="fill:#8d9c31; stroke:none;" d="M732 802L733 803L732 802z"/>
<path style="fill:#bf8b17; stroke:none;" d="M555 803L556 804L555 803z"/>
<path style="fill:#6c4e0d; stroke:none;" d="M553 804L554 805L553 804z"/>
<path style="fill:#8d9c31; stroke:none;" d="M729 804L730 805L729 804z"/>
<path style="fill:#bf8b17; stroke:none;" d="M552 805L553 806L552 805z"/>
<path style="fill:#6c4e0d; stroke:none;" d="M550 806L551 807L550 806z"/>
<path style="fill:#8d9c31; stroke:none;" d="M726 806L727 807L726 806z"/>
<path style="fill:#bf8b17; stroke:none;" d="M549 807L550 808L549 807z"/>
<path style="fill:#6c4e0d; stroke:none;" d="M547 808L548 809L547 808z"/>
<path style="fill:#8d9c31; stroke:none;" d="M723 808L724 809L723 808z"/>
<path style="fill:#bf8b17; stroke:none;" d="M546 809L547 810L546 809z"/>
<path style="fill:#6c4e0d; stroke:none;" d="M544 810L545 811L544 810z"/>
<path style="fill:#8d9c31; stroke:none;" d="M720 810L721 811L720 810z"/>
<path style="fill:#bf8b17; stroke:none;" d="M543 811L544 812L543 811z"/>
<path style="fill:#6c4e0d; stroke:none;" d="M541 812L542 813L541 812z"/>
<path style="fill:#8d9c31; stroke:none;" d="M717 812L718 813L717 812z"/>
<path style="fill:#bf8b17; stroke:none;" d="M540 813L541 814L540 813z"/>
<path style="fill:#6c4e0d; stroke:none;" d="M538 814L539 815L538 814z"/>
<path style="fill:#8d9c31; stroke:none;" d="M714 814L715 815L714 814z"/>
<path style="fill:#bf8b17; stroke:none;" d="M537 815L538 816L537 815z"/>
<path style="fill:#6c4e0d; stroke:none;" d="M535 816L536 817L535 816z"/>
<path style="fill:#8d9c31; stroke:none;" d="M711 816L712 817L711 816z"/>
<path style="fill:#bf8b17; stroke:none;" d="M534 817L535 818L534 817z"/>
<path style="fill:#6c4e0d; stroke:none;" d="M532 818L533 819L532 818z"/>
<path style="fill:#8d9c31; stroke:none;" d="M708 818L709 819L708 818z"/>
<path style="fill:#bf8b17; stroke:none;" d="M531 819L532 820L531 819z"/>
<path style="fill:#6c4e0d; stroke:none;" d="M529 820L530 821L529 820z"/>
<path style="fill:#8d9c31; stroke:none;" d="M705 820L706 821L705 820z"/>
<path style="fill:#bf8b17; stroke:none;" d="M528 821L529 822L528 821z"/>
<path style="fill:#6c4e0d; stroke:none;" d="M526 822L527 823L526 822z"/>
<path style="fill:#8d9c31; stroke:none;" d="M702 822L703 823L702 822z"/>
<path style="fill:#bf8b17; stroke:none;" d="M525 823L526 824L525 823z"/>
<path style="fill:#6c4e0d; stroke:none;" d="M523 824L524 825L523 824z"/>
<path style="fill:#8d9c31; stroke:none;" d="M699 824L700 825L699 824z"/>
<path style="fill:#bf8b17; stroke:none;" d="M522 825L523 826L522 825z"/>
<path style="fill:#6c4e0d; stroke:none;" d="M520 826L521 827L520 826z"/>
<path style="fill:#8d9c31; stroke:none;" d="M696 826L697 827L696 826z"/>
<path style="fill:#bf8b17; stroke:none;" d="M519 827L520 828L519 827z"/>
<path style="fill:#6c4e0d; stroke:none;" d="M517 828L518 829L517 828z"/>
<path style="fill:#8d9c31; stroke:none;" d="M693 828L694 829L693 828z"/>
<path style="fill:#bf8b17; stroke:none;" d="M516 829L517 830L516 829z"/>
<path style="fill:#6c4e0d; stroke:none;" d="M514 830L515 831L514 830z"/>
<path style="fill:#8d9c31; stroke:none;" d="M690 830L691 831L690 830z"/>
<path style="fill:#bf8b17; stroke:none;" d="M513 831L514 832L513 831z"/>
<path style="fill:#6c4e0d; stroke:none;" d="M511 832L512 833L511 832z"/>
<path style="fill:#8d9c31; stroke:none;" d="M687 832L688 833L687 832z"/>
<path style="fill:#bf8b17; stroke:none;" d="M510 833L511 834L510 833z"/>
<path style="fill:#6c4e0d; stroke:none;" d="M508 834L509 835L508 834z"/>
<path style="fill:#8d9c31; stroke:none;" d="M684 834L685 835L684 834z"/>
<path style="fill:#bf8b17; stroke:none;" d="M507 835L508 836L507 835z"/>
<path style="fill:#6c4e0d; stroke:none;" d="M505 836L506 837L505 836z"/>
<path style="fill:#8d9c31; stroke:none;" d="M681 836L682 837L681 836z"/>
<path style="fill:#bf8b17; stroke:none;" d="M504 837L505 838L504 837z"/>
<path style="fill:#6c4e0d; stroke:none;" d="M502 838L503 839L502 838z"/>
<path style="fill:#8d9c31; stroke:none;" d="M678 838L679 839L678 838z"/>
<path style="fill:#bf8b17; stroke:none;" d="M501 839L502 840L501 839z"/>
<path style="fill:#6c4e0d; stroke:none;" d="M499 840L500 841L499 840z"/>
<path style="fill:#8d9c31; stroke:none;" d="M675 840L676 841L675 840z"/>
<path style="fill:#bf8b17; stroke:none;" d="M498 841L499 842L498 841z"/>
<path style="fill:#6c4e0d; stroke:none;" d="M496 842L497 843L496 842z"/>
<path style="fill:#8d9c31; stroke:none;" d="M672 842L673 843L672 842z"/>
<path style="fill:#bf8b17; stroke:none;" d="M495 843L496 844L495 843z"/>
<path style="fill:#6c4e0d; stroke:none;" d="M493 844L494 845L493 844z"/>
<path style="fill:#8d9c31; stroke:none;" d="M669 844L670 845L669 844z"/>
<path style="fill:#bf8b17; stroke:none;" d="M492 845L493 846L492 845z"/>
<path style="fill:#6c4e0d; stroke:none;" d="M490 846L491 847L490 846z"/>
<path style="fill:#8d9c31; stroke:none;" d="M666 846L667 847L666 846z"/>
<path style="fill:#bf8b17; stroke:none;" d="M489 847L490 848L489 847z"/>
<path style="fill:#6c4e0d; stroke:none;" d="M487 848L488 849L487 848z"/>
<path style="fill:#8d9c31; stroke:none;" d="M663 848L664 849L663 848z"/>
<path style="fill:#bf8b17; stroke:none;" d="M486 849L487 850L486 849z"/>
<path style="fill:#6c4e0d; stroke:none;" d="M484 850L485 851L484 850z"/>
<path style="fill:#8d9c31; stroke:none;" d="M660 850L661 851L660 850z"/>
<path style="fill:#bf8b17; stroke:none;" d="M483 851L484 852L483 851z"/>
<path style="fill:#6c4e0d; stroke:none;" d="M481 852L482 853L481 852z"/>
<path style="fill:#8d9c31; stroke:none;" d="M657 852L658 853L657 852z"/>
<path style="fill:#bf8b17; stroke:none;" d="M480 853L481 854L480 853z"/>
<path style="fill:#6c4e0d; stroke:none;" d="M478 854L479 855L478 854z"/>
<path style="fill:#8d9c31; stroke:none;" d="M654 854L655 855L654 854z"/>
<path style="fill:#bf8b17; stroke:none;" d="M477 855L478 856L477 855z"/>
<path style="fill:#6c4e0d; stroke:none;" d="M475 856L476 857L475 856z"/>
<path style="fill:#bf8b17; stroke:none;" d="M474 857L475 858L474 857z"/>
<path style="fill:#508d3b; stroke:none;" d="M650 857L651 858L650 857z"/>
<path style="fill:#6c4e0d; stroke:none;" d="M472 858L473 859L472 858z"/>
<path style="fill:#bf8b17; stroke:none;" d="M471 859L472 860L471 859z"/>
<path style="fill:#508d3b; stroke:none;" d="M647 859L648 860L647 859z"/>
<path style="fill:#6c4e0d; stroke:none;" d="M469 860L470 861L469 860z"/>
<path style="fill:#bf8b17; stroke:none;" d="M468 861L469 862L468 861z"/>
<path style="fill:#508d3b; stroke:none;" d="M644 861L645 862L644 861z"/>
<path style="fill:#6c4e0d; stroke:none;" d="M466 862L467 863L466 862z"/>
<path style="fill:#bf8b17; stroke:none;" d="M465 863L466 864L465 863z"/>
<path style="fill:#508d3b; stroke:none;" d="M641 863L642 864L641 863z"/>
<path style="fill:#6c4e0d; stroke:none;" d="M463 864L464 865L463 864z"/>
<path style="fill:#bf8b17; stroke:none;" d="M462 865L463 866L462 865z"/>
<path style="fill:#508d3b; stroke:none;" d="M638 865L639 866L638 865z"/>
<path style="fill:#6c4e0d; stroke:none;" d="M460 866L461 867L460 866z"/>
<path style="fill:#bf8b17; stroke:none;" d="M459 867L460 868L459 867z"/>
<path style="fill:#508d3b; stroke:none;" d="M635 867L636 868L635 867z"/>
<path style="fill:#6c4e0d; stroke:none;" d="M457 868L458 869L457 868z"/>
<path style="fill:#b3a62a; stroke:none;" d="M633 868L634 869L633 868z"/>
<path style="fill:#bf8b17; stroke:none;" d="M456 869L457 870L456 869z"/>
<path style="fill:#508d3b; stroke:none;" d="M632 869L633 870L632 869z"/>
<path style="fill:#6c4e0d; stroke:none;" d="M454 870L455 871L454 870z"/>
<path style="fill:#b3a62a; stroke:none;" d="M630 870L631 871L630 870z"/>
<path style="fill:#bf8b17; stroke:none;" d="M453 871L454 872L453 871z"/>
<path style="fill:#508d3b; stroke:none;" d="M629 871L630 872L629 871z"/>
<path style="fill:#7d5a0f; stroke:none;" d="M451 872L452 873L451 872z"/>
<path style="fill:#b3a62a; stroke:none;" d="M627 872L628 873L627 872z"/>
<path style="fill:#508d3b; stroke:none;" d="M626 873L627 874L626 873z"/>
<path style="fill:#7d5a0f; stroke:none;" d="M448 874L449 875L448 874z"/>
<path style="fill:#b3a62a; stroke:none;" d="M624 874L625 875L624 874z"/>
<path style="fill:#508d3b; stroke:none;" d="M623 875L624 876L623 875z"/>
<path style="fill:#7d5a0f; stroke:none;" d="M445 876L446 877L445 876z"/>
<path style="fill:#b3a62a; stroke:none;" d="M621 876L622 877L621 876z"/>
<path style="fill:#508d3b; stroke:none;" d="M620 877L621 878L620 877z"/>
<path style="fill:#7d5a0f; stroke:none;" d="M442 878L443 879L442 878z"/>
<path style="fill:#b3a62a; stroke:none;" d="M618 878L619 879L618 878z"/>
<path style="fill:#508d3b; stroke:none;" d="M617 879L618 880L617 879z"/>
<path style="fill:#7d5a0f; stroke:none;" d="M439 880L440 881L439 880z"/>
<path style="fill:#b3a62a; stroke:none;" d="M615 880L616 881L615 880z"/>
<path style="fill:#ffffff; stroke:none;" d="M266 1466C272.436 1468.7 282.049 1467 289 1467L338 1467L408 1467C417.528 1467 430.601 1469.33 439.715 1466.5C444.057 1465.15 448.164 1461.57 452 1459.19C461.784 1453.12 471.242 1446.53 481 1440.42C517.702 1417.44 553.509 1392.52 589 1367.72C631.724 1337.87 675.631 1309.58 719 1280.67C804.285 1223.81 889.715 1167.19 975 1110.33L1108 1021.67C1122 1012.33 1136.09 1003.12 1150 993.656C1157.21 988.747 1163.93 982.691 1172 979.174C1182.23 974.715 1195.24 977.174 1206 977.911C1223.5 979.109 1241.46 978 1259 978L1468 978L2200 978L2200 880L1461 880L1242 880L1177 880C1166.99 880 1154.54 878.023 1145 881.387C1136.15 884.506 1128.56 891.226 1121 896.576C1108.92 905.124 1096.44 913.293 1084 921.308C1036.17 952.116 989.497 984.683 942 1016C789.55 1116.5 637.422 1217.6 486 1319.67C436.788 1352.84 387.385 1385.74 338 1418.67L291 1450C282.828 1455.45 275.101 1462.19 266 1466z"/>
<path style="fill:#508d3b; stroke:none;" d="M614 881L615 882L614 881z"/>
<path style="fill:#7d5a0f; stroke:none;" d="M436 882L437 883L436 882z"/>
<path style="fill:#b3a62a; stroke:none;" d="M612 882L613 883L612 882z"/>
<path style="fill:#6d9437; stroke:none;" d="M611 883L612 884L611 883z"/>
<path style="fill:#7d5a0f; stroke:none;" d="M433 884L434 885L433 884z"/>
<path style="fill:#6d9437; stroke:none;" d="M608 885L609 886L608 885z"/>
<path style="fill:#7d5a0f; stroke:none;" d="M430 886L431 887L430 886z"/>
<path style="fill:#6d9437; stroke:none;" d="M605 887L606 888L605 887z"/>
<path style="fill:#7d5a0f; stroke:none;" d="M427 888L428 889L427 888z"/>
<path style="fill:#6d9437; stroke:none;" d="M602 889L603 890L602 889z"/>
<path style="fill:#7d5a0f; stroke:none;" d="M424 890L425 891L424 890z"/>
<path style="fill:#6d9437; stroke:none;" d="M599 891L600 892L599 891z"/>
<path style="fill:#7d5a0f; stroke:none;" d="M421 892L422 893L421 892z"/>
<path style="fill:#6d9437; stroke:none;" d="M596 893L597 894L596 893z"/>
<path style="fill:#7d5a0f; stroke:none;" d="M418 894L419 895L418 894z"/>
<path style="fill:#b3a62a; stroke:none;" d="M594 894L595 895L594 894z"/>
<path style="fill:#508d3b; stroke:none;" d="M593 895L594 896L593 895z"/>
<path style="fill:#7d5a0f; stroke:none;" d="M415 896L416 897L415 896z"/>
<path style="fill:#b3a62a; stroke:none;" d="M591 896L592 897L591 896z"/>
<path style="fill:#508d3b; stroke:none;" d="M590 897L591 898L590 897z"/>
<path style="fill:#7d5a0f; stroke:none;" d="M412 898L413 899L412 898z"/>
<path style="fill:#b3a62a; stroke:none;" d="M588 898L589 899L588 898z"/>
<path style="fill:#508d3b; stroke:none;" d="M587 899L588 900L587 899z"/>
<path style="fill:#7d5a0f; stroke:none;" d="M409 900L410 901L409 900z"/>
<path style="fill:#b3a62a; stroke:none;" d="M585 900L586 901L585 900z"/>
<path style="fill:#508d3b; stroke:none;" d="M584 901L585 902L584 901z"/>
<path style="fill:#7d5a0f; stroke:none;" d="M406 902L407 903L406 902z"/>
<path style="fill:#b3a62a; stroke:none;" d="M582 902L583 903L582 902z"/>
<path style="fill:#508d3b; stroke:none;" d="M581 903L582 904L581 903z"/>
<path style="fill:#7d5a0f; stroke:none;" d="M403 904L404 905L403 904z"/>
<path style="fill:#b3a62a; stroke:none;" d="M579 904L580 905L579 904z"/>
<path style="fill:#508d3b; stroke:none;" d="M578 905L579 906L578 905z"/>
<path style="fill:#7d5a0f; stroke:none;" d="M400 906L401 907L400 906z"/>
<path style="fill:#b3a62a; stroke:none;" d="M576 906L577 907L576 906z"/>
<path style="fill:#508d3b; stroke:none;" d="M575 907L576 908L575 907z"/>
<path style="fill:#7d5a0f; stroke:none;" d="M397 908L398 909L397 908z"/>
<path style="fill:#b3a62a; stroke:none;" d="M573 908L574 909L573 908z"/>
<path style="fill:#508d3b; stroke:none;" d="M572 909L573 910L572 909z"/>
<path style="fill:#7d5a0f; stroke:none;" d="M394 910L395 911L394 910z"/>
<path style="fill:#b3a62a; stroke:none;" d="M570 910L571 911L570 910z"/>
<path style="fill:#508d3b; stroke:none;" d="M569 911L570 912L569 911z"/>
<path style="fill:#7d5a0f; stroke:none;" d="M391 912L392 913L391 912z"/>
<path style="fill:#b3a62a; stroke:none;" d="M567 912L568 913L567 912z"/>
<path style="fill:#7d5a0f; stroke:none;" d="M388 914L389 915L388 914z"/>
<path style="fill:#8d9c31; stroke:none;" d="M564 914L565 915L564 914z"/>
<path style="fill:#7d5a0f; stroke:none;" d="M385 916L386 917L385 916z"/>
<path style="fill:#8d9c31; stroke:none;" d="M561 916L562 917L561 916z"/>
<path style="fill:#7d5a0f; stroke:none;" d="M382 918L383 919L382 918z"/>
<path style="fill:#8d9c31; stroke:none;" d="M558 918L559 919L558 918z"/>
<path style="fill:#7d5a0f; stroke:none;" d="M379 920L380 921L379 920z"/>
<path style="fill:#8d9c31; stroke:none;" d="M555 920L556 921L555 920z"/>
<path style="fill:#7d5a0f; stroke:none;" d="M376 922L377 923L376 922z"/>
<path style="fill:#8d9c31; stroke:none;" d="M552 922L553 923L552 922z"/>
<path style="fill:#7d5a0f; stroke:none;" d="M373 924L374 925L373 924z"/>
<path style="fill:#8d9c31; stroke:none;" d="M549 924L550 925L549 924z"/>
<path style="fill:#7d5a0f; stroke:none;" d="M370 926L371 927L370 926z"/>
<path style="fill:#8d9c31; stroke:none;" d="M546 926L547 927L546 926z"/>
<path style="fill:#7d5a0f; stroke:none;" d="M367 928L368 929L367 928z"/>
<path style="fill:#8d9c31; stroke:none;" d="M543 928L544 929L543 928z"/>
<path style="fill:#7d5a0f; stroke:none;" d="M364 930L365 931L364 930z"/>
<path style="fill:#8d9c31; stroke:none;" d="M540 930L541 931L540 930z"/>
<path style="fill:#7d5a0f; stroke:none;" d="M361 932L362 933L361 932z"/>
<path style="fill:#8d9c31; stroke:none;" d="M537 932L538 933L537 932z"/>
<path style="fill:#7d5a0f; stroke:none;" d="M358 934L359 935L358 934z"/>
<path style="fill:#8d9c31; stroke:none;" d="M534 934L535 935L534 934z"/>
<path style="fill:#7d5a0f; stroke:none;" d="M355 936L356 937L355 936z"/>
<path style="fill:#8d9c31; stroke:none;" d="M531 936L532 937L531 936z"/>
<path style="fill:#7d5a0f; stroke:none;" d="M352 938L353 939L352 938z"/>
<path style="fill:#8d9c31; stroke:none;" d="M528 938L529 939L528 938z"/>
<path style="fill:#7d5a0f; stroke:none;" d="M349 940L350 941L349 940z"/>
<path style="fill:#8d9c31; stroke:none;" d="M525 940L526 941L525 940z"/>
<path style="fill:#7d5a0f; stroke:none;" d="M346 942L347 943L346 942z"/>
<path style="fill:#8d9c31; stroke:none;" d="M522 942L523 943L522 942z"/>
<path style="fill:#7d5a0f; stroke:none;" d="M343 944L344 945L343 944z"/>
<path style="fill:#8d9c31; stroke:none;" d="M519 944L520 945L519 944z"/>
<path style="fill:#7d5a0f; stroke:none;" d="M340 946L341 947L340 946z"/>
<path style="fill:#8d9c31; stroke:none;" d="M516 946L517 947L516 946z"/>
<path style="fill:#7d5a0f; stroke:none;" d="M337 948L338 949L337 948z"/>
<path style="fill:#8d9c31; stroke:none;" d="M513 948L514 949L513 948z"/>
<path style="fill:#7d5a0f; stroke:none;" d="M334 950L335 951L334 950z"/>
<path style="fill:#8d9c31; stroke:none;" d="M510 950L511 951L510 950z"/>
<path style="fill:#7d5a0f; stroke:none;" d="M331 952L332 953L331 952z"/>
<path style="fill:#8d9c31; stroke:none;" d="M507 952L508 953L507 952z"/>
<path style="fill:#7d5a0f; stroke:none;" d="M328 954L329 955L328 954z"/>
<path style="fill:#8d9c31; stroke:none;" d="M504 954L505 955L504 954z"/>
<path style="fill:#7d5a0f; stroke:none;" d="M325 956L326 957L325 956z"/>
<path style="fill:#8d9c31; stroke:none;" d="M501 956L502 957L501 956z"/>
<path style="fill:#7d5a0f; stroke:none;" d="M322 958L323 959L322 958z"/>
<path style="fill:#8d9c31; stroke:none;" d="M498 958L499 959L498 958z"/>
<path style="fill:#7d5a0f; stroke:none;" d="M319 960L320 961L319 960z"/>
<path style="fill:#8d9c31; stroke:none;" d="M495 960L496 961L495 960z"/>
<path style="fill:#7d5a0f; stroke:none;" d="M316 962L317 963L316 962z"/>
<path style="fill:#8d9c31; stroke:none;" d="M492 962L493 963L492 962z"/>
<path style="fill:#7d5a0f; stroke:none;" d="M313 964L314 965L313 964z"/>
<path style="fill:#8d9c31; stroke:none;" d="M489 964L490 965L489 964z"/>
<path style="fill:#7d5a0f; stroke:none;" d="M310 966L311 967L310 966z"/>
<path style="fill:#8d9c31; stroke:none;" d="M486 966L487 967L486 966z"/>
<path style="fill:#7d5a0f; stroke:none;" d="M307 968L308 969L307 968z"/>
<path style="fill:#8d9c31; stroke:none;" d="M483 968L484 969L483 968z"/>
<path style="fill:#7d5a0f; stroke:none;" d="M304 970L305 971L304 970z"/>
<path style="fill:#8d9c31; stroke:none;" d="M480 970L481 971L480 970z"/>
<path style="fill:#7d5a0f; stroke:none;" d="M301 972L302 973L301 972z"/>
<path style="fill:#8d9c31; stroke:none;" d="M477 972L478 973L477 972z"/>
<path style="fill:#7d5a0f; stroke:none;" d="M298 974L299 975L298 974z"/>
<path style="fill:#8d9c31; stroke:none;" d="M474 974L475 975L474 974z"/>
<path style="fill:#7d5a0f; stroke:none;" d="M295 976L296 977L295 976z"/>
<path style="fill:#8d9c31; stroke:none;" d="M471 976L472 977L471 976z"/>
<path style="fill:#011589; stroke:none;" d="M441 1467L2200 1467L2200 978L1485 978L1269 978C1248.73 978 1228.25 978.847 1208 977.961C1197.23 977.489 1184.54 974.791 1174 978.055C1166.16 980.482 1159.53 986.105 1153 990.848C1145.85 996.037 1138.35 1000.77 1131 1005.67L1042 1065C944.715 1129.86 847.283 1194.48 750 1259.33C675.132 1309.25 600.081 1358.91 526 1409.97C506.262 1423.58 486.069 1436.55 466 1449.66C458.502 1454.55 445.864 1459.42 441 1467z"/>
<path style="fill:#7d5a0f; stroke:none;" d="M292 978L293 979L292 978z"/>
<path style="fill:#8d9c31; stroke:none;" d="M468 978L469 979L468 978z"/>
<path style="fill:#7d5a0f; stroke:none;" d="M289 980L290 981L289 980z"/>
<path style="fill:#8d9c31; stroke:none;" d="M465 980L466 981L465 980z"/>
<path style="fill:#7d5a0f; stroke:none;" d="M286 982L287 983L286 982z"/>
<path style="fill:#8d9c31; stroke:none;" d="M462 982L463 983L462 982z"/>
<path style="fill:#7d5a0f; stroke:none;" d="M283 984L284 985L283 984z"/>
<path style="fill:#8d9c31; stroke:none;" d="M459 984L460 985L459 984z"/>
<path style="fill:#7d5a0f; stroke:none;" d="M280 986L281 987L280 986z"/>
<path style="fill:#8d9c31; stroke:none;" d="M456 986L457 987L456 986z"/>
<path style="fill:#7d5a0f; stroke:none;" d="M277 988L278 989L277 988z"/>
<path style="fill:#8d9c31; stroke:none;" d="M453 988L454 989L453 988z"/>
<path style="fill:#7d5a0f; stroke:none;" d="M274 990L275 991L274 990z"/>
<path style="fill:#8d9c31; stroke:none;" d="M450 990L451 991L450 990z"/>
<path style="fill:#7d5a0f; stroke:none;" d="M271 992L272 993L271 992z"/>
<path style="fill:#8d9c31; stroke:none;" d="M447 992L448 993L447 992z"/>
<path style="fill:#7d5a0f; stroke:none;" d="M268 994L269 995L268 994z"/>
<path style="fill:#b3a62a; stroke:none;" d="M444 994L445 995L444 994z"/>
<path style="fill:#508d3b; stroke:none;" d="M443 995L444 996L443 995z"/>
<path style="fill:#7d5a0f; stroke:none;" d="M265 996L266 997L265 996z"/>
<path style="fill:#b3a62a; stroke:none;" d="M441 996L442 997L441 996z"/>
<path style="fill:#508d3b; stroke:none;" d="M440 997L441 998L440 997z"/>
<path style="fill:#7d5a0f; stroke:none;" d="M262 998L263 999L262 998z"/>
<path style="fill:#b3a62a; stroke:none;" d="M438 998L439 999L438 998z"/>
<path style="fill:#508d3b; stroke:none;" d="M437 999L438 1000L437 999z"/>
<path style="fill:#7d5a0f; stroke:none;" d="M259 1000L260 1001L259 1000z"/>
<path style="fill:#b3a62a; stroke:none;" d="M435 1000L436 1001L435 1000z"/>
<path style="fill:#508d3b; stroke:none;" d="M434 1001L435 1002L434 1001z"/>
<path style="fill:#7d5a0f; stroke:none;" d="M256 1002L257 1003L256 1002z"/>
<path style="fill:#b3a62a; stroke:none;" d="M432 1002L433 1003L432 1002z"/>
<path style="fill:#508d3b; stroke:none;" d="M431 1003L432 1004L431 1003z"/>
<path style="fill:#7d5a0f; stroke:none;" d="M253 1004L254 1005L253 1004z"/>
<path style="fill:#b3a62a; stroke:none;" d="M429 1004L430 1005L429 1004z"/>
<path style="fill:#508d3b; stroke:none;" d="M428 1005L429 1006L428 1005z"/>
<path style="fill:#7d5a0f; stroke:none;" d="M250 1006L251 1007L250 1006z"/>
<path style="fill:#b3a62a; stroke:none;" d="M426 1006L427 1007L426 1006z"/>
<path style="fill:#6d9437; stroke:none;" d="M425 1007L426 1008L425 1007z"/>
<path style="fill:#7d5a0f; stroke:none;" d="M247 1008L248 1009L247 1008z"/>
<path style="fill:#6d9437; stroke:none;" d="M422 1009L423 1010L422 1009z"/>
<path style="fill:#7d5a0f; stroke:none;" d="M244 1010L245 1011L244 1010z"/>
<path style="fill:#6d9437; stroke:none;" d="M419 1011L420 1012L419 1011z"/>
<path style="fill:#7d5a0f; stroke:none;" d="M241 1012L242 1013L241 1012z"/>
<path style="fill:#6d9437; stroke:none;" d="M416 1013L417 1014L416 1013z"/>
<path style="fill:#7d5a0f; stroke:none;" d="M238 1014L239 1015L238 1014z"/>
<path style="fill:#6d9437; stroke:none;" d="M413 1015L414 1016L413 1015z"/>
<path style="fill:#7d5a0f; stroke:none;" d="M235 1016L236 1017L235 1016z"/>
<path style="fill:#6d9437; stroke:none;" d="M410 1017L411 1018L410 1017z"/>
<path style="fill:#7d5a0f; stroke:none;" d="M232 1018L233 1019L232 1018z"/>
<path style="fill:#8d9c31; stroke:none;" d="M407 1019L408 1020L407 1019z"/>
<path style="fill:#7d5a0f; stroke:none;" d="M229 1020L230 1021L229 1020z"/>
<path style="fill:#8d9c31; stroke:none;" d="M404 1021L405 1022L404 1021z"/>
<path style="fill:#7d5a0f; stroke:none;" d="M226 1022L227 1023L226 1022z"/>
<path style="fill:#8d9c31; stroke:none;" d="M401 1023L402 1024L401 1023z"/>
<path style="fill:#7d5a0f; stroke:none;" d="M223 1024L224 1025L223 1024z"/>
<path style="fill:#8d9c31; stroke:none;" d="M398 1025L399 1026L398 1025z"/>
<path style="fill:#7d5a0f; stroke:none;" d="M220 1026L221 1027L220 1026z"/>
<path style="fill:#8d9c31; stroke:none;" d="M395 1027L396 1028L395 1027z"/>
<path style="fill:#7d5a0f; stroke:none;" d="M217 1028L218 1029L217 1028z"/>
<path style="fill:#8d9c31; stroke:none;" d="M392 1029L393 1030L392 1029z"/>
<path style="fill:#7d5a0f; stroke:none;" d="M214 1030L215 1031L214 1030z"/>
<path style="fill:#8d9c31; stroke:none;" d="M389 1031L390 1032L389 1031z"/>
<path style="fill:#7d5a0f; stroke:none;" d="M211 1032L212 1033L211 1032z"/>
<path style="fill:#8d9c31; stroke:none;" d="M386 1033L387 1034L386 1033z"/>
<path style="fill:#7d5a0f; stroke:none;" d="M208 1034L209 1035L208 1034z"/>
<path style="fill:#8d9c31; stroke:none;" d="M383 1035L384 1036L383 1035z"/>
<path style="fill:#7d5a0f; stroke:none;" d="M205 1036L206 1037L205 1036z"/>
<path style="fill:#8d9c31; stroke:none;" d="M380 1037L381 1038L380 1037z"/>
<path style="fill:#7d5a0f; stroke:none;" d="M202 1038L203 1039L202 1038z"/>
<path style="fill:#8d9c31; stroke:none;" d="M377 1039L378 1040L377 1039z"/>
<path style="fill:#7d5a0f; stroke:none;" d="M199 1040L200 1041L199 1040z"/>
<path style="fill:#8d9c31; stroke:none;" d="M374 1041L375 1042L374 1041z"/>
<path style="fill:#7d5a0f; stroke:none;" d="M196 1042L197 1043L196 1042z"/>
<path style="fill:#b3a62a; stroke:none;" d="M371 1043L372 1044L371 1043z"/>
<path style="fill:#7d5a0f; stroke:none;" d="M193 1044L194 1045L193 1044z"/>
<path style="fill:#508d3b; stroke:none;" d="M370 1044L371 1045L370 1044z"/>
<path style="fill:#b3a62a; stroke:none;" d="M368 1045L369 1046L368 1045z"/>
<path style="fill:#7d5a0f; stroke:none;" d="M190 1046L191 1047L190 1046z"/>
<path style="fill:#508d3b; stroke:none;" d="M367 1046L368 1047L367 1046z"/>
<path style="fill:#b3a62a; stroke:none;" d="M365 1047L366 1048L365 1047z"/>
<path style="fill:#7d5a0f; stroke:none;" d="M187 1048L188 1049L187 1048z"/>
<path style="fill:#508d3b; stroke:none;" d="M364 1048L365 1049L364 1048z"/>
<path style="fill:#b3a62a; stroke:none;" d="M362 1049L363 1050L362 1049z"/>
<path style="fill:#7d5a0f; stroke:none;" d="M184 1050L185 1051L184 1050z"/>
<path style="fill:#508d3b; stroke:none;" d="M361 1050L362 1051L361 1050z"/>
<path style="fill:#b3a62a; stroke:none;" d="M359 1051L360 1052L359 1051z"/>
<path style="fill:#7d5a0f; stroke:none;" d="M181 1052L182 1053L181 1052z"/>
<path style="fill:#508d3b; stroke:none;" d="M358 1052L359 1053L358 1052z"/>
<path style="fill:#b3a62a; stroke:none;" d="M356 1053L357 1054L356 1053z"/>
<path style="fill:#7d5a0f; stroke:none;" d="M178 1054L179 1055L178 1054z"/>
<path style="fill:#508d3b; stroke:none;" d="M355 1054L356 1055L355 1054z"/>
<path style="fill:#b3a62a; stroke:none;" d="M353 1055L354 1056L353 1055z"/>
<path style="fill:#7d5a0f; stroke:none;" d="M175 1056L176 1057L175 1056z"/>
<path style="fill:#6d9437; stroke:none;" d="M352 1056L353 1057L352 1056z"/>
<path style="fill:#7d5a0f; stroke:none;" d="M172 1058L173 1059L172 1058z"/>
<path style="fill:#6d9437; stroke:none;" d="M349 1058L350 1059L349 1058z"/>
<path style="fill:#7d5a0f; stroke:none;" d="M169 1060L170 1061L169 1060z"/>
<path style="fill:#6d9437; stroke:none;" d="M346 1060L347 1061L346 1060z"/>
<path style="fill:#7d5a0f; stroke:none;" d="M166 1062L167 1063L166 1062z"/>
<path style="fill:#6d9437; stroke:none;" d="M343 1062L344 1063L343 1062z"/>
<path style="fill:#7d5a0f; stroke:none;" d="M163 1064L164 1065L163 1064z"/>
<path style="fill:#6d9437; stroke:none;" d="M340 1064L341 1065L340 1064z"/>
<path style="fill:#7d5a0f; stroke:none;" d="M160 1066L161 1067L160 1066z"/>
<path style="fill:#6d9437; stroke:none;" d="M337 1066L338 1067L337 1066z"/>
<path style="fill:#7d5a0f; stroke:none;" d="M157 1068L158 1069L157 1068z"/>
<path style="fill:#6d9437; stroke:none;" d="M334 1068L335 1069L334 1068z"/>
<path style="fill:#7d5a0f; stroke:none;" d="M154 1070L155 1071L154 1070z"/>
<path style="fill:#6d9437; stroke:none;" d="M331 1070L332 1071L331 1070z"/>
<path style="fill:#7d5a0f; stroke:none;" d="M151 1072L152 1073L151 1072z"/>
<path style="fill:#8d9c31; stroke:none;" d="M328 1072L329 1073L328 1072z"/>
<path style="fill:#7d5a0f; stroke:none;" d="M148 1074L149 1075L148 1074z"/>
<path style="fill:#8d9c31; stroke:none;" d="M325 1074L326 1075L325 1074z"/>
<path style="fill:#7d5a0f; stroke:none;" d="M145 1076L146 1077L145 1076z"/>
<path style="fill:#8d9c31; stroke:none;" d="M322 1076L323 1077L322 1076z"/>
<path style="fill:#7d5a0f; stroke:none;" d="M142 1078L143 1079L142 1078z"/>
<path style="fill:#8d9c31; stroke:none;" d="M319 1078L320 1079L319 1078z"/>
<path style="fill:#7d5a0f; stroke:none;" d="M139 1080L140 1081L139 1080z"/>
<path style="fill:#8d9c31; stroke:none;" d="M316 1080L317 1081L316 1080z"/>
<path style="fill:#7d5a0f; stroke:none;" d="M136 1082L137 1083L136 1082z"/>
<path style="fill:#8d9c31; stroke:none;" d="M313 1082L314 1083L313 1082z"/>
<path style="fill:#7d5a0f; stroke:none;" d="M133 1084L134 1085L133 1084z"/>
<path style="fill:#8d9c31; stroke:none;" d="M310 1084L311 1085L310 1084z"/>
<path style="fill:#7d5a0f; stroke:none;" d="M130 1086L131 1087L130 1086z"/>
<path style="fill:#8d9c31; stroke:none;" d="M307 1086L308 1087L307 1086z"/>
<path style="fill:#7d5a0f; stroke:none;" d="M127 1088L128 1089L127 1088z"/>
<path style="fill:#8d9c31; stroke:none;" d="M304 1088L305 1089L304 1088z"/>
<path style="fill:#7d5a0f; stroke:none;" d="M124 1090L125 1091L124 1090z"/>
<path style="fill:#8d9c31; stroke:none;" d="M301 1090L302 1091L301 1090z"/>
<path style="fill:#bf8b17; stroke:none;" d="M123 1091L124 1092L123 1091z"/>
<path style="fill:#6c4e0d; stroke:none;" d="M121 1092L122 1093L121 1092z"/>
<path style="fill:#8d9c31; stroke:none;" d="M298 1092L299 1093L298 1092z"/>
<path style="fill:#bf8b17; stroke:none;" d="M120 1093L121 1094L120 1093z"/>
<path style="fill:#6c4e0d; stroke:none;" d="M118 1094L119 1095L118 1094z"/>
<path style="fill:#8d9c31; stroke:none;" d="M295 1094L296 1095L295 1094z"/>
<path style="fill:#bf8b17; stroke:none;" d="M117 1095L118 1096L117 1095z"/>
<path style="fill:#6c4e0d; stroke:none;" d="M115 1096L116 1097L115 1096z"/>
<path style="fill:#8d9c31; stroke:none;" d="M292 1096L293 1097L292 1096z"/>
<path style="fill:#bf8b17; stroke:none;" d="M114 1097L115 1098L114 1097z"/>
<path style="fill:#6c4e0d; stroke:none;" d="M112 1098L113 1099L112 1098z"/>
<path style="fill:#8d9c31; stroke:none;" d="M289 1098L290 1099L289 1098z"/>
<path style="fill:#bf8b17; stroke:none;" d="M111 1099L112 1100L111 1099z"/>
<path style="fill:#6c4e0d; stroke:none;" d="M109 1100L110 1101L109 1100z"/>
<path style="fill:#8d9c31; stroke:none;" d="M286 1100L287 1101L286 1100z"/>
<path style="fill:#bf8b17; stroke:none;" d="M108 1101L109 1102L108 1101z"/>
<path style="fill:#6c4e0d; stroke:none;" d="M106 1102L107 1103L106 1102z"/>
<path style="fill:#8d9c31; stroke:none;" d="M283 1102L284 1103L283 1102z"/>
<path style="fill:#bf8b17; stroke:none;" d="M105 1103L106 1104L105 1103z"/>
<path style="fill:#6c4e0d; stroke:none;" d="M103 1104L104 1105L103 1104z"/>
<path style="fill:#8d9c31; stroke:none;" d="M280 1104L281 1105L280 1104z"/>
<path style="fill:#bf8b17; stroke:none;" d="M102 1105L103 1106L102 1105z"/>
<path style="fill:#6c4e0d; stroke:none;" d="M100 1106L101 1107L100 1106z"/>
<path style="fill:#8d9c31; stroke:none;" d="M277 1106L278 1107L277 1106z"/>
<path style="fill:#bf8b17; stroke:none;" d="M99 1107L100 1108L99 1107z"/>
<path style="fill:#6c4e0d; stroke:none;" d="M97 1108L98 1109L97 1108z"/>
<path style="fill:#8d9c31; stroke:none;" d="M274 1108L275 1109L274 1108z"/>
<path style="fill:#bf8b17; stroke:none;" d="M96 1109L97 1110L96 1109z"/>
<path style="fill:#6c4e0d; stroke:none;" d="M94 1110L95 1111L94 1110z"/>
<path style="fill:#8d9c31; stroke:none;" d="M271 1110L272 1111L271 1110z"/>
<path style="fill:#bf8b17; stroke:none;" d="M93 1111L94 1112L93 1111z"/>
<path style="fill:#6c4e0d; stroke:none;" d="M91 1112L92 1113L91 1112z"/>
<path style="fill:#8d9c31; stroke:none;" d="M268 1112L269 1113L268 1112z"/>
<path style="fill:#bf8b17; stroke:none;" d="M90 1113L91 1114L90 1113z"/>
<path style="fill:#6c4e0d; stroke:none;" d="M88 1114L89 1115L88 1114z"/>
<path style="fill:#8d9c31; stroke:none;" d="M265 1114L266 1115L265 1114z"/>
<path style="fill:#bf8b17; stroke:none;" d="M87 1115L88 1116L87 1115z"/>
<path style="fill:#6c4e0d; stroke:none;" d="M85 1116L86 1117L85 1116z"/>
<path style="fill:#8d9c31; stroke:none;" d="M262 1116L263 1117L262 1116z"/>
<path style="fill:#bf8b17; stroke:none;" d="M84 1117L85 1118L84 1117z"/>
<path style="fill:#6c4e0d; stroke:none;" d="M82 1118L83 1119L82 1118z"/>
<path style="fill:#8d9c31; stroke:none;" d="M259 1118L260 1119L259 1118z"/>
<path style="fill:#bf8b17; stroke:none;" d="M81 1119L82 1120L81 1119z"/>
<path style="fill:#6c4e0d; stroke:none;" d="M79 1120L80 1121L79 1120z"/>
<path style="fill:#8d9c31; stroke:none;" d="M256 1120L257 1121L256 1120z"/>
<path style="fill:#bf8b17; stroke:none;" d="M78 1121L79 1122L78 1121z"/>
<path style="fill:#6c4e0d; stroke:none;" d="M76 1122L77 1123L76 1122z"/>
<path style="fill:#8d9c31; stroke:none;" d="M253 1122L254 1123L253 1122z"/>
<path style="fill:#bf8b17; stroke:none;" d="M75 1123L76 1124L75 1123z"/>
<path style="fill:#6c4e0d; stroke:none;" d="M73 1124L74 1125L73 1124z"/>
<path style="fill:#8d9c31; stroke:none;" d="M250 1124L251 1125L250 1124z"/>
<path style="fill:#bf8b17; stroke:none;" d="M72 1125L73 1126L72 1125z"/>
<path style="fill:#6c4e0d; stroke:none;" d="M70 1126L71 1127L70 1126z"/>
<path style="fill:#8d9c31; stroke:none;" d="M247 1126L248 1127L247 1126z"/>
<path style="fill:#bf8b17; stroke:none;" d="M69 1127L70 1128L69 1127z"/>
<path style="fill:#6c4e0d; stroke:none;" d="M67 1128L68 1129L67 1128z"/>
<path style="fill:#8d9c31; stroke:none;" d="M244 1128L245 1129L244 1128z"/>
<path style="fill:#bf8b17; stroke:none;" d="M66 1129L67 1130L66 1129z"/>
<path style="fill:#6c4e0d; stroke:none;" d="M64 1130L65 1131L64 1130z"/>
<path style="fill:#8d9c31; stroke:none;" d="M241 1130L242 1131L241 1130z"/>
<path style="fill:#bf8b17; stroke:none;" d="M63 1131L64 1132L63 1131z"/>
<path style="fill:#6c4e0d; stroke:none;" d="M61 1132L62 1133L61 1132z"/>
<path style="fill:#6d9437; stroke:none;" d="M238 1132L239 1133L238 1132z"/>
<path style="fill:#bf8b17; stroke:none;" d="M60 1133L61 1134L60 1133z"/>
<path style="fill:#6c4e0d; stroke:none;" d="M58 1134L59 1135L58 1134z"/>
<path style="fill:#6d9437; stroke:none;" d="M235 1134L236 1135L235 1134z"/>
<path style="fill:#bf8b17; stroke:none;" d="M57 1135L58 1136L57 1135z"/>
<path style="fill:#6c4e0d; stroke:none;" d="M55 1136L56 1137L55 1136z"/>
<path style="fill:#6d9437; stroke:none;" d="M232 1136L233 1137L232 1136z"/>
<path style="fill:#bf8b17; stroke:none;" d="M54 1137L55 1138L54 1137z"/>
<path style="fill:#473409; stroke:none;" d="M52 1138L53 1139L52 1138z"/>
<path style="fill:#6d9437; stroke:none;" d="M229 1138L230 1139L229 1138z"/>
<path style="fill:#af7f15; stroke:none;" d="M51 1139L52 1140L51 1139z"/>
<path style="fill:#6d9437; stroke:none;" d="M226 1140L227 1141L226 1140z"/>
<path style="fill:#966e12; stroke:none;" d="M48 1141L49 1142L48 1141z"/>
<path style="fill:#508d3b; stroke:none;" d="M223 1142L224 1143L223 1142z"/>
<path style="fill:#7d5a0f; stroke:none;" d="M45 1143L46 1144L45 1143z"/>
<path style="fill:#b3a62a; stroke:none;" d="M221 1143L222 1144L221 1143z"/>
<path style="fill:#508d3b; stroke:none;" d="M220 1144L221 1145L220 1144z"/>
<path style="fill:#6c4e0d; stroke:none;" d="M42 1145L43 1146L42 1145z"/>
<path style="fill:#b3a62a; stroke:none;" d="M218 1145L219 1146L218 1145z"/>
<path style="fill:#af7f15; stroke:none;" d="M41 1146L42 1147L41 1146z"/>
<path style="fill:#508d3b; stroke:none;" d="M217 1146L218 1147L217 1146z"/>
<path style="fill:#473409; stroke:none;" d="M39 1147L40 1148L39 1147z"/>
<path style="fill:#b3a62a; stroke:none;" d="M215 1147L216 1148L215 1147z"/>
<path style="fill:#966e12; stroke:none;" d="M38 1148L39 1149L38 1148z"/>
<path style="fill:#508d3b; stroke:none;" d="M214 1148L215 1149L214 1148z"/>
<path style="fill:#473409; stroke:none;" d="M36 1149L37 1150L36 1149z"/>
<path style="fill:#b3a62a; stroke:none;" d="M212 1149L213 1150L212 1149z"/>
<path style="fill:#7d5a0f; stroke:none;" d="M35 1150L36 1151L35 1150z"/>
<path style="fill:#8d9c31; stroke:none;" d="M209 1151L210 1152L209 1151z"/>
<path style="fill:#6c4e0d; stroke:none;" d="M32 1152L33 1153L32 1152z"/>
<path style="fill:#bf8b17; stroke:none;" d="M31 1153L32 1154L31 1153z"/>
<path style="fill:#8d9c31; stroke:none;" d="M206 1153L207 1154L206 1153z"/>
<path style="fill:#6c4e0d; stroke:none;" d="M29 1154L30 1155L29 1154z"/>
<path style="fill:#af7f15; stroke:none;" d="M28 1155L29 1156L28 1155z"/>
<path style="fill:#8d9c31; stroke:none;" d="M203 1155L204 1156L203 1155z"/>
<path style="fill:#473409; stroke:none;" d="M26 1156L27 1157L26 1156z"/>
<path style="fill:#af7f15; stroke:none;" d="M25 1157L26 1158L25 1157z"/>
<path style="fill:#8d9c31; stroke:none;" d="M200 1157L201 1158L200 1157z"/>
<path style="fill:#473409; stroke:none;" d="M23 1158L24 1159L23 1158z"/>
<path style="fill:#af7f15; stroke:none;" d="M22 1159L23 1160L22 1159z"/>
<path style="fill:#8d9c31; stroke:none;" d="M197 1159L198 1160L197 1159z"/>
<path style="fill:#473409; stroke:none;" d="M20 1160L21 1161L20 1160z"/>
<path style="fill:#af7f15; stroke:none;" d="M19 1161L20 1162L19 1161z"/>
<path style="fill:#8d9c31; stroke:none;" d="M194 1161L195 1162L194 1161z"/>
<path style="fill:#6c4e0d; stroke:none;" d="M17 1162L18 1163L17 1162z"/>
<path style="fill:#bf8b17; stroke:none;" d="M16 1163L17 1164L16 1163z"/>
<path style="fill:#6d9437; stroke:none;" d="M191 1163L192 1164L191 1163z"/>
<path style="fill:#7d5a0f; stroke:none;" d="M14 1164L15 1165L14 1164z"/>
<path style="fill:#473409; stroke:none;" d="M12 1165L13 1166L12 1165z"/>
<path style="fill:#6d9437; stroke:none;" d="M188 1165L189 1166L188 1165z"/>
<path style="fill:#966e12; stroke:none;" d="M11 1166L12 1167L11 1166z"/>
<path style="fill:#473409; stroke:none;" d="M9 1167L10 1168L9 1167z"/>
<path style="fill:#6d9437; stroke:none;" d="M185 1167L186 1168L185 1167z"/>
<path style="fill:#bf8b17; stroke:none;" d="M8 1168L9 1169L8 1168z"/>
<path style="fill:#b3a62a; stroke:none;" d="M183 1168L184 1169L183 1168z"/>
<path style="fill:#7d5a0f; stroke:none;" d="M6 1169L7 1170L6 1169z"/>
<path style="fill:#508d3b; stroke:none;" d="M182 1169L183 1170L182 1169z"/>
<path style="fill:#6c4e0d; stroke:none;" d="M4 1170L5 1171L4 1170z"/>
<path style="fill:#b3a62a; stroke:none;" d="M180 1170L181 1171L180 1170z"/>
<path style="fill:#bf8b17; stroke:none;" d="M3 1171L4 1172L3 1171z"/>
<path style="fill:#508d3b; stroke:none;" d="M179 1171L180 1172L179 1171z"/>
<path style="fill:#7d5a0f; stroke:none;" d="M1 1172L2 1173L1 1172z"/>
<path style="fill:#8d9c31; stroke:none;" d="M177 1172L178 1173L177 1172M174 1174L175 1175L174 1174M171 1176L172 1177L171 1176M168 1178L169 1179L168 1178M165 1180L166 1181L165 1180z"/>
<path style="fill:#6d9437; stroke:none;" d="M162 1182L163 1183L162 1182M159 1184L160 1185L159 1184M156 1186L157 1187L156 1186M153 1188L154 1189L153 1188z"/>
<path style="fill:#508d3b; stroke:none;" d="M150 1190L151 1191L150 1190M147 1192L148 1193L147 1192M144 1194L145 1195L144 1194M141 1196L142 1197L141 1196M138 1198L139 1199L138 1198z"/>
<path style="fill:#b3a62a; stroke:none;" d="M136 1199L137 1200L136 1199z"/>
<path style="fill:#508d3b; stroke:none;" d="M135 1200L136 1201L135 1200z"/>
<path style="fill:#b3a62a; stroke:none;" d="M133 1201L134 1202L133 1201z"/>
<path style="fill:#508d3b; stroke:none;" d="M132 1202L133 1203L132 1202z"/>
<path style="fill:#b3a62a; stroke:none;" d="M130 1203L131 1204L130 1203z"/>
<path style="fill:#508d3b; stroke:none;" d="M129 1204L130 1205L129 1204z"/>
<path style="fill:#b3a62a; stroke:none;" d="M127 1205L128 1206L127 1205z"/>
<path style="fill:#508d3b; stroke:none;" d="M126 1206L127 1207L126 1206z"/>
<path style="fill:#b3a62a; stroke:none;" d="M124 1207L125 1208L124 1207z"/>
<path style="fill:#508d3b; stroke:none;" d="M123 1208L124 1209L123 1208z"/>
<path style="fill:#b3a62a; stroke:none;" d="M121 1209L122 1210L121 1209z"/>
<path style="fill:#508d3b; stroke:none;" d="M120 1210L121 1211L120 1210z"/>
<path style="fill:#b3a62a; stroke:none;" d="M118 1211L119 1212L118 1211z"/>
<path style="fill:#508d3b; stroke:none;" d="M117 1212L118 1213L117 1212z"/>
<path style="fill:#b3a62a; stroke:none;" d="M115 1213L116 1214L115 1213z"/>
<path style="fill:#508d3b; stroke:none;" d="M114 1214L115 1215L114 1214z"/>
<path style="fill:#b3a62a; stroke:none;" d="M112 1215L113 1216L112 1215z"/>
<path style="fill:#508d3b; stroke:none;" d="M111 1216L112 1217L111 1216z"/>
<path style="fill:#b3a62a; stroke:none;" d="M109 1217L110 1218L109 1217z"/>
<path style="fill:#508d3b; stroke:none;" d="M108 1218L109 1219L108 1218z"/>
<path style="fill:#b3a62a; stroke:none;" d="M106 1219L107 1220L106 1219z"/>
<path style="fill:#508d3b; stroke:none;" d="M105 1220L106 1221L105 1220z"/>
<path style="fill:#b3a62a; stroke:none;" d="M103 1221L104 1222L103 1221z"/>
<path style="fill:#508d3b; stroke:none;" d="M102 1222L103 1223L102 1222z"/>
<path style="fill:#b3a62a; stroke:none;" d="M100 1223L101 1224L100 1223z"/>
<path style="fill:#508d3b; stroke:none;" d="M99 1224L100 1225L99 1224M96 1226L97 1227L96 1226M93 1228L94 1229L93 1228M90 1230L91 1231L90 1230M87 1232L88 1233L87 1232z"/>
<path style="fill:#6d9437; stroke:none;" d="M84 1234L85 1235L84 1234z"/>
<path style="fill:#8d9c31; stroke:none;" d="M81 1236L82 1237L81 1236M78 1238L79 1239L78 1238M75 1240L76 1241L75 1240M72 1242L73 1243L72 1242M69 1244L70 1245L69 1244M66 1246L67 1247L66 1246M63 1248L64 1249L63 1248M60 1250L61 1251L60 1250z"/>
<path style="fill:#508d3b; stroke:none;" d="M56 1253L57 1254L56 1253M53 1255L54 1256L53 1255M50 1257L51 1258L50 1257M47 1259L48 1260L47 1259M44 1261L45 1262L44 1261M41 1263L42 1264L41 1263z"/>
<path style="fill:#b3a62a; stroke:none;" d="M39 1264L40 1265L39 1264z"/>
<path style="fill:#508d3b; stroke:none;" d="M38 1265L39 1266L38 1265z"/>
<path style="fill:#b3a62a; stroke:none;" d="M36 1266L37 1267L36 1266z"/>
<path style="fill:#508d3b; stroke:none;" d="M35 1267L36 1268L35 1267z"/>
<path style="fill:#b3a62a; stroke:none;" d="M33 1268L34 1269L33 1268z"/>
<path style="fill:#508d3b; stroke:none;" d="M32 1269L33 1270L32 1269z"/>
<path style="fill:#b3a62a; stroke:none;" d="M30 1270L31 1271L30 1270z"/>
<path style="fill:#508d3b; stroke:none;" d="M29 1271L30 1272L29 1271z"/>
<path style="fill:#b3a62a; stroke:none;" d="M27 1272L28 1273L27 1272z"/>
<path style="fill:#508d3b; stroke:none;" d="M26 1273L27 1274L26 1273z"/>
<path style="fill:#b3a62a; stroke:none;" d="M24 1274L25 1275L24 1274z"/>
<path style="fill:#508d3b; stroke:none;" d="M23 1275L24 1276L23 1275z"/>
<path style="fill:#6d9437; stroke:none;" d="M20 1277L21 1278L20 1277z"/>
<path style="fill:#8d9c31; stroke:none;" d="M17 1279L18 1280L17 1279z"/>
<path style="fill:#b3a62a; stroke:none;" d="M14 1281L15 1282L14 1281z"/>
<path style="fill:#6d9437; stroke:none;" d="M13 1282L14 1283L13 1282M10 1284L11 1285L10 1284z"/>
<path style="fill:#508d3b; stroke:none;" d="M7 1286L8 1287L7 1286z"/>
<path style="fill:#8d9c31; stroke:none;" d="M5 1287L6 1288L5 1287M3 1288L4 1289L3 1288z"/>
<path style="fill:#ffffff; stroke:none;" d="M0 1290L1 1291L0 1290z"/>
</svg>
