<svg id="southern_cross" xmlns="http://www.w3.org/2000/svg" viewBox="0 0 192 192"><defs><style>.cls-1{stroke:#000;stroke-miterlimit:10;stroke-width:3px;}</style></defs><title>southern_cross</title><path id="a" class="cls-1" d="M97.54,125.52l1.54,4.76,4.67-1.77L101,132.68l4.3,2.55-5,.43.69,5L97.54,137l-3.44,3.63.68-5-5-.43,4.3-2.55-2.77-4.17L96,130.28Z"/><path id="a-2" data-name="a" class="cls-1" d="M69.74,81.5l1.54,4.76L76,84.49l-2.76,4.17,4.3,2.55-5,.43.69,5L69.74,93,66.3,96.6l.68-5-5-.43,4.3-2.55-2.77-4.17,4.68,1.77Z"/><path id="a-3" data-name="a" class="cls-1" d="M97.54,51.38l1.54,4.77,4.67-1.78L101,58.54l4.3,2.55-5,.44.69,5-3.45-3.62L94.1,66.48l.68-5-5-.44,4.3-2.55-2.77-4.17L96,56.15Z"/><path id="a-4" data-name="a" class="cls-1" d="M122.26,74.09l1.53,4.76,4.68-1.77-2.77,4.16L130,83.8l-5,.43.68,5-3.44-3.63-3.45,3.63.69-5-5-.43,4.3-2.56-2.76-4.16,4.67,1.77Z"/><path id="b" class="cls-1" d="M108.66,96.39l1.22,3,3.19.23-2.45,2.07.77,3.12-2.73-1.69-2.72,1.69.77-3.12-2.45-2.07,3.19-.23Z"/></svg>