<!DOCTYPE svg PUBLIC "-//W3C//DTD SVG 20010904//EN" "http://www.w3.org/TR/2001/REC-SVG-20010904/DTD/svg10.dtd">
<svg version="1.0" xmlns="http://www.w3.org/2000/svg" width="640px" height="320px" viewBox="0 0 6400 3200" preserveAspectRatio="xMidYMid meet">
<g id="layer101" fill="#341910" stroke="none">
<path d="M0 1600 l0 -1600 3200 0 3200 0 0 1600 0 1600 -3200 0 -3200 0 0 -1600z"/>
</g>
<g id="layer102" fill="#00534e" stroke="none">
<path d="M0 1600 l0 -1600 3200 0 3200 0 0 1600 0 1600 -3200 0 -3200 0 0 -1600z m2568 1283 c31 -19 49 -64 57 -143 4 -36 16 -101 26 -145 20 -87 23 -115 11 -115 -4 0 -16 16 -27 36 -30 56 -67 80 -174 113 -80 25 -104 37 -120 60 -24 34 -26 75 -6 111 8 14 14 37 15 53 0 23 4 27 28 28 15 0 43 7 62 14 39 16 94 11 128 -12z m3442 12 c23 -8 56 -15 71 -15 26 0 29 -3 27 -27 -1 -16 4 -38 10 -50 7 -12 12 -38 12 -58 0 -54 -39 -88 -131 -114 -114 -33 -135 -45 -173 -103 l-36 -53 0 39 c0 21 6 64 14 95 8 31 19 90 25 133 14 101 27 127 76 149 49 23 52 23 105 4z m-2385 -317 c18 -8 31 -8 50 0 17 8 33 8 55 1 21 -8 39 -8 60 0 21 7 39 7 59 0 20 -7 41 -7 67 0 65 18 97 -17 95 -105 l-1 -52 45 -18 c49 -18 98 -67 93 -93 -2 -9 -23 -21 -51 -29 -38 -11 -47 -17 -47 -35 0 -32 57 -126 83 -137 12 -5 79 -34 149 -64 132 -58 205 -81 276 -89 39 -5 42 -4 42 19 0 38 25 88 87 177 l58 81 5 96 c8 116 2 125 -81 134 -45 5 -67 14 -89 34 -59 54 -44 110 21 77 26 -14 31 -14 53 0 22 15 27 15 54 1 21 -11 32 -12 40 -4 6 6 22 11 37 11 15 0 31 -5 37 -11 8 -8 19 -7 39 3 29 16 94 14 124 -2 14 -8 25 -7 42 4 20 13 26 13 53 0 27 -14 33 -14 60 -1 26 13 34 14 58 2 23 -12 33 -12 58 -2 39 16 74 8 74 -17 0 -10 -11 -39 -25 -65 -36 -68 -33 -87 25 -143 63 -61 67 -94 16 -111 -28 -9 -38 -20 -52 -56 -24 -63 -14 -143 35 -297 35 -110 41 -140 41 -215 0 -103 -9 -141 -50 -205 l-30 -47 39 -39 c52 -52 69 -117 46 -181 -41 -115 -155 -158 -346 -130 -109 15 -249 16 -277 1 -12 -6 -22 -20 -22 -30 0 -10 -7 -24 -15 -31 -13 -11 -21 -9 -46 9 -21 15 -34 20 -41 13 -19 -19 -3 -47 41 -71 l44 -24 -34 -18 c-47 -25 -80 -23 -124 6 -35 25 -38 25 -51 8 -19 -26 -17 -60 6 -83 24 -24 68 -26 76 -5 15 38 64 4 64 -44 0 -31 27 -26 66 13 41 41 42 58 9 120 l-24 46 22 0 c12 0 41 -9 64 -19 49 -23 77 -68 71 -117 -5 -41 4 -43 31 -8 26 33 26 50 2 96 -11 19 -17 39 -14 42 20 20 98 -12 108 -44 6 -20 8 -20 39 8 39 34 90 56 111 49 13 -5 12 -11 -6 -42 -12 -19 -18 -35 -14 -35 4 0 37 25 73 55 78 65 142 89 196 74 42 -12 66 -42 66 -85 0 -74 -83 -105 -118 -44 -9 16 -20 30 -24 30 -3 0 -44 -30 -90 -66 -110 -87 -208 -147 -293 -180 -62 -25 -84 -28 -195 -28 -118 -1 -129 1 -188 28 -41 19 -78 46 -107 78 l-43 48 14 -47 c20 -65 18 -70 -13 -41 -56 52 -67 53 -131 13 -58 -35 -102 -45 -102 -22 -1 35 -17 39 -58 12 -53 -35 -96 -32 -100 8 -4 32 -7 33 -57 7 -42 -21 -63 -24 -114 -14 -29 6 -31 9 -26 35 9 38 -18 53 -126 73 -110 20 -106 21 -112 -13 -5 -23 -14 -32 -43 -41 -32 -11 -39 -10 -63 7 -31 23 -38 69 -21 126 16 54 149 197 183 197 4 0 7 -8 7 -17 0 -13 3 -14 12 -5 16 16 48 15 48 0 1 -7 14 3 31 22 28 33 29 35 10 38 -11 2 -67 -13 -123 -33 -128 -46 -163 -52 -171 -31 -3 8 2 25 12 37 17 21 17 24 -6 86 -13 35 -23 69 -23 74 0 7 18 8 51 4 50 -7 51 -7 39 15 -6 12 -10 23 -8 25 2 1 24 -3 50 -10 43 -11 49 -10 67 8 16 17 23 18 35 8 13 -11 19 -8 40 16 l25 28 24 -29 c14 -18 26 -25 30 -19 12 19 -2 38 -55 72 -150 98 -230 227 -230 370 l0 63 -89 -88 -88 -87 20 -25 c38 -48 19 -109 -38 -126 -21 -7 -23 -13 -23 -89 1 -145 19 -549 30 -647 6 -52 20 -126 31 -163 11 -37 17 -72 14 -77 -10 -16 -59 16 -108 70 -113 125 -147 286 -147 690 l0 208 -25 6 c-35 9 -65 41 -65 70 0 29 35 74 66 86 26 10 30 30 12 60 -10 15 -9 22 4 37 8 10 13 24 11 31 -3 7 -2 20 2 30 4 9 9 24 11 32 1 8 5 25 9 36 6 19 3 21 -18 17 -38 -7 -55 29 -27 57 11 11 27 20 37 20 15 0 14 2 -2 20 -16 18 -16 22 -2 53 9 18 14 43 10 55 -6 25 -8 26 -32 12 -13 -6 -24 -5 -36 4 -24 18 -13 63 20 78 30 14 31 24 5 38 -27 14 -16 30 20 30 22 0 33 7 44 29 23 44 42 45 66 5 17 -26 28 -34 51 -34 34 0 37 -10 9 -35 -20 -18 -20 -18 9 -33 33 -15 44 -36 36 -62 -7 -24 -32 -32 -54 -20 -10 5 -21 6 -25 3 -10 -10 -7 -50 5 -77 10 -20 9 -30 -4 -50 -16 -24 -16 -25 9 -23 35 3 54 -25 36 -53 -7 -11 -9 -20 -4 -20 21 0 32 29 32 81 0 42 5 63 20 80 19 22 21 23 30 7 6 -10 15 -18 21 -18 5 0 36 25 69 55 72 66 105 71 168 26 22 -16 43 -35 47 -41 4 -7 24 0 59 20 30 16 60 30 68 30 10 0 24 29 42 88 31 102 32 138 7 172 -17 21 -30 25 -102 31 -77 7 -86 10 -111 38 -30 33 -44 72 -34 96 7 18 8 18 41 3z m-955 -1874 c0 -9 -9 -55 -19 -103 -10 -47 -24 -119 -29 -160 -12 -87 -33 -121 -88 -139 -33 -12 -46 -11 -90 2 -28 9 -60 16 -72 16 -17 0 -22 6 -22 28 -1 15 -7 38 -15 52 -20 36 -18 77 6 111 16 23 40 35 120 60 107 33 144 57 174 113 21 38 35 46 35 20z m3240 -106 c25 -9 72 -25 104 -33 76 -21 116 -59 116 -110 0 -20 -5 -46 -12 -58 -6 -12 -11 -34 -10 -49 2 -25 -1 -28 -28 -28 -17 0 -47 -7 -67 -15 -46 -20 -58 -19 -109 5 -50 25 -68 62 -78 162 -4 37 -14 91 -22 120 -7 29 -14 71 -14 92 l0 39 38 -54 c28 -40 49 -58 82 -71z"/>
</g>
<g id="layer103" fill="#8d153a" stroke="none">
<path d="M0 1600 l0 -1600 3200 0 3200 0 0 1600 0 1600 -3200 0 -3200 0 0 -1600z m1150 0 l0 -1330 -440 0 -440 0 0 1330 0 1330 440 0 440 0 0 -1330z m1418 1283 c31 -19 49 -64 57 -143 4 -36 16 -101 26 -145 20 -87 23 -115 11 -115 -4 0 -16 16 -27 36 -30 56 -67 80 -174 113 -80 25 -104 37 -120 60 -24 34 -26 75 -6 111 8 14 14 37 15 53 0 23 4 27 28 28 15 0 43 7 62 14 39 16 94 11 128 -12z m3442 12 c23 -8 56 -15 71 -15 26 0 29 -3 27 -27 -1 -16 4 -38 10 -50 7 -12 12 -38 12 -58 0 -54 -39 -88 -131 -114 -114 -33 -135 -45 -173 -103 l-36 -53 0 39 c0 21 6 64 14 95 8 31 19 90 25 133 14 101 27 127 76 149 49 23 52 23 105 4z m-2385 -317 c18 -8 31 -8 50 0 17 8 33 8 55 1 21 -8 39 -8 60 0 21 7 39 7 59 0 20 -7 41 -7 67 0 65 18 97 -17 95 -105 l-1 -52 45 -18 c49 -18 98 -67 93 -93 -2 -9 -23 -21 -51 -29 -38 -11 -47 -17 -47 -35 0 -32 57 -126 83 -137 12 -5 79 -34 149 -64 132 -58 205 -81 276 -89 39 -5 42 -4 42 19 0 38 25 88 87 177 l58 81 5 96 c8 116 2 125 -81 134 -45 5 -67 14 -89 34 -59 54 -44 110 21 77 26 -14 31 -14 53 0 22 15 27 15 54 1 21 -11 32 -12 40 -4 6 6 22 11 37 11 15 0 31 -5 37 -11 8 -8 19 -7 39 3 29 16 94 14 124 -2 14 -8 25 -7 42 4 20 13 26 13 53 0 27 -14 33 -14 60 -1 26 13 34 14 58 2 23 -12 33 -12 58 -2 39 16 74 8 74 -17 0 -10 -11 -39 -25 -65 -36 -68 -33 -87 25 -143 63 -61 67 -94 16 -111 -28 -9 -38 -20 -52 -56 -24 -63 -14 -143 35 -297 35 -110 41 -140 41 -215 0 -103 -9 -141 -50 -205 l-30 -47 39 -39 c52 -52 69 -117 46 -181 -41 -115 -155 -158 -346 -130 -109 15 -249 16 -277 1 -12 -6 -22 -20 -22 -30 0 -10 -7 -24 -15 -31 -13 -11 -21 -9 -46 9 -21 15 -34 20 -41 13 -19 -19 -3 -47 41 -71 l44 -24 -34 -18 c-47 -25 -80 -23 -124 6 -35 25 -38 25 -51 8 -19 -26 -17 -60 6 -83 24 -24 68 -26 76 -5 15 38 64 4 64 -44 0 -31 27 -26 66 13 41 41 42 58 9 120 l-24 46 22 0 c12 0 41 -9 64 -19 49 -23 77 -68 71 -117 -5 -41 4 -43 31 -8 26 33 26 50 2 96 -11 19 -17 39 -14 42 20 20 98 -12 108 -44 6 -20 8 -20 39 8 39 34 90 56 111 49 13 -5 12 -11 -6 -42 -12 -19 -18 -35 -14 -35 4 0 37 25 73 55 78 65 142 89 196 74 42 -12 66 -42 66 -85 0 -74 -83 -105 -118 -44 -9 16 -20 30 -24 30 -3 0 -44 -30 -90 -66 -110 -87 -208 -147 -293 -180 -62 -25 -84 -28 -195 -28 -118 -1 -129 1 -188 28 -41 19 -78 46 -107 78 l-43 48 14 -47 c20 -65 18 -70 -13 -41 -56 52 -67 53 -131 13 -58 -35 -102 -45 -102 -22 -1 35 -17 39 -58 12 -53 -35 -96 -32 -100 8 -4 32 -7 33 -57 7 -42 -21 -63 -24 -114 -14 -29 6 -31 9 -26 35 9 38 -18 53 -126 73 -110 20 -106 21 -112 -13 -5 -23 -14 -32 -43 -41 -32 -11 -39 -10 -63 7 -31 23 -38 69 -21 126 16 54 149 197 183 197 4 0 7 -8 7 -17 0 -13 3 -14 12 -5 16 16 48 15 48 0 1 -7 14 3 31 22 28 33 29 35 10 38 -11 2 -67 -13 -123 -33 -128 -46 -163 -52 -171 -31 -3 8 2 25 12 37 17 21 17 24 -6 86 -13 35 -23 69 -23 74 0 7 18 8 51 4 50 -7 51 -7 39 15 -6 12 -10 23 -8 25 2 1 24 -3 50 -10 43 -11 49 -10 67 8 16 17 23 18 35 8 13 -11 19 -8 40 16 l25 28 24 -29 c14 -18 26 -25 30 -19 12 19 -2 38 -55 72 -150 98 -230 227 -230 370 l0 63 -89 -88 -88 -87 20 -25 c38 -48 19 -109 -38 -126 -21 -7 -23 -13 -23 -89 1 -145 19 -549 30 -647 6 -52 20 -126 31 -163 11 -37 17 -72 14 -77 -10 -16 -59 16 -108 70 -113 125 -147 286 -147 690 l0 208 -25 6 c-35 9 -65 41 -65 70 0 29 35 74 66 86 26 10 30 30 12 60 -10 15 -9 22 4 37 8 10 13 24 11 31 -3 7 -2 20 2 30 4 9 9 24 11 32 1 8 5 25 9 36 6 19 3 21 -18 17 -38 -7 -55 29 -27 57 11 11 27 20 37 20 15 0 14 2 -2 20 -16 18 -16 22 -2 53 9 18 14 43 10 55 -6 25 -8 26 -32 12 -13 -6 -24 -5 -36 4 -24 18 -13 63 20 78 30 14 31 24 5 38 -27 14 -16 30 20 30 22 0 33 7 44 29 23 44 42 45 66 5 17 -26 28 -34 51 -34 34 0 37 -10 9 -35 -20 -18 -20 -18 9 -33 33 -15 44 -36 36 -62 -7 -24 -32 -32 -54 -20 -10 5 -21 6 -25 3 -10 -10 -7 -50 5 -77 10 -20 9 -30 -4 -50 -16 -24 -16 -25 9 -23 35 3 54 -25 36 -53 -7 -11 -9 -20 -4 -20 21 0 32 29 32 81 0 42 5 63 20 80 19 22 21 23 30 7 6 -10 15 -18 21 -18 5 0 36 25 69 55 72 66 105 71 168 26 22 -16 43 -35 47 -41 4 -7 24 0 59 20 30 16 60 30 68 30 10 0 24 29 42 88 31 102 32 138 7 172 -17 21 -30 25 -102 31 -77 7 -86 10 -111 38 -30 33 -44 72 -34 96 7 18 8 18 41 3z m-955 -1874 c0 -9 -9 -55 -19 -103 -10 -47 -24 -119 -29 -160 -12 -87 -33 -121 -88 -139 -33 -12 -46 -11 -90 2 -28 9 -60 16 -72 16 -17 0 -22 6 -22 28 -1 15 -7 38 -15 52 -20 36 -18 77 6 111 16 23 40 35 120 60 107 33 144 57 174 113 21 38 35 46 35 20z m3240 -106 c25 -9 72 -25 104 -33 76 -21 116 -59 116 -110 0 -20 -5 -46 -12 -58 -6 -12 -11 -34 -10 -49 2 -25 -1 -28 -28 -28 -17 0 -47 -7 -67 -15 -46 -20 -58 -19 -109 5 -50 25 -68 62 -78 162 -4 37 -14 91 -22 120 -7 29 -14 71 -14 92 l0 39 38 -54 c28 -40 49 -58 82 -71z"/>
<path d="M2435 2880 c-11 -5 -31 -9 -45 -9 -22 -1 -27 -8 -39 -53 -31 -116 -17 -136 123 -180 85 -26 107 -37 140 -72 l39 -40 -6 29 c-3 17 -13 62 -21 100 -9 39 -16 85 -16 103 0 44 -23 96 -51 116 -25 17 -91 20 -124 6z"/>
<path d="M5886 2867 c-26 -26 -46 -83 -46 -134 0 -17 -9 -69 -20 -115 -25 -104 -25 -107 2 -72 38 49 60 61 150 89 136 40 176 90 133 165 -8 14 -14 35 -15 46 0 23 -20 30 -127 40 -46 5 -55 3 -77 -19z"/>
<path d="M3600 2555 c0 -25 28 -73 49 -85 11 -5 45 -10 76 -10 71 0 112 -21 131 -67 18 -41 15 -60 -29 -193 -25 -79 -31 -112 -31 -192 -1 -54 -4 -90 -8 -80 -10 25 -9 121 2 167 5 22 7 41 5 43 -2 2 -31 -11 -65 -29 -80 -43 -160 -123 -196 -196 -24 -49 -29 -70 -28 -133 1 -137 63 -244 198 -341 84 -60 100 -78 90 -103 -9 -23 -40 -20 -58 5 -17 25 -30 19 -53 -24 -16 -31 -16 -32 -26 -9 -12 27 -23 28 -37 2 -9 -16 -15 -18 -36 -10 -42 16 -56 13 -44 -9 15 -29 14 -29 -40 -18 -28 5 -53 8 -55 5 -2 -2 3 -27 12 -56 19 -58 23 -59 97 -37 27 8 63 14 80 14 21 -1 13 -4 -24 -10 -88 -15 -181 -71 -158 -95 4 -3 56 12 115 34 60 22 132 44 161 48 56 7 78 28 69 65 -3 10 -1 17 4 13 20 -12 6 -45 -51 -125 -53 -72 -62 -80 -67 -61 -6 25 -25 29 -43 7 -7 -8 -16 -15 -21 -15 -5 0 -9 7 -9 15 0 27 -17 16 -83 -54 -52 -55 -67 -79 -77 -120 -10 -44 -10 -55 4 -76 31 -47 106 -22 106 34 0 21 3 22 48 15 26 -4 57 -11 70 -15 13 -5 38 -9 57 -9 46 0 99 -44 91 -76 -6 -23 -4 -24 46 -24 36 0 63 7 83 20 42 28 53 25 61 -16 6 -32 9 -35 33 -29 14 3 43 20 64 36 l37 30 15 -35 c14 -33 17 -35 42 -25 16 6 42 21 60 35 37 28 69 31 101 8 20 -14 22 -14 22 1 0 21 -17 54 -43 83 -21 22 -21 23 -2 54 15 27 18 51 17 146 -1 63 -3 117 -5 118 -10 11 -76 -61 -82 -89 -7 -33 -35 -87 -45 -87 -3 0 -3 23 -1 52 l3 52 -27 -18 c-36 -24 -37 -17 -2 16 31 30 34 27 39 -37 l3 -40 14 45 c7 25 27 61 45 80 28 31 65 125 53 137 -6 5 -98 -65 -119 -91 -15 -18 -19 -19 -28 -6 -5 8 -11 20 -13 25 -3 6 -16 -1 -31 -14 -18 -17 -26 -20 -26 -10 0 8 -5 21 -10 29 -7 12 -13 11 -37 -10 l-28 -25 25 30 c14 17 26 32 28 35 2 3 12 -6 22 -20 18 -24 19 -24 39 -6 12 11 21 15 21 10 0 -5 4 -15 9 -23 7 -11 20 -5 60 29 28 24 51 52 51 62 0 10 7 33 16 50 l16 31 -38 -6 c-21 -4 -51 -16 -67 -28 -16 -11 -31 -19 -33 -16 -8 8 58 44 99 55 20 6 51 22 68 36 l30 25 -24 7 c-14 3 -35 4 -48 2 -21 -3 -24 2 -27 32 -2 19 -9 38 -15 42 -8 5 -6 8 6 8 11 0 17 -8 17 -22 0 -34 11 -44 54 -51 51 -8 56 -15 27 -37 -24 -17 -20 -18 185 -24 525 -15 612 -26 663 -80 28 -30 41 -75 29 -106 -26 -72 -95 -89 -253 -66 -170 25 -300 22 -392 -10 -98 -32 -125 -30 -139 15 l-11 34 -16 -24 c-19 -26 -22 -81 -7 -109 8 -16 4 -28 -20 -61 -77 -106 -41 -212 94 -282 55 -28 71 -31 173 -35 93 -3 124 -1 180 17 85 26 189 86 317 185 106 81 136 93 136 51 0 -55 82 -55 96 0 9 35 -4 63 -36 80 -63 33 -112 15 -225 -79 -84 -71 -100 -71 -71 -1 14 34 14 37 0 31 -9 -3 -20 -6 -25 -6 -5 0 -27 -18 -48 -39 l-39 -39 -12 28 c-7 16 -27 36 -45 44 -45 22 -48 21 -30 -15 28 -53 23 -88 -18 -126 -20 -18 -41 -33 -46 -33 -6 0 -7 23 -4 55 6 61 -6 83 -59 111 -42 22 -50 18 -33 -16 24 -46 19 -92 -12 -122 -33 -30 -65 -48 -87 -48 -12 0 -16 10 -16 39 0 48 -13 58 -40 31 -25 -25 -37 -25 -77 0 -38 23 -50 58 -31 96 22 45 41 50 71 20 19 -19 36 -26 66 -26 49 0 59 13 26 34 -38 25 -45 46 -29 85 l14 34 28 -26 c35 -34 48 -34 56 -2 11 45 56 58 178 51 59 -3 157 -9 216 -12 103 -6 110 -5 160 20 115 58 134 181 42 273 l-41 40 36 59 c19 32 40 77 46 99 19 69 4 184 -43 323 -66 199 -56 323 29 358 18 8 33 19 33 26 0 6 -24 33 -52 59 -46 42 -53 53 -52 86 0 24 10 54 27 81 15 23 25 47 22 52 -9 15 -48 12 -73 -6 -20 -14 -24 -14 -38 0 -20 20 -44 20 -72 0 -20 -14 -24 -14 -44 0 -28 20 -52 20 -68 1 -12 -14 -15 -14 -36 0 -52 34 -59 8 -11 -40 20 -20 54 -39 86 -49 75 -22 81 -29 81 -96 0 -120 -12 -139 -147 -226 -44 -29 -113 -81 -151 -117 -71 -64 -136 -95 -178 -84 -12 3 -7 5 12 6 48 2 114 41 196 116 l76 69 -19 35 c-14 27 -16 38 -7 55 15 28 28 36 61 36 15 0 27 4 27 8 0 5 -19 35 -42 68 -34 46 -42 66 -40 94 8 110 7 123 -10 133 -13 9 -26 7 -52 -5 -30 -15 -36 -15 -46 -2 -16 18 -54 18 -70 -1 -11 -13 -15 -13 -33 0 -28 19 -46 19 -68 -1 -17 -15 -20 -15 -43 0 -33 21 -46 20 -46 -2 0 -37 46 -66 115 -73 95 -10 98 -14 93 -134 -4 -110 -9 -122 -99 -247 -32 -43 -43 -68 -47 -107 l-5 -51 -46 0 c-63 0 -128 20 -293 91 -75 32 -141 59 -147 59 -6 0 1 -22 14 -49 14 -27 25 -53 25 -57 0 -8 -36 56 -121 216 -11 19 -19 40 -19 47 0 23 39 53 68 53 16 0 32 3 35 6 14 15 -36 64 -89 85 l-55 23 5 56 c5 45 3 59 -13 80 -19 23 -22 24 -65 12 -35 -9 -51 -9 -71 0 -20 9 -34 9 -61 -1 -26 -10 -39 -10 -47 -2 -14 14 -50 14 -65 -1 -9 -9 -18 -9 -37 0 -33 15 -35 15 -35 -3z m596 -646 c7 -30 13 -67 13 -84 -1 -17 -7 -1 -14 38 -8 37 -17 78 -21 90 -3 12 -3 19 0 16 4 -4 14 -31 22 -60z m-310 -375 l34 -35 0 26 c0 34 18 29 47 -14 l22 -33 20 32 c19 31 19 32 30 11 10 -17 9 -20 -4 -15 -9 4 -19 -3 -26 -20 -16 -34 -22 -33 -42 9 -20 43 -33 44 -42 5 -8 -38 -21 -38 -28 -1 -6 30 -39 57 -56 47 -5 -3 -12 -21 -15 -40 -6 -33 -9 -35 -32 -26 -35 14 -36 13 -29 -12 5 -18 2 -16 -13 7 -11 17 -18 31 -17 32 1 2 16 -2 35 -7 41 -12 46 -9 54 35 4 19 12 35 18 35 6 0 26 -16 44 -36z m286 6 c31 -26 40 -29 63 -20 45 17 52 11 10 -9 l-40 -18 -30 28 c-17 16 -34 29 -37 29 -3 0 -17 -29 -30 -65 -12 -36 -26 -65 -31 -65 -8 0 -27 44 -27 63 1 7 7 -1 14 -18 l13 -30 17 40 c10 22 20 52 23 68 3 15 8 27 12 27 4 0 23 -14 43 -30z m-388 -116 c3 -8 2 -12 -4 -9 -6 3 -10 10 -10 16 0 14 7 11 14 -7z m356 -55 l0 -39 25 16 c23 15 25 15 31 -2 4 -11 9 -23 11 -29 3 -5 -2 -2 -11 9 -14 18 -16 18 -50 -4 -20 -12 -40 -29 -45 -38 -9 -16 -10 -16 -16 0 -6 14 -11 11 -37 -18 -32 -36 -48 -43 -48 -20 0 28 -22 28 -53 0 l-30 -29 22 32 c31 45 39 48 60 21 19 -22 19 -23 40 -4 12 11 21 25 21 33 0 16 16 17 25 2 13 -19 45 22 45 58 0 18 -2 33 -5 33 -3 0 -24 -14 -47 -30 -44 -32 -57 -28 -58 15 0 16 -4 14 -21 -13 -12 -18 -23 -31 -26 -29 -2 3 7 22 22 42 l25 38 11 -31 c11 -31 11 -31 40 -16 16 8 35 23 41 34 17 27 28 15 28 -31z m-240 -43 c0 -15 -17 -3 -32 22 l-17 27 -10 -25 c-6 -16 -10 -19 -10 -8 -1 9 2 24 5 33 6 15 11 13 35 -13 16 -17 29 -33 29 -36z m21 52 c8 -7 21 -22 29 -33 10 -14 7 -13 -14 5 -15 14 -31 24 -34 22 -4 -2 -8 1 -10 7 -5 15 11 14 29 -1z m-184 -135 c-43 -4 -46 -6 -37 -24 9 -16 7 -19 -12 -19 -16 0 -19 3 -10 8 7 5 10 16 6 25 -5 15 1 17 47 15 l54 -2 -48 -3z m227 -104 l15 -21 30 22 c33 23 32 24 46 -27 2 -6 -3 -19 -11 -30 -13 -16 -14 -15 -8 20 7 43 0 46 -34 15 -15 -14 -26 -19 -29 -12 -2 6 -10 20 -18 30 -13 18 -14 18 -42 -6 l-28 -25 24 28 c29 33 35 33 55 6z m121 -29 c7 -24 23 -26 31 -5 4 8 10 15 14 15 9 0 32 -61 26 -68 -3 -2 -8 7 -12 22 -7 31 -19 33 -36 6 -17 -27 -28 -25 -28 5 0 14 -4 25 -10 25 -5 0 -10 5 -10 10 0 18 18 11 25 -10z m265 -73 c0 -2 -12 -14 -27 -28 l-28 -24 24 28 c23 25 31 32 31 24z m-482 -84 c2 -13 -1 -23 -6 -23 -6 0 -8 9 -5 20 4 16 0 20 -21 20 -14 0 -26 -5 -26 -12 0 -6 -3 -9 -6 -5 -13 12 9 28 34 25 19 -2 28 -10 30 -25z m179 11 c-4 -4 -21 -8 -39 -10 -18 -1 -58 -14 -88 -28 -64 -30 -92 -32 -111 -9 -13 15 -12 15 9 2 23 -15 20 -15 152 36 36 14 88 20 77 9z m53 -25 c-30 -5 -64 -16 -77 -24 -25 -17 -29 -14 -12 13 8 13 26 17 77 19 l67 1 -55 -9z m66 -27 c-17 -16 -18 -16 -5 5 7 12 15 20 18 17 3 -2 -3 -12 -13 -22z m84 -44 c32 -10 83 -38 68 -38 -3 0 -25 9 -49 20 -24 11 -65 20 -91 20 -26 0 -50 5 -53 11 -8 12 67 4 125 -13z"/>
<path d="M4944 2454 c-6 -43 -4 -50 39 -111 49 -70 50 -90 8 -99 -60 -12 -78 -46 -42 -78 20 -18 22 -18 69 13 89 57 97 71 97 169 l0 86 -58 17 c-32 9 -69 24 -82 33 -24 16 -24 16 -31 -30z"/>
<path d="M3146 2302 c-8 -16 -25 -32 -38 -35 -21 -6 -21 -7 -4 -26 17 -19 17 -20 -17 -36 -39 -18 -50 -35 -36 -56 7 -12 12 -12 30 0 20 12 24 11 36 -5 16 -22 17 -68 1 -94 -10 -15 -9 -22 5 -38 25 -28 21 -40 -15 -44 -23 -2 -34 -9 -36 -22 -3 -16 1 -18 28 -14 26 4 34 1 38 -14 5 -22 6 -22 45 -4 18 8 45 17 60 20 36 8 30 30 -9 33 -16 0 -33 2 -37 2 -5 1 0 16 10 34 17 28 17 35 5 60 -14 28 -11 58 8 87 8 13 13 13 31 2 14 -9 25 -10 32 -3 15 15 0 42 -33 54 -32 12 -40 34 -15 43 20 8 9 24 -16 24 -11 0 -23 10 -29 24 -14 37 -28 39 -44 8z"/>
<path d="M3505 2148 c-11 -6 -44 -33 -73 -60 -30 -26 -57 -48 -62 -48 -5 0 -16 7 -24 16 -20 19 -23 11 -29 -68 -2 -34 -10 -65 -20 -76 -10 -11 -13 -23 -8 -31 5 -7 9 -32 9 -55 l1 -41 -14 31 c-7 17 -20 34 -29 37 -22 9 -21 -18 2 -35 22 -16 48 -66 39 -75 -4 -3 -7 0 -7 9 0 19 -38 54 -48 44 -4 -4 2 -15 13 -24 25 -21 51 -70 42 -79 -4 -3 -18 -1 -32 5 -25 11 -55 7 -55 -8 0 -4 19 -10 42 -14 l42 -7 104 103 c57 57 114 124 127 149 13 25 47 71 75 102 29 32 48 61 45 68 -10 14 -96 69 -109 69 -6 0 -20 -6 -31 -12z"/>
<path d="M3143 1888 c-34 -16 -29 -38 10 -39 l32 -1 -37 -10 c-28 -7 -38 -15 -38 -30 0 -18 4 -20 41 -14 23 4 50 11 60 17 26 14 24 39 -3 39 l-22 0 22 16 c12 8 22 19 22 25 0 12 -59 10 -87 -3z"/>
<path d="M3240 1891 c0 -12 42 -42 49 -36 5 6 -29 45 -41 45 -4 0 -8 -4 -8 -9z"/>
<path d="M3080 1659 c-39 -16 -60 -40 -60 -70 0 -36 26 -61 59 -57 22 2 26 8 26 33 0 46 11 55 69 55 29 0 59 -6 68 -12 13 -11 13 -16 1 -38 l-15 -25 6 27 c5 23 2 29 -17 33 -13 4 -41 5 -62 3 -36 -3 -38 -5 -40 -38 -15 -229 -16 -327 -6 -475 19 -281 54 -390 156 -491 61 -59 83 -69 62 -26 -35 68 -55 263 -67 650 -5 161 -12 297 -15 303 -3 5 1 6 10 3 26 -10 65 5 77 31 14 32 -10 71 -57 91 -39 16 -157 18 -195 3z"/>
<path d="M4473 1393 c-88 -4 -93 -5 -113 -32 -25 -36 -26 -59 -2 -57 13 1 16 -5 14 -24 -4 -35 -3 -68 4 -204 5 -100 3 -125 -11 -157 -17 -37 -17 -38 5 -66 l22 -28 -6 32 c-9 40 7 100 39 147 19 29 23 41 15 56 -20 37 -12 88 19 122 l30 33 15 -37 c9 -20 19 -39 24 -42 5 -3 50 8 100 24 108 35 222 40 362 15 163 -29 245 -15 270 44 11 28 11 37 -3 66 -32 67 -99 85 -352 95 -110 5 -231 11 -270 13 -38 2 -111 2 -162 0z"/>
<path d="M2610 630 c-29 -31 -53 -43 -136 -68 -140 -44 -154 -64 -123 -179 15 -56 8 -53 131 -69 83 -11 115 23 129 140 5 39 16 102 25 139 9 37 15 69 13 71 -2 2 -20 -14 -39 -34z"/>
<path d="M5800 674 c0 -5 9 -46 20 -92 11 -46 20 -98 20 -115 0 -51 20 -108 46 -134 22 -22 31 -24 77 -19 107 10 127 17 127 40 1 11 7 32 15 46 43 75 3 125 -133 165 -90 28 -112 40 -150 89 -12 16 -22 25 -22 20z"/>
</g>
<g id="layer104" fill="#eb7400" stroke="none">
<path d="M0 1600 l0 -1600 3200 0 3200 0 0 1600 0 1600 -3200 0 -3200 0 0 -1600z m1150 0 l0 -1330 -440 0 -440 0 0 1330 0 1330 440 0 440 0 0 -1330z m5010 0 l0 -1330 -1935 0 -1935 0 0 1330 0 1330 1935 0 1935 0 0 -1330z"/>
</g>
<g id="layer105" fill="#febd29" stroke="none">
<path d="M0 1600 l0 -1600 3200 0 3200 0 0 1600 0 1600 -3200 0 -3200 0 0 -1600z m2030 0 l0 -1330 -880 0 -880 0 0 1330 0 1330 880 0 880 0 0 -1330z m4130 0 l0 -1330 -1935 0 -1935 0 0 1330 0 1330 1935 0 1935 0 0 -1330z"/>
<path d="M2440 2880 c-8 -5 -30 -10 -47 -10 -29 0 -33 -3 -33 -26 0 -14 -5 -35 -11 -46 -17 -31 -13 -87 7 -109 9 -10 63 -33 118 -50 86 -27 107 -37 140 -72 35 -36 39 -38 34 -17 -18 83 -38 192 -43 234 -9 68 -47 106 -107 106 -24 0 -50 -5 -58 -10z"/>
<path d="M5899 2876 c-34 -20 -49 -55 -60 -150 -5 -45 -16 -106 -24 -136 -20 -75 -19 -80 9 -40 29 43 53 56 169 95 115 38 138 63 118 128 -7 23 -15 54 -18 69 -4 21 -12 27 -41 32 -95 16 -128 16 -153 2z"/>
<path d="M3600 2555 c0 -25 28 -73 49 -85 11 -5 49 -10 85 -10 58 0 69 -3 98 -29 28 -25 32 -35 32 -77 0 -27 -16 -98 -35 -159 -28 -91 -34 -125 -34 -198 0 -48 -3 -80 -7 -70 -10 25 -9 131 1 175 l9 37 -34 -14 c-88 -37 -200 -142 -237 -223 -16 -35 -21 -66 -21 -122 1 -136 63 -244 194 -336 92 -64 104 -77 95 -104 -8 -26 -33 -26 -61 1 l-23 22 -22 -37 c-20 -35 -39 -40 -39 -10 0 21 -15 17 -32 -7 -12 -18 -17 -20 -35 -10 -12 6 -29 11 -38 11 -12 0 -14 -4 -5 -19 15 -29 14 -29 -40 -18 -28 5 -53 7 -56 5 -2 -3 4 -27 14 -54 20 -55 18 -54 122 -34 36 6 75 14 88 16 18 4 22 9 17 24 -6 18 -2 20 47 18 l53 -2 -48 -3 c-41 -4 -47 -6 -36 -19 6 -8 10 -16 8 -19 -3 -2 -38 -9 -79 -16 -41 -6 -94 -19 -117 -29 -39 -17 -72 -55 -59 -68 4 -3 41 9 84 27 89 36 174 61 214 61 31 0 53 31 44 62 -3 15 -2 18 6 10 17 -17 2 -53 -57 -131 -49 -64 -57 -71 -62 -53 -6 26 -25 28 -43 7 -7 -8 -16 -15 -21 -15 -5 0 -9 7 -9 15 0 27 -18 16 -82 -55 -93 -102 -112 -199 -42 -216 35 -9 57 5 69 44 11 37 8 36 100 17 38 -8 80 -15 92 -15 12 0 36 -12 53 -26 24 -21 30 -32 26 -50 -6 -23 -4 -24 47 -24 39 0 61 6 80 20 42 33 67 22 67 -31 0 -10 2 -19 5 -19 17 0 73 30 89 49 26 29 35 27 52 -14 16 -39 26 -39 88 7 45 31 81 36 114 12 20 -14 22 -14 22 1 0 21 -17 54 -43 83 -20 21 -20 24 -5 50 18 30 22 77 20 195 l-2 78 -34 -26 c-19 -14 -39 -40 -46 -58 -17 -48 -42 -97 -49 -97 -3 0 -4 23 -2 52 l3 52 -27 -18 c-36 -24 -37 -17 -2 16 31 30 34 27 40 -37 l3 -40 13 48 c8 29 26 60 46 79 19 17 35 44 38 62 3 17 8 42 13 55 l7 24 -32 -19 c-18 -10 -50 -36 -73 -58 -40 -39 -47 -39 -61 -1 -3 6 -16 -1 -31 -14 -18 -17 -26 -20 -26 -10 0 8 -5 21 -10 29 -7 12 -13 11 -37 -10 l-28 -25 25 30 c14 17 26 32 28 35 2 3 12 -6 22 -20 18 -24 19 -24 39 -6 12 11 21 15 21 10 0 -5 4 -15 9 -23 12 -19 111 63 111 93 0 12 7 34 15 50 l15 29 -37 -6 c-21 -4 -50 -16 -66 -28 -16 -11 -31 -19 -34 -16 -7 8 81 57 102 57 10 0 26 6 34 13 12 9 63 11 226 5 358 -12 558 -25 596 -37 107 -34 148 -136 78 -195 -41 -34 -112 -41 -231 -22 -54 9 -145 16 -204 16 -87 0 -118 -4 -180 -26 -96 -33 -125 -30 -140 15 l-11 34 -16 -24 c-19 -26 -22 -81 -7 -109 8 -15 3 -29 -22 -66 -79 -118 -26 -232 137 -293 63 -24 198 -29 283 -10 92 19 211 88 385 224 63 48 97 58 97 26 0 -22 25 -51 44 -51 21 0 45 24 51 52 6 22 1 33 -24 59 -29 29 -36 31 -77 25 -50 -6 -75 -22 -174 -105 -70 -59 -85 -56 -56 13 8 20 13 36 10 36 -18 0 -85 -44 -102 -67 l-21 -28 -10 27 c-9 24 -63 68 -83 68 -4 0 2 -21 14 -47 20 -46 20 -47 2 -81 -17 -31 -58 -62 -84 -62 -7 0 -8 6 0 19 15 29 12 83 -6 109 -15 22 -63 52 -84 52 -7 0 -5 -9 4 -22 18 -25 21 -90 6 -118 -13 -24 -72 -60 -99 -60 -17 0 -21 6 -21 29 0 16 -3 37 -6 46 -6 14 -9 14 -29 -5 -29 -28 -76 -20 -105 17 -27 35 -25 65 6 102 l26 31 28 -30 c22 -23 37 -30 67 -30 22 0 42 3 46 6 3 4 -10 21 -29 40 -37 34 -40 60 -8 93 11 13 16 11 34 -12 27 -34 46 -34 54 -2 4 14 18 32 31 41 26 17 61 17 358 -2 113 -7 163 6 215 57 69 67 65 159 -10 236 l-41 41 20 29 c58 81 68 114 67 218 0 91 -4 112 -43 225 -54 157 -62 237 -33 303 16 36 30 51 57 63 32 13 34 17 24 35 -6 12 -31 40 -55 63 -53 51 -55 72 -15 148 17 31 27 58 24 62 -11 10 -37 7 -67 -9 -26 -14 -31 -14 -46 0 -21 19 -40 19 -68 -1 -20 -14 -24 -14 -44 0 -28 20 -52 20 -68 1 -11 -13 -15 -13 -41 1 -27 14 -29 13 -29 -5 0 -27 52 -68 103 -82 79 -20 87 -30 87 -110 0 -106 -15 -130 -129 -204 -53 -34 -128 -92 -168 -127 -73 -65 -137 -96 -179 -85 -12 3 -7 5 12 6 49 2 116 42 196 116 l74 69 -20 37 c-19 35 -19 38 -3 63 13 20 26 26 52 26 19 0 35 4 35 9 0 5 -15 29 -34 54 -57 75 -60 83 -46 147 19 89 -5 119 -69 85 -26 -13 -30 -13 -41 0 -16 20 -49 19 -72 -2 -17 -15 -19 -15 -36 0 -23 21 -41 21 -63 1 -16 -14 -20 -14 -49 1 -39 20 -49 12 -29 -23 19 -35 54 -52 109 -52 25 0 56 -7 68 -16 20 -14 22 -23 22 -105 0 -102 -11 -138 -69 -214 -54 -71 -81 -128 -81 -170 l0 -35 -49 0 c-63 0 -150 27 -308 96 -69 30 -128 53 -130 50 -2 -2 2 -17 10 -33 36 -71 23 -69 -16 2 -24 44 -56 101 -71 127 -42 73 -27 106 58 123 l29 6 -33 34 c-17 18 -52 41 -77 50 l-45 18 6 48 c5 36 2 57 -10 80 -15 29 -18 31 -52 24 -43 -9 -66 -9 -108 0 -21 5 -34 2 -43 -9 -12 -14 -16 -14 -42 -1 -36 19 -53 19 -69 0 -11 -13 -15 -13 -33 0 -27 19 -37 19 -37 0z m596 -646 c7 -30 13 -67 13 -84 -1 -17 -7 -1 -14 38 -8 37 -17 78 -21 90 -3 12 -3 19 0 16 4 -4 14 -31 22 -60z m-310 -375 l34 -35 0 26 c0 34 18 29 47 -14 l22 -33 20 32 c19 31 19 32 30 11 10 -17 9 -20 -4 -15 -9 4 -19 -3 -26 -20 -16 -34 -22 -33 -42 9 -20 43 -33 44 -42 5 -8 -38 -21 -38 -28 -1 -6 30 -39 57 -56 47 -5 -3 -12 -21 -15 -40 -6 -33 -8 -35 -33 -25 -34 13 -36 9 -18 -34 23 -54 10 -45 -18 13 l-24 50 24 -6 c50 -13 57 -10 66 29 5 20 14 37 19 37 6 0 26 -16 44 -36z m286 6 c31 -26 40 -29 63 -20 45 17 52 11 10 -9 l-40 -18 -30 28 c-17 16 -34 29 -37 29 -3 0 -17 -29 -30 -65 -12 -36 -26 -65 -31 -65 -8 0 -27 44 -27 63 1 7 7 -1 14 -18 l13 -30 17 40 c10 22 20 52 23 68 3 15 8 27 12 27 4 0 23 -14 43 -30z m148 -22 c0 -34 11 -44 54 -51 21 -3 41 -8 44 -11 7 -8 -18 -36 -32 -36 -6 0 -3 7 7 14 17 13 16 15 -10 20 -15 3 -37 5 -48 3 -16 -2 -21 5 -23 33 -2 19 -9 38 -15 42 -8 5 -6 8 6 8 11 0 17 -8 17 -22z m-180 -149 l0 -39 25 16 c23 15 25 15 31 -2 4 -11 9 -23 11 -29 3 -5 -2 -2 -11 9 -14 18 -16 18 -50 -4 -20 -12 -40 -29 -45 -38 -9 -16 -10 -16 -16 0 -6 14 -11 11 -37 -18 -32 -36 -48 -43 -48 -20 0 28 -22 28 -53 0 l-30 -29 22 32 c31 45 39 48 60 21 19 -22 19 -23 40 -4 12 11 21 25 21 33 0 16 16 17 25 2 13 -19 45 22 45 58 0 18 -2 33 -5 33 -3 0 -24 -14 -47 -30 -44 -32 -57 -28 -58 15 0 16 -4 14 -21 -13 -12 -18 -23 -31 -26 -29 -2 3 7 22 22 42 l25 38 11 -31 c11 -31 11 -31 40 -16 16 8 35 23 41 34 17 27 28 15 28 -31z m-240 -43 c0 -15 -17 -3 -32 22 l-17 27 -10 -25 c-6 -16 -10 -19 -10 -8 -1 9 2 24 5 33 6 15 11 13 35 -13 16 -17 29 -33 29 -36z m21 52 c8 -7 21 -22 29 -33 10 -14 7 -13 -14 5 -15 14 -31 24 -34 22 -4 -2 -8 1 -10 7 -5 15 11 14 29 -1z m43 -239 l15 -21 30 22 c33 23 32 24 46 -27 2 -6 -3 -19 -11 -30 -13 -16 -14 -15 -8 20 7 43 0 46 -34 15 -15 -14 -26 -19 -29 -12 -2 6 -10 20 -18 30 -13 18 -14 18 -42 -6 l-28 -25 24 28 c29 33 35 33 55 6z m121 -29 c7 -24 23 -26 31 -5 4 8 10 15 14 15 9 0 32 -61 26 -68 -3 -2 -8 7 -12 22 -7 31 -19 33 -36 6 -17 -27 -28 -25 -28 5 0 14 -4 25 -10 25 -5 0 -10 5 -10 10 0 18 18 11 25 -10z m248 -95 c-10 -13 -22 -25 -27 -25 -5 0 1 11 14 25 30 32 36 32 13 0z m-465 -62 c2 -13 -1 -23 -6 -23 -6 0 -8 9 -5 20 4 16 0 20 -21 20 -14 0 -26 -5 -26 -12 0 -6 -3 -9 -6 -5 -13 12 9 28 34 25 19 -2 28 -10 30 -25z m179 11 c-4 -4 -21 -8 -39 -10 -18 -1 -58 -14 -88 -28 -64 -30 -92 -32 -111 -9 -13 15 -12 15 9 2 23 -15 20 -15 152 36 36 14 88 20 77 9z m53 -25 c-30 -5 -64 -16 -77 -24 -25 -17 -29 -14 -12 13 8 13 26 17 77 19 l67 1 -55 -9z m66 -27 c-17 -16 -18 -16 -5 5 7 12 15 20 18 17 3 -2 -3 -12 -13 -22z m84 -44 c32 -10 83 -38 68 -38 -3 0 -25 9 -49 20 -24 11 -65 20 -91 20 -26 0 -50 5 -53 11 -8 12 67 4 125 -13z"/>
<path d="M3149 2301 c-7 -20 -18 -31 -29 -31 -26 0 -33 -15 -15 -30 20 -17 19 -30 -3 -30 -25 0 -63 -42 -53 -58 8 -14 41 -6 41 11 0 5 9 2 20 -8 23 -21 27 -74 8 -105 -10 -15 -9 -22 5 -38 22 -25 22 -42 -2 -42 -31 0 -51 -11 -51 -27 0 -12 7 -14 30 -9 25 4 32 2 38 -14 7 -18 9 -18 36 -5 15 8 38 15 51 15 30 0 54 27 31 36 -9 3 -23 3 -32 0 -29 -11 -35 5 -16 38 17 28 17 35 6 51 -18 24 -18 66 0 91 13 17 18 17 37 6 14 -9 25 -10 32 -3 16 16 0 41 -39 57 -35 15 -35 16 -19 34 17 19 17 20 -9 29 -14 6 -26 17 -26 25 0 7 -7 19 -15 26 -13 11 -17 8 -26 -19z"/>
<path d="M3505 2148 c-11 -6 -43 -33 -72 -59 -57 -54 -64 -56 -87 -33 -20 19 -23 11 -28 -74 -3 -46 -9 -66 -23 -76 -12 -9 -14 -15 -7 -20 7 -4 12 -28 11 -54 0 -34 -2 -42 -8 -27 -5 11 -18 29 -30 39 -18 16 -21 17 -21 3 0 -9 8 -22 18 -29 22 -16 48 -66 39 -75 -4 -3 -7 0 -7 9 0 19 -38 54 -48 44 -4 -4 2 -15 13 -24 25 -21 51 -70 42 -79 -4 -3 -18 -1 -32 5 -25 11 -55 7 -55 -8 0 -4 19 -10 42 -14 l42 -7 104 103 c57 57 114 124 127 149 13 25 47 71 74 101 l51 56 -40 36 c-22 20 -44 36 -49 36 -5 0 -15 2 -23 5 -7 2 -22 -1 -33 -7z"/>
<path d="M3143 1888 c-13 -6 -23 -17 -23 -25 0 -28 97 -6 108 25 5 15 -53 15 -85 0z"/>
<path d="M3246 1885 c7 -18 44 -40 44 -27 0 10 -33 42 -43 42 -3 0 -4 -7 -1 -15z"/>
<path d="M3153 1837 c-32 -7 -43 -15 -43 -28 0 -13 7 -19 23 -18 38 1 92 23 92 39 0 19 -19 21 -72 7z"/>
<path d="M3160 1786 c-54 -13 -70 -23 -70 -42 0 -9 10 -14 28 -14 23 -1 24 -2 10 -11 -27 -15 -22 -29 11 -29 42 0 91 20 91 37 0 13 -9 15 -42 10 l-43 -5 43 19 c24 10 42 24 40 31 -6 16 -16 17 -68 4z"/>
<path d="M3240 1742 c0 -12 39 -46 45 -41 6 7 -24 49 -36 49 -5 0 -9 -4 -9 -8z"/>
<path d="M3083 1659 c-61 -18 -83 -85 -38 -115 36 -23 60 -15 60 21 0 46 11 55 66 55 66 0 93 -14 77 -39 -16 -26 -3 -51 27 -51 26 0 65 31 65 53 0 23 -32 59 -66 73 -37 16 -142 17 -191 3z"/>
<path d="M3120 1608 c-13 -80 -13 -555 -1 -650 23 -173 66 -275 149 -356 30 -29 56 -51 58 -49 3 2 0 17 -6 32 -29 75 -59 385 -61 620 -1 72 -5 175 -10 230 -5 55 -10 114 -12 130 -1 17 -6 33 -12 37 -9 7 -104 12 -105 6z"/>
<path d="M5800 675 c0 -6 7 -35 15 -65 8 -30 19 -92 24 -137 16 -133 49 -172 136 -159 114 17 113 17 118 44 3 15 11 46 18 69 20 65 -3 90 -118 128 -116 39 -140 52 -169 95 -13 19 -24 30 -24 25z"/>
<path d="M2610 630 c-29 -31 -52 -43 -136 -69 -55 -17 -109 -40 -118 -50 -20 -22 -24 -78 -7 -109 6 -11 11 -32 11 -45 0 -26 0 -26 128 -43 46 -7 83 10 102 45 5 11 14 52 20 93 5 40 17 104 26 141 9 37 15 69 13 71 -2 2 -20 -14 -39 -34z"/>
</g>


</svg>