<svg id="star" xmlns="http://www.w3.org/2000/svg" viewBox="0 0 192 192"><title>Çalışma Yüzeyi 1</title><path d="M97.12,52c-2.25,8.38-5.56,16.48-8,24.8C88.47,79,87.69,81.08,87,83.23c-.25.8-.37,2.1-1.15,2.57S83.79,86,83,86H50.27a28.82,28.82,0,0,0,3.67,2.82c3,2.22,6,4.33,9,6.53,3.54,2.61,7.11,5.17,10.66,7.76a42.74,42.74,0,0,0,5.69,4c-2.49,7.66-5,15.31-7.47,23q-1.12,3.49-2.26,7a25.34,25.34,0,0,0-1.29,4.22c2.5-1.19,4.73-3.32,7-4.93q7.11-5.1,14.15-10.27c1.83-1.35,3.66-2.69,5.51-4,.63-.45,1.58-1.45,2.39-1.47s1.61.89,2.2,1.31c1.85,1.33,3.67,2.7,5.52,4,4.92,3.51,9.79,7.11,14.69,10.65a69,69,0,0,0,6.62,4.7,24.14,24.14,0,0,0-1.24-4c-.55-1.64-1-3.31-1.58-5-1.73-5.19-3.37-10.42-5.08-15.62-.73-2.2-1.39-4.42-2.14-6.61-.25-.72-.87-2-.66-2.73s1.31-1.28,1.88-1.7c1.83-1.35,3.68-2.66,5.51-4,7.09-5.17,14.18-10.35,21.31-15.46a7.44,7.44,0,0,0-2.75-.18h-30.5c-.72,0-1.9.22-2.48-.29a5,5,0,0,1-.89-2.1c-.53-1.59-1-3.19-1.53-4.78-2.05-6.16-4.22-12.32-6.05-18.55-.58-2-1.26-3.93-1.91-5.88-.27-.8-.39-1.89-1.1-2.39"/></svg>