<svg id="sun" xmlns="http://www.w3.org/2000/svg" viewBox="0 0 192 192"><title>sun</title><g id="layer104"><path d="M97.33,140c.74-2.95.77-3.12.7-4.32-.16-2.61-1.14-4.56-3.69-7.29l-1-1.05-.08,1.78a13.48,13.48,0,0,1-1.56,6.05,15.08,15.08,0,0,1-3.51,4.15c-.14.11.06-.42.5-1.33a8.34,8.34,0,0,0,1.09-4.68c-.12-2-.61-3.34-2.19-6l-.8-1.38-.16.78a13.24,13.24,0,0,1-5.71,9c-1.52,1-2,1.27-1.78,1,.08-.11.52-.67,1-1.25a9,9,0,0,0,1.92-7.66,18.21,18.21,0,0,0-1.38-4.27c0,.06-.26.5-.48,1a13.58,13.58,0,0,1-6,6.63A23.93,23.93,0,0,1,71,132.24a6.84,6.84,0,0,1,1-1,8.76,8.76,0,0,0,2.67-3.17,10.72,10.72,0,0,0,.87-6.23c-.26-2.66-.18-2.6-1.23-1.19A13.49,13.49,0,0,1,71,124a14.36,14.36,0,0,1-3.42,1.63,35.26,35.26,0,0,1-3.69.6s.63-.38,1.42-.8a9.12,9.12,0,0,0,5.12-6.67,27.51,27.51,0,0,0,.45-4.08,6.15,6.15,0,0,0-1.12.87A13,13,0,0,1,61.23,119c-.65,0-1.61-.06-2.13-.11l-.93-.08.77-.24,1.53-.44a8.75,8.75,0,0,0,5.42-4.76,22.84,22.84,0,0,0,1.54-4.45s-.52.27-1.08.58A13.66,13.66,0,0,1,60,111.38a10.72,10.72,0,0,1-4.58-.69l-1.2-.37,1.65-.11a8.4,8.4,0,0,0,4-1,12.07,12.07,0,0,0,3.35-3,36,36,0,0,0,2.14-3.67,7.45,7.45,0,0,0-1.21.36,13.52,13.52,0,0,1-5.5.67,11.33,11.33,0,0,1-4.84-1.43c-.93-.47-1.69-.88-1.66-.89a7,7,0,0,1,1.24.13,9.5,9.5,0,0,0,5.65-.53,12.59,12.59,0,0,0,2.75-1.81c.57-.53,2.82-3,2.82-3.08a5.62,5.62,0,0,0-1,.07,14.2,14.2,0,0,1-8.8-1.82A27.42,27.42,0,0,1,52,92a4.34,4.34,0,0,1,.9.29,8.1,8.1,0,0,0,4.08.89,6.15,6.15,0,0,0,2.63-.35,15.68,15.68,0,0,0,1.79-.74,23.67,23.67,0,0,0,3.74-2.67,2.84,2.84,0,0,0-1-.18,13.71,13.71,0,0,1-7.82-3.3,25.75,25.75,0,0,1-2.57-3.08,12.78,12.78,0,0,1,1.4.81,7.59,7.59,0,0,0,5,1.54,8.09,8.09,0,0,0,2.81-.35A23.9,23.9,0,0,0,67.14,83,5.32,5.32,0,0,0,66,82.57a12.8,12.8,0,0,1-7.89-6.67c-.22-.5-.5-1.09-.61-1.3s.22,0,1.22.89a8.33,8.33,0,0,0,6.47,2.62,14.47,14.47,0,0,0,4.06-.56c1.38-.31,1.4-.33.23-1a13.84,13.84,0,0,1-5.64-5.93,24.46,24.46,0,0,1-1.2-4,7.25,7.25,0,0,1,.88,1.2,8.61,8.61,0,0,0,5,3.93c1.2.42,1.32.44,3.83.49l2.59.05L73.58,71A13,13,0,0,1,70,65.43a15,15,0,0,1-.58-4.53l0-.78L70,61.58a9.37,9.37,0,0,0,2.1,3.48,10.67,10.67,0,0,0,3.24,2,25.46,25.46,0,0,0,4.72,1.13,3.79,3.79,0,0,0-.73-1.18A13.12,13.12,0,0,1,77,57.12c.12-.76.27-1.48.31-1.58A4.64,4.64,0,0,1,77.7,57c.75,4,2.5,5.92,7.13,7.92a9.05,9.05,0,0,0,1.34.52,7,7,0,0,0-.46-1.27,11,11,0,0,1-1.1-5.55,9.87,9.87,0,0,1,1.07-5.33l.51-1.19v2.25c0,2.13,0,2.33.36,3.16a8.92,8.92,0,0,0,2.36,3.56A18.34,18.34,0,0,0,92.69,64a5.75,5.75,0,0,0-.22-1.24,14.75,14.75,0,0,1,.08-6.21,16.16,16.16,0,0,1,.67-2.06,22.79,22.79,0,0,1,2.14-3.32A14.79,14.79,0,0,1,95,52.81a7.82,7.82,0,0,0-.34,2.86c.1,2.43,1.06,4.39,3.37,7l1.3,1.44.08-1.84a12.42,12.42,0,0,1,3.81-9,15.09,15.09,0,0,1,1.45-1.37,10.9,10.9,0,0,1-.7,1.54,14.11,14.11,0,0,0-.93,2.38,9.5,9.5,0,0,0,.54,5.4,27.45,27.45,0,0,0,2.28,4.12s.2-.68.38-1.45a17.84,17.84,0,0,1,.74-2.42,15.42,15.42,0,0,1,2.77-4.19,20.8,20.8,0,0,1,3.67-2.6c.12,0-.25.51-.82,1.23a8.69,8.69,0,0,0-2,4c-.39,2-.17,3.65.92,6.88l.41,1.25.63-1.34a21.7,21.7,0,0,1,1.19-2.18,14.09,14.09,0,0,1,4.63-4.22,18.63,18.63,0,0,1,3.31-1.21,6.86,6.86,0,0,1-.93.81c-3.05,2.39-4.1,5.08-3.7,9.46.24,2.74.2,2.69,1,1.5a17.23,17.23,0,0,1,3.55-3.49,12.87,12.87,0,0,1,6.64-2.21l.66-.08-1.34.7a9.36,9.36,0,0,0-3.45,2.67c-1.28,1.68-1.78,3.13-2.11,6-.3,2.6-.39,2.49,1,1.31a13.78,13.78,0,0,1,6.2-3.2A19.42,19.42,0,0,1,134,72.5c.51.1.48.11-1.05.54a13.18,13.18,0,0,0-2.41.9,10.21,10.21,0,0,0-4,4.45,35.81,35.81,0,0,0-1.33,4.07,9.76,9.76,0,0,0,1.14-.61,15.68,15.68,0,0,1,3.84-1.58,10.79,10.79,0,0,1,3.05-.22,8.67,8.67,0,0,1,3.72.47,5.13,5.13,0,0,1,1.33.51c-3.35.21-4.43.46-6,1.35a11.94,11.94,0,0,0-3.65,3.93c-.48.8-1,1.69-1.14,2l-.28.55.77-.27a11.8,11.8,0,0,1,4.94-.82,11.31,11.31,0,0,1,3.12.28,20,20,0,0,1,4.26,2,8,8,0,0,1-1.57-.16c-3.94-.61-6.54.61-10.06,4.7l-.72.83,1.25-.1c4.44-.39,7.78.69,10.69,3.45.37.36.54.6.4.54l-1.6-.57a7.37,7.37,0,0,0-2.66-.53c-2.42-.1-4.44.65-7.21,2.7l-1.5,1.1.57.08,1.25.15A14.26,14.26,0,0,1,135.9,105a20.72,20.72,0,0,1,3,3.51,1,1,0,0,1-.43-.22,19.25,19.25,0,0,0-3.28-1.78,10.33,10.33,0,0,0-4.46-.2,16.63,16.63,0,0,0-4.25,1.52l-1.12.52,1.12.38a13.32,13.32,0,0,1,3.68,1.73,11.69,11.69,0,0,1,4.5,5.13c.4.79.72,1.47.72,1.52a12.26,12.26,0,0,1-1.32-1.17,8.27,8.27,0,0,0-6.51-2.67,13.94,13.94,0,0,0-3.32.37,15.19,15.19,0,0,0-1.89.45,4.28,4.28,0,0,0,1.14.84,13.06,13.06,0,0,1,5.26,5.62,15.08,15.08,0,0,1,1.26,4.15,6.72,6.72,0,0,1-.81-1.13C127,120.24,124.4,119,119.5,119h-1.83l1.29,1.21a13,13,0,0,1,4.34,10l0,1.09-.63-1.57a9.25,9.25,0,0,0-1.93-3.25,10.81,10.81,0,0,0-4-2.48c-.62-.21-4.21-1-4.28-1s.31.48.7,1a13.34,13.34,0,0,1,2.51,10.23,9.68,9.68,0,0,1-.33,1.49,5.75,5.75,0,0,1-.36-1.49c-.65-3.72-2.55-5.89-6.81-7.75a16.38,16.38,0,0,0-1.68-.69,7,7,0,0,0,.47,1.21,12.93,12.93,0,0,1,1.17,5.17,11.1,11.1,0,0,1-1,5.45c-.33.83-.61,1.51-.62,1.51s0-1,0-2.22a7.56,7.56,0,0,0-.29-3c-.79-2.12-2.06-3.66-4.6-5.55a14.59,14.59,0,0,0-1.62-1.13,9.45,9.45,0,0,0,.23,1.3,16.8,16.8,0,0,1,.13,5.37,13.37,13.37,0,0,1-2.18,5.11C97.37,140.26,97.21,140.43,97.33,140Z"/></g></svg>