<svg id="sword" xmlns="http://www.w3.org/2000/svg" viewBox="0 0 192 192"><title>sword</title><path d="M96.33,139.28a2.86,2.86,0,0,0,.53-1.42c0-.58.26-.73,1.54-.91l1.53-.22-1-.82c-1.22-1-1.33-1.73-.26-1.73a4.27,4.27,0,0,0,3.15-1.93,1.28,1.28,0,0,0-.18-1.15c-.6-.69-1.72-.58-1.93.17s-.6.82-1.46,0a4,4,0,0,1-.06-5.2c.59-.69.59-.73-.16-1.45s-1.39-2.28-1-2.64c.12-.12.76,0,1.42.2.94.32,1.31.33,1.7,0,1.17-.92-.1-2.11-2-1.84-.76.1-1.07,0-1.18-.4s-.74-.68-1.49-.87c-1.33-.34-1.34-.33-1.34.58s-.58,1.2-1.67.55c-.88-.52-1.74-.11-1.74.83s.88,1.32,2.47,1.22c1.22-.08,1.26.82.11,2.12l-.83.94.65,1a4.26,4.26,0,0,1-.17,4.89l-.83.9-.55-.73c-.76-1-1.81-.94-2.09.14-.19.71,0,1,.85,1.78a3.81,3.81,0,0,0,1.93.91c1.15,0,1.11.91-.09,1.83l-.94.71,1.45.23c.8.12,1.45.36,1.45.52,0,.61,1,2.53,1.33,2.53s.58-.32.87-.72Z"/><path d="M98.74,118.2c0-.85-1.78-1.77-3.9-2-1.71-.19-1.73-.18-1.73.67s.26,1,1.45,1.51C96.45,119.19,98.74,119.1,98.74,118.2Z"/><path d="M98.84,115.59c.07-.49-.23-.81-1.13-1.22-1.94-.87-4.25-1.28-4.81-.84-1,.81-.35,1.89,1.32,2.09a10.38,10.38,0,0,1,2,.45C97.51,116.57,98.72,116.34,98.84,115.59Zm0-2.6c.1-.69-.34-.94-4-2.21-2.7-1-3.89-.5-3,1.13.3.57.81.83,1.94,1a23.51,23.51,0,0,1,2.55.55c1.5.47,2.37.3,2.49-.47Zm0-2.6c.12-.78-1.19-1.5-3.77-2-1.89-.4-2.72-.18-2.58.7.08.48.7.83,2.49,1.39,2.86.89,3.72.88,3.86,0Zm2.52-3.66c3.3-1.47,3.58-5.18.47-6.15-1.29-.4-2.12-.19-2.61.69-.38.67-.13,1.89.39,1.89.18,0,.32.22.32.5,0,1.29-5,1.87-7.11.82-.72-.37-1-1.32-.44-1.32s.77-1,.54-1.66c-.32-.94-1.26-1.27-2.63-.91-3.1.81-3,4.45.14,6,2.58,1.26,8.25,1.34,10.93.15Z"/><path d="M99.3,103.88c.19-.18.11-.46-.21-.71-.7-.55-.66-1.37.11-2.31.57-.71.65-1.76.85-12.41.34-18.34,1.7-32.14,3.5-35.45.72-1.32.62-1.32-1.23-.07a17.93,17.93,0,0,0-5.81,6.76c-3,5.7-4.09,13.38-4.09,29.77,0,9.3.07,10.52.6,11.39a1.77,1.77,0,0,1,.17,2c-.23.57-.33,1.12-.23,1.22.68.64,5.61.47,6.34-.22Z"/></svg>