<!DOCTYPE svg PUBLIC "-//W3C//DTD SVG 20010904//EN" "http://www.w3.org/TR/2001/REC-SVG-20010904/DTD/svg10.dtd">
<svg version="1.0" xmlns="http://www.w3.org/2000/svg" width="160px" height="107px" viewBox="0 0 1600 1070" preserveAspectRatio="xMidYMid meet">
<g id="layer101" fill="#010195" stroke="none">
<path d="M0 535 l0 -535 800 0 800 0 0 535 0 535 -800 0 -800 0 0 -535z"/>
</g>
<g id="layer102" fill="#fe0000" stroke="none">
<path d="M0 805 l0 -265 400 0 400 0 0 -270 0 -270 400 0 400 0 0 535 0 535 -800 0 -800 0 0 -265z"/>
</g>
<g id="layer103" fill="#6464bf" stroke="none">
<path d="M390 443 c0 -10 -3 -28 -6 -40 -5 -19 -2 -23 16 -23 18 0 21 4 16 23 -3 12 -6 30 -6 40 0 9 -4 17 -10 17 -5 0 -10 -8 -10 -17z"/>
<path d="M510 269 c0 -19 4 -21 31 -15 17 3 39 6 48 6 24 1 -6 16 -46 23 -29 6 -33 4 -33 -14z"/>
</g>
<g id="layer104" fill="#a9a9db" stroke="none">
<path d="M390 438 c0 -7 -3 -23 -6 -35 -5 -19 -2 -23 16 -23 18 0 21 4 16 23 -3 12 -6 28 -6 35 0 6 -4 12 -10 12 -5 0 -10 -6 -10 -12z"/>
<path d="M510 271 c0 -22 15 -25 60 -12 l25 7 -25 8 c-59 18 -60 18 -60 -3z"/>
</g>
<g id="layer105" fill="#fbfbfd" stroke="none">
<path d="M386 418 c-9 -35 -8 -38 14 -38 11 0 20 3 20 8 0 19 -13 52 -20 52 -4 0 -10 -10 -14 -22z"/>
<path d="M312 393 c12 -47 9 -44 32 -27 19 14 19 14 -4 39 -33 35 -40 31 -28 -12z"/>
<path d="M460 405 c-23 -25 -23 -25 -4 -39 23 -17 20 -20 32 27 12 43 5 47 -28 12z"/>
<path d="M259 337 c26 -27 33 -30 41 -17 15 24 13 27 -32 38 l-41 11 32 -32z"/>
<path d="M364 361 c-30 -13 -64 -59 -64 -88 0 -107 140 -141 189 -46 38 74 -48 166 -125 134z"/>
<path d="M528 358 c-40 -11 -43 -14 -28 -38 8 -13 15 -10 42 18 18 17 30 32 28 31 -3 -1 -22 -6 -42 -11z"/>
<path d="M240 278 c-34 -11 -34 -11 -10 -18 45 -14 60 -11 60 10 0 22 -1 22 -50 8z"/>
<path d="M510 270 c0 -21 19 -25 54 -11 22 8 15 15 -26 25 -24 5 -28 3 -28 -14z"/>
<path d="M255 200 c-31 -32 -26 -36 24 -19 34 12 33 11 25 33 -9 22 -16 20 -49 -14z"/>
<path d="M496 214 c-8 -22 -9 -21 25 -33 50 -17 55 -13 24 19 -33 34 -40 36 -49 14z"/>
<path d="M312 139 l-10 -41 29 28 c16 15 29 29 29 31 0 1 -8 7 -19 12 -16 9 -20 5 -29 -30z"/>
<path d="M456 167 c-16 -11 -14 -15 13 -41 l30 -29 -10 39 c-14 48 -12 46 -33 31z"/>
<path d="M385 123 c4 -21 9 -40 11 -42 7 -8 12 3 19 42 7 34 5 37 -15 37 -20 0 -22 -3 -15 -37z"/>
</g>


</svg>