<!DOCTYPE svg PUBLIC "-//W3C//DTD SVG 20010904//EN" "http://www.w3.org/TR/2001/REC-SVG-20010904/DTD/svg10.dtd">
<svg version="1.0" xmlns="http://www.w3.org/2000/svg" width="640px" height="320px" viewBox="0 0 6400 3200" preserveAspectRatio="xMidYMid meet">
<g id="layer101" fill="#020000" stroke="none">
<path d="M0 1600 l0 -1600 3200 0 3200 0 0 1600 0 1600 -3200 0 -3200 0 0 -1600z"/>
</g>
<g id="layer102" fill="#310407" stroke="none">
<path d="M0 1600 l0 -1600 3200 0 3200 0 0 1600 0 1600 -3200 0 -3200 0 0 -1600z m4735 -20 c-4 -12 -1 -27 5 -35 9 -10 9 -15 1 -15 -6 0 -8 -12 -5 -32 4 -23 3 -29 -4 -18 -13 21 -25 97 -17 110 11 18 27 11 20 -10z m135 -29 c0 -35 -6 -55 -21 -72 -11 -13 -18 -18 -14 -11 3 6 1 12 -5 12 -8 0 -8 6 0 20 6 11 8 24 6 29 -10 16 6 71 20 71 10 0 14 -14 14 -49z"/>
</g>
<g id="layer103" fill="#5d050f" stroke="none">
<path d="M0 1606 c1 -1407 2 -1595 16 -1600 8 -3 1448 -6 3199 -6 l3185 0 0 1600 0 1600 -3200 0 -3200 0 0 -1594z m4868 -5 c18 -11 5 -105 -18 -126 -16 -14 -18 -14 -24 0 -3 9 -1 26 5 37 8 16 8 19 -1 13 -8 -5 -10 -2 -7 11 4 11 9 31 13 47 7 29 11 32 32 18z m-129 -23 c0 -13 2 -46 4 -75 5 -59 -7 -61 -23 -5 -15 55 -13 102 5 102 9 0 15 -9 14 -22z"/>
</g>
<g id="layer104" fill="#002868" stroke="none">
<path d="M0 1606 c1 -1407 2 -1595 16 -1600 8 -3 1448 -6 3199 -6 l3185 0 0 1600 0 1600 -3200 0 -3200 0 0 -1594z m4744 -63 c-1 -51 3 -73 15 -87 13 -16 14 -18 1 -14 -23 7 -50 68 -50 115 0 36 7 49 31 52 3 1 4 -29 3 -66z m120 61 c19 -7 20 -53 3 -104 -17 -50 -42 -47 -41 5 4 115 3 113 38 99z"/>
</g>
<g id="layer105" fill="#8c0f1a" stroke="none">
<path d="M4701 2231 c-211 -127 -337 -274 -421 -492 -45 -118 -51 -170 -57 -501 l-5 -318 582 0 582 0 -5 313 c-5 326 -13 393 -57 505 -72 186 -185 331 -343 443 -78 55 -158 99 -180 99 -8 0 -51 -22 -96 -49z m43 -688 c-1 -51 3 -73 15 -87 13 -16 14 -18 1 -14 -23 7 -50 68 -50 115 0 36 7 49 31 52 3 1 4 -29 3 -66z m120 61 c19 -7 20 -53 3 -104 -17 -50 -42 -47 -41 5 4 115 3 113 38 99z"/>
</g>
<g id="layer106" fill="#028a3e" stroke="none">
<path d="M4701 2231 c-211 -127 -337 -274 -421 -492 -45 -118 -51 -170 -57 -501 l-5 -318 582 0 582 0 -5 313 c-5 326 -13 393 -57 505 -72 186 -185 331 -343 443 -78 55 -158 99 -180 99 -8 0 -51 -22 -96 -49z m46 -598 c-4 -3 -10 -3 -14 0 -3 4 0 7 7 7 7 0 10 -3 7 -7z m120 0 c-4 -3 -10 -3 -14 0 -3 4 0 7 7 7 7 0 10 -3 7 -7z m-120 -94 c1 -41 7 -77 15 -86 11 -14 11 -16 -2 -12 -23 8 -50 69 -50 116 0 36 7 49 30 52 3 1 6 -31 7 -70z m131 21 c1 -25 -4 -56 -11 -70 -14 -27 -54 -35 -49 -10 4 16 8 59 11 103 1 23 5 28 24 25 19 -3 22 -10 25 -48z"/>
</g>
<g id="layer107" fill="#b40d20" stroke="none">
<path d="M4701 2231 c-211 -127 -337 -274 -421 -492 -45 -118 -51 -170 -57 -501 l-5 -318 582 0 582 0 -5 313 c-5 326 -13 393 -57 505 -72 186 -185 331 -343 443 -78 55 -158 99 -180 99 -8 0 -51 -22 -96 -49z m3 -177 c3 -8 2 -12 -4 -9 -6 3 -10 10 -10 16 0 14 7 11 14 -7z m100 -21 c-9 -52 -14 -54 -14 -5 0 23 5 42 10 42 7 0 8 -14 4 -37z m102 21 c-5 -14 -39 -252 -52 -366 -3 -29 -2 -48 5 -48 12 0 11 -2 66 215 25 99 48 181 50 184 12 11 14 -9 4 -35 -6 -16 -12 -36 -14 -44 -3 -8 -22 -82 -44 -165 -31 -117 -37 -153 -28 -165 10 -13 10 -13 -4 -3 -9 7 -18 10 -22 7 -3 -3 -12 -2 -20 3 -12 7 -12 19 -1 81 7 40 15 99 18 130 15 142 30 222 42 222 4 0 3 -7 0 -16z m-276 -46 c0 -36 -4 -35 -14 5 -4 16 -2 27 4 27 5 0 10 -14 10 -32z m167 -65 c-3 -10 -5 -4 -5 12 0 17 2 24 5 18 2 -7 2 -21 0 -30z m-160 5 c-3 -8 -6 -5 -6 6 -1 11 2 17 5 13 3 -3 4 -12 1 -19z m-50 -5 c-4 -3 -7 0 -7 7 0 7 3 10 7 7 3 -4 3 -10 0 -14z m60 -35 c-3 -8 -6 -5 -6 6 -1 11 2 17 5 13 3 -3 4 -12 1 -19z m150 -10 c-3 -8 -6 -5 -6 6 -1 11 2 17 5 13 3 -3 4 -12 1 -19z m-80 -5 c-4 -3 -7 0 -7 7 0 7 3 10 7 7 3 -4 3 -10 0 -14z m30 -25 c-3 -8 -6 -5 -6 6 -1 11 2 17 5 13 3 -3 4 -12 1 -19z m50 -40 c-3 -7 -5 -2 -5 12 0 14 2 19 5 13 2 -7 2 -19 0 -25z m0 -80 c-2 -13 -4 -3 -4 22 0 25 2 35 4 23 2 -13 2 -33 0 -45z m20 20 c-3 -7 -5 -2 -5 12 0 14 2 19 5 13 2 -7 2 -19 0 -25z m0 -60 c-3 -8 -6 -5 -6 6 -1 11 2 17 5 13 3 -3 4 -12 1 -19z m-64 -71 c-8 -5 -17 -6 -20 -3 -4 3 -13 0 -22 -7 -14 -10 -14 -10 -3 5 8 9 11 23 7 30 -4 7 0 5 8 -4 22 -27 27 -22 22 25 l-4 42 13 -40 c11 -34 11 -41 -1 -48z m14 66 c-4 -3 -7 0 -7 7 0 7 3 10 7 7 3 -4 3 -10 0 -14z m43 -35 c0 -10 -4 -18 -8 -18 -5 0 -9 14 -9 30 0 20 3 26 9 18 4 -7 8 -21 8 -30z m-63 -129 c1 -41 7 -77 15 -86 11 -14 11 -16 -2 -12 -23 8 -50 69 -50 116 0 36 7 49 30 52 3 1 6 -31 7 -70z m131 21 c1 -25 -4 -56 -11 -70 -14 -27 -54 -35 -49 -10 4 16 8 59 11 103 1 23 5 28 24 25 19 -3 22 -10 25 -48z"/>
</g>
<g id="layer108" fill="#009c48" stroke="none">
<path d="M4701 2231 c-211 -127 -337 -274 -421 -492 -45 -118 -51 -170 -57 -501 l-5 -318 582 0 582 0 -5 313 c-5 326 -13 393 -57 505 -72 186 -185 331 -343 443 -78 55 -158 99 -180 99 -8 0 -51 -22 -96 -49z m3 -177 c3 -8 2 -12 -4 -9 -6 3 -10 10 -10 16 0 14 7 11 14 -7z m100 -21 c-9 -52 -14 -54 -14 -5 0 23 5 42 10 42 7 0 8 -14 4 -37z m102 21 c-5 -14 -39 -252 -52 -366 -3 -29 -2 -48 5 -48 12 0 11 -2 66 215 25 99 48 181 50 184 12 11 14 -9 4 -35 -6 -16 -12 -36 -14 -44 -3 -8 -22 -82 -44 -165 -28 -106 -36 -154 -29 -162 7 -9 7 -13 -1 -13 -6 0 -11 5 -11 11 0 5 -4 7 -10 4 -5 -3 -16 -2 -23 2 -11 7 -12 20 -1 81 7 40 15 99 18 130 15 142 30 222 42 222 4 0 3 -7 0 -16z m-276 -46 c0 -36 -4 -35 -14 5 -4 16 -2 27 4 27 5 0 10 -14 10 -32z m167 -65 c-3 -10 -5 -4 -5 12 0 17 2 24 5 18 2 -7 2 -21 0 -30z m-160 5 c-3 -8 -6 -5 -6 6 -1 11 2 17 5 13 3 -3 4 -12 1 -19z m-50 -5 c-4 -3 -7 0 -7 7 0 7 3 10 7 7 3 -4 3 -10 0 -14z m60 -35 c-3 -8 -6 -5 -6 6 -1 11 2 17 5 13 3 -3 4 -12 1 -19z m150 -10 c-3 -8 -6 -5 -6 6 -1 11 2 17 5 13 3 -3 4 -12 1 -19z m-80 -5 c-4 -3 -7 0 -7 7 0 7 3 10 7 7 3 -4 3 -10 0 -14z m30 -25 c-3 -8 -6 -5 -6 6 -1 11 2 17 5 13 3 -3 4 -12 1 -19z m50 -40 c-3 -7 -5 -2 -5 12 0 14 2 19 5 13 2 -7 2 -19 0 -25z m0 -80 c-2 -13 -4 -3 -4 22 0 25 2 35 4 23 2 -13 2 -33 0 -45z m20 20 c-3 -7 -5 -2 -5 12 0 14 2 19 5 13 2 -7 2 -19 0 -25z m0 -60 c-3 -8 -6 -5 -6 6 -1 11 2 17 5 13 3 -3 4 -12 1 -19z m-63 -71 c-8 -4 -19 -5 -24 -2 -6 3 -10 1 -10 -4 0 -6 -5 -11 -11 -11 -8 0 -8 4 1 15 6 8 9 20 5 27 -4 7 0 5 8 -4 22 -27 27 -22 22 25 l-4 42 13 -40 c11 -33 11 -41 0 -48z m13 66 c-4 -3 -7 0 -7 7 0 7 3 10 7 7 3 -4 3 -10 0 -14z m43 -35 c0 -10 -4 -18 -8 -18 -5 0 -9 14 -9 30 0 20 3 26 9 18 4 -7 8 -21 8 -30z m42 -58 c35 -10 36 -12 33 -48 -2 -20 -6 -45 -7 -54 -4 -19 -37 -58 -48 -58 -15 0 -20 32 -9 52 9 16 8 19 -2 13 -9 -6 -10 -3 -4 11 4 10 10 33 13 51 4 28 1 32 -24 36 -17 2 -21 5 -9 5 11 1 37 -3 57 -8z m-101 -22 c-13 -37 -3 -121 17 -136 16 -13 16 -14 -3 -10 -27 4 -55 63 -55 114 0 45 5 54 31 54 15 0 17 -4 10 -22z"/>
</g>
<g id="layer109" fill="#965108" stroke="none">
<path d="M4701 2231 c-211 -127 -337 -274 -421 -492 -45 -118 -51 -170 -57 -501 l-5 -318 582 0 582 0 -5 313 c-5 326 -13 393 -57 505 -72 186 -185 331 -343 443 -78 55 -158 99 -180 99 -8 0 -51 -22 -96 -49z m259 -181 c25 -12 48 -28 53 -34 10 -14 1 -81 -24 -181 -27 -108 -90 -233 -107 -210 -17 24 -147 24 -164 1 -33 -46 -156 311 -133 384 5 14 63 46 115 64 8 2 60 4 115 2 82 -2 108 -7 145 -26z m-108 -440 c35 -10 36 -12 33 -48 -2 -20 -6 -45 -7 -54 -4 -19 -37 -58 -48 -58 -15 0 -20 32 -9 52 9 16 8 19 -2 13 -9 -6 -10 -3 -4 11 4 10 10 33 13 51 4 28 1 32 -24 36 -17 2 -21 5 -9 5 11 1 37 -3 57 -8z m-101 -22 c-13 -37 -3 -121 17 -136 16 -13 16 -14 -3 -10 -27 4 -55 63 -55 114 0 45 5 54 31 54 15 0 17 -4 10 -22z"/>
</g>
<g id="layer110" fill="#319434" stroke="none">
<path d="M4701 2231 c-211 -127 -337 -274 -421 -492 -45 -118 -51 -170 -57 -501 l-5 -318 582 0 582 0 -5 313 c-5 326 -13 393 -57 505 -72 186 -185 331 -343 443 -78 55 -158 99 -180 99 -8 0 -51 -22 -96 -49z m259 -181 c25 -12 48 -28 53 -34 10 -14 1 -81 -24 -181 -27 -108 -90 -233 -107 -210 -17 24 -147 24 -164 1 -33 -46 -156 311 -133 384 5 14 63 46 115 64 8 2 60 4 115 2 82 -2 108 -7 145 -26z m-108 -440 c35 -10 36 -12 33 -48 -2 -20 -6 -45 -7 -54 -4 -19 -37 -58 -48 -58 -15 0 -20 32 -9 52 9 16 8 19 -2 13 -9 -6 -10 -3 -4 11 4 10 10 33 13 51 4 28 1 32 -24 36 -17 2 -21 5 -9 5 11 1 37 -3 57 -8z m-101 -22 c-4 -13 -7 -36 -5 -53 1 -16 3 -40 3 -52 1 -14 12 -28 29 -37 18 -10 22 -15 10 -16 -36 0 -68 42 -78 105 -10 62 -5 75 32 75 14 0 16 -5 9 -22z m311 -42 c6 -8 8 -8 8 0 0 6 11 12 25 12 14 0 25 -6 25 -14 0 -8 6 -11 15 -8 23 9 18 -17 -10 -46 l-25 -26 19 -86 c21 -96 26 -108 46 -108 8 0 16 -4 19 -9 3 -4 -6 -6 -21 -3 -32 6 -28 -17 8 -36 l24 -13 -29 3 c-41 4 -43 -18 -4 -43 18 -12 24 -18 13 -14 -57 21 -61 19 -31 -14 21 -22 33 -28 40 -21 6 6 14 57 17 113 l5 102 2 -93 c1 -53 -3 -102 -9 -114 -9 -16 -8 -23 3 -29 8 -5 26 -18 39 -29 26 -23 9 -17 -32 11 -17 12 -30 15 -40 8 -31 -20 -69 -10 -89 24 -21 34 -24 29 -22 -33 0 -14 -2 -18 -4 -9 -4 13 -14 16 -42 12 -31 -4 -41 0 -62 21 -20 22 -24 38 -26 94 l-2 67 7 -65 c10 -88 15 -96 51 -68 31 25 40 44 15 34 -43 -17 -47 -16 -21 6 34 29 29 47 -11 42 l-28 -4 28 11 c30 12 37 38 10 40 -17 1 -17 2 -1 6 19 5 21 10 39 98 7 33 16 67 20 76 6 11 1 23 -16 39 -23 22 -36 68 -16 56 5 -3 11 0 14 7 6 16 39 18 49 3z m-125 -108 c-2 -13 -4 -3 -4 22 0 25 2 35 4 23 2 -13 2 -33 0 -45z m-33 -179 c5 -5 -5 -4 -24 1 -18 5 -35 12 -39 16 -9 9 53 -7 63 -17z m376 11 c-8 -5 -22 -9 -30 -9 -10 0 -8 3 5 9 27 12 43 12 25 0z m-377 -67 c-7 -2 -21 -2 -30 0 -10 3 -4 5 12 5 17 0 24 -2 18 -5z m365 0 c-10 -2 -26 -2 -35 0 -10 3 -2 5 17 5 19 0 27 -2 18 -5z m-2 -71 c-16 -2 -32 0 -37 5 -5 5 7 7 29 4 34 -5 35 -6 8 -9z m-378 1 c-10 -2 -26 -2 -35 0 -10 3 -2 5 17 5 19 0 27 -2 18 -5z m47 -43 c-7 -11 -65 -43 -65 -36 0 4 62 45 68 46 2 0 0 -5 -3 -10z m79 -46 c3 -8 2 -12 -4 -9 -6 3 -10 10 -10 16 0 14 7 11 14 -7z m98 -18 c7 4 8 2 4 -5 -9 -14 -36 3 -36 23 0 6 5 3 11 -7 6 -9 15 -14 21 -11z"/>
<path d="M4704 2008 c3 -18 8 -49 11 -69 3 -20 8 -61 11 -90 8 -83 27 -169 32 -140 3 21 -20 232 -34 304 -8 38 -26 34 -20 -5z"/>
<path d="M4799 2013 c-1 -36 -1 -305 0 -317 1 -5 4 -7 7 -3 11 11 15 335 4 342 -6 4 -10 -6 -11 -22z"/>
<path d="M4630 2000 c0 -20 78 -321 85 -328 16 -16 12 17 -16 124 -17 65 -33 133 -36 149 -6 34 -33 79 -33 55z"/>
</g>
<g id="layer111" fill="#ce1126" stroke="none">
<path d="M4701 2231 c-211 -127 -337 -274 -421 -492 -45 -118 -51 -170 -57 -501 l-5 -318 582 0 582 0 -5 313 c-5 326 -13 393 -57 505 -72 186 -185 331 -343 443 -78 55 -158 99 -180 99 -8 0 -51 -22 -96 -49z m209 -159 c44 -12 90 -37 101 -54 5 -7 9 -25 9 -39 0 -35 -48 -222 -66 -256 -7 -16 -14 -32 -14 -38 0 -5 -10 -23 -23 -38 -20 -25 -25 -27 -50 -18 -16 6 -46 11 -67 11 -21 0 -51 -5 -67 -11 -25 -9 -30 -7 -50 18 -13 15 -23 33 -23 38 0 6 -7 22 -14 38 -18 34 -66 221 -66 256 0 34 11 49 46 68 71 38 195 49 284 25z m-58 -462 c35 -10 36 -12 33 -48 -2 -20 -6 -45 -7 -54 -4 -19 -37 -58 -48 -58 -15 0 -20 32 -9 52 9 16 8 19 -2 13 -9 -6 -10 -3 -4 11 4 10 10 33 13 51 4 28 1 32 -24 36 -17 2 -21 5 -9 5 11 1 37 -3 57 -8z m-101 -22 c-4 -13 -7 -36 -5 -53 1 -16 3 -40 3 -52 1 -14 12 -28 29 -37 18 -10 22 -15 10 -16 -36 0 -68 42 -78 105 -10 62 -5 75 32 75 14 0 16 -5 9 -22z m311 -42 c6 -8 8 -8 8 0 0 6 11 12 25 12 14 0 25 -6 25 -14 0 -8 6 -11 15 -8 23 9 18 -17 -10 -46 l-25 -26 19 -86 c21 -96 26 -108 46 -108 8 0 16 -4 19 -9 3 -4 -6 -6 -21 -3 -32 6 -28 -17 8 -36 l24 -13 -29 3 c-41 4 -43 -18 -4 -43 18 -12 24 -18 13 -14 -57 21 -61 19 -31 -14 21 -22 33 -28 40 -21 6 6 14 57 17 113 l5 102 2 -93 c1 -53 -3 -102 -9 -114 -9 -16 -8 -23 3 -29 8 -5 26 -18 39 -29 26 -23 9 -17 -32 11 -17 12 -30 15 -40 8 -31 -20 -69 -10 -89 24 -21 34 -24 29 -22 -33 0 -14 -2 -18 -4 -9 -4 13 -14 16 -42 12 -31 -4 -41 0 -62 21 -20 22 -24 38 -26 94 l-2 67 7 -65 c10 -88 15 -96 51 -68 31 25 40 44 15 34 -43 -17 -47 -16 -21 6 34 29 29 47 -11 42 l-28 -4 28 11 c30 12 37 38 10 40 -17 1 -17 2 -1 6 19 5 21 10 39 98 7 33 16 67 20 76 6 11 1 23 -16 39 -23 22 -36 68 -16 56 5 -3 11 0 14 7 6 16 39 18 49 3z m-125 -108 c-2 -13 -4 -3 -4 22 0 25 2 35 4 23 2 -13 2 -33 0 -45z m-33 -179 c5 -5 -5 -4 -24 1 -18 5 -35 12 -39 16 -9 9 53 -7 63 -17z m376 11 c-8 -5 -22 -9 -30 -9 -10 0 -8 3 5 9 27 12 43 12 25 0z m-377 -67 c-7 -2 -21 -2 -30 0 -10 3 -4 5 12 5 17 0 24 -2 18 -5z m365 0 c-10 -2 -26 -2 -35 0 -10 3 -2 5 17 5 19 0 27 -2 18 -5z m-2 -71 c-16 -2 -32 0 -37 5 -5 5 7 7 29 4 34 -5 35 -6 8 -9z m-378 1 c-10 -2 -26 -2 -35 0 -10 3 -2 5 17 5 19 0 27 -2 18 -5z m47 -43 c-7 -11 -65 -43 -65 -36 0 4 62 45 68 46 2 0 0 -5 -3 -10z m79 -46 c3 -8 2 -12 -4 -9 -6 3 -10 10 -10 16 0 14 7 11 14 -7z m98 -18 c7 4 8 2 4 -5 -9 -14 -36 3 -36 23 0 6 5 3 11 -7 6 -9 15 -14 21 -11z"/>
<path d="M7 1593 c-4 -3 -7 -44 -7 -90 l0 -83 345 -173 345 -172 -342 -5 -343 -5 0 -265 0 -265 343 -5 342 -5 -344 -172 -344 -172 -1 -82 c-1 -56 3 -85 12 -91 6 -4 87 -8 179 -8 l167 0 481 240 c264 132 482 240 485 240 3 0 6 -107 7 -238 l3 -237 265 0 265 0 3 238 c1 130 4 237 7 237 3 0 220 -108 484 -239 l479 -239 165 -1 c91 -1 173 2 181 5 13 5 16 23 16 90 l0 84 -347 174 -348 175 348 0 347 1 0 270 0 270 -347 1 -348 0 348 175 347 174 0 90 0 90 -180 0 -180 0 -480 -240 c-264 -132 -482 -240 -485 -240 -3 0 -5 108 -5 240 l0 240 -270 0 -270 0 0 -240 c0 -132 -2 -240 -5 -240 -3 0 -221 108 -485 240 l-480 240 -173 0 c-96 0 -177 -3 -180 -7z"/>
</g>
<g id="layer112" fill="#57962a" stroke="none">
<path d="M4701 2231 c-211 -127 -337 -274 -421 -492 -45 -118 -51 -170 -57 -501 l-5 -318 582 0 582 0 -5 313 c-5 326 -13 393 -57 505 -72 186 -185 331 -343 443 -78 55 -158 99 -180 99 -8 0 -51 -22 -96 -49z m209 -159 c44 -12 90 -37 101 -54 5 -7 9 -25 9 -39 0 -31 -49 -229 -60 -244 -4 -5 -11 -21 -15 -35 -4 -14 -16 -37 -27 -53 -11 -15 -24 -57 -29 -93 -12 -86 -21 -101 -70 -114 -34 -9 -45 -8 -65 5 -30 19 -39 42 -49 120 -4 33 -16 72 -26 86 -10 15 -19 31 -19 36 0 4 -7 20 -14 36 -18 34 -66 221 -66 256 0 34 11 49 46 68 71 38 195 49 284 25z m152 -526 c6 -8 8 -8 8 0 0 6 11 12 25 12 14 0 25 -6 25 -14 0 -8 6 -11 15 -8 23 9 18 -17 -10 -46 l-25 -26 19 -86 c21 -96 26 -108 46 -108 8 0 16 -4 19 -9 3 -4 -6 -6 -21 -3 -32 6 -28 -17 8 -36 l24 -13 -29 3 c-41 4 -43 -18 -4 -43 18 -12 24 -18 13 -14 -57 21 -61 19 -31 -14 21 -22 33 -28 40 -21 6 6 14 57 17 113 l5 102 2 -93 c1 -53 -3 -102 -9 -114 -9 -16 -8 -23 3 -29 8 -5 26 -18 39 -29 26 -23 9 -17 -32 11 -17 12 -30 15 -40 8 -31 -20 -69 -10 -89 24 -21 34 -24 29 -22 -33 0 -14 -2 -18 -4 -9 -4 13 -14 16 -42 12 -31 -4 -41 0 -62 21 -20 22 -24 38 -26 94 l-2 67 7 -65 c10 -88 15 -96 51 -68 31 25 40 44 15 34 -43 -17 -47 -16 -21 6 34 29 29 47 -11 42 l-28 -4 28 11 c30 12 37 38 10 40 -17 1 -17 2 -1 6 19 5 21 10 39 98 7 33 16 67 20 76 6 11 1 23 -16 39 -23 22 -36 68 -16 56 5 -3 11 0 14 7 6 16 39 18 49 3z m-125 -108 c-2 -13 -4 -3 -4 22 0 25 2 35 4 23 2 -13 2 -33 0 -45z m-33 -179 c5 -5 -5 -4 -24 1 -18 5 -35 12 -39 16 -9 9 53 -7 63 -17z m376 11 c-8 -5 -22 -9 -30 -9 -10 0 -8 3 5 9 27 12 43 12 25 0z m-377 -67 c-7 -2 -21 -2 -30 0 -10 3 -4 5 12 5 17 0 24 -2 18 -5z m365 0 c-10 -2 -26 -2 -35 0 -10 3 -2 5 17 5 19 0 27 -2 18 -5z m-2 -71 c-16 -2 -32 0 -37 5 -5 5 7 7 29 4 34 -5 35 -6 8 -9z m-378 1 c-10 -2 -26 -2 -35 0 -10 3 -2 5 17 5 19 0 27 -2 18 -5z m47 -43 c-7 -11 -65 -43 -65 -36 0 4 62 45 68 46 2 0 0 -5 -3 -10z m79 -46 c3 -8 2 -12 -4 -9 -6 3 -10 10 -10 16 0 14 7 11 14 -7z m98 -18 c7 4 8 2 4 -5 -9 -14 -36 3 -36 23 0 6 5 3 11 -7 6 -9 15 -14 21 -11z"/>
<path d="M4703 2018 c8 -30 23 -136 32 -227 9 -86 27 -127 20 -46 -13 147 -35 284 -48 292 -6 4 -8 -3 -4 -19z"/>
<path d="M4800 1871 c0 -96 2 -172 5 -169 9 8 11 318 3 331 -4 6 -8 -66 -8 -162z"/>
<path d="M4630 2005 c0 -9 21 -90 70 -270 10 -38 19 -59 19 -45 0 14 -9 59 -20 100 -12 41 -27 100 -34 131 -12 53 -34 107 -35 84z"/>
</g>
<g id="layer113" fill="#ac710b" stroke="none">
<path d="M4701 2231 c-211 -127 -337 -274 -421 -492 -45 -118 -51 -170 -57 -501 l-5 -318 582 0 582 0 -5 313 c-5 326 -13 393 -57 505 -72 186 -185 331 -343 443 -78 55 -158 99 -180 99 -8 0 -51 -22 -96 -49z m209 -159 c64 -17 105 -46 108 -77 8 -64 -56 -282 -101 -348 -10 -15 -23 -57 -28 -93 -12 -86 -21 -101 -70 -114 -34 -9 -45 -8 -65 5 -30 19 -39 42 -49 120 -4 33 -15 71 -24 85 -29 42 -58 121 -81 221 -29 130 -26 148 30 175 25 12 59 26 75 31 36 12 156 9 205 -5z m152 -526 c6 -8 8 -8 8 0 0 6 11 12 25 12 14 0 25 -6 25 -14 0 -8 6 -11 15 -8 23 9 18 -17 -10 -46 l-25 -26 19 -86 c21 -96 26 -108 46 -108 8 0 16 -4 19 -9 3 -4 -6 -6 -21 -3 -32 6 -28 -17 8 -36 l24 -13 -29 3 c-41 4 -43 -18 -4 -43 18 -12 24 -18 13 -14 -57 21 -61 19 -31 -14 21 -22 33 -28 40 -21 6 6 14 57 17 113 l5 102 2 -93 c1 -53 -3 -102 -9 -114 -9 -16 -8 -23 3 -29 8 -5 26 -18 39 -29 26 -23 9 -17 -32 11 -17 12 -30 15 -40 8 -31 -20 -69 -10 -89 24 -21 34 -24 29 -22 -33 0 -14 -2 -18 -4 -9 -4 13 -14 16 -42 12 -31 -4 -41 0 -62 21 -20 22 -24 38 -26 94 l-2 67 7 -65 c10 -88 15 -96 51 -68 31 25 40 44 15 34 -43 -17 -47 -16 -21 6 34 29 29 47 -11 42 l-28 -4 28 11 c30 12 37 38 10 40 -17 1 -17 2 -1 6 19 5 21 10 39 98 7 33 16 67 20 76 6 11 1 23 -16 39 -23 22 -36 68 -16 56 5 -3 11 0 14 7 6 16 39 18 49 3z m-125 -108 c-2 -13 -4 -3 -4 22 0 25 2 35 4 23 2 -13 2 -33 0 -45z m-33 -179 c5 -5 -5 -4 -24 1 -18 5 -35 12 -39 16 -9 9 53 -7 63 -17z m376 11 c-8 -5 -22 -9 -30 -9 -10 0 -8 3 5 9 27 12 43 12 25 0z m-377 -67 c-7 -2 -21 -2 -30 0 -10 3 -4 5 12 5 17 0 24 -2 18 -5z m365 0 c-10 -2 -26 -2 -35 0 -10 3 -2 5 17 5 19 0 27 -2 18 -5z m-2 -71 c-16 -2 -32 0 -37 5 -5 5 7 7 29 4 34 -5 35 -6 8 -9z m-378 1 c-10 -2 -26 -2 -35 0 -10 3 -2 5 17 5 19 0 27 -2 18 -5z m47 -43 c-7 -11 -65 -43 -65 -36 0 4 62 45 68 46 2 0 0 -5 -3 -10z m79 -46 c3 -8 2 -12 -4 -9 -6 3 -10 10 -10 16 0 14 7 11 14 -7z m98 -18 c7 4 8 2 4 -5 -9 -14 -36 3 -36 23 0 6 5 3 11 -7 6 -9 15 -14 21 -11z"/>
<path d="M4993 1126 c-36 -25 -34 -36 7 -36 29 0 50 16 50 39 0 10 -8 8 -27 -10 -25 -22 -26 -22 -9 -1 26 31 17 34 -21 8z"/>
<path d="M5080 1136 c0 -24 24 -46 49 -46 40 0 44 10 15 32 -29 23 -43 17 -23 -9 7 -10 1 -7 -14 6 -15 14 -27 21 -27 17z"/>
</g>
<g id="layer114" fill="#6c9b26" stroke="none">
<path d="M4701 2231 c-211 -127 -337 -274 -421 -492 -45 -118 -51 -170 -57 -501 l-5 -318 582 0 582 0 -5 313 c-5 326 -13 393 -57 505 -72 186 -185 331 -343 443 -78 55 -158 99 -180 99 -8 0 -51 -22 -96 -49z m209 -159 c64 -17 105 -46 108 -77 7 -60 -54 -276 -97 -344 -17 -27 -19 -34 -31 -107 -10 -65 -25 -93 -56 -104 -68 -26 -110 7 -125 100 -6 36 -12 70 -13 76 -1 6 -9 22 -17 35 -29 45 -57 124 -79 220 -29 130 -26 148 30 175 25 12 59 26 75 31 36 12 156 9 205 -5z m150 -514 c0 -9 3 -9 11 -1 12 12 49 6 49 -8 0 -5 7 -9 15 -9 22 0 18 -25 -8 -56 l-23 -26 20 -89 c18 -80 23 -89 47 -98 l28 -10 4 62 c3 53 3 49 5 -25 l2 -88 58 0 c40 0 53 -3 42 -10 -8 -5 -34 -10 -57 -10 -36 0 -43 -3 -43 -19 0 -16 9 -21 48 -26 71 -10 74 -14 9 -13 -78 2 -91 -17 -36 -50 51 -30 44 -40 -9 -13 -39 20 -82 19 -82 -3 0 -6 -9 -24 -19 -40 l-19 -28 -13 23 c-7 13 -16 44 -20 69 l-6 45 -2 -45 c0 -25 -8 -56 -18 -69 l-16 -24 -18 34 c-9 19 -15 37 -13 40 2 4 -7 10 -21 13 -18 5 -40 -2 -73 -20 l-47 -26 31 30 c17 16 37 31 43 33 7 3 10 11 6 19 -4 11 -20 15 -63 13 l-57 -2 53 10 52 11 0 49 c0 37 -4 49 -15 49 -23 0 -89 29 -82 36 3 4 26 -1 51 -9 l45 -15 4 31 c2 18 5 -5 5 -50 1 -46 4 -83 7 -83 4 0 19 7 35 15 39 20 39 39 0 32 -36 -8 -39 5 -5 21 14 6 25 16 25 20 0 5 -11 7 -25 4 -15 -2 -25 0 -25 7 0 6 9 11 19 11 26 0 30 8 52 108 l19 86 -25 26 c-28 29 -32 50 -10 50 8 0 15 4 15 9 0 8 16 16 43 20 4 0 7 -4 7 -11z m147 -30 c-3 -8 -6 -5 -6 6 -1 11 2 17 5 13 3 -3 4 -12 1 -19z m-270 -141 c-2 -23 -3 -1 -3 48 0 50 1 68 3 42 2 -26 2 -67 0 -90z m260 66 c-3 -10 -5 -4 -5 12 0 17 2 24 5 18 2 -7 2 -21 0 -30z m113 -169 c0 -6 -65 -34 -80 -34 -24 0 -7 17 28 27 48 14 52 14 52 7z m-400 -84 c0 -13 -70 -13 -90 0 -11 7 0 10 38 10 28 0 52 -4 52 -10z"/>
<path d="M4800 1870 c0 -95 2 -171 5 -169 8 8 10 327 2 335 -4 4 -7 -71 -7 -166z"/>
<path d="M4704 2022 c3 -5 14 -80 25 -167 12 -87 24 -161 27 -164 3 -3 3 19 0 49 -4 30 -9 73 -12 95 -11 108 -27 195 -36 195 -5 0 -7 -4 -4 -8z"/>
<path d="M4630 2000 c0 -7 44 -168 69 -255 11 -38 20 -61 20 -49 1 12 -12 68 -29 125 -16 57 -31 117 -34 133 -4 23 -27 63 -26 46z"/>
</g>
<g id="layer115" fill="#88a321" stroke="none">
<path d="M4701 2231 c-211 -127 -337 -274 -421 -492 -45 -118 -51 -170 -57 -501 l-5 -318 582 0 582 0 -5 313 c-5 326 -13 393 -57 505 -72 186 -185 331 -343 443 -78 55 -158 99 -180 99 -8 0 -51 -22 -96 -49z m214 -159 c17 -5 46 -18 65 -29 34 -19 35 -22 35 -79 0 -32 -3 -64 -7 -70 -4 -6 -9 -24 -11 -40 -2 -17 -6 -34 -9 -39 -3 -6 -9 -26 -13 -45 -6 -29 -32 -84 -63 -135 -8 -13 -11 -27 -22 -91 -10 -65 -25 -93 -56 -104 -68 -26 -110 7 -125 100 -15 87 -14 84 -21 95 -31 51 -57 106 -63 135 -4 19 -10 39 -13 45 -3 5 -7 22 -9 39 -2 16 -7 34 -11 40 -4 6 -7 38 -7 70 0 57 1 60 35 79 19 11 53 25 75 32 45 14 174 12 220 -3z m145 -514 c0 -9 3 -9 11 -1 12 12 49 6 49 -8 0 -5 7 -9 15 -9 22 0 18 -25 -8 -56 l-23 -26 20 -89 c18 -80 23 -89 47 -98 l28 -10 4 62 c3 53 3 49 5 -25 l2 -88 58 0 c40 0 53 -3 42 -10 -8 -5 -34 -10 -57 -10 -36 0 -43 -3 -43 -19 0 -16 9 -21 48 -26 71 -10 74 -14 9 -13 -78 2 -91 -17 -36 -50 51 -30 44 -40 -9 -13 -39 20 -82 19 -82 -3 0 -6 -9 -24 -19 -40 l-19 -28 -13 23 c-7 13 -16 44 -20 69 l-6 45 -2 -45 c0 -25 -8 -56 -18 -69 l-16 -24 -18 34 c-9 19 -15 37 -13 40 2 4 -7 10 -21 13 -18 5 -40 -2 -73 -20 l-47 -26 31 30 c17 16 37 31 43 33 7 3 10 11 6 19 -4 11 -20 15 -63 13 l-57 -2 53 10 52 11 0 49 c0 37 -4 49 -15 49 -23 0 -89 29 -82 36 3 4 26 -1 51 -9 l45 -15 4 31 c2 18 5 -5 5 -50 1 -46 4 -83 7 -83 4 0 19 7 35 15 39 20 39 39 0 32 -36 -8 -39 5 -5 21 14 6 25 16 25 20 0 5 -11 7 -25 4 -15 -2 -25 0 -25 7 0 6 9 11 19 11 26 0 30 8 52 108 l19 86 -25 26 c-28 29 -32 50 -10 50 8 0 15 4 15 9 0 8 16 16 43 20 4 0 7 -4 7 -11z m147 -30 c-3 -8 -6 -5 -6 6 -1 11 2 17 5 13 3 -3 4 -12 1 -19z m-270 -141 c-2 -23 -3 -1 -3 48 0 50 1 68 3 42 2 -26 2 -67 0 -90z m260 66 c-3 -10 -5 -4 -5 12 0 17 2 24 5 18 2 -7 2 -21 0 -30z m113 -169 c0 -6 -65 -34 -80 -34 -24 0 -7 17 28 27 48 14 52 14 52 7z m-400 -84 c0 -13 -70 -13 -90 0 -11 7 0 10 38 10 28 0 52 -4 52 -10z"/>
<path d="M4800 1870 c0 -95 2 -171 5 -169 7 7 8 330 1 337 -3 3 -6 -73 -6 -168z"/>
<path d="M4711 2014 c0 -11 3 -14 6 -6 3 7 2 16 -1 19 -3 4 -6 -2 -5 -13z"/>
<path d="M4634 1985 c18 -75 27 -105 32 -105 3 0 3 14 -1 31 -4 17 -8 37 -9 43 -1 6 -7 20 -14 31 l-13 20 5 -20z"/>
<path d="M4726 1883 c7 -54 13 -104 14 -112 0 -8 2 -12 5 -9 7 7 -15 201 -24 211 -4 4 -2 -36 5 -90z"/>
<path d="M4671 1854 c0 -11 3 -14 6 -6 3 7 2 16 -1 19 -3 4 -6 -2 -5 -13z"/>
<path d="M4681 1824 c1 -24 38 -147 38 -129 1 23 -25 124 -33 133 -3 3 -6 1 -5 -4z"/>
<path d="M4746 1725 c8 -37 14 -45 14 -19 0 10 -5 26 -10 34 -8 11 -9 7 -4 -15z"/>
</g>
<g id="layer116" fill="#9da81d" stroke="none">
<path d="M4701 2231 c-211 -127 -337 -274 -421 -492 -45 -118 -51 -170 -57 -501 l-5 -318 582 0 582 0 -5 313 c-5 326 -13 393 -57 505 -72 186 -185 331 -343 443 -78 55 -158 99 -180 99 -8 0 -51 -22 -96 -49z m194 -154 c28 -6 67 -22 88 -35 38 -23 39 -24 36 -80 -2 -31 -7 -62 -12 -69 -5 -7 -6 -17 -3 -22 4 -5 1 -13 -5 -16 -5 -4 -8 -13 -5 -21 3 -7 1 -16 -3 -19 -5 -2 -12 -20 -15 -39 -4 -19 -24 -70 -46 -113 -22 -43 -40 -92 -40 -111 0 -99 -81 -155 -145 -99 -20 17 -28 37 -36 87 -5 37 -24 94 -44 133 -19 37 -37 83 -41 102 -3 20 -10 38 -15 40 -4 3 -6 12 -3 19 3 8 0 17 -5 21 -6 3 -9 11 -5 16 3 5 2 15 -3 22 -5 7 -10 38 -12 69 -3 57 -3 57 38 82 22 14 49 26 58 26 10 0 25 5 33 10 20 13 123 11 185 -3z m165 -519 c0 -9 3 -9 11 -1 12 12 49 6 49 -8 0 -5 7 -9 15 -9 22 0 18 -25 -8 -56 l-23 -26 20 -89 c18 -80 23 -89 47 -98 l28 -10 4 62 c3 53 3 49 5 -25 l2 -88 58 0 c40 0 53 -3 42 -10 -8 -5 -34 -10 -57 -10 -36 0 -43 -3 -43 -19 0 -16 9 -21 48 -26 71 -10 74 -14 9 -13 -78 2 -91 -17 -36 -50 51 -30 44 -40 -9 -13 -39 20 -82 19 -82 -3 0 -6 -9 -24 -19 -40 l-19 -28 -13 23 c-7 13 -16 44 -20 69 l-6 45 -2 -45 c0 -25 -8 -56 -18 -69 l-16 -24 -18 34 c-9 19 -15 37 -13 40 2 4 -7 10 -21 13 -18 5 -40 -2 -73 -20 l-47 -26 31 30 c17 16 37 31 43 33 7 3 10 11 6 19 -4 11 -20 15 -63 13 l-57 -2 53 10 52 11 0 49 c0 37 -4 49 -15 49 -23 0 -89 29 -82 36 3 4 26 -1 51 -9 l45 -15 4 31 c2 18 5 -5 5 -50 1 -46 4 -83 7 -83 4 0 19 7 35 15 39 20 39 39 0 32 -36 -8 -39 5 -5 21 14 6 25 16 25 20 0 5 -11 7 -25 4 -15 -2 -25 0 -25 7 0 6 9 11 19 11 26 0 30 8 52 108 l19 86 -25 26 c-28 29 -32 50 -10 50 8 0 15 4 15 9 0 8 16 16 43 20 4 0 7 -4 7 -11z m147 -30 c-3 -8 -6 -5 -6 6 -1 11 2 17 5 13 3 -3 4 -12 1 -19z m-270 -141 c-2 -23 -3 -1 -3 48 0 50 1 68 3 42 2 -26 2 -67 0 -90z m260 66 c-3 -10 -5 -4 -5 12 0 17 2 24 5 18 2 -7 2 -21 0 -30z m113 -169 c0 -6 -65 -34 -80 -34 -24 0 -7 17 28 27 48 14 52 14 52 7z m-400 -84 c0 -13 -70 -13 -90 0 -11 7 0 10 38 10 28 0 52 -4 52 -10z"/>
<path d="M4800 2030 c0 -7 3 -10 7 -7 3 4 3 10 0 14 -4 3 -7 0 -7 -7z"/>
<path d="M4633 1985 c3 -11 11 -40 17 -64 6 -23 13 -41 15 -39 6 5 -22 108 -31 117 -3 3 -4 -3 -1 -14z"/>
<path d="M4802 1980 c0 -14 2 -19 5 -12 2 6 2 18 0 25 -3 6 -5 1 -5 -13z"/>
<path d="M4716 1967 c3 -10 9 -15 12 -12 3 3 0 11 -7 18 -10 9 -11 8 -5 -6z"/>
<path d="M4804 1825 c0 -71 1 -99 3 -62 2 37 2 96 0 130 -2 34 -3 4 -3 -68z"/>
<path d="M4727 1885 c3 -33 7 -62 9 -64 8 -8 2 74 -7 99 -5 16 -6 4 -2 -35z"/>
<path d="M4670 1850 c0 -7 3 -10 7 -7 3 4 3 10 0 14 -4 3 -7 0 -7 -7z"/>
<path d="M4686 1805 c14 -58 24 -83 18 -40 -3 22 -10 47 -15 55 -6 10 -7 5 -3 -15z"/>
<path d="M4742 1785 c0 -16 2 -22 5 -12 2 9 2 23 0 30 -3 6 -5 -1 -5 -18z"/>
<path d="M4748 1713 c5 -21 7 -23 10 -9 2 10 0 22 -6 28 -6 6 -7 0 -4 -19z"/>
<path d="M4711 1704 c0 -11 3 -14 6 -6 3 7 2 16 -1 19 -3 4 -6 -2 -5 -13z"/>
</g>
<g id="layer117" fill="#ca940f" stroke="none">
<path d="M4701 2231 c-211 -127 -337 -274 -421 -492 -45 -118 -51 -170 -57 -501 l-5 -318 582 0 582 0 -5 313 c-5 326 -13 393 -57 505 -72 186 -185 331 -343 443 -78 55 -158 99 -180 99 -8 0 -51 -22 -96 -49z m44 -21 c-3 -5 -12 -10 -18 -10 -7 0 -6 4 3 10 19 12 23 12 15 0z m-50 -30 c-3 -5 -12 -10 -18 -10 -7 0 -6 4 3 10 19 12 23 12 15 0z m-60 -40 c-3 -5 -12 -10 -18 -10 -7 0 -6 4 3 10 19 12 23 12 15 0z m-45 -34 c0 -3 -5 -8 -12 -12 -7 -4 -8 -3 -4 4 7 12 16 16 16 8z m315 -28 c22 -5 57 -21 79 -35 l38 -25 -6 -71 c-6 -78 -14 -116 -27 -133 -5 -6 -10 -24 -12 -40 -4 -31 -16 -66 -27 -74 -16 -12 -60 -122 -60 -150 0 -97 -82 -153 -145 -97 -19 17 -28 37 -36 85 -9 57 -42 149 -59 162 -11 8 -23 43 -27 74 -2 16 -7 34 -12 40 -11 14 -22 60 -27 116 -3 25 -7 51 -9 58 -8 21 52 71 104 86 54 16 169 19 226 4z m-435 -92 c0 -3 -5 -8 -12 -12 -7 -4 -8 -3 -4 4 7 12 16 16 16 8z m720 -67 c15 -28 5 -23 -15 7 -9 15 -12 23 -6 20 6 -4 16 -16 21 -27z m-863 -176 c-4 -3 -7 0 -7 7 0 7 3 10 7 7 3 -4 3 -10 0 -14z m950 0 c-4 -3 -7 0 -7 7 0 7 3 10 7 7 3 -4 3 -10 0 -14z m-960 -30 c-4 -3 -7 0 -7 7 0 7 3 10 7 7 3 -4 3 -10 0 -14z m970 0 c-4 -3 -7 0 -7 7 0 7 3 10 7 7 3 -4 3 -10 0 -14z m-227 -155 c0 -9 3 -9 11 -1 12 12 49 6 49 -8 0 -5 7 -9 15 -9 22 0 18 -25 -8 -56 l-23 -26 20 -89 c18 -80 23 -89 47 -98 l28 -10 4 62 c3 53 3 49 5 -25 l2 -88 58 0 c40 0 53 -3 42 -10 -8 -5 -34 -10 -57 -10 -36 0 -43 -3 -43 -19 0 -16 9 -21 48 -26 71 -10 74 -14 9 -13 -78 2 -91 -17 -36 -50 51 -30 44 -40 -9 -13 -39 20 -82 19 -82 -3 0 -6 -9 -24 -19 -40 l-19 -28 -13 23 c-7 13 -16 44 -20 69 l-6 45 -2 -45 c0 -25 -8 -56 -18 -69 l-16 -24 -18 34 c-9 19 -15 37 -13 40 2 4 -7 10 -21 13 -18 5 -40 -2 -73 -20 l-47 -26 31 30 c17 16 37 31 43 33 7 3 10 11 6 19 -4 11 -20 15 -63 13 l-57 -2 53 10 52 11 0 49 c0 37 -4 49 -15 49 -23 0 -89 29 -82 36 3 4 26 -1 51 -9 l45 -15 4 31 c2 18 5 -5 5 -50 1 -46 4 -83 7 -83 4 0 19 7 35 15 39 20 39 39 0 32 -36 -8 -39 5 -5 21 14 6 25 16 25 20 0 5 -11 7 -25 4 -15 -2 -25 0 -25 7 0 6 9 11 19 11 26 0 30 8 52 108 l19 86 -25 26 c-28 29 -32 50 -10 50 8 0 15 4 15 9 0 8 16 16 43 20 4 0 7 -4 7 -11z m147 -30 c-3 -8 -6 -5 -6 6 -1 11 2 17 5 13 3 -3 4 -12 1 -19z m-270 -141 c-2 -23 -3 -1 -3 48 0 50 1 68 3 42 2 -26 2 -67 0 -90z m260 66 c-3 -10 -5 -4 -5 12 0 17 2 24 5 18 2 -7 2 -21 0 -30z m-930 -5 c-3 -8 -6 -5 -6 6 -1 11 2 17 5 13 3 -3 4 -12 1 -19z m1070 0 c-3 -8 -6 -5 -6 6 -1 11 2 17 5 13 3 -3 4 -12 1 -19z m-27 -164 c0 -6 -65 -34 -80 -34 -24 0 -7 17 28 27 48 14 52 14 52 7z m-400 -84 c0 -13 -70 -13 -90 0 -11 7 0 10 38 10 28 0 52 -4 52 -10z"/>
<path d="M4710 2010 c0 -7 3 -10 7 -7 3 4 3 10 0 14 -4 3 -7 0 -7 -7z"/>
<path d="M4803 1900 c0 -30 2 -43 4 -27 2 15 2 39 0 55 -2 15 -4 2 -4 -28z"/>
<path d="M4660 1890 c0 -7 3 -10 7 -7 3 4 3 10 0 14 -4 3 -7 0 -7 -7z"/>
<path d="M4729 1868 c4 -28 6 -29 9 -9 2 13 0 27 -5 32 -6 6 -7 -3 -4 -23z"/>
<path d="M4688 1793 c5 -21 7 -23 10 -9 2 10 0 22 -6 28 -6 6 -7 0 -4 -19z"/>
<path d="M4740 1800 c0 -7 3 -10 7 -7 3 4 3 10 0 14 -4 3 -7 0 -7 -7z"/>
<path d="M4700 1740 c0 -7 3 -10 7 -7 3 4 3 10 0 14 -4 3 -7 0 -7 -7z"/>
<path d="M4802 1720 c0 -14 2 -19 5 -12 2 6 2 18 0 25 -3 6 -5 1 -5 -13z"/>
<path d="M4750 1720 c0 -7 3 -10 7 -7 3 4 3 10 0 14 -4 3 -7 0 -7 -7z"/>
<path d="M5150 1244 c0 -8 4 -14 9 -14 5 0 16 -3 25 -6 10 -4 16 -1 16 9 0 8 -11 17 -25 19 -17 4 -25 1 -25 -8z"/>
<path d="M5140 1198 c0 -7 14 -21 30 -30 30 -17 30 -17 30 6 0 23 -17 36 -46 36 -8 0 -14 -6 -14 -12z"/>
<path d="M4973 1154 c-22 -9 -31 -19 -27 -29 5 -13 9 -13 18 -3 6 7 20 21 31 31 23 20 21 20 -22 1z"/>
<path d="M5130 1164 c0 -3 10 -14 23 -24 30 -25 14 -37 -20 -15 -15 10 -22 12 -15 4 16 -17 16 -37 0 -21 -17 17 -33 15 -18 -3 17 -20 53 -19 73 3 23 25 22 29 -13 47 -16 9 -30 13 -30 9z"/>
<path d="M4993 1121 c-12 -10 -19 -21 -16 -25 12 -11 20 -6 31 19 14 30 13 30 -15 6z"/>
<path d="M5025 1110 c-10 -11 -13 -20 -7 -20 6 0 16 9 22 20 6 11 9 20 7 20 -2 0 -12 -9 -22 -20z"/>
<path d="M5027 1082 c-12 -2 -17 -11 -15 -25 5 -31 25 -32 32 -1 8 30 7 32 -17 26z"/>
<path d="M5090 1063 c0 -35 16 -45 28 -19 11 25 7 36 -15 36 -7 0 -13 -8 -13 -17z"/>
</g>
<g id="layer118" fill="#dd9a48" stroke="none">
<path d="M4701 2231 c-211 -127 -337 -274 -421 -492 -45 -118 -51 -170 -57 -501 l-5 -318 582 0 582 0 -5 313 c-5 326 -13 393 -57 505 -72 186 -185 331 -343 443 -78 55 -158 99 -180 99 -8 0 -51 -22 -96 -49z m149 -11 c55 -28 50 -35 -5 -8 -43 21 -46 21 -80 5 -48 -23 -58 -21 -15 3 44 24 52 24 100 0z m-155 -38 c-34 -29 -87 -63 -91 -59 -2 2 17 18 43 36 46 29 68 40 48 23z m220 -2 c3 -5 4 -10 1 -10 -3 0 -8 5 -11 10 -3 6 -4 10 -1 10 3 0 8 -4 11 -10z m30 -20 c3 -5 4 -10 1 -10 -3 0 -8 5 -11 10 -3 6 -4 10 -1 10 3 0 8 -4 11 -10z m30 -20 c3 -5 4 -10 1 -10 -3 0 -8 5 -11 10 -3 6 -4 10 -1 10 3 0 8 -4 11 -10z m-405 -55 c-13 -14 -26 -22 -29 -19 -3 3 5 14 19 24 34 27 38 25 10 -5z m461 8 c13 -16 12 -17 -3 -4 -17 13 -22 21 -14 21 2 0 10 -8 17 -17z m-74 -33 c50 -24 77 -56 68 -82 -2 -7 -6 -32 -9 -54 -5 -42 -22 -116 -33 -144 -3 -8 -7 -19 -8 -25 -2 -17 -17 -49 -35 -75 -19 -27 -46 -112 -55 -172 -10 -63 -69 -94 -129 -67 -30 14 -34 24 -52 112 -13 67 -20 86 -61 157 -33 59 -71 234 -65 302 2 18 43 42 107 64 65 21 209 13 272 -16z m-447 -33 c0 -2 -14 -16 -32 -33 l-32 -29 25 32 c20 27 39 41 39 30z m707 -152 c9 -16 13 -28 10 -25 -10 9 -77 112 -77 118 0 9 50 -60 67 -93z m-804 33 c-41 -62 -51 -73 -33 -38 14 28 59 90 65 90 2 0 -12 -24 -32 -52z m-86 -165 c-4 -3 -7 0 -7 7 0 7 3 10 7 7 3 -4 3 -10 0 -14z m950 0 c-4 -3 -7 0 -7 7 0 7 3 10 7 7 3 -4 3 -10 0 -14z m-960 -30 c-4 -3 -7 0 -7 7 0 7 3 10 7 7 3 -4 3 -10 0 -14z m970 0 c-4 -3 -7 0 -7 7 0 7 3 10 7 7 3 -4 3 -10 0 -14z m-986 -44 c-5 -13 -10 -19 -10 -12 -1 15 10 45 15 40 3 -2 0 -15 -5 -28z m1008 -9 c0 -10 -3 -8 -9 5 -12 27 -12 43 0 25 5 -8 9 -22 9 -30z m-1022 -57 c-4 -3 -7 0 -7 7 0 7 3 10 7 7 3 -4 3 -10 0 -14z m1030 0 c-4 -3 -7 0 -7 7 0 7 3 10 7 7 3 -4 3 -10 0 -14z m-379 -189 c3 -125 6 -145 19 -140 8 3 19 6 24 6 5 0 9 8 9 18 0 9 9 50 18 89 l19 73 -24 22 c-26 24 -31 58 -9 58 8 0 16 5 18 10 7 22 79 21 114 -1 37 -22 36 -36 -4 -72 -19 -17 -19 -22 -7 -57 7 -21 17 -59 20 -84 7 -43 25 -66 52 -66 4 0 8 63 8 139 0 80 4 144 10 150 7 7 10 -39 10 -137 0 -161 -4 -152 65 -137 31 7 33 6 21 -8 -7 -9 -28 -19 -47 -23 -70 -13 -24 -51 51 -42 24 3 35 0 35 -9 0 -7 -3 -12 -7 -12 -5 1 -32 1 -60 0 -45 -1 -53 -4 -53 -20 0 -15 10 -20 50 -26 70 -10 66 -30 -4 -21 -30 3 -57 2 -60 -3 -4 -5 12 -24 34 -41 52 -41 44 -50 -14 -16 -48 28 -72 26 -87 -8 -6 -11 -16 -32 -23 -45 l-14 -23 -13 23 c-7 13 -16 47 -20 74 l-6 50 -2 -50 c0 -28 -8 -61 -17 -73 l-16 -23 -22 42 c-32 59 -47 65 -95 34 -44 -27 -51 -29 -51 -16 0 5 16 19 35 32 52 36 46 50 -19 43 -33 -4 -56 -2 -60 4 -4 7 14 13 49 17 44 6 55 11 53 24 -2 11 -16 17 -48 19 -55 4 -79 22 -29 22 49 0 79 10 79 26 0 8 -9 14 -20 14 -24 0 -84 29 -77 36 3 3 22 1 44 -5 21 -6 41 -11 44 -11 10 0 18 212 10 263 -6 35 -5 45 3 37 7 -7 12 -68 14 -156z m-661 139 c-4 -3 -7 0 -7 7 0 7 3 10 7 7 3 -4 3 -10 0 -14z m1050 0 c-4 -3 -7 0 -7 7 0 7 3 10 7 7 3 -4 3 -10 0 -14z m-1060 -130 c-3 -10 -5 -2 -5 17 0 19 2 27 5 18 2 -10 2 -26 0 -35z m1070 0 c-3 -10 -5 -2 -5 17 0 19 2 27 5 18 2 -10 2 -26 0 -35z m-937 -287 c0 -3 -5 -8 -12 -12 -7 -4 -8 -3 -4 4 7 12 16 16 16 8z m137 -3 c-4 -3 -10 -3 -14 0 -3 4 0 7 7 7 7 0 10 -3 7 -7z"/>
</g>
<g id="layer119" fill="#fcd116" stroke="none">
<path d="M4701 2231 c-211 -127 -337 -274 -421 -492 -45 -118 -51 -170 -57 -501 l-5 -318 582 0 582 0 -5 313 c-5 326 -13 393 -57 505 -72 186 -185 331 -343 443 -78 55 -158 99 -180 99 -8 0 -51 -22 -96 -49z m149 -11 c55 -28 50 -35 -5 -8 -43 21 -46 21 -80 5 -48 -23 -58 -21 -15 3 44 24 52 24 100 0z m-155 -38 c-34 -29 -87 -63 -91 -59 -2 2 17 18 43 36 46 29 68 40 48 23z m220 -2 c3 -5 4 -10 1 -10 -3 0 -8 5 -11 10 -3 6 -4 10 -1 10 3 0 8 -4 11 -10z m30 -20 c3 -5 4 -10 1 -10 -3 0 -8 5 -11 10 -3 6 -4 10 -1 10 3 0 8 -4 11 -10z m30 -20 c3 -5 4 -10 1 -10 -3 0 -8 5 -11 10 -3 6 -4 10 -1 10 3 0 8 -4 11 -10z m-405 -55 c-13 -14 -26 -22 -29 -19 -3 3 5 14 19 24 34 27 38 25 10 -5z m461 8 c13 -16 12 -17 -3 -4 -17 13 -22 21 -14 21 2 0 10 -8 17 -17z m-74 -33 c50 -24 77 -56 68 -82 -2 -7 -6 -32 -9 -54 -5 -42 -22 -116 -33 -144 -3 -8 -7 -19 -8 -25 -2 -17 -17 -49 -35 -75 -19 -27 -46 -112 -55 -172 -10 -63 -69 -94 -129 -67 -30 14 -34 24 -52 112 -13 67 -20 86 -61 157 -33 59 -71 234 -65 302 2 18 43 42 107 64 65 21 209 13 272 -16z m-447 -33 c0 -2 -14 -16 -32 -33 l-32 -29 25 32 c20 27 39 41 39 30z m707 -152 c9 -16 13 -28 10 -25 -10 9 -77 112 -77 118 0 9 50 -60 67 -93z m-804 33 c-41 -62 -51 -73 -33 -38 14 28 59 90 65 90 2 0 -12 -24 -32 -52z m-86 -165 c-4 -3 -7 0 -7 7 0 7 3 10 7 7 3 -4 3 -10 0 -14z m950 0 c-4 -3 -7 0 -7 7 0 7 3 10 7 7 3 -4 3 -10 0 -14z m-960 -30 c-4 -3 -7 0 -7 7 0 7 3 10 7 7 3 -4 3 -10 0 -14z m970 0 c-4 -3 -7 0 -7 7 0 7 3 10 7 7 3 -4 3 -10 0 -14z m-986 -44 c-5 -13 -10 -19 -10 -12 -1 15 10 45 15 40 3 -2 0 -15 -5 -28z m1008 -9 c0 -10 -3 -8 -9 5 -12 27 -12 43 0 25 5 -8 9 -22 9 -30z m-1022 -57 c-4 -3 -7 0 -7 7 0 7 3 10 7 7 3 -4 3 -10 0 -14z m1030 0 c-4 -3 -7 0 -7 7 0 7 3 10 7 7 3 -4 3 -10 0 -14z m-379 -189 c3 -125 6 -145 19 -140 8 3 19 6 24 6 5 0 9 8 9 18 0 9 9 50 18 89 l19 73 -24 22 c-26 24 -31 58 -9 58 8 0 16 5 18 10 7 22 79 21 114 -1 37 -22 36 -36 -4 -72 -19 -17 -19 -22 -7 -57 7 -21 17 -59 20 -84 7 -43 25 -66 52 -66 4 0 8 63 8 139 0 80 4 144 10 150 7 7 10 -39 10 -137 0 -161 -4 -152 65 -137 31 7 33 6 21 -8 -7 -9 -28 -19 -47 -23 -70 -13 -24 -51 51 -42 24 3 35 0 35 -9 0 -7 -3 -12 -7 -12 -5 1 -32 1 -60 0 -45 -1 -53 -4 -53 -20 0 -15 10 -20 50 -26 70 -10 66 -30 -4 -21 -30 3 -57 2 -60 -3 -4 -5 12 -24 34 -41 52 -41 44 -50 -14 -16 -48 28 -72 26 -87 -8 -6 -11 -16 -32 -23 -45 l-14 -23 -13 23 c-7 13 -16 47 -20 74 l-6 50 -2 -50 c0 -28 -8 -61 -17 -73 l-16 -23 -22 42 c-32 59 -47 65 -95 34 -44 -27 -51 -29 -51 -16 0 5 16 19 35 32 52 36 46 50 -19 43 -33 -4 -56 -2 -60 4 -4 7 14 13 49 17 44 6 55 11 53 24 -2 11 -16 17 -48 19 -55 4 -79 22 -29 22 49 0 79 10 79 26 0 8 -9 14 -20 14 -24 0 -84 29 -77 36 3 3 22 1 44 -5 21 -6 41 -11 44 -11 10 0 18 212 10 263 -6 35 -5 45 3 37 7 -7 12 -68 14 -156z m-661 139 c-4 -3 -7 0 -7 7 0 7 3 10 7 7 3 -4 3 -10 0 -14z m1050 0 c-4 -3 -7 0 -7 7 0 7 3 10 7 7 3 -4 3 -10 0 -14z m-760 -69 c-3 -3 -12 -4 -19 -1 -8 3 -5 6 6 6 11 1 17 -2 13 -5z m-300 -61 c-3 -10 -5 -2 -5 17 0 19 2 27 5 18 2 -10 2 -26 0 -35z m263 43 c0 -3 -5 -8 -12 -12 -7 -4 -8 -3 -4 4 7 12 16 16 16 8z m807 -43 c-3 -10 -5 -2 -5 17 0 19 2 27 5 18 2 -10 2 -26 0 -35z m-690 -5 c-3 -7 -5 -2 -5 12 0 14 2 19 5 13 2 -7 2 -19 0 -25z m-157 -12 c0 -3 -5 -8 -12 -12 -7 -4 -8 -3 -4 4 7 12 16 16 16 8z m-40 -30 c0 -3 -5 -8 -12 -12 -7 -4 -8 -3 -4 4 7 12 16 16 16 8z m-25 -74 c11 -6 15 -12 8 -12 -7 0 -22 10 -35 23 -13 12 -17 17 -8 11 8 -6 24 -16 35 -22z m282 -14 c-3 -7 -5 -2 -5 12 0 14 2 19 5 13 2 -7 2 -19 0 -25z m-356 -15 c13 -16 12 -17 -3 -4 -17 13 -22 21 -14 21 2 0 10 -8 17 -17z m184 -63 c3 -5 4 -10 1 -10 -3 0 -8 5 -11 10 -3 6 -4 10 -1 10 3 0 8 -4 11 -10z m-130 -10 c3 -5 1 -10 -4 -10 -6 0 -11 5 -11 10 0 6 2 10 4 10 3 0 8 -4 11 -10z m30 -20 c3 -5 4 -10 1 -10 -3 0 -8 5 -11 10 -3 6 -4 10 -1 10 3 0 8 -4 11 -10z m-25 -35 c0 -8 -6 -15 -12 -15 -10 0 -10 -2 0 -9 11 -6 10 -10 -5 -16 -17 -7 -17 -8 2 -15 16 -7 17 -9 3 -9 -20 -1 -32 15 -18 24 6 4 8 10 5 15 -3 5 -1 11 5 15 6 4 8 11 5 16 -4 5 -1 9 4 9 6 0 11 -7 11 -15z m67 -12 c-4 -3 -7 0 -7 7 0 7 3 10 7 7 3 -4 3 -10 0 -14z m73 -1 c0 -7 -5 -10 -11 -6 -6 3 -14 2 -18 -4 -4 -7 -10 -5 -17 6 -10 15 -7 17 17 17 17 0 29 -5 29 -13z m87 -34 c-3 -8 -6 -5 -6 6 -1 11 2 17 5 13 3 -3 4 -12 1 -19z m-174 -5 c-5 -12 -3 -14 8 -8 11 7 10 3 -2 -15 -9 -14 -19 -24 -23 -22 -9 3 -2 17 8 14 5 -2 6 5 2 13 -3 9 -4 21 0 26 9 15 14 10 7 -8z m-67 -40 c-3 -3 0 -15 6 -27 8 -16 8 -18 -1 -10 -15 14 -24 57 -10 48 6 -3 8 -8 5 -11z m179 -3 c3 -5 4 -10 1 -10 -3 0 -8 5 -11 10 -3 6 -4 10 -1 10 3 0 8 -4 11 -10z"/>
<path d="M4801 1984 c0 -11 3 -14 6 -6 3 7 2 16 -1 19 -3 4 -6 -2 -5 -13z"/>
<path d="M4641 1964 c0 -11 3 -14 6 -6 3 7 2 16 -1 19 -3 4 -6 -2 -5 -13z"/>
<path d="M4801 1924 c0 -11 3 -14 6 -6 3 7 2 16 -1 19 -3 4 -6 -2 -5 -13z"/>
<path d="M4732 1870 c0 -14 2 -19 5 -12 2 6 2 18 0 25 -3 6 -5 1 -5 -13z"/>
<path d="M4802 1870 c0 -14 2 -19 5 -12 2 6 2 18 0 25 -3 6 -5 1 -5 -13z"/>
<path d="M4691 1784 c0 -11 3 -14 6 -6 3 7 2 16 -1 19 -3 4 -6 -2 -5 -13z"/>
<path d="M4940 1236 c0 -9 7 -12 20 -9 31 8 34 23 6 23 -16 0 -26 -6 -26 -14z"/>
<path d="M5150 1241 c0 -5 11 -11 25 -13 17 -4 25 -1 25 8 0 8 -11 14 -25 14 -14 0 -25 -4 -25 -9z"/>
<path d="M4958 1203 c-21 -5 -24 -33 -5 -33 14 0 37 20 37 32 0 8 -4 9 -32 1z"/>
<path d="M5140 1201 c0 -11 31 -31 49 -31 6 0 11 7 11 15 0 8 -6 15 -14 15 -8 0 -21 3 -30 6 -9 3 -16 1 -16 -5z"/>
<path d="M4964 1146 c-10 -8 -17 -17 -14 -19 3 -3 16 3 29 14 27 22 15 26 -15 5z"/>
<path d="M5152 1145 c9 -10 21 -16 28 -13 7 2 -1 10 -16 17 -27 12 -28 11 -12 -4z"/>
<path d="M4985 1110 c-3 -5 -1 -10 4 -10 6 0 11 5 11 10 0 6 -2 10 -4 10 -3 0 -8 -4 -11 -10z"/>
<path d="M5019 1103 c-13 -16 -12 -17 4 -4 9 7 17 15 17 17 0 8 -8 3 -21 -13z"/>
<path d="M5095 1110 c3 -5 8 -10 11 -10 3 0 2 5 -1 10 -3 6 -8 10 -11 10 -3 0 -2 -4 1 -10z"/>
<path d="M5137 1105 c3 -8 9 -12 14 -9 12 7 11 11 -5 17 -10 4 -13 1 -9 -8z"/>
<path d="M5021 1071 c-10 -6 -11 -13 -3 -27 10 -18 11 -18 17 -2 10 25 3 39 -14 29z"/>
<path d="M5092 1057 c3 -24 21 -27 26 -4 2 8 -4 17 -13 21 -13 4 -16 1 -13 -17z"/>
</g>
<g id="layer120" fill="#f9ab55" stroke="none">
<path d="M4556 1482 c-22 -5 -52 -37 -66 -69 -5 -13 -16 -23 -25 -23 -8 0 -15 -4 -15 -10 0 -5 -16 -16 -35 -24 -19 -8 -35 -18 -35 -21 0 -3 15 -14 33 -25 17 -11 27 -20 21 -20 -6 0 -23 9 -38 21 -26 20 -28 20 -46 4 -19 -17 -19 -18 5 -47 14 -16 25 -34 25 -40 0 -6 8 -17 18 -25 16 -14 16 -14 0 -9 -10 3 -20 1 -24 -5 -4 -6 -11 -6 -20 2 -11 9 -14 8 -14 -4 0 -10 13 -18 35 -23 33 -6 51 -34 23 -34 -10 0 -10 -2 0 -9 11 -6 10 -10 -5 -16 -17 -7 -17 -8 2 -15 18 -8 18 -9 2 -9 -12 -1 -16 -5 -10 -13 4 -7 8 -19 9 -26 4 -25 14 -26 39 -2 16 15 23 30 20 41 -3 10 -1 20 4 24 7 3 8 0 5 -10 -6 -14 -3 -14 20 -4 27 13 33 28 17 44 -6 7 1 10 20 10 26 0 29 -3 24 -26 -4 -17 1 -34 16 -53 l21 -27 24 22 c13 12 24 30 24 40 0 9 7 22 15 29 30 25 56 102 60 180 2 39 -1 48 -31 75 -19 17 -34 39 -34 49 0 9 -8 19 -17 23 -10 3 -25 11 -33 18 -8 6 -24 10 -34 7z m-21 -272 c3 -5 4 -10 1 -10 -3 0 -8 5 -11 10 -3 6 -4 10 -1 10 3 0 8 -4 11 -10z m-100 -30 c3 -5 4 -10 1 -10 -3 0 -8 5 -11 10 -3 6 -4 10 -1 10 3 0 8 -4 11 -10z m42 -47 c-4 -3 -7 0 -7 7 0 7 3 10 7 7 3 -4 3 -10 0 -14z m-27 -67 c0 -3 -5 -8 -12 -12 -7 -4 -8 -3 -4 4 7 12 16 16 16 8z"/>
</g>
<g id="layer121" fill="#db92a0" stroke="none">
<path d="M4583 1463 c-7 -3 -20 -28 -28 -57 -9 -29 -27 -63 -40 -76 -33 -31 -32 -67 2 -103 24 -24 28 -37 29 -87 0 -43 5 -65 19 -80 l18 -20 24 22 c13 12 23 29 23 39 0 9 7 22 15 29 30 25 56 102 60 180 2 39 -1 48 -30 75 -18 16 -34 38 -36 49 -4 20 -36 36 -56 29z"/>
</g>
<g id="layer122" fill="#f09792" stroke="none">
<path d="M4555 1406 c-9 -29 -27 -63 -40 -76 -33 -31 -32 -67 2 -103 24 -24 28 -37 29 -87 0 -43 5 -65 19 -80 l18 -20 24 22 c13 12 23 29 23 39 0 9 7 22 15 29 30 25 56 102 60 180 2 39 -1 48 -30 75 -18 16 -34 39 -36 49 -2 11 -10 21 -18 24 -9 3 -11 0 -6 -8 6 -9 3 -9 -13 -1 -30 16 -30 16 -47 -43z m72 -38 l-4 -23 -8 22 c-4 13 -11 20 -16 17 -5 -3 -9 0 -9 5 0 6 7 11 15 11 8 0 16 8 16 18 1 11 3 9 6 -5 2 -13 2 -33 0 -45z m-40 -25 c-4 -3 -7 0 -7 7 0 7 3 10 7 7 3 -4 3 -10 0 -14z m30 -30 c-4 -3 -7 0 -7 7 0 7 3 10 7 7 3 -4 3 -10 0 -14z m-40 -50 c-4 -3 -7 0 -7 7 0 7 3 10 7 7 3 -4 3 -10 0 -14z m40 -60 c-3 -10 -5 -4 -5 12 0 17 2 24 5 18 2 -7 2 -21 0 -30z m-30 -30 c-4 -3 -7 0 -7 7 0 7 3 10 7 7 3 -4 3 -10 0 -14z m18 -73 c3 -5 1 -10 -4 -10 -6 0 -11 5 -11 10 0 6 2 10 4 10 3 0 8 -4 11 -10z"/>
</g>
<g id="layer123" fill="#dd9fc0" stroke="none">
<path d="M4573 1440 c-6 -14 -14 -37 -17 -51 -3 -14 -19 -43 -36 -64 -16 -21 -30 -41 -30 -45 0 -4 14 -25 31 -46 28 -35 31 -44 26 -89 -4 -39 -1 -55 13 -73 10 -12 24 -20 32 -17 8 3 28 35 47 70 18 36 37 67 42 71 5 3 7 10 3 15 -3 5 1 20 8 32 9 14 13 39 10 70 -3 38 -10 51 -32 67 -16 11 -30 30 -32 42 -4 31 -38 33 -38 2 0 -30 17 -32 23 -1 2 12 5 -3 5 -33 0 -54 0 -54 -13 -25 -12 27 -14 28 -20 10 -4 -11 -11 -32 -17 -47 -7 -19 -6 -38 2 -64 7 -21 10 -56 6 -81 -6 -47 8 -88 26 -77 7 4 8 3 4 -4 -21 -35 -48 21 -40 82 4 24 1 59 -5 79 -10 29 -9 44 4 85 9 27 15 65 13 83 l-4 34 -11 -25z m44 -187 c0 -68 -1 -71 -6 -28 -5 46 -3 105 4 105 2 0 3 -35 2 -77z m-10 -120 c-3 -10 -5 -4 -5 12 0 17 2 24 5 18 2 -7 2 -21 0 -30z"/>
</g>
<g id="layer124" fill="#ffa1a1" stroke="none">
<path d="M4573 1440 c-6 -14 -14 -37 -17 -51 -3 -14 -19 -43 -36 -64 -16 -21 -30 -41 -30 -45 0 -4 14 -25 31 -46 28 -35 31 -44 26 -89 -4 -39 -1 -55 13 -73 10 -12 24 -20 32 -17 8 3 28 35 47 70 18 36 37 67 42 71 5 3 7 10 3 15 -3 5 1 20 8 32 9 14 13 39 10 70 -3 38 -9 51 -33 68 -16 11 -29 29 -29 39 0 10 -3 21 -7 23 -5 3 -8 -20 -9 -51 -1 -135 -12 -296 -21 -299 -18 -6 -33 46 -27 91 4 24 1 59 -5 79 -10 29 -9 44 4 85 9 27 15 65 13 83 l-4 34 -11 -25z"/>
</g>
<g id="layer125" fill="#ffffff" stroke="none">
<path d="M4701 2231 c-211 -127 -337 -274 -421 -492 -45 -118 -51 -170 -57 -501 l-5 -318 582 0 582 0 -5 313 c-5 326 -13 393 -57 505 -72 186 -185 331 -343 443 -78 55 -158 99 -180 99 -8 0 -51 -22 -96 -49z m142 -7 c142 -73 318 -242 384 -370 99 -189 113 -269 113 -630 l0 -274 -540 0 -540 0 0 279 c0 292 8 372 51 488 52 145 152 292 259 382 60 50 206 141 227 141 8 0 28 -7 46 -16z"/>
<path d="M770 1335 l525 -264 -118 0 -117 -1 -520 260 c-286 143 -524 260 -530 260 -6 0 -10 -35 -10 -85 l0 -85 345 -173 345 -172 -342 -5 -343 -5 -3 -52 -3 -53 720 0 721 0 0 320 0 320 -55 0 -55 0 0 -240 c0 -132 -2 -240 -5 -240 -3 0 -221 108 -485 240 -463 232 -482 240 -537 239 l-58 0 525 -264z"/>
<path d="M1760 1280 l0 -320 720 0 720 0 0 55 0 55 -347 1 -348 0 348 175 c340 171 347 175 347 204 l0 30 -410 -205 -410 -205 -117 1 -118 0 525 264 525 264 -178 0 -177 1 -480 -240 c-264 -132 -482 -240 -485 -240 -3 0 -5 108 -5 240 l0 240 -55 0 -55 0 0 -320z"/>
<path d="M2 588 l3 -53 343 -5 342 -5 -345 -172 c-315 -158 -345 -175 -345 -198 0 -14 5 -25 10 -25 6 0 190 90 410 200 l400 200 117 -1 118 0 -520 -262 -520 -262 170 -3 170 -3 483 240 c265 133 485 241 487 241 3 0 6 -107 7 -237 l3 -238 53 -3 52 -3 0 320 0 321 -721 0 -720 0 3 -52z"/>
<path d="M1760 319 l0 -320 53 3 52 3 3 238 c1 130 4 237 7 237 2 0 222 -108 487 -241 462 -230 485 -240 533 -237 l50 3 -520 262 -520 262 118 0 117 1 520 -260 c286 -143 524 -260 530 -260 6 0 10 35 10 85 l0 85 -347 174 -348 175 348 0 347 1 0 55 0 55 -720 0 -720 0 0 -321z"/>
</g>


</svg>