<svg id="two_stars" xmlns="http://www.w3.org/2000/svg" viewBox="0 0 192 192"><title>two_stars</title><path d="M57.78,66.67C56.31,72.18,54.13,77.5,52.52,83c-.42,1.42-.94,2.82-1.38,4.23-.16.52-.24,1.38-.75,1.69a4.36,4.36,0,0,1-1.91.12H27a21.77,21.77,0,0,0,2.41,1.86c1.95,1.45,4,2.84,5.92,4.28,2.32,1.71,4.67,3.4,7,5.1a27.47,27.47,0,0,0,3.74,2.64c-1.64,5-3.29,10.06-4.91,15.09-.49,1.53-1,3.06-1.49,4.58a17.1,17.1,0,0,0-.84,2.78,32.17,32.17,0,0,0,4.58-3.24q4.68-3.34,9.3-6.75c1.2-.88,2.4-1.76,3.62-2.63.41-.3,1-1,1.57-1s1.06.58,1.45.86c1.21.88,2.4,1.78,3.62,2.64,3.23,2.31,6.43,4.68,9.65,7A47,47,0,0,0,77,125.33a16.68,16.68,0,0,0-.82-2.66c-.36-1.07-.67-2.17-1-3.25-1.14-3.42-2.21-6.85-3.34-10.26-.48-1.45-.91-2.91-1.41-4.35-.16-.47-.57-1.29-.43-1.79s.86-.84,1.23-1.12c1.2-.88,2.42-1.75,3.63-2.62q7-5.1,14-10.16A4.77,4.77,0,0,0,87,89H67c-.47,0-1.25.14-1.63-.19a3.33,3.33,0,0,1-.58-1.38c-.35-1-.66-2.09-1-3.14-1.35-4-2.77-8.1-4-12.19-.38-1.29-.83-2.58-1.26-3.86-.17-.52-.25-1.24-.72-1.57"/><path d="M134,66.67c-1.47,5.51-3.65,10.83-5.26,16.29-.42,1.42-.93,2.82-1.37,4.23-.17.52-.25,1.38-.76,1.69a4.32,4.32,0,0,1-1.9.12H103.2a21,21,0,0,0,2.42,1.86c1.95,1.45,3.95,2.84,5.91,4.28,2.33,1.71,4.67,3.4,7,5.1a27.47,27.47,0,0,0,3.74,2.64c-1.63,5-3.28,10.06-4.91,15.09q-.73,2.3-1.48,4.58a17.13,17.13,0,0,0-.85,2.78,32.84,32.84,0,0,0,4.59-3.24q4.66-3.34,9.29-6.75l3.62-2.63c.42-.3,1-1,1.57-1s1.06.58,1.45.86c1.21.88,2.41,1.78,3.62,2.64,3.24,2.31,6.43,4.68,9.66,7a45.51,45.51,0,0,0,4.34,3.09,14.86,14.86,0,0,0-.82-2.66c-.36-1.07-.67-2.17-1-3.25-1.14-3.42-2.21-6.85-3.34-10.26-.48-1.45-.91-2.91-1.41-4.35a3.82,3.82,0,0,1-.42-1.79c.13-.48.85-.84,1.23-1.12q1.8-1.32,3.62-2.62c4.66-3.4,9.31-6.8,14-10.16a4.77,4.77,0,0,0-1.81-.12h-20c-.47,0-1.24.14-1.62-.19a3.22,3.22,0,0,1-.59-1.38c-.35-1-.66-2.09-1-3.14-1.34-4-2.76-8.1-4-12.19-.38-1.29-.83-2.58-1.25-3.86-.18-.52-.26-1.24-.73-1.57"/></svg>