<?xml version="1.0" encoding="utf-8"?>
<!-- Generator: Adobe Illustrator 24.0.1, SVG Export Plug-In . SVG Version: 6.00 Build 0)  -->
<svg version="1.1" id="katman_1" xmlns="http://www.w3.org/2000/svg" xmlns:xlink="http://www.w3.org/1999/xlink" x="0px" y="0px"
	 viewBox="0 0 192 192" style="enable-background:new 0 0 192 192;" xml:space="preserve">
<style type="text/css">
	.st0{fill:#090909;}
</style>
<g>
	<path class="st0" d="M5,46v100h182V46H5z M14,59c9,2.7,18.2,12.7,28,10c-7.5-2.2-18.5-7.4-24-13h34v17H14V59z M178,136H14v-36
		c11.8-0.1,24.9-9.1,35-15c-12.9,0.1-22.9,10.5-35,14V82h38v18h10V82h38v-9H62V56c8.3,0,20.4-2.2,28,1c-8.4,3.9-17,8.3-25,13
		c13.3-0.1,22.3-11.8,35-13.8c8.3-1.3,17.6-0.2,26-0.2h52V136z"/>
	<path class="st0" d="M92,91.9c-6.5-3.6-12.5-6.8-20-6.9c7.7,6.5,18.7,11.1,28,15C99.2,95.4,95.8,94,92,91.9z"/>
</g>
</svg>
