<?xml version="1.0" encoding="utf-8"?>
<!-- Generator: Adobe Illustrator 24.0.1, SVG Export Plug-In . SVG Version: 6.00 Build 0)  -->
<svg version="1.1" id="katman_1" xmlns="http://www.w3.org/2000/svg" xmlns:xlink="http://www.w3.org/1999/xlink" x="0px" y="0px"
	 viewBox="0 0 192 192" style="enable-background:new 0 0 192 192;" xml:space="preserve">
<path d="M5,47v99h182V47H5z M178,137H14V56h164V137z"/>
<g>
	<path d="M31.7,74.4c-0.1,0-0.2,0-0.2,0c-1.9,0-3.7,0.7-5,2.1c-1.4,1.4-2.1,3.3-2.1,5.2c0.1,3.7,3.1,6.7,6.8,6.8
		c2,0.1,3.8-0.7,5.2-2.1s2.1-3.3,2.1-5.2C38.4,77.5,35.4,74.5,31.7,74.4z"/>
	<g>
		<path d="M31.7,73c2.2,0.1,4.2,1,5.7,2.5l1.1-6.3l-4.9,4l-2.2-5.9l-2.2,5.9l-4.9-4l1.1,6.3C27.1,73.8,29.4,72.9,31.7,73z"/>
		<path d="M25.4,75.4l-6.3-1.1l4,4.9l-5.9,2.2l5.9,2.2l-4,4.9l6.3-1.1C24,86,23,84,23,81.7C22.9,79.4,23.8,77.1,25.4,75.4z"/>
		<path d="M31.2,89.9c-2.2-0.1-4.2-1-5.7-2.5l-1.1,6.3l4.9-4l2.2,5.9l2.2-5.9l4.9,4l-1.1-6.3c-1.6,1.6-3.7,2.5-6,2.5
			C31.4,89.9,31.3,89.9,31.2,89.9z"/>
		<path d="M37.5,87.5l6.3,1.1l-4-4.9l5.9-2.2l-5.9-2.2l4-4.9l-6.3,1.1c1.5,1.5,2.4,3.5,2.5,5.7C40,83.5,39.1,85.8,37.5,87.5z"/>
	</g>
</g>
</svg>
