<?xml version="1.0" encoding="utf-8"?>
<!-- Generator: Adobe Illustrator 24.0.1, SVG Export Plug-In . SVG Version: 6.00 Build 0)  -->
<svg version="1.1" id="katman_1" xmlns="http://www.w3.org/2000/svg" xmlns:xlink="http://www.w3.org/1999/xlink" x="0px" y="0px"
	 viewBox="0 0 192 192" style="enable-background:new 0 0 192 192;" xml:space="preserve">
<style type="text/css">
	.st0{fill:#010101;}
</style>
<path class="st0" d="M5,46v100h182V46H5z M178,136H14V56h164V136z"/>
<polygon class="st0" points="40.3,78.5 41.1,79.3 43,80.8 43.9,81.5 44.9,82.1 45.5,82.5 47,83 46.4,85.1 45.9,87 45.6,88 45,90 
	44.7,90.9 44.4,91.9 44.3,92.5 44,94 45.5,93.2 46.1,92.7 47.1,91.9 48,91.1 49.9,89.5 51.5,88.5 53,88 53.8,89.3 54.3,89.7 
	55.1,90.4 56.9,92 57.9,92.7 58.5,93.2 60,94 59.8,92.5 59.6,91.9 59.3,90.9 58.7,89 58.3,88 57.8,86 57.8,85 57.9,84 58.4,83.1 
	60,81.4 61,80.6 62.9,79.2 63.5,78.8 65,78 64.2,77.3 63.7,77.3 62.9,77.1 62,77 60,77 58.1,77 55,77 54,76 53.9,73.9 53.6,72 
	53.2,70.1 53.1,69.5 53,68 51,68 50.9,69.5 50.6,71.1 50,73 49.7,73.9 49.4,74.9 49.3,75.5 49,77 39,77 39.8,78.1 "/>
</svg>
