<!DOCTYPE svg PUBLIC "-//W3C//DTD SVG 20010904//EN" "http://www.w3.org/TR/2001/REC-SVG-20010904/DTD/svg10.dtd">
<svg version="1.0" xmlns="http://www.w3.org/2000/svg" width="320px" height="213px" viewBox="0 0 3200 2130" preserveAspectRatio="xMidYMid meet">
<g id="layer101" fill="#00247d" stroke="none">
<path d="M0 1065 l0 -1065 1600 0 1600 0 0 1065 0 1065 -1600 0 -1600 0 0 -1065z"/>
</g>
<g id="layer102" fill="#cf142b" stroke="none">
<path d="M0 1775 l0 -355 1600 0 1600 0 0 355 0 355 -1600 0 -1600 0 0 -355z"/>
</g>
<g id="layer103" fill="#4861a1" stroke="none">
</g>
<g id="layer104" fill="#ffcc00" stroke="none">
<path d="M0 355 l0 -355 1600 0 1600 0 0 355 0 355 -1600 0 -1600 0 0 -355z"/>
</g>
<g id="layer105" fill="#a4b1d1" stroke="none">
</g>
<g id="layer106" fill="#f8f9fb" stroke="none">
<path d="M953 1311 c10 -26 8 -32 -14 -50 l-24 -20 33 -1 c26 0 35 -6 44 -27 10 -25 12 -26 16 -8 7 31 22 45 50 45 l26 0 -24 17 c-14 9 -26 17 -28 18 -1 1 2 14 7 29 12 30 5 33 -20 10 -17 -15 -20 -15 -43 0 -34 22 -36 21 -23 -13z"/>
<path d="M2161 1314 c5 -15 8 -28 7 -29 -2 -1 -14 -9 -28 -18 l-24 -17 26 0 c28 0 43 -14 50 -45 4 -18 6 -17 16 8 9 21 18 27 44 27 l33 1 -24 20 c-22 18 -24 24 -14 50 13 34 11 35 -23 13 -23 -15 -26 -15 -43 0 -25 23 -32 20 -20 -10z"/>
<path d="M1111 1137 c-11 -21 -17 -24 -42 -17 -33 10 -36 4 -12 -22 16 -18 16 -21 0 -48 l-17 -28 31 11 c28 11 33 10 50 -12 l19 -23 0 31 c0 23 7 34 28 45 l27 14 -26 7 c-18 4 -29 16 -35 37 l-9 31 -14 -26z"/>
<path d="M2065 1132 c-4 -22 -14 -32 -33 -37 l-27 -7 29 -15 c23 -12 27 -20 24 -44 l-5 -29 24 22 c21 19 28 21 53 11 l30 -11 -17 28 c-16 27 -16 30 0 48 24 26 21 31 -10 23 -23 -6 -31 -3 -44 17 l-17 24 -7 -30z"/>
<path d="M1266 1008 c-3 -10 -8 -24 -10 -32 -3 -8 -17 -16 -33 -18 l-28 -4 27 -13 c23 -12 26 -18 21 -45 l-6 -31 22 19 c21 19 23 19 51 2 33 -19 35 -18 18 18 -9 22 -8 29 7 46 18 20 17 20 -12 20 -23 0 -31 6 -40 28 -8 22 -11 24 -17 10z"/>
<path d="M1914 996 c-5 -21 -12 -26 -37 -26 -29 0 -30 0 -12 -20 15 -17 16 -24 7 -46 -17 -36 -15 -37 18 -18 28 17 30 17 51 -2 l22 -19 -6 31 c-5 27 -2 33 21 44 l27 13 -30 6 c-19 4 -31 13 -33 26 -6 34 -20 40 -28 11z"/>
<path d="M1453 912 c6 -28 3 -34 -18 -44 -33 -15 -32 -26 2 -30 22 -2 29 -10 34 -33 l6 -30 13 28 c12 24 18 27 42 22 32 -7 36 2 11 21 -15 11 -16 17 -6 43 12 34 11 36 -19 20 -16 -9 -25 -6 -45 13 l-26 23 6 -33z"/>
<path d="M1725 920 c-10 -12 -25 -18 -32 -15 -7 3 -20 8 -27 11 -13 5 -13 1 -3 -26 10 -27 10 -33 -6 -44 -25 -19 -21 -28 11 -21 24 5 30 2 42 -22 l13 -28 6 30 c5 23 12 31 34 33 34 4 35 15 2 30 -21 10 -24 16 -19 42 8 35 4 37 -21 10z"/>
</g>


</svg>