<svg id="wave" xmlns="http://www.w3.org/2000/svg" viewBox="0 0 192 192"><defs><style>.cls-1{stroke:#000;stroke-miterlimit:10;stroke-width:3px;}</style></defs><title>wave</title><path class="cls-1" d="M11.21,90.65V97.5c2.38,0,4.58,1,6.78,1.79a23.86,23.86,0,0,0,7.08,1.44,27.78,27.78,0,0,0,8.17-.9c1.32-.37,2.56-.91,3.85-1.36a18.13,18.13,0,0,1,5.77-1.12,19.27,19.27,0,0,1,5.4.67c1.26.35,2.45.89,3.69,1.3a24.41,24.41,0,0,0,7,1.41,27.78,27.78,0,0,0,8.17-.9c1.52-.42,3-1.09,4.46-1.56a22.76,22.76,0,0,1,5.24-.92,21.57,21.57,0,0,1,7.55,1.13c.88.27,1.73.64,2.62.9a30.47,30.47,0,0,0,7.39,1.35,32,32,0,0,0,8.93-.91c1.94-.47,3.78-1.27,5.7-1.78a25,25,0,0,1,4.55-.69,18.45,18.45,0,0,1,6.47.84c1.07.34,2.09.81,3.15,1.17a30.12,30.12,0,0,0,5.7,1.28,25.35,25.35,0,0,0,10.09-1c1.33-.39,2.6-1,3.93-1.37a18.54,18.54,0,0,1,9.32-.49c2.82.62,5.4,1.93,8.24,2.51a25.19,25.19,0,0,0,12.86-.79c1.81-.6,3.53-1.3,5.39-1.72.46-.11.92-.17,1.39-.24.17,0,.4,0,.49-.21a1.4,1.4,0,0,0,.05-.58V90.65a21.58,21.58,0,0,0-6.86,1.41A26,26,0,0,1,167,93.87a20.62,20.62,0,0,1-6.77-.66c-1.27-.34-2.46-.91-3.7-1.31a26.1,26.1,0,0,0-7.16-1.33,25.65,25.65,0,0,0-7.7.93c-1.7.48-3.32,1.21-5,1.71a18,18,0,0,1-4.77.75,19.53,19.53,0,0,1-5.63-.78c-1.69-.49-3.29-1.25-5-1.71a27.05,27.05,0,0,0-8-.9,30.5,30.5,0,0,0-7.09,1.2c-1.6.46-3.14,1.14-4.77,1.52a25.26,25.26,0,0,1-5.93.67,23.4,23.4,0,0,1-6.63-1.13c-1.37-.41-2.69-1-4.08-1.33a29.71,29.71,0,0,0-8.24-.93,27.68,27.68,0,0,0-7.16,1.27c-1.28.39-2.49,1-3.78,1.34a17.66,17.66,0,0,1-6,.77,20.36,20.36,0,0,1-4.39-.74c-1.72-.51-3.36-1.26-5.09-1.74a26.47,26.47,0,0,0-7.62-.9,27.19,27.19,0,0,0-7.09,1.29c-1.25.38-2.43,1-3.69,1.32a20.17,20.17,0,0,1-5.62.78C20.89,94,16.41,90.65,11.21,90.65Z"/><path class="cls-1" d="M11.21,104.2V111a36.65,36.65,0,0,1,4,.85c1.61.49,3.14,1.2,4.77,1.63a25,25,0,0,0,7.93.82,27.83,27.83,0,0,0,6.7-1.33c1.12-.36,2.19-.84,3.32-1.19a18.32,18.32,0,0,1,5.93-.86,20.25,20.25,0,0,1,5.23.94c1.45.46,2.85,1.06,4.32,1.49a24.5,24.5,0,0,0,8.39,1,28.65,28.65,0,0,0,6.62-1.3c1.23-.38,2.39-.94,3.62-1.31A18.89,18.89,0,0,1,78,110.9a25,25,0,0,1,5.09.75c2,.52,3.86,1.31,5.85,1.81a29.15,29.15,0,0,0,8.16.83,32.09,32.09,0,0,0,7.47-1.27c1.2-.34,2.35-.81,3.55-1.16a20.71,20.71,0,0,1,7.08-1,23.44,23.44,0,0,1,4.78.82c1.11.31,2.15.81,3.23,1.17a26.14,26.14,0,0,0,5.86,1.3,25.85,25.85,0,0,0,8.93-.74c1.61-.42,3.11-1.12,4.7-1.6a18.77,18.77,0,0,1,9.55-.54,42.18,42.18,0,0,1,4.77,1.56,29.15,29.15,0,0,0,4,1,25.48,25.48,0,0,0,11.86-.75c1.95-.57,3.79-1.37,5.77-1.86.46-.11.93-.15,1.39-.22.19,0,.47,0,.57-.22a1.47,1.47,0,0,0,.05-.59V104.2c-3.7,0-7,1.68-10.48,2.66a18.93,18.93,0,0,1-5.08.65c-3.4,0-6.36-1.44-9.55-2.38a23.9,23.9,0,0,0-6.16-1,27.21,27.21,0,0,0-7.93,1c-1.76.49-3.41,1.27-5.16,1.76a20.25,20.25,0,0,1-4.09.64c-3.66.26-6.91-1.24-10.32-2.3a24.3,24.3,0,0,0-6.39-1.08,31.59,31.59,0,0,0-8.86,1.07c-1.23.33-2.4.82-3.62,1.19a24.33,24.33,0,0,1-6.93,1.13,22.92,22.92,0,0,1-5.93-.76c-1.77-.47-3.47-1.16-5.23-1.65a28.75,28.75,0,0,0-6.24-1,27.12,27.12,0,0,0-8.78,1.1c-1.67.49-3.25,1.22-4.93,1.66a19.14,19.14,0,0,1-5.16.62,18.9,18.9,0,0,1-5.62-1.07c-1.19-.39-2.34-.9-3.55-1.26a26.49,26.49,0,0,0-8.16-1.06,24.33,24.33,0,0,0-6.16,1c-1.23.35-2.41.87-3.62,1.28a18.42,18.42,0,0,1-7,1.09,20,20,0,0,1-3.77-.57c-1.3-.34-2.51-.88-3.78-1.3A22,22,0,0,0,11.21,104.2Z"/><path class="cls-1" d="M11.21,77.1v6.78a34.45,34.45,0,0,1,4,.85c1.61.49,3.14,1.2,4.77,1.63a25,25,0,0,0,7.93.82,28.33,28.33,0,0,0,6.7-1.33c1.12-.36,2.19-.84,3.32-1.19a17.79,17.79,0,0,1,5.93-.86,20.25,20.25,0,0,1,5.23.94c1.45.46,2.85,1.06,4.32,1.49a24.5,24.5,0,0,0,8.39,1,28.65,28.65,0,0,0,6.62-1.3c1.23-.39,2.39-.94,3.62-1.31A18.6,18.6,0,0,1,78,83.8a25,25,0,0,1,5.09.75c2,.52,3.86,1.31,5.85,1.81a28.78,28.78,0,0,0,8.16.82,32.08,32.08,0,0,0,7.47-1.26c1.2-.34,2.35-.82,3.55-1.17a20.71,20.71,0,0,1,7.08-.94,23.44,23.44,0,0,1,4.78.82c1.11.3,2.15.8,3.23,1.17a26.14,26.14,0,0,0,5.86,1.3,25.85,25.85,0,0,0,8.93-.74c1.61-.42,3.11-1.12,4.7-1.6a18.66,18.66,0,0,1,9.55-.54A42.12,42.12,0,0,1,157,85.77a29.19,29.19,0,0,0,4,1,25.35,25.35,0,0,0,11.86-.76c1.95-.57,3.79-1.36,5.77-1.85.46-.11.93-.15,1.39-.23.19,0,.47,0,.57-.22a1.4,1.4,0,0,0,.05-.58V77.1c-3.7,0-7,1.68-10.48,2.66a18.93,18.93,0,0,1-5.08.65c-3.4,0-6.36-1.44-9.55-2.39a24.32,24.32,0,0,0-6.16-1,27.21,27.21,0,0,0-7.93,1c-1.76.49-3.41,1.27-5.16,1.76a20.25,20.25,0,0,1-4.09.64c-3.66.25-6.91-1.25-10.32-2.3A23.9,23.9,0,0,0,115.49,77a31.59,31.59,0,0,0-8.86,1.07c-1.23.33-2.4.82-3.62,1.19a24.33,24.33,0,0,1-6.93,1.13,22.92,22.92,0,0,1-5.93-.76c-1.77-.47-3.47-1.16-5.23-1.65a28.77,28.77,0,0,0-6.24-1,27.13,27.13,0,0,0-8.78,1.11c-1.67.49-3.25,1.21-4.93,1.66a19.14,19.14,0,0,1-5.16.62,18.9,18.9,0,0,1-5.62-1.07c-1.19-.39-2.34-.9-3.55-1.26A26.19,26.19,0,0,0,42.48,77a24.33,24.33,0,0,0-6.16,1c-1.23.35-2.41.87-3.62,1.27a18.63,18.63,0,0,1-7,1.1,20,20,0,0,1-3.77-.57c-1.3-.35-2.51-.88-3.78-1.31A22.29,22.29,0,0,0,11.21,77.1Z"/></svg>