<?xml version="1.0" encoding="utf-8"?>
<!-- Generator: Adobe Illustrator 24.0.1, SVG Export Plug-In . SVG Version: 6.00 Build 0)  -->
<svg version="1.1" id="katman_1" xmlns="http://www.w3.org/2000/svg" xmlns:xlink="http://www.w3.org/1999/xlink" x="0px" y="0px"
	 viewBox="0 0 192 192" style="enable-background:new 0 0 192 192;" xml:space="preserve">
<g id="yin_and_yang">
	<path d="M86.6,95c5.1-1.9,10.6-1.3,15.8-2.9c9-2.7,15.5-11.8,14.7-21.3c-0.2-2.7-0.9-5.4-1.9-7.9c-6.9-15.9-27.2-13.3-39.9-7.4
		c-4,2-7.7,4.7-10.8,7.9c-16,15.7-18.2,40.7-5.2,59c3.7,5.2,9,10.6,15.1,12.8c-2.2-3.9-3.9-7.3-4.7-11.8
		C67.4,111.6,75.3,99.1,86.6,95z M93.9,63.2c11.4-2.6,15,15.3,3.4,17.8C86.3,83.3,82.8,65.8,93.9,63.2L93.9,63.2z"/>
	<path d="M117.6,56.6c1.1,2.9,3.1,5.3,3.8,8.4c3.1,13.3-3.3,26.5-16.1,31.8c-4.7,2-9.9,1.4-14.8,2.6c-7.8,1.9-15,9-15.7,17.3
		c-0.3,3-0.2,6,0.6,8.8c0.6,2.3,1.6,4.4,2.9,6.4c8,11.5,23.3,10.6,35,5.8c12.7-5.3,22.4-16.1,26.2-29.4
		C144.9,88.9,135.9,65.5,117.6,56.6z M97.4,128.7c-11.3,2.4-14.7-15.3-3.4-17.8S108.9,126.3,97.4,128.7z"/>
</g>
</svg>
